<svg xmlns="http://www.w3.org/2000/svg" version="1.1" xmlns:xlink="http://www.w3.org/1999/xlink" xmlns:svgjs="http://svgjs.com/svgjs" width="600" height="600" preserveAspectRatio="none" viewBox="0 0 600 600"><g mask="url(&quot;#SvgjsMask1417&quot;)" fill="none"><rect width="600" height="600" x="0" y="0" fill="url(#SvgjsLinearGradient1418)"></rect><use xlink:href="#SvgjsPath1419" x="30" y="30" stroke="rgba(188, 196, 181, 0.22)"></use><use xlink:href="#SvgjsPath1420" x="30" y="90" stroke="rgba(188, 196, 181, 0.22)"></use><use xlink:href="#SvgjsPath1419" x="30" y="150" stroke="rgba(188, 196, 181, 0.22)"></use><use xlink:href="#SvgjsPath1421" x="30" y="210" stroke="rgba(188, 196, 181, 0.22)"></use><use xlink:href="#SvgjsPath1420" x="30" y="270" stroke="rgba(188, 196, 181, 0.22)"></use><use xlink:href="#SvgjsPath1422" x="30" y="330" stroke="rgba(188, 196, 181, 0.22)"></use><use xlink:href="#SvgjsPath1419" x="30" y="390" stroke="rgba(188, 196, 181, 0.22)"></use><use xlink:href="#SvgjsPath1419" x="30" y="450" stroke="rgba(188, 196, 181, 0.22)"></use><use xlink:href="#SvgjsPath1423" x="30" y="510" stroke="rgba(188, 196, 181, 0.22)"></use><use xlink:href="#SvgjsPath1419" x="30" y="570" stroke="rgba(188, 196, 181, 0.22)"></use><use xlink:href="#SvgjsPath1419" x="90" y="30" stroke="rgba(188, 196, 181, 0.22)"></use><use xlink:href="#SvgjsPath1420" x="90" y="90" stroke="rgba(188, 196, 181, 0.22)"></use><use xlink:href="#SvgjsPath1422" x="90" y="150" stroke="rgba(188, 196, 181, 0.22)"></use><use xlink:href="#SvgjsPath1422" x="90" y="210" stroke="rgba(188, 196, 181, 0.22)"></use><use xlink:href="#SvgjsPath1420" x="90" y="270" stroke="rgba(188, 196, 181, 0.22)"></use><use xlink:href="#SvgjsPath1421" x="90" y="330" stroke="rgba(188, 196, 181, 0.22)"></use><use xlink:href="#SvgjsPath1423" x="90" y="390" stroke="rgba(188, 196, 181, 0.22)"></use><use xlink:href="#SvgjsPath1420" x="90" y="450" stroke="rgba(188, 196, 181, 0.22)"></use><use xlink:href="#SvgjsPath1420" x="90" y="510" stroke="rgba(188, 196, 181, 0.22)"></use><use xlink:href="#SvgjsPath1419" x="90" y="570" stroke="rgba(188, 196, 181, 0.22)"></use><use xlink:href="#SvgjsPath1423" x="150" y="30" stroke="rgba(188, 196, 181, 0.22)"></use><use xlink:href="#SvgjsPath1419" x="150" y="90" stroke="rgba(188, 196, 181, 0.22)"></use><use xlink:href="#SvgjsPath1419" x="150" y="150" stroke="rgba(188, 196, 181, 0.22)"></use><use xlink:href="#SvgjsPath1420" x="150" y="210" stroke="rgba(188, 196, 181, 0.22)"></use><use xlink:href="#SvgjsPath1420" x="150" y="270" stroke="rgba(188, 196, 181, 0.22)"></use><use xlink:href="#SvgjsPath1422" x="150" y="330" stroke="rgba(188, 196, 181, 0.22)"></use><use xlink:href="#SvgjsPath1422" x="150" y="390" stroke="rgba(188, 196, 181, 0.22)"></use><use xlink:href="#SvgjsPath1422" x="150" y="450" stroke="rgba(188, 196, 181, 0.22)"></use><use xlink:href="#SvgjsPath1420" x="150" y="510" stroke="rgba(188, 196, 181, 0.22)"></use><use xlink:href="#SvgjsPath1422" x="150" y="570" stroke="rgba(188, 196, 181, 0.22)"></use><use xlink:href="#SvgjsPath1419" x="210" y="30" stroke="rgba(188, 196, 181, 0.22)"></use><use xlink:href="#SvgjsPath1420" x="210" y="90" stroke="rgba(188, 196, 181, 0.22)"></use><use xlink:href="#SvgjsPath1419" x="210" y="150" stroke="rgba(188, 196, 181, 0.22)"></use><use xlink:href="#SvgjsPath1422" x="210" y="210" stroke="rgba(188, 196, 181, 0.22)"></use><use xlink:href="#SvgjsPath1422" x="210" y="270" stroke="rgba(188, 196, 181, 0.22)"></use><use xlink:href="#SvgjsPath1422" x="210" y="330" stroke="rgba(188, 196, 181, 0.22)"></use><use xlink:href="#SvgjsPath1419" x="210" y="390" stroke="rgba(188, 196, 181, 0.22)"></use><use xlink:href="#SvgjsPath1422" x="210" y="450" stroke="rgba(188, 196, 181, 0.22)"></use><use xlink:href="#SvgjsPath1420" x="210" y="510" stroke="rgba(188, 196, 181, 0.22)"></use><use xlink:href="#SvgjsPath1422" x="210" y="570" stroke="rgba(188, 196, 181, 0.22)"></use><use xlink:href="#SvgjsPath1419" x="270" y="30" stroke="rgba(188, 196, 181, 0.22)"></use><use xlink:href="#SvgjsPath1424" x="270" y="90" stroke="rgba(188, 196, 181, 0.22)" stroke-width="3"></use><use xlink:href="#SvgjsPath1421" x="270" y="150" stroke="rgba(188, 196, 181, 0.22)"></use><use xlink:href="#SvgjsPath1419" x="270" y="210" stroke="rgba(188, 196, 181, 0.22)"></use><use xlink:href="#SvgjsPath1423" x="270" y="270" stroke="rgba(188, 196, 181, 0.22)"></use><use xlink:href="#SvgjsPath1421" x="270" y="330" stroke="rgba(188, 196, 181, 0.22)"></use><use xlink:href="#SvgjsPath1422" x="270" y="390" stroke="rgba(188, 196, 181, 0.22)"></use><use xlink:href="#SvgjsPath1419" x="270" y="450" stroke="rgba(188, 196, 181, 0.22)"></use><use xlink:href="#SvgjsPath1423" x="270" y="510" stroke="rgba(188, 196, 181, 0.22)"></use><use xlink:href="#SvgjsPath1419" x="270" y="570" stroke="rgba(188, 196, 181, 0.22)"></use><use xlink:href="#SvgjsPath1422" x="330" y="30" stroke="rgba(188, 196, 181, 0.22)"></use><use xlink:href="#SvgjsPath1419" x="330" y="90" stroke="rgba(188, 196, 181, 0.22)"></use><use xlink:href="#SvgjsPath1419" x="330" y="150" stroke="rgba(188, 196, 181, 0.22)"></use><use xlink:href="#SvgjsPath1419" x="330" y="210" stroke="rgba(188, 196, 181, 0.22)"></use><use xlink:href="#SvgjsPath1419" x="330" y="270" stroke="rgba(188, 196, 181, 0.22)"></use><use xlink:href="#SvgjsPath1424" x="330" y="330" stroke="rgba(188, 196, 181, 0.22)" stroke-width="3"></use><use xlink:href="#SvgjsPath1422" x="330" y="390" stroke="rgba(188, 196, 181, 0.22)"></use><use xlink:href="#SvgjsPath1422" x="330" y="450" stroke="rgba(188, 196, 181, 0.22)"></use><use xlink:href="#SvgjsPath1419" x="330" y="510" stroke="rgba(188, 196, 181, 0.22)"></use><use xlink:href="#SvgjsPath1422" x="330" y="570" stroke="rgba(188, 196, 181, 0.22)"></use><use xlink:href="#SvgjsPath1422" x="390" y="30" stroke="rgba(188, 196, 181, 0.22)"></use><use xlink:href="#SvgjsPath1422" x="390" y="90" stroke="rgba(188, 196, 181, 0.22)"></use><use xlink:href="#SvgjsPath1423" x="390" y="150" stroke="rgba(188, 196, 181, 0.22)"></use><use xlink:href="#SvgjsPath1419" x="390" y="210" stroke="rgba(188, 196, 181, 0.22)"></use><use xlink:href="#SvgjsPath1422" x="390" y="270" stroke="rgba(188, 196, 181, 0.22)"></use><use xlink:href="#SvgjsPath1419" x="390" y="330" stroke="rgba(188, 196, 181, 0.22)"></use><use xlink:href="#SvgjsPath1420" x="390" y="390" stroke="rgba(188, 196, 181, 0.22)"></use><use xlink:href="#SvgjsPath1419" x="390" y="450" stroke="rgba(188, 196, 181, 0.22)"></use><use xlink:href="#SvgjsPath1419" x="390" y="510" stroke="rgba(188, 196, 181, 0.22)"></use><use xlink:href="#SvgjsPath1421" x="390" y="570" stroke="rgba(188, 196, 181, 0.22)"></use><use xlink:href="#SvgjsPath1419" x="450" y="30" stroke="rgba(188, 196, 181, 0.22)"></use><use xlink:href="#SvgjsPath1422" x="450" y="90" stroke="rgba(188, 196, 181, 0.22)"></use><use xlink:href="#SvgjsPath1424" x="450" y="150" stroke="rgba(188, 196, 181, 0.22)" stroke-width="3"></use><use xlink:href="#SvgjsPath1422" x="450" y="210" stroke="rgba(188, 196, 181, 0.22)"></use><use xlink:href="#SvgjsPath1420" x="450" y="270" stroke="rgba(188, 196, 181, 0.22)"></use><use xlink:href="#SvgjsPath1420" x="450" y="330" stroke="rgba(188, 196, 181, 0.22)"></use><use xlink:href="#SvgjsPath1422" x="450" y="390" stroke="rgba(188, 196, 181, 0.22)"></use><use xlink:href="#SvgjsPath1422" x="450" y="450" stroke="rgba(188, 196, 181, 0.22)"></use><use xlink:href="#SvgjsPath1422" x="450" y="510" stroke="rgba(188, 196, 181, 0.22)"></use><use xlink:href="#SvgjsPath1422" x="450" y="570" stroke="rgba(188, 196, 181, 0.22)"></use><use xlink:href="#SvgjsPath1419" x="510" y="30" stroke="rgba(188, 196, 181, 0.22)"></use><use xlink:href="#SvgjsPath1419" x="510" y="90" stroke="rgba(188, 196, 181, 0.22)"></use><use xlink:href="#SvgjsPath1420" x="510" y="150" stroke="rgba(188, 196, 181, 0.22)"></use><use xlink:href="#SvgjsPath1422" x="510" y="210" stroke="rgba(188, 196, 181, 0.22)"></use><use xlink:href="#SvgjsPath1422" x="510" y="270" stroke="rgba(188, 196, 181, 0.22)"></use><use xlink:href="#SvgjsPath1419" x="510" y="330" stroke="rgba(188, 196, 181, 0.22)"></use><use xlink:href="#SvgjsPath1422" x="510" y="390" stroke="rgba(188, 196, 181, 0.22)"></use><use xlink:href="#SvgjsPath1419" x="510" y="450" stroke="rgba(188, 196, 181, 0.22)"></use><use xlink:href="#SvgjsPath1419" x="510" y="510" stroke="rgba(188, 196, 181, 0.22)"></use><use xlink:href="#SvgjsPath1420" x="510" y="570" stroke="rgba(188, 196, 181, 0.22)"></use><use xlink:href="#SvgjsPath1419" x="570" y="30" stroke="rgba(188, 196, 181, 0.22)"></use><use xlink:href="#SvgjsPath1423" x="570" y="90" stroke="rgba(188, 196, 181, 0.22)"></use><use xlink:href="#SvgjsPath1419" x="570" y="150" stroke="rgba(188, 196, 181, 0.22)"></use><use xlink:href="#SvgjsPath1419" x="570" y="210" stroke="rgba(188, 196, 181, 0.22)"></use><use xlink:href="#SvgjsPath1419" x="570" y="270" stroke="rgba(188, 196, 181, 0.22)"></use><use xlink:href="#SvgjsPath1419" x="570" y="330" stroke="rgba(188, 196, 181, 0.22)"></use><use xlink:href="#SvgjsPath1419" x="570" y="390" stroke="rgba(188, 196, 181, 0.22)"></use><use xlink:href="#SvgjsPath1419" x="570" y="450" stroke="rgba(188, 196, 181, 0.22)"></use><use xlink:href="#SvgjsPath1420" x="570" y="510" stroke="rgba(188, 196, 181, 0.22)"></use><use xlink:href="#SvgjsPath1420" x="570" y="570" stroke="rgba(188, 196, 181, 0.22)"></use></g><defs><mask id="SvgjsMask1417"><rect width="600" height="600" fill="#ffffff"></rect></mask><linearGradient x1="0%" y1="0%" x2="100%" y2="100%" gradientUnits="userSpaceOnUse" id="SvgjsLinearGradient1418"><stop stop-color="#0e2a47" offset="0"></stop><stop stop-color="rgba(158, 0, 31, 0.3)" offset="1"></stop></linearGradient><path d="M-1 0 a1 1 0 1 0 2 0 a1 1 0 1 0 -2 0z" id="SvgjsPath1421"></path><path d="M-3 0 a3 3 0 1 0 6 0 a3 3 0 1 0 -6 0z" id="SvgjsPath1423"></path><path d="M-5 0 a5 5 0 1 0 10 0 a5 5 0 1 0 -10 0z" id="SvgjsPath1419"></path><path d="M2 -2 L-2 2z" id="SvgjsPath1420"></path><path d="M6 -6 L-6 6z" id="SvgjsPath1422"></path><path d="M30 -30 L-30 30z" id="SvgjsPath1424"></path></defs></svg>