<?xml version="1.0" encoding="UTF-8" standalone="no"?>
<svg
   xmlns:dc="http://purl.org/dc/elements/1.1/"
   xmlns:cc="http://creativecommons.org/ns#"
   xmlns:rdf="http://www.w3.org/1999/02/22-rdf-syntax-ns#"
   xmlns:svg="http://www.w3.org/2000/svg"
   xmlns="http://www.w3.org/2000/svg"
   xmlns:sodipodi="http://sodipodi.sourceforge.net/DTD/sodipodi-0.dtd"
   xmlns:inkscape="http://www.inkscape.org/namespaces/inkscape"
   version="1.1"
   id="svg102"
   width="1920"
   height="1200"
   viewBox="0 0 1920 1200"
   sodipodi:docname="bg.svg"
   inkscape:version="1.0.1 (3bc2e81, 2020-09-07)">
  <metadata
     id="metadata108">
    <rdf:RDF>
      <cc:Work
         rdf:about="">
        <dc:format>image/svg+xml</dc:format>
        <dc:type
           rdf:resource="http://purl.org/dc/dcmitype/StillImage" />
        <dc:title></dc:title>
      </cc:Work>
    </rdf:RDF>
  </metadata>
  <defs
     id="defs106" />
  <sodipodi:namedview
     pagecolor="#ffffff"
     bordercolor="#666666"
     borderopacity="1"
     objecttolerance="10"
     gridtolerance="10"
     guidetolerance="10"
     inkscape:pageopacity="0"
     inkscape:pageshadow="2"
     inkscape:window-width="1338"
     inkscape:window-height="696"
     id="namedview104"
     showgrid="false"
     inkscape:zoom="0.29045668"
     inkscape:cx="525.91476"
     inkscape:cy="393.62739"
     inkscape:window-x="14"
     inkscape:window-y="58"
     inkscape:window-maximized="0"
     inkscape:current-layer="layer2" />
  <g
     inkscape:groupmode="layer"
     id="layer2"
     inkscape:label="Image 1"
     transform="translate(1281.0631,224.68158)">
    <path
       style="fill:#f7513c;stroke:none;fill-opacity:1"
       d="m -1245.0631,-224.68158 18,33 37,65 -91,-29 c 4.3488,5.4027 17.4383,7.1461 24,9.3334 14.947,4.9823 29.9527,9.9651 45,14.6411 6.9437,2.1577 15.5691,3.4824 21.8148,7.3035 8.0549,4.928 13.4282,20.652 18.0352,28.722001 14.051,24.617 28.941,48.923 42.15,74 l -151,35 v 1 c 12.9343,-0.564 26.3942,-5.4559996 39,-8.3489996 23.9986,-5.50700001 48.0414,-10.857 72,-16.5350004 9.656,-2.289 19.363,-4.375 29,-6.742 3.256,-0.799 8.455,-2.931 11.671,-1.257 5.47,2.847 9.222,13.7030004 12.179,18.88300039 l 27.431,47.99999961 c 17.646,31.038 35.383,62.025999 53.14,92.999999 6.79,11.843 20.172,27.605 22.756,41 0.995,5.155 -1.834,11.996 -3.047,17 -2.82,11.627 -5.624,23.302 -8.13,35 -2.652,12.378 -5.831,24.643 -8.576,37 -0.9,4.055 -1.173,11.372 -4.854,13.987 -3.33,2.366 -9.621,2.422 -13.57,3.094 -10.012,1.703 -19.984,3.652 -30,5.333 -13.346,2.238 -26.682,4.609 -40,7.01 -5.497,0.991 -13.512,4.092 -19,2.562 -14.15,-3.944 -30.015,-20.082 -42,-28.562 -32.3436,-22.883 -64.2893,-47.62 -98,-68.424 5.7353,11.225 25.7763,20.116 36,27.421 21.5192,15.377 43.2562,30.496 65,45.554 11.574,8.015 26.496,15.654 36,26.025 l -57,9.576 -80,14.424 v 1 c 32.1137,-2.556 65.3512,-10.874 97,-17 11.149,-2.158 31.038,-9.44 42,-6.472 14.155,3.833 29.937,20.143 42,28.497 10.035,6.949 19.965,14.05 30,21 3.803,2.634 10.792,5.885 12.883,10.159 2.272,4.645 -2.039,20.429 -4.821,24.606 -3.238,4.86 -11.117,7.679 -16.062,10.491 -12.037,6.843 -23.995,13.82 -36,20.719 -38.278,21.999 -76.6197,43.898 -115,65.719 -15.5564,8.845 -40.4094,17.66 -52,31.281 l 54,-30.15 107,-61.271 58,-32.579 c -6.618,19.51 -9.957,40.883 -14.424,61 -7.418,33.4 -15.574,66.652 -23.227,100 -11.253,49.036 -27.638,99.166 -34.349,149 l -147,-6 v 2 l 146,5 c -1.355,16.589 -21.858,21.186 -35,27.753 -36.6206,18.299 -75.6417,33.61 -111,54.247 v 1 l 51,-24.219 92,-44.781 -24.349,106 -34.651,149 c 4.2349,-3.42 4.4771,-11.88 5.6512,-17 3.215,-14.01 6.657,-27.97 9.7732,-42 10.8316,-48.77 22.7496,-97.31 33.9246,-146 2.676,-11.662 5.158,-23.384 8.025,-35 1.116,-4.521 1.543,-10.991 4.364,-14.787 3.879,-5.218 13.504,-8.243 19.262,-10.951 9.088,-4.273 19.359,-1.263 29,-1.262 25.014,0.002 50.013,2.699 75,2.996 69.65299,0.829 139.43199,4.918 208.99999,7.965 18.896,0.827 38.116,2.009 57,2.039 11.836,0.019 27.571,-1.631 38.985,1.318 6.084,1.572 9.165,10.723 12.015,15.682 8.418,14.647 16.776,29.328 25.15,44 2.405,4.21 9.805,12.97 8.429,18 -1.464,5.34 -8.788,10.94 -12.413,15 -17.122,19.17 -49.873,28.48 -73.166,38.86 -61.345,27.34 -121.962,56.43 -183,84.45 -25.633,11.77 -51.307,26.6 -77.99999,35.69 v 1 c 12.00499,-1.23 25.14299,-10.09 35.99999,-15.22 21.905,-10.34 43.986,-20.36 66,-30.47 47.711,-21.91 95.289,-44.1 143,-66 25.747,-11.82 53.536,-22.03 78,-36.31 -9.338,13.26 -21.975,24.94 -32.831,37 -21.531,23.92 -42.806,48.08 -64.338,72 -10.803,12 -26.393,24.66 -33.831,39 l 16.075,-16 32.211,-36 57.545,-64 30.339,-33.36 27.83,-13.64 c 4.833,13.2 14.175,25.78 21.15,38 14.465,25.34 28.917,50.69 43.429,76 8.41,14.67 16.596,38.01 29.421,49 -5.995,-18.95 -20.686,-37.74 -30.579,-55 -20.816,-36.31 -41.161,-72.95 -62.421,-109 11.114,-3.18 21.468,-9.45 32,-14.14 23.45,-10.45 46.667,-21.46 70,-32.169 8.657,-3.974 17.422,-7.81 26,-11.949 3.245,-1.567 7.794,-4.823 11.576,-4.289 4.335,0.612 8.949,5.395 12.424,7.827 10.008,7.005 19.936,14.138 30,21.06 19.448,13.38 38.594,27.2 58,40.64 8.608,5.96 22.425,12.38 28.411,21.06 6.238,9.05 6.189,27.22 8.2,37.96 2.189,11.68 4.589,23.32 6.778,35 0.637,3.4 3.195,10.42 0.837,13.44 -2.323,2.97 -8.795,3.58 -12.226,4.56 -10.315,2.96 -20.684,5.74 -31,8.71 -41.583,11.95 -83.634,26.55 -126,35.29 v 1 l 47,-12.29 82,-23.13 43,-11.58 5.8,34 4.2,13 -6.6,-34 -1.283,-12.58 16.883,-6.42 42,-11.86 17.424,-3.75 22.576,15.27 53,37.2 25,16.14 c 1.23,-9.61 10.05,-19.77 15,-28 l 36.2,-60 c 5.24,-8.74 10.67,-23.17 18.98,-29.27 11.98,-8.78 34.649998,-10.2 48.819998,-14.73 5.44,11.68 18.32,22.31 26.84,32 19.35,21.98 38.49000032,44.16 57.99,66 9.23,10.33 19.52,28.1 32.17,34 -22.73,-32.66 -53.6399997,-62.29 -80.17,-92 -11.22,-12.57 -27.07,-26.04 -34.83,-41 29.32,-3.95 59.5500003,-16.12 88,-24.29 52.6,-15.12 105.340022,-29.77 158.000022,-44.71 l -17.79,84 -25.21,118 c 3.7,-3 3.64,-9.53 4.65,-14 2.93,-12.96 5.74,-25.97 8.35,-39 6.75,-33.74 14.19,-67.39 21.58,-101 3.05,-13.89 3.53,-33.28 10.07,-45.87 2.92,-5.622 13.78,-6.544 19.35,-8.014 18.51,-4.889 32.88,-8.599 52,-8.131 9.99,0.245 20.04,1.011 30,1.015 4,0.002 10.29,-1.161 13.58,1.603 3.44,2.885 4.4,9.319 5.75,13.397 3.75,11.25 7.53,22.61 10.81,34 11.11,38.57 24.17,76.92 36.86,115 3.99,11.96 7.82,23.99 11.66,36 1.54,4.84 2.12,11.83 6.34,15 -12.49,-54 -34.57,-107.04 -51.03,-160 -5.56,-17.9 -14.24,-36.43 -16.97,-55 l 22,1.039 53,2 141,5.922 50,1.753 13,0.889 17,15.397 41,41 -16.96,-19 -37.04,-38 54,2 v -1 l -41,-1.83 -14,-1.198 -25,-24.972 -60,-61 c 34.64,-5.097 70.32,-19.294 104,-29 8.89,-2.562 30.41,-4.627 36,-12 -34.32,9.74 -68.56,19.825 -103,29.151 -9.03,2.446 -18,5.157 -27,7.709 -3.26,0.925 -7.61,3.02 -11,1.812 -8.46,-3.01 -16.13,-15.272 -22.09,-21.672 -14.64,-15.715 -30.67,-30.07 -45.08,-46 -45.78,-50.594 -95.7,-98.635 -143.83,-147 l -21,-21 c -3.05,-3.052 -8.08,-6.638 -9.22,-11 -1.83,-6.99 3.41,-18.965 4.82,-26 1.12,-5.594 1.36,-15.268 5.71,-19.363 9.16,-8.617 27.23,-13.39 38.69,-18.498 4.34,-1.933 9.1,-5.442 14,-5.485 7.32,-0.064 16.12,4.385 23,6.679 15.3,5.102 30.69,9.903 46,15 51.83,17.262 104.06,33.406 156,50.337 30.96,10.091 62.29,22.994 94,30.33 l -22,-8.667 -61,-19.677 -145,-46.989 -89,-28.667 v -1 l 44,-19.691 95,-43.733 33,-15.318 15,-5.766 11,6.798 25,17.85 63,45.281 31,21.579 c -6.53,-11.12 -24.66,-19.279 -35,-26.884 -20.16,-14.834 -40.62,-29.299 -61,-43.825 -10.36,-7.383 -20.61,-16.624 -32,-22.291 l 128,-60 v -1 c -31.21,8.987 -62.6,27.905 -92,41.781 -9.35,4.414 -26.66,16.787 -37,16.18 -4.66,-0.274 -9.38,-5.078 -13,-7.671 l -28,-20.15 c -35.36,-25.338 -70.56,-50.912 -106,-76.14 -10.37,-7.381 -20.63,-14.904 -31,-22.291 -3.36,-2.396 -10.2,-5.573 -11.44,-9.802 -1.89,-6.455 9.44,-19.638 12.76,-24.907 10.57,-16.776999 20.48,-33.997999 30.68,-50.999999 4.43,-7.383 8.61,-18.017 15.19,-23.683 4.01,-3.457 10.81,-3.349 15.81,-4.317 13.62,-2.636 27.34,-4.872 41,-7.25 48,-8.356 96.15,-16.3799996 144,-25.55299961 13.95,-2.67399999 27.99,-5.10399999 42,-7.44399999 4.99,-0.834 13.62,-0.735 17,-4.7530004 l -120,21.4240004 -139,24.5759996 c 12.27,-16.885 22.06,-36.1009996 32.8,-54 4.75,-7.915 9.06,-18.717 17.2,-23.648 17.45,-10.567 37.55,-18.418 56,-27.133 32.18,-15.201 64.17,-31.055001 96,-46.972001 13.61,-6.803 27.39,-13.1952 41,-20.0001 5,-2.5008 12.66,-4.6975 16,-9.2469 -21.83,6.288 -43.64,20.6422 -64,30.752 -48.42,24.038001 -97.11,50.476001 -147,71.248001 l 71,-118.000001 37,-62 -16.4,24 -34.8,58 -40.4,67.000001 -20.61,32.61 -22.79,11.637 -51,24.7530004 32.8,-154.0000014 13.2,-64 h -1 l -33.2,155.000001 -9.59,45 -4.95,18.6100004 -20.26,10.637 -53,25.9999996 -45,22 -17.58,7.178 -10.42,-6.846 -23,-16.439 -62,-44.5609996 -30.000002,-20.5790004 125.170002,-140.000001 49.83,-56 c -6.38,2.04822 -10.71,9.18896 -15.07,14 -10.52,11.5959 -21.09,23.176 -31.35,35 -28.18,32.4648 -57.98,63.535 -86.16,96.000001 -9.08,10.468 -18.57,20.581 -27.7,31 -4.190002,4.769 -9.040002,12.391 -14.720002,15.379 -5.08,2.668 -13.13002,-5.744 -17.00002,-8.519 -15.02,-10.763 -31.17,-18.418 -36.58,-36.86 -5.69,-19.46 -12.43,-38.635001 -18.45,-58.000001 -7.4099997,-23.8702 -17.3399997,-47.655 -22.9699997,-72 l 27.9999997,-15 v -1 l -29,15 -6,-15 5,16 -61,34.7191 -24,12.3241 -22.999998,-15.3332 -46,-33.0009 -23,-14.7091 v 1 l 50,35.5786 39.999998,29.4214 c -35.779998,15.4175 -70.379998,39.267 -103.999998,59.011001 -9.62,5.65 -19.3,11.194 -29,16.708 -3.28,1.862 -8.08,5.941 -12,5.863 -3.97,-0.079 -7.45,-5.033 -10,-7.582 -7.18,-7.176 -13.82,-14.819 -21,-22.000001 -30.007,-30.0072 -59.049,-60.9661 -89,-91 l 117,-26 v -1 c -27.08,0.55859 -57.68,11.9113 -84,18.3743 -8.411,2.0654 -24.614,9.0423 -33,6.8487 -11.581,-3.0294 -18.029,-20.10691 -29,-25.223 l 25,27 -141,32.4244 -61,13.5756 -9.6,-54 -5.4,-19 c 4.64,17.9358 7.573,36.7446 10.75,55 0.723,4.1514 4.8,14.8358 1.607,18.2616 -5.609,6.0183 -25.408,6.7388 -33.357,8.6227 -30.291,7.1789 -60.709,13.8211 -91,20.9997 -42.597,10.096 -85.265,20.049 -128,29.540001 -11.352,2.522 -22.708,5.177 -34,7.95 -4.448,1.093 -11.465,4.036 -16,2.849 -4.718,-1.235 -8.117,-6.772 -11.155,-10.223 -7.043,-8.001 -14.131,-15.957001 -21.127,-24.000001 -6.687,-7.69 -13.473,-15.2939 -20.142,-23 -2.544,-2.9396 -7.069,-6.3112 -7.527,-10.4244 -0.784,-7.0306 3.441,-16.7165 5.067,-23.5756 4.091,-17.2616 8.507,-34.5865 11.884,-52 h -1 l -18,75 -45.845,-52 -22.15499,-23 c 12.68999,20.287 32.56799,37.9396 48.28199,56 4.911,5.6444 17.03,14.9817 18.449,22.4244 1.033,5.4115 -2.593,13.263 -3.731,18.5756 -3.367,15.713 -7.178,31.364001 -10.884,47.000001 -1.313,5.539 -1.656,16.419 -7.249,19.348 -17.906,9.378 -41.53299,-3.628 -58.86699,-9.349 -39.275,-12.962 -78.766,-25.254 -118,-38.332001 -15.068,-5.023 -36.665,-7.774 -49.787,-16.7527 -6.9847,-4.7792 -11.4851,-17.677 -15.6343,-24.9143 l -28.5787,-50 c -4.4754,-7.7872 -8.372,-17.87671 -15,-24 m 1234.999988,18 45,140.000001 c -10.38,-3.992 -19.95,-13.258 -28.9999997,-19.709 -19.7300003,-14.059001 -39.3100003,-28.322001 -59.0000003,-42.431401 -12.88,-9.2263 -31.31,-18.3019 -41,-30.8596 l 53,-30.4214 31,-16.5786 m -235.999998,133.000001 -194,110.85 -55,31.431 -29,15.719 -12.8,-69 -31.2,-165.000001 147,-34.21 39,-9 16,-2.8973 10,8.1073 21,21 63.09,65 25.91,28.000001 m 3,-1 c 36.94,-19.457 72.74,-41.451001 109,-62.150401 l 27,-15.4282 c 3.36,-1.9251 7.889998,-5.6408 11.999998,-4.7493 5.24,1.1358 10.7,6.836 15,9.9065 l 32,23.0004 c 19.35,13.831 38.7800003,27.560001 58.0000003,41.572001 7.6199997,5.556 19.6999997,11.302 25.1599997,19.033 6.3,8.934 8.07,23.494 11.51,33.816 2.69,8.066 9.91,21.5010004 8.83,30.00000039 -0.76,5.89500001 -8.49,11.75799961 -12.22,15.99999961 -11.22,12.794 -22.73,25.349 -34.1099997,38 -11.37,12.633 -22.6800003,25.322 -34.0000003,38 -9.56,10.698999 -17.38,20.609999 -33.17,19.681999 -5.66,-0.333 -10.33,-6.939 -13.99,-10.682 -11.02,-11.305999 -21.83,-22.815999 -33.009998,-33.999999 -28.66,-28.663 -56.34,-58.3359996 -85,-87 -17.35,-17.349 -38.89,-34.966 -53,-55 m -327,-75.000001 c 7.273,19.3848 8.798,42.649 12.611,63.000001 7.247,38.679 15.391,77.2320004 22.139,116 2.444,14.039 5.556,27.961 8,42 0.631,3.627 3.605,11.359 0.632,14.393 -4.303,4.39 -18.552,-3.118 -23.382,-4.726 -22.599,-7.526 -45.399,-14.467 -68,-22 -44.198,-14.733 -88.801,-28.267 -133,-43 -17.127,-5.709 -40.758,-8.8629996 -55.961,-18.5209996 -5.224,-3.319 -9.12,-9.5720004 -13.205,-14.1460004 -9.163,-10.262 -18.273,-20.58 -27.258,-31 -8.535,-9.899 -21.11,-20.067 -26.576,-32 l 39,-8.576 80,-18.540001 185,-42.884 m -365,5 37.155,41 19.845,24.000001 -76,18 12.116,-56.000001 6.884,-27 m -249.99999,21 52,17.026 97,31.630001 55.99999,18.344 v 1 l -147.99999,34 c -14.624,-23.894 -27.962,-48.669 -41.85,-73 -4.341,-7.606001 -15.1679,-20.237001 -15.15,-29.000001 m 373.99999,120.0000014 c -37.335,-8.6380004 -74.626,-23.5420004 -111,-35.6670004 -8.644,-2.881 -17.303,-5.651 -26,-8.359 -2.803,-0.872 -7.911,-1.702 -8.508,-5.199 -1.517,-8.866 9.603,-9.491 15.508,-10.891 14.969,-3.547 29.983,-6.973 45,-10.308 5.365,-1.192 13.535,-4.922 18.996,-3.672 6.895,1.578 14.234,13.936 18.722,19.096 15.438,17.75 34.805,35.053 47.282,55.0000004 M -63.063112,113.31842 c -59.219998,7.524 -118.169998,21.011 -176.999998,31.25 -16.67,2.902 -33.31,6.013 -50,8.831 -7.592,1.282 -16.276,4.293 -24,3.695 -10.262,-0.794 -21.197,-6.704 -31,-9.75 -24.402,-7.584 -48.479,-16.421 -73,-23.602 -26.827,-7.855 -53.471,-16.947 -80,-25.756999 -4.188,-1.391 -24.364,-5.412 -24.364,-10.588 0,-3.043 5.213,-4.999 7.364,-6.229 l 24,-13.7 c 33.365,-19.044 66.634,-38.255 100,-57.3 l 107,-61.131 27,-15.569 c 3.23,-1.841 8.13,-6.018 12,-5.848 4.76,0.21 9.92,7.493 12.91,10.698 10.15,10.894 20.55,21.464 31.09,32 31.33,31.3330004 61.66,63.662 93,95 9.849998,9.848 19.159998,20.16 28.999998,30 5.48,5.483999 12.69,10.903999 16,17.999999 m 102,-174.999999 33,23.709 9.79002,9.331 -5.37002,7.96 -17.42,20.00000039 h -2 l -13.33,-42.00000039 -4.67,-19 m -995.999998,2 -1,8 -14,-4 15,-4 m -2,9 -13.116,58.0000004 -23,98.9999986 -11.75699,51 -6.127,22 -72.85,-126.999999 -41.15,-73 101,-23.424 48.99999,-11.091 18,4.515 m 296,213.999999 v 1 l -82,47.421 -57,32.03 -48,8.973 -110,19.576 -34.85,-61 -15.71699,-29 4.193,-22 9.94999,-43 26.848,-115.9999986 11.576,-51.0000004 96,30.974 36,11.6820004 17.83,6.18699999 16.594,18.15699961 29,33 99.576,112.999999 M 422.93691,-39.681579 c -9.8,18.403 -21.21,36.3590004 -32.32,54 -3.66,5.808 -7.31,16.106 -13.06,20.012 -7.97,5.416 -28.05,6.576 -37.62,6.988 0.94,-11.776 3.29,-34.9579996 9.94,-44.7869996 3.88,-5.743 14.08,-8.0310004 20.06,-10.9690004 17.01,-8.364 34.77,-19.992 53,-25.244 m -213,102 c -28.51,11.851 -63.55,13.94 -94,19.081 -6.31,1.065 -24.960002,7.793 -30.300002,3.887 -5.96,-4.362 -8.40002,-22.99 -10.70002,-29.968 -4.05,-12.276 -7.66,-24.709 -11.67,-37 -1.46,-4.492 -5.26,-11.2229996 -4.42,-15.9999996 1.14,-6.379 9.94,-13.3940004 14.18,-18.0000004 2.93,-3.193 6.69002,-9.315 10.92002,-10.748 3.3,-1.113 6.52,1.854 8.99,3.608 l 22.000002,15.7190004 c 21.37,15.279 42.63,30.7209996 64,45.9999996 9.95,7.114 23.21,13.987 31,23.421 m 138,-64.9999996 c -2.65,10.223 -4.7,20.6529996 -6.8,30.9999996 -0.73,3.576 -1.03,10.496 -3.94,13.012 -6.38,5.508 -25.01,5.363 -33.26,6.741 -29.1,4.86 -60.51,15.003 -90,15.247 6,-9.163 26.15,-14.788 36,-19.309 21.9,-10.055 43.45,-21.162 65,-31.938 10.03,-5.0169996 21.97,-12.78599961 33,-14.7529996 m -1151.00002,2.99999999 272,87.99999961 v 1 l -91,51.999999 -26,14.85 -11.999,6.133 -10.076,-7.983 -22.875,-26 -82.474,-93.999999 -21.152,-24 -6.424,-9.99999961 M 56.936888,3.3184214 c 11.32,25.5779996 20.69002,56.7349996 27.00002,83.9999996 l -121.00002,20.999999 52.83,-59.999999 41.17,-44.9999996 m 320.000022,32.9999996 -55,91.999999 c -1.4,-6.111 2.23,-14.881 3.58,-21 3.21,-14.639999 5.94,-29.390999 9.3,-43.999999 1.16,-5.024 1.33,-16.531 5.68,-19.825 7.7,-5.825 26.93,-5.383 36.44,-7.175 m -39,7 -12.4,57.999999 -8.6,35 c -24.71,-12.304 -47.52,-33.505 -70,-49.578999 -8.67,-6.2 -23.47,-13.283 -29,-22.421 l 120,-21 m -125,20 v 1 h -3 l 3,-1 m -4,1 -1,1 1,-1 m 107,72.999999 c -7.08,16.426 -18.6,31.668 -27.8,47 -19.02,31.698 -38.18,63.304 -57.2,95 -6.8,11.333 -13.46,22.765 -20.42,34 -1.96,3.156 -4.62,9.885 -8.77,10.498 -9.2,1.36 -25.92,-7.564 -34.81,-10.499 -3.5,-1.156 -8.56,-1.949 -10.7,-5.277 -3.09,-4.807 -4.15,-12.287 -5.97,-17.722 -4.53,-13.599 -8.56,-27.372 -13,-41 -13.94,-42.769 -31.28,-86.16 -41.330002,-130 26.190002,-15.286 54.860002,-26.772999 82.000002,-40.247999 10.25,-5.089 23.9,-14.982 36,-13.385 9.97,1.316 21.96,14.191 30,19.924 24.06,17.147999 47.98,34.503999 72,51.708999 m -121,-68.999999 v 1 l -58,28.258 -42.000002,19.741999 -9,-28.999999 109.000002,-20 m -719.00002,19 v 2 h -2 v -2 h 2 m 608.000018,1 10,29.999999 c -23.28002,13.589 -48.82002,23.868 -73.00002,35.756 -6.44,3.167 -19.7799997,13.352 -26.9999997,12.25 -4.3000003,-0.656 -8.1100003,-6.119 -11.0000003,-9.006 -8.18,-8.181 -15.83,-16.822 -24,-25 -2.82,-2.824 -9.43,-7.363 -7.25,-12 6.08,-12.906 22.28,-12.372 34.25,-14.611 32.61,-6.099999 65.4,-11.246999 98.00002,-17.388999 M -660.06311,164.31842 c 20.321,-12.437 41.288,-23.943 62,-35.719 l 51,-29.130999 c 4.936,-2.817 13.947,-10.522 19.891,-9.445 6.188,1.121 6.498,16.346999 7.359,21.294999 3.433,19.726 7.771,39.296 11.326,59 0.795,4.408 5.272,16.472 2.382,20.258 -2.063,2.703 -8.844,2.756 -11.958,3.318 -10.658,1.922 -21.318,3.887 -32,5.671 -16.028,2.676 -31.973,5.83 -48,8.506 -5.92,0.989 -14.043,4.136 -19.996,2.89 -5.207,-1.09 -9.31,-7.855 -12.58,-11.643 -9.288,-10.755 -23.419,-22.105 -29.424,-35 m 139,-72.999999 60,19.666999 143,46.333 v 1 l -185,33 c -7.147,-22.601 -9.148,-47.737 -13.8,-71 -1.548,-7.741 -6.868,-21.558999 -4.2,-28.999999 m 477.999998,19.999999 -8,10 h -1 l -6,-8 15,-2 m -265.999998,48 c 5.044,-3.505 13.005,-3.708 19,-4.75 13.34,-2.317 26.65,-4.774 40,-7.003 45.74,-7.639 91.25,-16.694 137,-24.327 14.359998,-2.397 28.659998,-5.18 42.999998,-7.67 6,-1.041 13.3,-1.524 15.82,5.751 1.61,4.638 -5.58,9.934 -8.24,12.999 -10.59,12.186 -21.62,24.005 -32.41,36 -8.979998,9.976 -18.019998,19.928 -26.879998,30 -3.51,3.984 -8.18,11.836 -13.33,13.647 -3.99,1.404 -10.18,-1.725 -13.96,-2.98 -10.97,-3.645 -22.03,-7.046 -33,-10.668 -41.73,-13.772 -84.21,-31.098 -127,-40.999 m 404.000018,-39 60.000002,189 c -10.6,-3.45 -24.69,-5.494 -34,-11.702 -7.8,-5.203 -13.44,-13.708 -20,-20.298 -15.470002,-15.54 -30.550022,-31.479 -46.000022,-47 -19.65,-19.743 -43.96,-39.223 -59.9999997,-62 l 63.9999997,-31.258 36.00002,-16.742 m -103.0000197,48 -72.0000003,35.247 -35.999998,16.931 -17,-4.178 c 4.09,-9.174 13.17,-16.601 19.83,-24 13.759998,-15.285 27.129998,-30.954 41.149998,-46 4.31,-4.635 14.29,-20.793 21.02,-20.793 4.72,0 9.14,7.766 12.04,10.793 10.07,10.53 22.56,20.08 30.9600003,32 m 325.0000217,-29 -16.79,81 -27.21,127 c -22.24,-5.144 -47.04,-12.981 -68,-22 15.58,-36.149 41.74,-70.231 62,-104 10.62,-17.697 21.38,-35.304 32,-53 5.69,-9.486 10.75,-20.652 18,-29 m 190,135 v 2 l -165,75.781 -22,9.644 -28,-8.092 -15.97,-6.061 1.32,-14.272 8.3,-39 19.77,-93 12.58,-61 21,13.576 39,28 129,92.424 m -644.00002,-58 c -17.8,28.456 -48.36,38.03 -77,52.248 -56.48,28.042 -113.599,54.799 -170,82.999 -19.528,9.764 -39.26,19.21 -59,28.534 -4.504,2.127 -15.766,10.595 -20.721,8.086 -3.619,-1.832 -3.787,-8.407 -4.479,-11.867 -2.395,-11.975 -4.405,-24.024 -6.8,-36 -9.773,-48.875 -21.618,-98.582 -28,-148 42.747,-5.52 85.623,-14.685 128,-22.611 18.976,-3.55 40.713,-10.396 60,-10.31 18.959,0.086 43.03,12.598 61,18.588 38.41,12.804 80,21.934 117,38.333 m -484,-4 -176,31 34,-20.281 67,-38.298 24,-13.702 9.999,-3.902 11.846,11.183 29.155,34 m 739.00002,85 -153.000022,-49.576 -54,-17.424 -24.999998,-9 c 24.819998,-14.485 52.279998,-25.385 77.999998,-38.247 6.64,-3.321 21.63,-13.884 29.0000003,-12.759 4.31,0.658 7.78000002,5.961 10.42,9.006 6.7299997,7.736 14.3399997,14.757 21.5799997,22 18.84,18.844 37.15,38.151 56.00002,57 12.22,12.218 27.070002,24.904 37.000002,39 m -1129.00001,-112 32.84999,57 16.15,30 c -23.042,5.961 -49.27799,11.112 -72.99999,13 l 15.87,-70 8.13,-30 m 506.99999,8 c 8.202,63.51 23.805,127.118 36,190 l -34.424,-38 -59.731,-68 -36,-41 -19.845,-24 c 38.183,-1.639 75.783,-18.684 114,-19 m -428,126 c 33.477,-14.426 65.374,-36.824 97,-55 10.355,-5.951 20.916,-13.64 32,-18.07 11.549,-4.616 25.79,-5.153 38,-7.354 23.652,-4.265 47.295,-8.701 71,-12.656 17.691,-2.952 35.349,-6.161 53,-9.344 5.56,-1.003 15.252,-4.741 20.714,-2.883 8.246,2.804 17.106,17.808 22.71,24.307 17.069,19.797 34.331,39.501 51.742,59 20.398,22.845 40.442,46.011 60.679,69 4.027,4.575 20.109,17.949 17.508,24.61 -1.244,3.183 -6.509,4.725 -9.353,5.966 -8.495,3.707 -16.711,8.033 -25,12.177 -33.796,16.898 -68.203,32.606 -102,49.494 -44.812,22.391 -90.195,43.597 -135,66 -11.935,5.968 -24.058,11.535 -36,17.506 -4.416,2.208 -10.882,7.101 -16,6.615 -4.592,-0.436 -9.443,-4.965 -12.957,-7.663 -12.398,-9.521 -20.091,-31.219 -27.762,-44.705 -22.599,-39.727 -45.473,-79.305 -68.131,-119 -10.3,-18.045 -26.291,-38.081 -32.15,-58 m 813,-97 -36,17 c 9.26,-13.143 19.54,-27.058 36,-17 m 3,0.908 c 6.07,-0.025 13.28,3.86 18.999998,5.759 12.29,4.082 24.66,8.046 37,11.989 41.03,13.108 82.14,26.058 123,39.677 13.64,4.547 27.36002,8.788 41.000022,13.334 7.3,2.432 15.22,4.044 21,9.388 14.76,13.653 38.6,32.758 45,51.945 1.64,4.902 5.41,11.759 4.26,17 -2.31,10.505 -12.56,21.83 -18.06,31 -8.43,14.058 -16.94,36.868 -29.41,47.502 -5.37,4.581 -13.49,6.715 -19.79,9.756 -16.520002,7.974 -33.330022,15.396 -50.000022,23.051 -65.6899997,30.156 -131.91,59.538 -196.999998,90.949 -25.79,12.445 -52.21,23.557 -78,36 -9.33,4.503 -24.63,15.278 -34.96,15.636 -3.81,0.132 -6.69,-4.389 -8.97,-6.894 -6.55,-7.204 -12.79,-14.692 -19.225,-22 -23.741,-26.97 -47.547,-53.888 -71.127,-81 -5.832,-6.706 -11.68,-13.41 -17.643,-20 -2.051,-2.266 -5.95,-5.648 -5.884,-9 0.112,-5.695 9.89,-12.973 13.385,-17 13.792,-15.891 28.235,-31.208 42.138,-47 44.946,-51.047 90.516,-101.623 136.216,-152 8.25,-9.105 16.16,-21.078 26.08,-28.363 6.82,-5.004 15.45,-7.688 22.99,-11.393 5.44,-2.675 12.81,-8.31 19,-8.336 m -47,22.092 -43.83,50 -87.001,97 -52.883,59 -32.286,35 c -25.245,-33.162 -60.913,-60.689 -83,-96 102.118,-42.516 196.89,-102.486 299,-145 m -644,1 v 1 c -29.135,15.346 -57.448,32.591 -86,49 -12.175,6.997 -27.146,19.5 -41,22 l -25,-45 152,-27 m -154.21,28.317 c 5.462,2.362 9.366,13.735 12.21,18.683 3.143,5.468 14.655,19.447 13.172,25.79 -1.138,4.868 -12.187,8.785 -16.172,11.06 l -49.99999,28.571 c -7.793,4.468 -28.148,21.153 -37,17.285 -4.115,-1.798 -11.979,-6.541 -13.799,-10.799 -1.474,-3.451 0.839,-8.489 1.669,-11.907 2.26,-9.304 4.337,-18.667 6.479,-28 2.144,-9.346 2.905,-30.408 9.505,-37.4 3.281,-3.477 12.632,-3.429 17.146,-4.186 13.692,-2.297 27.31199,-5.022 40.99999,-7.333 4.204,-0.71 11.75,-3.511 15.79,-1.764 m -75.78999,12.683 -18,77 c -29.776,-14.086 -56.748,-39.462 -84,-58 l 31,-6.611 71,-12.389 m 1203.00001,56 c -14.01,-9.87 -31.13,-27.984 -41,-42 7.71,1.138 24.88,4.718 30.3,10.51 5.85,6.253 8.78,23.169 10.7,31.49 m -7,-32 43,14 -19,34 c -13.78,-6.425 -16.7,-19.967 -21,-33 -1.51,-4.565 -4.68,-10.279 -3,-15 m -1092.00002,10 78.421,137 43.579,77 -54,-36.975 -111,-77.745 -57.99999,-40.28 v -2 l 64.99999,-37.421 36,-19.579 m 1206.00002,28 c -2.79,9.908 -2.52,30.894 -9.56,38.363 -6.14,6.504 -19.45,9.493 -27.44,13.392 -2.89,1.409 -6.64,3.978 -10,2.888 -9.32,-3.024 -19.92,-18.425 -26.29,-25.643 -3.89,-4.413 -15.14,-11.799 -15.41,-18 -0.14,-3.367 3.25,-7.258 4.9,-10 4.83,-8.055 9.62,-16.165 14.8,-24 l 69,23 m 43,13 -13,7.781 -37,16.219 8,-37 42,13 m -145,-12 c 6.26,6.263 12.42,11.061 5,19 l -5,-19 m 12,12 42,44 -33,14 c -4.75,-14.603 -21.8,-45.587 -9,-58 m -1236.00001,5 15,12 -22,12 7,-24 m 1229.00001,7 15,48 -61,27 28.6,-48 17.4,-27 m -976.00002,180 -61,29.742 -164.99999,80.039 -58,28.466 -29,13.323 -19,-0.57 c 1.047,-24.329 10.904,-50.276 16.349,-74 12.088,-52.673 25.33,-105.16 36.651,-158 4.221,-19.703 8.762,-39.446 13.627,-59 1.66,-6.675 1.966,-17.56 7.517,-22.211 4.422,-3.705 15.937,-11.704 21.856,-11.156 5.202,0.481 10.86,6.189 15,9.087 11.005,7.703 22.05799,15.347 32.99999,23.139 43.091,30.686 86.509,60.998 130,91.116 20.397,14.126 47.191,26.873 58,50.025 m 1064.00002,-165 -9,44 c -9.49,-4.44 -20.97,-18.435 -27,-27 l 36,-17 m -727.00002,2 c 19.77,24.28 41.038,47.806 62.075,71 4.557,5.024 21.212,18.805 19.788,26 -1.296,6.552 -11.359,14.196 -15.777,19 -12.363,13.443 -26.585,27.09 -37.086,42 h -1 l -22.75,-118 -5.251,-28 0.001,-12 m -3,2 c 4.79,37.092 13.777,74.293 20.999,111 2.03,10.313 3.813,20.679 5.804,31 0.845,4.377 3.353,10.577 2.304,15 -1.053,4.439 -6.203,8.716 -9.182,12 l -20.756,23 c -24.829,27.587 -49.131,55.681 -74.255,83 -7.578,8.24 -15.148,16.549 -22.49,25 -2.465,2.838 -6.068,8.413 -10.424,7.954 -5.276,-0.555 -11.76,-7.266 -16,-10.234 l -40,-28 -107,-75 c -16.23,-11.361 -39.385,-22.447 -52,-37.72 l 71,-34.781 118,-57.467 84,-40.999 50,-23.753 m 698.00002,148 h -1 c -14.51,-37.892 -28.86,-79.474 -38,-119 l 24,-11.258 10,-2.609 15,14.867 11.51,14 -5.71,29 -15.8,75 m -40,-118 26.67,84 11.83,38 -8.29,41 -19,89 -12.79,60 -5.85,19.396 -16.57,-0.396 -48,-1.961 -169.000022,-6.039 37,-62 77.8,-129 42.780022,-71 19.75,-31.606 21.67,-10.703 42,-18.691 m 64,14 168.04,172 46.97,48 24.99,26 -150,42.151 -52,13.849 c -10.49,-45.363 -28.27,-90.806 -43,-135 -6.02,-18.058 -16.2,-39.109 -18.31,-58 -0.72,-6.418 2.24,-13.753 3.51,-20 2.92,-14.363 6.31,-28.632 9.2,-43 2.84,-14.093 3.82,-33.333 10.6,-46 m -131,17 c -10.62,24.636 -28.380002,47.968 -42.200002,71 -29.03002,48.392 -58.37002,96.607 -87.4000197,145 -11.0200003,18.363 -22.1800003,36.636 -33.2000003,55 -3.21,5.353 -7.75,17.713 -13.58,20.397 -3.73,1.718 -8.75,-0.043 -12.62,-0.308 -9.54,-0.653 -19.46,-0.841 -29,-1.074 -15.889998,-0.39 -32.209998,0.133 -47.999998,-1.729 -3.8,-0.449 -8.35,0.501 -11.96,-0.889 -10.1,-3.896 -20.05,-21.388 -27.21,-29.397 -16.84,-18.868 -33.51,-37.914 -50.11,-57 -7.61,-8.75 -16.56,-17.152 -22.72,-27 l 78,-36.309 155.999998,-72 92,-42.472 52.000022,-23.219 m -503.00002,34 83.282,95 38.718,45 -103,47.309 -48,21.691 -20.197,-105 -5.203,-28 -1.441,-13 17.672,-21 38.169,-42 m -426,54 10,9 -5,2 -5,-11 m 1036.00002,7 35.03,109 25.97,82 -59,16.636 -46,-1.636 8.79,-44 19.21,-90 10,-47 6,-25 m -806.00002,154 c -3.009,6.461 -12.292,18.706 -19.089,21.397 -6.448,2.551 -17.188,0.682 -23.911,-0.111 -9.676,-1.142 -20.258,-1.033 -30,-1.271 -12.349,-0.303 -24.662,-1.014 -37,-1.015 -5.157,0 -14.109,0.84 -18.61,-2.028 -3.87,-2.465 -6.167,-9.104 -8.39,-12.972 l -18.421,-32 -44,-77 c -8.23,-14.355 -18.19,-28.734 -24.579,-44 8.966,-3.572 13.692,1.604 21,6.72 12.338,8.636 24.592,17.403 37,25.939 55.664,38.291 110.138,78.341 166,116.341 m 138,-150 28,145 -44,20.258 -26,11.348 -35,-1.517 -24,-0.968 -34,-23.121 16.715,-20 34.116,-38 52.883,-59 31.286,-34 m -363,2 66.281,116 27.719,50 -402.99999,-15 c 10.98,-9.098 27.209,-14.069 40,-20.258 26.036,-12.598 51.969,-25.405 77.99999,-38 41.046,-19.861 82.222,-39.6 123,-59.989 21.53,-10.765 44.907,-26.1 68,-32.753 m 643,187 -176,-6.999 -49,-1.912 -18.4,-1.117 -2.8,-8.972 -4.8,-24 c 35.19,-20.462 75.669,-36.135 113,-52.424 9.405,-4.104 18.67,-8.602 28,-12.885 3.01,-1.38 7.35,-4.707 10.83,-3.875 8.98,2.146 20.32,21.36 26.33,28.184 16.4,18.639 32.83,37.263 49.12,56 7.92,9.102 17.31,17.753 23.72,28 m 737.00002,28 -144,-5.961 -75,-2.615 -42,-1.424 -18.49,-2.028 -6.51,-16.972 c 48.1,-15.379 97.35,-27.899 146,-41.424 13.03,-3.622 26,-7.448 39,-11.155 4.71,-1.343 12.09,-4.929 17,-3.644 8.69,2.273 16.85,16.067 23,22.223 19.98,20.009 44.72,39.883 61,63 m -989.00002,-70 6,33 -24,-1.039 -47,-1.961 25,-12.309 40,-17.691 m -133,26 v 1 l -49,-2 c 3.087,-4.935 11.787,-18.378 18.004,-18.887 3.447,-0.281 7.38,3.461 9.996,5.311 6.959,4.921 13.935,9.809 21,14.576 m -574.99999,-19 v 1 l -19,9 c 1.085,-13.629 8.079,-10.09 19,-10 m 520.99999,20 -35.831,41 -28.169,30 -27.421,-48 -14.579,-27 61,1.999 45,2.001 m 81,18 v 2 l -92,42.31 -46,20.69 c -1.734,-2.84 -4.712,-6.47 -4.342,-10 0.453,-4.31 5.26,-7.93 7.918,-11 7.624,-8.79 15.529,-17.378 23.349,-26 9.206,-10.15 20.093,-28.493 32.164,-34.972 6.326,-3.395 19.031,-1.125 25.911,-0.314 9.811,1.158 20.498,-1.457 30,1.974 8.203,2.962 15.811,10.421 23,15.312 m 33,-14 v 1 c -8.361,3.244 -21.038,12.953 -30,12.509 -7.434,-0.368 -17.104,-10.286 -23,-14.509 l 21,-0.17 32,1.17 m 80,3 19,102 c -44.878,-24.99 -85.402,-60.26 -128,-89 30.425,-25.115 73.171,-13.024 109,-13 m 1,0 c 59.572,0 119.5,4.355 179,6.961 17,0.744 34.06,0.257 51,1.869 4.81,0.458 11.47,-1.211 15.83,1.198 6.78,3.745 12.39,13.201 17.45,18.972 l 32.56,37 c 3.28,3.72 10.999998,9.67 10.999998,15 0,3.77 -3.58,7.91 -5.44,11 -5.149998,8.58 -11.129998,24.37 -19.589998,29.91 -9.88,6.48 -26.46,8.01 -37.81,11.23 -27.31,7.74 -54.53,16.08 -82,23.23 -11.06,2.88 -22.02,6.18 -33,9.34 -4.38,1.26 -10.412,4.22 -15,3.15 -12.613,-2.96 -27.403,-18.16 -38,-25.58 -12.682,-8.88 -25.363,-17.76 -38,-26.7 -5.467,-3.87 -13.251,-7.6 -17.411,-12.9 -5.241,-6.69 -5.393,-22.37 -6.839,-30.68 -4.233,-24.32 -10.589,-48.521 -13.75,-73 m 699.00002,25 -58,-2 c 9.55,-6.809 26.68,-8.456 38,-11.709 3.56,-1.024 9.93,-4.2 13.58,-2.647 4.26,1.813 5.82,12.284 6.42,16.356 m -351.000022,-12 -14.19,25 -24.81,41 -38.279998,-43 -22.72,-27 99.999998,4 m 238.000022,9 c -0.82,4.246 -1.07,11.032 -3.94,14.437 -2.66,3.153 -9.28,3.767 -13.06,4.853 -10.65,3.06 -21.35,5.94 -32,9 -48.610002,13.97 -97.360022,27.42 -146.0000217,41.29 l -42.0000003,11.84 c -4.89,1.4 -12.16,5.13 -16.91,1.97 -5.25,-3.48 -21.6,-19.87 -21.07,-26.39 0.32,-4.03 4.35,-8.62 6.38,-12 5.62,-9.36 11.38,-18.64 17,-28 3.74,-6.239 10.35,-23.684 17.7,-25.681 5.03,-1.364 11.68,0.679 16.9,0.681 16.03,0.006 32.01000032,1.26 48,1.961 56.13,2.458 112.830022,6.039 169.000022,6.039 m 42,2 v 1 l -44,12 3,-15 41,2 m -886.00002,43 5,10 -24,11 19,-21 m 589.999998,41 -45.999998,13 21.999998,-39 c 9.15,4.46 18.29,17.65 24,26 m -310.999998,-2 54,37.58 37,26.42 -46,13.42 -30,7.58 -11.001,-59 -3.999,-26 m 260,18 c -3.23,10.21 -10.9,19.84 -16.4,29 -11.22,18.7 -22.58,37.3 -33.8,56 -3.73,6.21 -11.05,25.27 -18.01,27.69 -5.73,2 -19.25,-11.05 -23.79,-14.27 -16.62,-11.75 -33.23,-23.54 -50,-35.08 -6.88,-4.73 -17.94,-9.92 -22,-17.34 z"
       id="path313" />
  </g>
</svg>
