<?xml version="1.0" encoding="UTF-8" standalone="no"?>
<svg
   xmlns:dc="http://purl.org/dc/elements/1.1/"
   xmlns:cc="http://creativecommons.org/ns#"
   xmlns:rdf="http://www.w3.org/1999/02/22-rdf-syntax-ns#"
   xmlns:svg="http://www.w3.org/2000/svg"
   xmlns="http://www.w3.org/2000/svg"
   xmlns:sodipodi="http://sodipodi.sourceforge.net/DTD/sodipodi-0.dtd"
   xmlns:inkscape="http://www.inkscape.org/namespaces/inkscape"
   width="46.256939mm"
   height="32.243927mm"
   viewBox="0 0 46.256939 32.243927"
   version="1.1"
   id="svg380"
   inkscape:version="1.0.1 (3bc2e81, 2020-09-07)"
   sodipodi:docname="code-icon.svg">
  <defs
     id="defs374" />
  <sodipodi:namedview
     id="base"
     pagecolor="#ffffff"
     bordercolor="#666666"
     borderopacity="1.0"
     inkscape:pageopacity="0.0"
     inkscape:pageshadow="2"
     inkscape:zoom="1.3121021"
     inkscape:cx="211.90613"
     inkscape:cy="95.952349"
     inkscape:document-units="mm"
     inkscape:current-layer="layer1"
     inkscape:document-rotation="0"
     showgrid="false"
     inkscape:window-width="1338"
     inkscape:window-height="696"
     inkscape:window-x="14"
     inkscape:window-y="58"
     inkscape:window-maximized="0"
     fit-margin-top="0"
     fit-margin-left="0"
     fit-margin-right="0"
     fit-margin-bottom="0" />
  <metadata
     id="metadata377">
    <rdf:RDF>
      <cc:Work
         rdf:about="">
        <dc:format>image/svg+xml</dc:format>
        <dc:type
           rdf:resource="http://purl.org/dc/dcmitype/StillImage" />
        <dc:title></dc:title>
      </cc:Work>
    </rdf:RDF>
  </metadata>
  <g
     inkscape:label="Layer 1"
     inkscape:groupmode="layer"
     id="layer1">
    <path
       id="path424"
       style="fill:#333333;stroke:none;stroke-width:0.264583"
       d="m 27.288021,0.00227733 c -0.112961,-0.0085 -0.241789,0.0066 -0.387575,0.04857 -1.45415,0.418835 -1.936827,4.82318997 -2.268593,6.11435697 -1.659731,6.4539807 -3.461194,12.8717107 -5.162994,19.3145827 -0.254529,0.963348 -2.487086,7.013352 -0.308507,6.756177 1.667139,-0.19685 2.160278,-4.911767 2.493388,-6.227011 1.659202,-6.55267 3.607618,-13.03311 5.290632,-19.5791657 0.211088,-0.821034 2.038072,-6.29922897 0.343649,-6.42751497 z M 12.040372,6.5620843 c -0.909651,-0.02429 -2.1498743,1.114541 -2.6566837,1.511019 -2.3725285,1.855523 -4.7590612,3.6923127 -7.143751,5.5319607 -0.775758,0.598488 -2.32175204,1.462948 -2.23655594,2.621029 0.08573002,1.165225 1.68648724,2.042803 2.50113924,2.691826 2.0849159,1.661583 4.2425855,3.23002 6.350001,4.862234 0.8612188,0.66728 1.9979744,1.837222 3.1594954,1.865003 2.938462,0.07038 -1.627822,-3.652882 -2.1011621,-4.021976 C 9.0294112,20.934996 8.1438482,20.250715 7.2670206,19.553538 5.9247896,18.486209 4.5566292,17.269771 3.0336873,16.483959 c 1.9277549,-2.68023 5.342465,-4.63104 7.9375007,-6.6461057 0.70829,-0.549804 2.463022,-1.670219 1.829345,-2.793111 -0.190301,-0.337145 -0.456943,-0.474559 -0.760161,-0.482658 z m 21.988322,0.0078 c -2.082096,0.06182 1.579335,3.5367327 2.077911,3.9212067 0.879739,0.678127 1.772441,1.337836 2.645833,2.024166 1.565537,1.230048 3.326074,2.339445 4.497917,3.96875 -1.544111,0.788193 -2.868613,1.999501 -4.233334,3.062861 -0.883708,0.688446 -1.770856,1.3706 -2.645833,2.070158 -0.46355,0.370417 -5.018725,4.098028 -2.101165,4.028178 1.161521,-0.02778 2.298277,-1.197723 3.159498,-1.865003 l 6.35,-4.883422 c 0.776817,-0.598223 2.216161,-1.388586 2.446877,-2.423107 0.274902,-1.231371 -1.375052,-2.242569 -2.182293,-2.868044 l -6.35,-4.9066757 c -0.888207,-0.691092 -2.00646,-1.923802 -3.169833,-2.093929 -0.192503,-0.02815 -0.356772,-0.03926 -0.495578,-0.035139 z" />
  </g>
</svg>
