<?xml version="1.0" encoding="UTF-8" standalone="no"?>
<svg
   xmlns:dc="http://purl.org/dc/elements/1.1/"
   xmlns:cc="http://creativecommons.org/ns#"
   xmlns:rdf="http://www.w3.org/1999/02/22-rdf-syntax-ns#"
   xmlns:svg="http://www.w3.org/2000/svg"
   xmlns="http://www.w3.org/2000/svg"
   xmlns:sodipodi="http://sodipodi.sourceforge.net/DTD/sodipodi-0.dtd"
   xmlns:inkscape="http://www.inkscape.org/namespaces/inkscape"
   width="60.635983mm"
   height="46.184055mm"
   viewBox="0 0 60.635983 46.184055"
   version="1.1"
   id="svg8"
   inkscape:version="1.0.1 (3bc2e81, 2020-09-07)"
   sodipodi:docname="demo.svg">
  <defs
     id="defs2" />
  <sodipodi:namedview
     id="base"
     pagecolor="#ffffff"
     bordercolor="#666666"
     borderopacity="1.0"
     inkscape:pageopacity="0.0"
     inkscape:pageshadow="2"
     inkscape:zoom="1.3446667"
     inkscape:cx="32.32643"
     inkscape:cy="62.400422"
     inkscape:document-units="mm"
     inkscape:current-layer="layer1"
     inkscape:document-rotation="0"
     showgrid="false"
     fit-margin-top="0"
     fit-margin-left="0"
     fit-margin-right="0"
     fit-margin-bottom="0"
     inkscape:window-width="1338"
     inkscape:window-height="696"
     inkscape:window-x="14"
     inkscape:window-y="58"
     inkscape:window-maximized="0" />
  <metadata
     id="metadata5">
    <rdf:RDF>
      <cc:Work
         rdf:about="">
        <dc:format>image/svg+xml</dc:format>
        <dc:type
           rdf:resource="http://purl.org/dc/dcmitype/StillImage" />
        <dc:title></dc:title>
      </cc:Work>
    </rdf:RDF>
  </metadata>
  <g
     inkscape:label="Layer 1"
     inkscape:groupmode="layer"
     id="layer1">
    <path
       style="fill:#000000;stroke:none;stroke-width:0.264583"
       d="m 4.3942363,0.4680187 c -4.27716992,0.822325 -4.23332995,4.88225 -4.23332995,8.342736 V 34.210753 c 0,3.049323 -0.86346997,7.5819 1.41008995,10.005219 2.83758,3.024452 9.8777717,1.636448 13.6711557,1.636448 h 27.781249 c 4.201054,0 9.406995,0.832643 13.493749,-0.140759 4.209785,-1.003035 3.96875,-5.186362 3.96875,-8.590491 V 11.721171 c 0,-3.1205753 0.883444,-7.6027493 -1.636448,-9.9669863 -2.982118,-2.797651 -10.168995,-1.410097 -13.973968,-1.410097 H 17.887985 c -4.301542,0 -9.2688287,-0.688366 -13.4937487,0.123931 m 0.52917,2.083779 c 3.923529,-0.804889 8.6933577,-0.09104 12.6999957,-0.09104 h 26.458332 8.995833 c 1.445683,0 3.043767,-0.185923 4.198144,0.867436 1.931458,1.762866 1.093522,6.019906 1.093522,8.3929803 v 23.283332 c 0,2.638161 1.023409,7.683765 -2.381249,8.616421 -3.710781,1.016794 -8.849254,0.114829 -12.7,0.114829 H 16.035902 c -3.112293,0 -10.6463257,1.365515 -12.8908957,-1.093523 -1.68791,-1.849437 -0.86744,-6.097587 -0.86744,-8.431477 V 11.192005 c 0,-2.7283313 -1.0202,-7.8881293 2.64584,-8.6402073 m 2.17731,3.357113 c -1.57758,0.936281 -0.0728,3.277526 1.46621,2.364105 1.5775787,-0.936281 0.0729,-3.277526 -1.46621,-2.364105 m 4.7624957,0 c -1.577578,0.936281 -0.07284,3.277526 1.466215,2.364105 1.577578,-0.936281 0.07287,-3.277526 -1.466215,-2.364105 m 4.762499,0 c -1.577578,0.936281 -0.07284,3.277526 1.466215,2.364105 1.577578,-0.936281 0.07284,-3.277526 -1.466215,-2.364105 M 4.9234063,11.721171 v 0.529167 c 3.37441,0.997426 7.8592057,0.264583 11.3770797,0.264583 h 24.077082 c 4.754562,0 11.05773,1.081141 15.610416,-0.264583 V 11.721171 C 51.435298,10.375448 45.13213,11.456588 40.377568,11.456588 H 16.300486 c -3.517874,0 -8.0026697,-0.732843 -11.3770797,0.264583 z"
       id="path42" />
  </g>
</svg>
