<?xml version="1.0" encoding="UTF-8" standalone="no"?>
<svg
   xmlns:dc="http://purl.org/dc/elements/1.1/"
   xmlns:cc="http://creativecommons.org/ns#"
   xmlns:rdf="http://www.w3.org/1999/02/22-rdf-syntax-ns#"
   xmlns:svg="http://www.w3.org/2000/svg"
   xmlns="http://www.w3.org/2000/svg"
   xmlns:sodipodi="http://sodipodi.sourceforge.net/DTD/sodipodi-0.dtd"
   xmlns:inkscape="http://www.inkscape.org/namespaces/inkscape"
   version="1.1"
   id="svg884"
   width="400"
   height="405.24963"
   viewBox="0 0 400 405.24964"
   sodipodi:docname="email_icon.svg"
   inkscape:version="1.0.1 (3bc2e81, 2020-09-07)">
  <metadata
     id="metadata890">
    <rdf:RDF>
      <cc:Work
         rdf:about="">
        <dc:format>image/svg+xml</dc:format>
        <dc:type
           rdf:resource="http://purl.org/dc/dcmitype/StillImage" />
        <dc:title></dc:title>
      </cc:Work>
    </rdf:RDF>
  </metadata>
  <defs
     id="defs888" />
  <sodipodi:namedview
     pagecolor="#ffffff"
     bordercolor="#666666"
     borderopacity="1"
     objecttolerance="10"
     gridtolerance="10"
     guidetolerance="10"
     inkscape:pageopacity="0"
     inkscape:pageshadow="2"
     inkscape:window-width="1338"
     inkscape:window-height="696"
     id="namedview886"
     showgrid="false"
     fit-margin-top="0"
     fit-margin-left="0"
     fit-margin-right="0"
     fit-margin-bottom="0"
     inkscape:zoom="1.3680209"
     inkscape:cx="208.69565"
     inkscape:cy="176.87346"
     inkscape:window-x="14"
     inkscape:window-y="58"
     inkscape:window-maximized="0"
     inkscape:current-layer="g892" />
  <g
     inkscape:groupmode="layer"
     inkscape:label="Image"
     id="g892">
    <path
       style="fill:#030303;stroke:none;stroke-width:1.03965"
       d="M 183.89719,1.0899083 C 146.74181,6.0067773 113.40866,16.266255 82.385407,38.250151 61.143754,53.302742 42.563579,73.195716 29.144651,95.603573 -36.356965,204.98305 12.484282,354.98305 136.2488,395.34792 c 30.60167,9.97982 62.53023,12.09287 94.26095,7.78748 26.41792,-3.5854 51.85595,-13.65392 74.58009,-27.46331 20.00714,-12.15861 37.38327,-28.01739 51.99475,-46.32939 C 445.3522,218.72149 390.62077,47.372238 255.36978,8.254951 232.99368,1.7834033 207.15479,-1.987779 183.89719,1.0899083 M 103.10624,137.79557 c 13.30219,-3.71791 31.76076,-0.45287 45.57258,-0.45287 h 98.40428 33.14671 c 4.69337,0 10.46504,-0.86087 14.26551,2.53983 6.16736,5.51896 3.34368,20.19026 3.34368,27.72104 v 76.17391 c 0,8.59305 3.29603,25.09774 -7.26638,28.536 -12.88992,4.19583 -32.02801,0.6814 -45.56118,0.6814 h -99.44012 -32.11087 c -4.69337,0 -10.46504,0.86087 -14.265518,-2.53983 -6.167257,-5.51896 -3.343676,-20.19026 -3.343676,-27.72104 v -76.17392 c 0,-8.45217 -3.478229,-25.76556 7.254984,-28.76452 m 4.1392,14.15583 -3.1075,7.30435 61.11423,36.52174 c -14.31523,14.42086 -28.43572,29.08486 -42.42882,43.82608 -4.78037,5.03583 -13.86982,11.73183 -9.3629,18.78261 h 1.03583 c 12.55328,-12.64591 25.01126,-25.57565 37.19371,-38.59304 5.22889,-5.58783 10.70535,-14.59409 17.70553,-17.94574 8.36021,-4.00174 21.65515,12.80035 30.0392,14.12765 9.34012,1.47965 16.68936,-14.6473 25.45667,-13.14887 5.43502,0.9287 11.7764,10.91165 15.23609,14.86435 12.03535,13.74678 25.78399,26.24974 36.99482,40.69565 7.49427,-6.37774 -2.42073,-12.56035 -6.95562,-17.73913 -12.9583,-14.80174 -27.28285,-28.5193 -39.65693,-43.82609 l 58.00673,-37.56521 -4.14333,-7.30435 c -20.44116,11.46469 -39.57199,26.22782 -59.04257,39.30469 -6.26887,4.2094 -17.18139,14.70157 -24.86003,15.03131 -7.62167,0.32661 -20.49917,-10.78122 -26.9317,-14.74748 -21.80639,-13.44626 -43.66975,-27.58435 -66.29341,-39.58852 z"
       id="path896" />
  </g>
</svg>
