<?xml version="1.0" encoding="UTF-8" standalone="no"?>
<svg
   xmlns:dc="http://purl.org/dc/elements/1.1/"
   xmlns:cc="http://creativecommons.org/ns#"
   xmlns:rdf="http://www.w3.org/1999/02/22-rdf-syntax-ns#"
   xmlns:svg="http://www.w3.org/2000/svg"
   xmlns="http://www.w3.org/2000/svg"
   xmlns:sodipodi="http://sodipodi.sourceforge.net/DTD/sodipodi-0.dtd"
   xmlns:inkscape="http://www.inkscape.org/namespaces/inkscape"
   version="1.1"
   id="svg802"
   width="400"
   height="399.52356"
   viewBox="0 0 400 399.52356"
   sodipodi:docname="fcc_logo.svg"
   inkscape:version="1.0.1 (3bc2e81, 2020-09-07)">
  <metadata
     id="metadata808">
    <rdf:RDF>
      <cc:Work
         rdf:about="">
        <dc:format>image/svg+xml</dc:format>
        <dc:type
           rdf:resource="http://purl.org/dc/dcmitype/StillImage" />
        <dc:title></dc:title>
      </cc:Work>
    </rdf:RDF>
  </metadata>
  <defs
     id="defs806" />
  <sodipodi:namedview
     pagecolor="#ffffff"
     bordercolor="#666666"
     borderopacity="1"
     objecttolerance="10"
     gridtolerance="10"
     guidetolerance="10"
     inkscape:pageopacity="0"
     inkscape:pageshadow="2"
     inkscape:window-width="1338"
     inkscape:window-height="696"
     id="namedview804"
     showgrid="false"
     units="mm"
     fit-margin-top="0"
     fit-margin-left="0"
     fit-margin-right="0"
     fit-margin-bottom="0"
     inkscape:zoom="1.3680209"
     inkscape:cx="175.98333"
     inkscape:cy="93.251815"
     inkscape:window-x="14"
     inkscape:window-y="58"
     inkscape:window-maximized="0"
     inkscape:current-layer="g810" />
  <g
     inkscape:groupmode="layer"
     inkscape:label="Image"
     id="g810">
    <path
       style="fill:#040404;stroke:none;stroke-width:1.02078"
       d="M 168.38378,2.072102 C 143.3991,5.6496392 119.52401,14.328386 97.949773,27.362455 10.120394,80.4256 -25.61711,194.64558 19.665328,287.45413 c 12.49019,25.59919 31.25657,47.89105 52.764867,66.34986 18.690331,16.04058 40.916045,28.43901 64.309325,36.06528 30.23048,9.85566 62.55152,11.76554 93.91201,7.54154 23.89244,-3.21853 46.31292,-11.4297 67.37166,-22.95537 C 383.9925,327.40246 421.69307,219.01983 387.41824,128.21202 374.48901,93.957715 351.02836,64.134419 322.52198,41.449365 304.36328,26.99926 283.44029,15.694398 261.27501,8.8064613 233.05752,0.03736616 197.74864,-2.1326735 168.38378,2.072102 m 14.29096,20.269943 c 20.68106,-2.448149 43.19851,-0.104017 63.28853,4.941709 20.00326,5.02399 38.18545,13.716564 55.12227,25.416368 105.3213,72.754758 99.9918,233.634208 -9.18705,300.081038 -19.93895,12.13507 -43.02293,20.77702 -66.35087,23.31162 -30.27847,3.28998 -59.98018,0.64106 -88.8081,-9.36874 C 116.5668,359.71942 98.733733,347.46697 82.638021,333.66599 -4.0357267,259.34789 5.2948332,119.91203 96.928984,54.132075 122.73132,35.609974 151.34385,26.050748 182.67474,22.342045 m 6.1247,62.9971 c -0.004,32.988635 -17.1073,64.850325 -34.56167,91.870445 -11.01833,17.05728 -24.76725,33.68481 -28.92387,54.10149 -4.93754,24.25584 2.61524,62.79038 27.75814,74.51714 -11.98909,-36.85944 11.92887,-70.37175 31.29312,-100.03672 4.93956,-7.56705 9.50451,-15.45158 13.65705,-23.47697 1.09427,-2.11608 2.6673,-6.80761 5.91543,-5.77253 5.79499,1.84455 6.81781,15.15862 7.37005,20.06246 1.97114,17.49316 -9.14416,45.50956 3.41351,60.119 10.26703,11.94623 32.17099,-0.0663 38.01292,13.37839 5.13148,11.81045 -2.41721,25.51242 -7.79163,35.72637 7.28634,-4.57311 13.15585,-12.22592 17.77183,-19.39488 22.13363,-34.37792 12.84042,-64.88809 -5.52244,-97.99514 h -2.04156 c -2.53869,5.43771 -14.82177,27.27838 -22.67975,17.0287 -2.56421,-3.34409 -0.50427,-9.24727 0.22355,-12.94556 1.98032,-10.06391 3.17973,-19.32343 3.05724,-29.60271 -0.28071,-23.6056 -14.46552,-47.05604 -30.62042,-63.288526 -4.99673,-5.021031 -9.84953,-11.268322 -16.3315,-14.290959 z"
       id="path814" />
  </g>
</svg>
