<?xml version="1.0" encoding="UTF-8" standalone="no"?>
<svg
   xmlns:dc="http://purl.org/dc/elements/1.1/"
   xmlns:cc="http://creativecommons.org/ns#"
   xmlns:rdf="http://www.w3.org/1999/02/22-rdf-syntax-ns#"
   xmlns:svg="http://www.w3.org/2000/svg"
   xmlns="http://www.w3.org/2000/svg"
   xmlns:sodipodi="http://sodipodi.sourceforge.net/DTD/sodipodi-0.dtd"
   xmlns:inkscape="http://www.inkscape.org/namespaces/inkscape"
   version="1.1"
   id="svg712"
   width="417.3913"
   height="417.3913"
   viewBox="0 0 417.3913 417.3913"
   sodipodi:docname="github_icon.svg"
   inkscape:version="1.0.1 (3bc2e81, 2020-09-07)">
  <metadata
     id="metadata718">
    <rdf:RDF>
      <cc:Work
         rdf:about="">
        <dc:format>image/svg+xml</dc:format>
        <dc:type
           rdf:resource="http://purl.org/dc/dcmitype/StillImage" />
        <dc:title></dc:title>
      </cc:Work>
    </rdf:RDF>
  </metadata>
  <defs
     id="defs716" />
  <sodipodi:namedview
     pagecolor="#ffffff"
     bordercolor="#666666"
     borderopacity="1"
     objecttolerance="10"
     gridtolerance="10"
     guidetolerance="10"
     inkscape:pageopacity="0"
     inkscape:pageshadow="2"
     inkscape:window-width="1338"
     inkscape:window-height="696"
     id="namedview714"
     showgrid="false"
     inkscape:zoom="0.93963349"
     inkscape:cx="39.662545"
     inkscape:cy="245.81112"
     inkscape:window-x="14"
     inkscape:window-y="58"
     inkscape:window-maximized="0"
     inkscape:current-layer="g720" />
  <g
     inkscape:groupmode="layer"
     inkscape:label="Image"
     id="g720">
    <path
       style="fill:#030303;stroke:none;stroke-width:1.04348"
       d="m 194.23293,1.474573 c -37.5193,4.926243 -71.77147,13.16705 -103.304342,35.478285 -24.60887,17.412313 -45.98441,39.539892 -61.76243,65.296272 -60.40539,98.60661 -23.1420605,232.68626 76.371132,289.64139 41.47512,23.73809 89.78191,30.47061 136.69564,24.1513 28.36174,-3.82121 56.61705,-14.74748 80.34783,-30.66678 62.33426,-41.81217 98.19861,-111.10539 94.91582,-186.08243 C 412.65067,88.6523 308.6785,-13.552011 194.23293,1.474573 m -2.08695,22.811607 c 21.15026,-2.496835 44.1673,0.1104 64.69565,5.309947 22.49635,5.698018 44.26122,16.073113 62.60869,30.314087 26.15374,20.299926 48.0334,46.173696 61.11966,76.773696 36.18156,84.60418 2.25495,185.12139 -75.72835,232.89287 -21.31513,13.05809 -46.04557,21.96626 -70.95652,24.67304 -40.39305,4.38992 -81.29739,-1.82608 -116.86957,-22.18539 C 24.080978,318.87417 -7.2349722,191.23904 55.897148,103.29261 70.594648,82.81832 89.447058,64.669623 110.75467,51.174214 135.67189,35.392858 163.12163,27.712545 192.14598,24.28618 m -75.13044,53.96295 c -4.36487,10.14439 -5.47095,21.408 -5.20174,32.34783 0.10435,4.27826 2.2894,9.3986 1.27931,13.56521 -1.248,5.14435 -6.33599,9.90887 -8.82719,14.6087 -4.658202,8.79026 -6.998932,18.29635 -7.942752,28.17391 -5.04908,52.84174 32.575502,87.50922 84.344552,87.65217 -3.87965,3.888 -9.4007,4.9127 -13.52348,8.57114 -4.18957,3.71791 -5.81009,9.1586 -9.71896,12.93495 -6.78782,6.55513 -18.44869,6.94644 -26.84452,3.83896 -15.61461,-5.77774 -31.486842,-41.55861 -50.086952,-27.432 v 1.04348 c 22.030652,21.576 39.203472,62.23617 77.217392,48 0,8.05878 -0.0157,15.984 0.73043,24 0.528,5.66921 -1.368,11.3426 -5.12765,15.61147 -2.19235,2.48974 -7.90852,5.56383 -7.90852,9.29322 0,3.336 4.83547,3.24522 7.08834,3.26087 7.31687,0.047 14.71931,-2.47513 19.38887,-8.38122 7.66122,-9.68869 3.56766,-31.00174 3.56766,-42.74087 0,-8.55234 0.025,-16.61321 9.3913,-19.82608 l -1.368,60.52174 -6.97983,17.73913 c 38.09948,-0.1054 27.13044,-55.85322 27.13044,-81.39131 15.60522,0.0125 11.47826,13.96487 11.47826,26.08696 0,22.15096 -4.59026,53.90295 26.08696,55.30435 l -7.00279,-20.86957 -0.30156,-57.3913 c 10.2313,3.48835 10.43478,12.60104 10.43478,21.91304 0,15.32765 -5.424,39.01983 11.47826,46.76035 3.22435,1.47652 16.3847,5.21113 17.99791,-0.0939 1.29392,-4.25218 -10.92521,-12.5134 -11.86852,-18.49253 -3.10748,-19.70608 4.70818,-44.58574 -5.64104,-62.60765 -4.10609,-7.14991 -11.83722,-9.81913 -17.184,-15.65322 52.25113,-0.005 86.22782,-40.37947 78.85774,-91.82608 -1.29496,-9.03965 -3.83479,-18.0407 -8.22678,-26.08696 -2.7214,-4.98261 -8.27374,-10.04139 -9.39653,-15.65217 -2.89356,-14.45635 2.26331,-28.54038 -4.88661,-42.78261 l -27.13043,6.12804 -19.82609,10.27377 -36.52174,-3.86483 -46.95652,4.58702 -17.73913,-9.36146 z"
       id="path724" />
  </g>
</svg>
