<?xml version="1.0" encoding="UTF-8" standalone="no"?>
<svg
   xmlns:dc="http://purl.org/dc/elements/1.1/"
   xmlns:cc="http://creativecommons.org/ns#"
   xmlns:rdf="http://www.w3.org/1999/02/22-rdf-syntax-ns#"
   xmlns:svg="http://www.w3.org/2000/svg"
   xmlns="http://www.w3.org/2000/svg"
   xmlns:sodipodi="http://sodipodi.sourceforge.net/DTD/sodipodi-0.dtd"
   xmlns:inkscape="http://www.inkscape.org/namespaces/inkscape"
   width="317.29453mm"
   height="316.24152mm"
   viewBox="0 0 317.29453 316.24151"
   version="1.1"
   id="svg8"
   inkscape:version="1.0.1 (3bc2e81, 2020-09-07)"
   sodipodi:docname="resume-icon.svg">
  <defs
     id="defs2" />
  <sodipodi:namedview
     id="base"
     pagecolor="#ffffff"
     bordercolor="#666666"
     borderopacity="1.0"
     inkscape:pageopacity="0.0"
     inkscape:pageshadow="2"
     inkscape:zoom="0.42167392"
     inkscape:cx="519.03873"
     inkscape:cy="694.27296"
     inkscape:document-units="mm"
     inkscape:current-layer="layer1"
     inkscape:document-rotation="0"
     showgrid="false"
     inkscape:window-width="1338"
     inkscape:window-height="696"
     inkscape:window-x="14"
     inkscape:window-y="58"
     inkscape:window-maximized="0" />
  <metadata
     id="metadata5">
    <rdf:RDF>
      <cc:Work
         rdf:about="">
        <dc:format>image/svg+xml</dc:format>
        <dc:type
           rdf:resource="http://purl.org/dc/dcmitype/StillImage" />
        <dc:title></dc:title>
      </cc:Work>
    </rdf:RDF>
  </metadata>
  <g
     inkscape:label="Layer 1"
     inkscape:groupmode="layer"
     id="layer1"
     transform="translate(49.152269,23.609985)">
    <path
       style="fill:#010101;stroke:none;stroke-width:0.264583"
       d="m 103.41365,-23.346879 c -11.869735,1.558335 -23.524895,2.049195 -35.189578,5.291656 -40.11719,11.1515531 -74.9485205,37.41092 -96.04068,73.441877 -9.19615,15.70937 -15.92795,33.34597 -18.94364,51.329166 -3.9009,23.26163 -3.15985,47.05006 3.17786,69.85 4.83346,17.38841 12.72945,33.91535 23.09722,48.68333 33.54335,47.78111 92.5621,73.67059 150.357148,66.07175 73.67164,-9.68904 134.81315,-72.72972 138.10192,-147.828 0.91546,-20.91505 -1.88913,-41.58483 -8.74183,-61.383326 C 242.02092,32.382984 198.16385,-6.8214379 147.0699,-18.93065 c -9.93696,-2.355019 -19.96916,-3.827957 -30.1625,-4.274346 -4.40796,-0.193043 -9.0895,-0.72011 -13.49375,-0.141883 M 70.115312,41.523284 c 2.19631,-0.95779 4.5167,2.04126 2.04867,3.08345 -1.94363,0.82101 -4.1365,-2.17276 -2.04867,-3.08345 m 5.25251,0.89879 h 0.52916 l 0.26459,-1.05833 h 9.524997 l 4.422246,0.13599 4.309004,3.30359 v -0.26458 l -3.175,-3.175 h 64.029161 15.875 c 1.92485,0 4.56036,-0.48049 6.00234,1.11495 1.37001,1.5158 0.87683,4.41669 0.87683,6.29338 v 16.13958 63.499996 l -3.175,-2.38125 v 0.26458 c 3.57531,1.89627 3.175,4.94586 3.175,8.46667 v 17.99167 c 0,2.31298 0.6432,5.75971 -0.15955,7.9375 -0.84005,2.27806 -3.73935,3.84386 -5.13212,5.82083 l 5.29167,-5.02708 v 46.56667 12.43541 c 0,1.81769 0.36645,4.16693 -0.56621,5.81581 -1.67296,2.95857 -9.19745,1.59253 -12.13379,1.59253 h -25.92917 c -4.37356,0 -9.24216,0.72337 -13.22916,-1.05834 l 0.79375,0.79375 v 0.26459 H 63.196982 47.851152 c -1.9005,0 -4.59264,0.52599 -5.97059,-1.10834 -1.73011,-2.05158 -0.64399,-7.94412 -0.64399,-10.53333 v -28.575 -79.375 -25.664576 c 0,-3.95711 -0.6485,-8.54499 0.0603,-12.43542 0.42227,-2.31669 3.64014,-4.49421 5.23134,-6.08542 l 14.55208,-14.55208 c 1.40202,-1.40203 4.31456,-5.53694 6.32645,-5.84544 1.61766,-0.24818 3.95208,3.43561 5.31521,4.25794 l 0.26459,-0.26458 -1.32292,-1.85209 c 1.92035,-0.99906 2.61303,-2.40744 2.11667,-4.49791 l 1.5875,1.05833 m 19.049997,2.38125 0.264584,0.26458 -0.264584,-0.26458 m -28.839587,3.70417 -5.29166,5.82083 c 1.45944,-1.02817 5.33109,-3.9579 5.29166,-5.82083 m 56.885418,16.66875 v 0.26458 l 1.05833,0.79375 v 0.26458 l -2.11666,-0.26458 0.26458,1.32292 v 0.26458 l -1.32292,0.52917 c -0.96784,2.38204 -2.98291,4.57649 -3.14034,7.21942 -0.50059,8.40449 4.37621,16.02739 13.45909,16.31711 1.66159,0.0529 3.48906,-0.28151 5.02709,-0.90223 0.76491,-0.3085 1.9378,-1.23534 2.79426,-1.02817 0.83502,0.20214 1.65206,1.38854 2.24314,1.96533 1.76927,1.72614 3.85551,3.51737 5.28135,5.5327 -1.95131,-1.4134 -5.79676,-3.88197 -8.11504,-1.94389 -2.3622,1.97485 -2.33548,5.309916 -6.17246,5.623446 -2.52492,0.20611 -4.40796,-0.6133 -5.98223,-2.621226 -1.17766,-1.50257 -1.51448,-3.54832 -3.80736,-3.6658 -1.9476,-0.0998 -3.95446,1.17528 -5.55625,2.13148 -5.14879,3.072866 -8.6741,7.706786 -10.39257,13.440566 -0.60034,2.00316 -1.50521,5.76739 -0.25902,7.66128 1.79228,2.72335 7.58454,1.59914 10.38701,1.59914 h 20.37292 c 4.28598,0 7.56628,-0.67733 10.31875,3.175 0.85883,-0.93874 0.23256,-1.54755 -0.52917,-2.38125 2.37278,-0.59134 8.09016,-0.004 9.52262,-2.14551 0.87312,-1.30545 0.15637,-2.82363 0.69109,-4.18094 0.58764,-1.49093 2.345,-2.07778 1.84123,-3.99124 -0.499,-1.89733 -3.01334,-2.85512 -3.85286,-4.76356 l -0.79375,0.26458 c -1.97749,-4.58311 -6.4897,-8.115556 -9.94198,-11.604616 -1.10146,-1.1131 -3.66025,-2.84427 -4.11374,-4.35531 -0.29925,-0.99668 1.12157,-1.92246 1.68513,-2.57122 1.40864,-1.62083 2.47809,-3.71289 2.97709,-5.81051 2.19578,-9.23184 -6.49129,-19.55959 -16.27108,-16.66875 v -1.32292 h -1.05833 c -0.0275,1.65497 -1.44966,2.1217 -2.91042,2.38125 l 2.11667,-2.64583 -3.70417,2.11667 m -6.61458,11.64166 0.26458,0.26459 -0.26458,-0.26459 m 61.64791,8.99584 -0.79375,1.58749 0.79375,-1.58749 m -31.22083,11.72977 c 0.20452,0 0.0423,0.13176 -0.0881,0.0884 l 0.0881,-0.0884 m 7.76102,5.380026 0.0884,0.17622 -0.0884,-0.17622 m 0.97023,4.58603 1.05833,2.91041 h -0.26458 l -0.79375,-2.91041 m 2.11667,1.85208 c 0.50403,1.4179 0.50112,2.58392 -1.05834,3.175 l -0.26458,-1.05833 1.32292,-2.11667 m 12.96458,11.37708 c 0.68897,1.86664 3.20887,4.24101 5.02708,5.02709 -0.85936,-1.74123 -3.28163,-4.16851 -5.02708,-5.02709 m -29.89792,2.38125 -2.38125,2.64584 c 1.17131,-0.32888 2.56064,-1.29937 2.38125,-2.64584 m -5.02708,6.08542 3.175,-3.175 -3.175,3.175 m -78.052078,4.23333 -0.52917,3.43959 c 1.00436,-0.92816 1.39832,-2.29077 0.52917,-3.43959 m 2.91147,0.99007 c -2.59715,1.00621 -2.3831,4.97444 0.26379,5.73749 4.05977,1.17079 9.79567,0.15161 14.02265,0.15161 h 61.383338 17.72708 c 1.90182,0 5.06598,0.60748 6.54076,-0.86757 1.65286,-1.65285 0.84058,-4.78525 -1.51474,-5.16123 -6.11478,-0.97657 -13.11539,-0.0566 -19.31352,-0.0566 H 83.569873 67.165702 c -2.09602,0 -5.17339,-0.56647 -7.14269,0.19632 m -17.99272,6.68285 0.79375,-0.79375 -0.79375,0.79375 m 16.13958,16.93333 -1.85208,-1.85208 h -0.26459 c 1.47717,6.08462 7.01861,5.55625 11.90625,5.55625 h 34.131258 l -0.52917,1.05833 c 3.3819,-2.12751 9.04822,-1.05833 12.96458,-1.05833 h 30.95625 9.78958 c 1.55258,0 3.20728,0.19606 4.46908,-0.898 1.93463,-1.67772 1.15438,-4.71487 -1.29408,-5.31098 -4.53522,-1.1041 -10.41162,-0.14102 -15.08125,-0.14102 H 81.717789 63.990702 c -2.38098,0 -5.23054,-0.27755 -5.82083,2.64583 m 18.78542,24.87084 -0.26459,0.79375 5.820837,-0.26459 -0.264583,-0.52916 h 31.485414 20.37292 c 7.80679,0 15.7554,0.43868 23.54791,-0.0114 2.50243,-0.14446 4.30292,-3.07022 2.47306,-5.18927 -1.19539,-1.3843 -3.75152,-0.88477 -5.38347,-0.88477 H 140.71987 82.776123 64.784452 c -1.88674,0 -5.12656,-0.63421 -6.22908,1.3507 -1.0631,1.91399 0.13256,4.34208 2.26033,4.6781 5.12101,0.80909 10.95111,0.0566 16.13959,0.0566 m 18.785414,13.49375 1.322917,1.5875 H 65.578202 c -2.45533,0 -10.59497,0.30639 -6.76433,4.99824 2.16984,2.65801 9.23104,1.35176 12.32058,1.35176 h 20.637504 c 4.32091,0 8.740514,-0.33814 12.964584,0.52917 v -0.26459 h -0.52917 v -0.26458 c 2.33839,0 5.8158,0.62389 7.91263,-0.60934 1.91373,-1.12553 2.11296,-4.26243 0,-5.30331 -3.44594,-1.69783 -9.17099,-0.16959 -12.939711,-0.4519 -1.410758,-0.10557 -2.157412,-1.21973 -3.439583,-1.57295 m -23.283334,1.05833 0.26458,0.26458 z"
       id="path847" />
  </g>
</svg>
