<?xml version="1.0" encoding="UTF-8" standalone="no"?>
<svg
   xmlns:dc="http://purl.org/dc/elements/1.1/"
   xmlns:cc="http://creativecommons.org/ns#"
   xmlns:rdf="http://www.w3.org/1999/02/22-rdf-syntax-ns#"
   xmlns:svg="http://www.w3.org/2000/svg"
   xmlns="http://www.w3.org/2000/svg"
   xmlns:sodipodi="http://sodipodi.sourceforge.net/DTD/sodipodi-0.dtd"
   xmlns:inkscape="http://www.inkscape.org/namespaces/inkscape"
   width="127.88113mm"
   height="126.48818mm"
   viewBox="0 0 127.88114 126.48818"
   version="1.1"
   id="svg8"
   inkscape:version="1.0.1 (3bc2e81, 2020-09-07)"
   sodipodi:docname="fdroid.svg">
  <defs
     id="defs2" />
  <sodipodi:namedview
     id="base"
     pagecolor="#ffffff"
     bordercolor="#666666"
     borderopacity="1.0"
     inkscape:pageopacity="0.0"
     inkscape:pageshadow="2"
     inkscape:zoom="0.30409836"
     inkscape:cx="844.23731"
     inkscape:cy="183.89973"
     inkscape:document-units="mm"
     inkscape:current-layer="layer1"
     inkscape:document-rotation="0"
     showgrid="false"
     inkscape:window-width="1338"
     inkscape:window-height="696"
     inkscape:window-x="14"
     inkscape:window-y="58"
     inkscape:window-maximized="0" />
  <metadata
     id="metadata5">
    <rdf:RDF>
      <cc:Work
         rdf:about="">
        <dc:format>image/svg+xml</dc:format>
        <dc:type
           rdf:resource="http://purl.org/dc/dcmitype/StillImage" />
        <dc:title></dc:title>
      </cc:Work>
    </rdf:RDF>
  </metadata>
  <g
     inkscape:label="Layer 1"
     inkscape:groupmode="layer"
     id="layer1"
     transform="translate(117.53779,-99.509863)">
    <path
       style="fill:#1a1a1a;stroke:none;stroke-width:0.264583"
       d="m -114.46421,99.545836 c -2.61647,0.347398 -3.81926,3.196964 -2.58921,5.405704 1.89891,3.41021 4.83949,6.41456 7.18608,9.525 0.89138,1.18136 2.38072,2.51222 2.77442,3.96875 0.37148,1.37557 -0.22754,3.31523 -0.22754,4.7625 v 14.81666 c 0,3.91557 0.14526,7.70599 3.70813,10.16053 2.64134,1.81981 5.684312,1.48114 8.727285,1.48114 h 16.139583 49.477082 15.08125 c 2.52571,0 5.4842804,0.41831 7.9375004,-0.24527 2.84057,-0.76861 5.17684,-2.99005 5.95577001,-5.84015 1.63062999,-5.96529 0.39423,-13.67498 0.39423,-19.84375 0,-1.58326 -0.6313,-3.79677 -0.22754,-5.29166 0.94006,-3.4798 5.49300999,-7.44405 7.67026999,-10.31875 1.70392,-2.24975 4.9223096,-6.41191 0.75829,-8.293631 -2.38707,-1.078971 -4.13914,0.749301 -5.49936,2.472791 -1.93356999,2.44978 -3.8063,4.94665 -5.72426,7.40834 -0.78819,1.0115 -1.61502,2.53338 -2.73315,3.20331 -0.85328,0.51144 -2.28811,-0.0159 -3.24008,-0.0272 -2.9977304,-0.0357 -5.9978404,-0.001 -8.9958404,-0.001 h -57.414579 c -8.411898,0 -17.272264,0.82814 -25.619341,0.2323 -1.35678,-0.0968 -2.44845,-2.16905 -3.18585,-3.14272 -2.082,-2.74849 -4.15766,-5.52662 -6.3328,-8.20182 -1.02261,-1.25783 -2.2561,-2.46512 -4.02034,-2.230964 m 32.279165,24.005914 c 12.293599,-1.77218 14.974093,17.28814 2.645833,18.89416 -12.105746,1.57691 -14.804231,-17.1413 -2.645833,-18.89416 m 55.297915,-0.003 c 12.16342,-1.5838 14.53912,17.31301 2.38125,18.89707 -12.26873,1.59808 -14.72327,-17.28999 -2.38125,-18.89707 m -72.231248,28.87556 c -7.650422,1.04193 -8.202082,7.23292 -8.202082,13.64589 v 40.74583 c 0,5.20145 -1.48643,12.83758 2.7223,16.76956 2.65271,2.47835 5.811304,2.28044 9.183948,2.28044 h 15.875 48.947912 15.61042 c 2.64345,0 5.5999104,0.36724 8.2020804,-0.12382 6.80085001,-1.28297 6.87917001,-7.90443 6.87917001,-13.36993 v -41.80417 c 0,-5.02152 1.34778999,-12.35075 -2.92100001,-16.05253 -2.60906,-2.26245 -6.00154,-2.20372 -9.2498304,-2.20372 h -15.875 -47.360419 c -7.739856,0 -16.147256,-0.93133 -23.812499,0.11245 z"
       id="path847" />
    <path
       style="fill:#ffffff;stroke:none;stroke-width:0.04315"
       d="m -54.10392,165.71128 c -1.937696,0.25439 -3.827408,0.33709 -5.738954,0.83969 -5.618697,1.47732 -10.632731,4.89868 -14.114594,9.54115 -1.85757,2.47677 -3.264184,5.30797 -4.112902,8.28481 -2.530513,8.87561 -0.126823,18.37579 6.149367,25.11332 1.50559,1.6164 3.299339,3.00626 5.174123,4.16743 2.334202,1.44553 4.924152,2.49709 7.594406,3.1301 3.069995,0.72752 6.284199,0.86775 9.406709,0.4574 12.414049,-1.63237 22.130793,-12.46359 22.437588,-24.9718 0.210573,-8.59837 -3.94866,-16.93673 -11.002829,-21.8891 -2.423867,-1.70167 -5.131443,-2.96777 -7.982756,-3.76033 -1.892216,-0.52597 -3.825166,-0.80384 -5.782105,-0.88954 -0.66408,-0.029 -1.364102,-0.1103 -2.028053,-0.0231 m 0.517801,5.25833 c 0.64246,-0.0758 1.342398,0.0251 1.984903,0.0701 1.641642,0.11503 3.270254,0.43227 4.832803,0.95313 8.297925,2.76601 14.09194,10.61673 14.196365,19.37438 0.122978,10.35298 -7.967396,19.66692 -18.338768,20.70468 -4.156989,0.41596 -8.387246,-0.33744 -12.082011,-2.33615 -8.290502,-4.48419 -12.698544,-14.52607 -10.084554,-23.63284 0.664037,-2.3134 1.666801,-4.50961 3.06952,-6.4725 2.889158,-4.04286 7.160708,-6.90742 11.977288,-8.09607 1.478191,-0.3648 2.949693,-0.3884 4.444454,-0.56475 m -13.937462,17.33397 h 4.919104 1.380801 c 0.170355,0 0.429863,0.048 0.587273,-0.026 0.23944,-0.11267 0.430204,-0.69864 0.569752,-0.92328 0.377045,-0.6069 0.867057,-1.15064 1.388828,-1.63586 2.150036,-1.99932 5.489201,-2.59345 8.198506,-1.47694 0.93804,0.38658 1.824082,0.92742 2.545853,1.64574 2.784041,2.77058 3.320913,7.18271 0.928675,10.39912 -0.723195,0.9723 -1.649151,1.73584 -2.697827,2.3301 -0.925439,0.52445 -2.047642,0.82973 -3.106802,0.90231 -2.423479,0.16595 -4.6489,-0.79651 -6.343012,-2.49886 -0.407725,-0.40967 -0.75737,-0.88436 -1.052733,-1.38081 -0.111152,-0.18687 -0.227226,-0.61151 -0.43124,-0.70753 -0.15741,-0.074 -0.416918,-0.026 -0.587273,-0.026 h -1.380801 -4.919104 c 0.85463,3.0341 2.299078,5.72917 4.746503,7.79122 5.876388,4.95103 15.090777,4.46991 20.225027,-1.36186 1.123369,-1.27594 2.05196,-2.73256 2.678842,-4.315 0.708999,-1.78969 1.067101,-3.7292 1.04423,-5.65266 -0.01834,-1.54356 -0.296138,-3.1679 -0.837973,-4.61705 -0.818297,-2.18844 -2.06171,-4.17865 -3.778907,-5.77827 -4.202599,-3.91478 -10.639507,-5.02793 -15.879215,-2.62266 -2.911764,1.33662 -5.320962,3.55025 -6.847524,6.37288 -0.615837,1.13864 -1.001813,2.34188 -1.350983,3.58145 z"
       id="path1432" />
  </g>
</svg>
