<?xml version="1.0" encoding="UTF-8" standalone="no"?>
<svg
   xmlns:dc="http://purl.org/dc/elements/1.1/"
   xmlns:cc="http://creativecommons.org/ns#"
   xmlns:rdf="http://www.w3.org/1999/02/22-rdf-syntax-ns#"
   xmlns:svg="http://www.w3.org/2000/svg"
   xmlns="http://www.w3.org/2000/svg"
   xmlns:sodipodi="http://sodipodi.sourceforge.net/DTD/sodipodi-0.dtd"
   xmlns:inkscape="http://www.inkscape.org/namespaces/inkscape"
   version="1.1"
   id="svg966"
   width="1088"
   height="1324"
   viewBox="0 0 1088 1324"
   sodipodi:docname="pdf-icon.svg"
   inkscape:version="1.0.1 (3bc2e81, 2020-09-07)">
  <metadata
     id="metadata972">
    <rdf:RDF>
      <cc:Work
         rdf:about="">
        <dc:format>image/svg+xml</dc:format>
        <dc:type
           rdf:resource="http://purl.org/dc/dcmitype/StillImage" />
        <dc:title></dc:title>
      </cc:Work>
    </rdf:RDF>
  </metadata>
  <defs
     id="defs970" />
  <sodipodi:namedview
     pagecolor="#ffffff"
     bordercolor="#666666"
     borderopacity="1"
     objecttolerance="10"
     gridtolerance="10"
     guidetolerance="10"
     inkscape:pageopacity="0"
     inkscape:pageshadow="2"
     inkscape:window-width="1338"
     inkscape:window-height="696"
     id="namedview968"
     showgrid="false"
     inkscape:zoom="0.35580204"
     inkscape:cx="407.72135"
     inkscape:cy="731.78304"
     inkscape:window-x="14"
     inkscape:window-y="58"
     inkscape:window-maximized="0"
     inkscape:current-layer="g974" />
  <g
     inkscape:groupmode="layer"
     inkscape:label="Image"
     id="g974">
    <path
       style="fill:#151515;stroke:none;stroke-width:1.33333"
       d="m 69.710421,723.59717 c -15.2776,1.20534 -29.944,2.66667 -45.33333,2.66667 -5.60053,0 -14.9678702,-1.74533 -19.5761302,2.13733 -8.2336,6.93734 -3.09054,38.30267 -3.09054,48.52934 v 143.99997 134.66672 c 0,10.856 -5.0189,39.0814 2.13787,47.576 3.72587,4.4227 11.4094702,3.0907 16.5288002,3.0907 12.62613,0 44.5884,-5.0493 50.65427,9.3587 7.12346,16.9186 0.88706,42.7986 4.6112,61.308 11.20533,55.6933 54.685199,105.136 111.401199,116.7333 23.47867,4.8013 49.44667,1.9333 73.33333,1.9333 h 133.33334 422.66666 c 77.66934,0 164.71067,14.2094 215.95201,-58.6666 37.2294,-52.9494 28.048,-117.372 28.048,-178.6667 v -358.66673 -300 -74.66666 c 0,-12.452 1.804,-24.59867 -6.9173,-34.66667 -23.0587,-26.61467 -50.3387,-50.42133 -75.74937,-74.71867 -44.24134,-42.304 -87.39067,-86.00533 -130.66667,-129.281334 -19.34933,-19.3496 -39.33467,-38.00133 -58.66667,-57.33333 -8.90533,-8.90547 -18.48533,-22.3087996 -30.66666,-26.7067996 -10.444,-3.77057 -25,-1.29319999 -36,-1.29319999 H 644.37709 383.04376 268.37709 c -22.236,0 -45.93066,-2.32869001 -68,0.38172999 -43.66933,5.3632 -80.96173,30.7405396 -104.406399,67.6182696 -36.43307,57.308004 -23.5936,136.597334 -23.5936,201.333334 v 294.66667 c 0,51.69866 5.9424,107.82 -2.66667,158.66666 M 217.71043,41.311176 c 39.34933,-4.6428 81.692,-0.38067 121.33333,-0.38067 h 241.33333 88 c 7.66534,0 25.41067,-1.71747 30.856,4.6852 4.64267,5.45947 3.8,19.15187 3.81067,25.98147 v 65.333334 c 0,62.77733 4.52533,113.672 52,159.98 51.25733,49.99866 122.476,41.35333 188,41.35333 16.888,0 33.77867,-0.08 50.6667,10e-4 6.56934,0.032 17.90264,-0.42533 23.62804,3.08934 6.4986,3.988 5.672,19.50266 5.704,26.24266 0.124,25.776 0,51.556 0,77.33334 v 322.66699 318.66673 c 0,49.104 5.2253,104.3093 -34.71874,140.952 -31.70397,29.0827 -68.9093,28.3813 -109.2813,28.3813 H 776.37709 397.71043 c -64.99867,0 -134.21334,6.7027 -198.66667,-1.7186 -47.45333,-6.2 -84.12413,-51.7707 -86.714,-98.2814 -0.57907,-10.3986 -6.428,-41.064 5.55867,-46.6546 11.34733,-5.2907 28.946,-2.6787 41.15533,-2.6787 h 90.66667 264 c 45.908,0 97.70933,7.128 141.33333,-9.4187 123.72533,-46.9293 149.98,-223.32532 63.88133,-315.91469 -22.98666,-24.71867 -51.96133,-43.992 -85.21466,-51.43334 -33.98267,-7.604 -72.008,-3.23333 -106.66667,-3.23333 h -254.66667 -116 c -9.73333,0 -34.56666,3.49333 -41.52266,-4.68533 -8.03947,-9.452 -3.81067,-35.632 -3.81067,-47.31467 V 548.93051 267.59717 c 0,-45.87866 -7.3676,-99.296 3.86013,-144 12.8772,-51.271994 53.4412,-76.461334 102.80654,-82.285994 m 529.33333,6.286 c 61.028,50.19053 116.01067,109.343994 172,165.333334 24.65867,24.65866 61.004,49.25866 76,81.33333 -28.06,4.12533 -55.57733,4 -84,4 -64.11333,0 -132.68533,-4.10533 -160.72933,-73.33333 -11.68267,-28.84 -8.604,-61.54 -8.604,-92 0,-21.1544 -1.53467,-42.992144 0.952,-64.000004 0.86666,-7.3124 0.0107,-15.0436 4.38133,-21.33333 m -600,772.381334 c 29.36,-3.46667 75.908,-5.68134 102.66667,7.984 33.52666,17.12133 38.73333,69.89197 14.42,96.94797 -13.81067,15.3694 -34.75867,19.1067 -54.42,19.968 -8.80134,0.3854 -27.60534,-2.1613 -34.24267,4.476 -8.87867,8.8787 -2.252,38.1601 -3.85867,50.2427 -1.00666,7.57342 -0.56533,15.70142 -9.91866,17.08272 -7.74667,1.144 -26.252,3.6187 -31.968,-3.1013 -7.04934,-8.288 -4.012,-29.11872 -4.012,-39.31472 v -105.3334 c 0,-10.73064 -4.076,-37.76664 4.87066,-45.52264 3.90534,-3.38667 11.58,-2.85333 16.46267,-3.42933 m 178.66667,0 c 40.592,-4.79334 98.94,-6.00534 126.28133,28.952 42.06267,53.78137 21.07867,158.52669 -52.948,167.61869 -22.27867,2.736 -45.556,2.2454 -68,1.6947 -6.35333,-0.1547 -19.59467,0.336 -23.39067,-5.6853 -6.84666,-10.8587 -3.276,-32.62942 -3.276,-44.96142 v -100 c 0,-11.68001 -3.212,-32.00667 3.276,-42.29467 3.41467,-5.416 12.45067,-4.66267 18.05734,-5.324 m 194.66666,0 c 18.24,-2.15334 37.636,-0.38134 56,-0.38134 16.52134,0 34.392,-1.756 50.64134,1.79067 10.23333,2.23333 11.968,26.86133 4.67333,33.06533 -3.80533,3.236 -10.62933,2.628 -15.31467,3.24534 -16.05466,2.11333 -33.148,0.56533 -49.33333,0.56533 -8.29333,0 -20.54133,-2.32667 -23.42133,8.00667 -0.94267,3.37737 -0.57734,7.19197 -0.57867,10.65997 -0.003,5.4667 -1.16133,12.6574 3.09067,16.9094 4.00666,4.0066 10.41466,3.0906 15.576,3.0906 12.756,0 25.96533,-0.9826 38.66666,0.2267 5.308,0.5053 13.73467,0.1747 17.98134,3.7853 5.52,4.6947 4.86266,22.9987 2.16,29.144 -2.73067,6.2107 -10.51734,5.3294 -16.14134,6.076 -13.97866,1.8587 -28.576,0.7667 -42.66666,0.768 -6.20667,0 -13.59867,-0.9706 -17.09467,5.412 -7.65067,13.968 -0.064,40.1734 -2.13733,55.9214 -1.04534,7.93472 -0.164,17.01332 -10.108,18.41472 -7.22667,1.0173 -25.8,3.0386 -30.23734,-4.12 -6.90533,-11.1414 -3.08933,-32.41472 -3.08933,-44.96142 v -100 c 0,-11.91467 -3.47733,-31.69867 3.08933,-42.29467 3.36134,-5.424 12.672,-4.66667 18.244,-5.324 m -343.80266,39.656 c -7.1,4.204 -7.26934,39.29997 -1.10667,44.49197 8.08667,6.8134 37.72133,2.9707 46.23733,-1.9813 11.89734,-6.916 14.64934,-25.5053 4.88534,-35.44267 -8.63867,-8.78934 -39.03067,-13.57334 -50.016,-7.068 m 178.61466,-0.38134 c -10.86266,4.672 -5.47866,39.54671 -5.47866,49.67731 v 45.3334 c 0,5.7173 -1.652,14.6973 1.37066,19.8026 2.98934,5.0494 9.61467,4.1947 14.62934,4.1974 12.42533,0 27.06533,2.156 38.66666,-3.1374 17.72134,-8.084 21.248,-31.436 21.332,-48.8626 0.17867,-37.1014 -7.41333,-67.93071 -50.66533,-68.00004 -5.98133,-0.009 -14.25067,-1.42 -19.85467,0.98933 z"
       id="path978" />
  </g>
</svg>
