<?xml version="1.0" encoding="UTF-8" standalone="no"?>
<svg
   xmlns:dc="http://purl.org/dc/elements/1.1/"
   xmlns:cc="http://creativecommons.org/ns#"
   xmlns:rdf="http://www.w3.org/1999/02/22-rdf-syntax-ns#"
   xmlns:svg="http://www.w3.org/2000/svg"
   xmlns="http://www.w3.org/2000/svg"
   xmlns:sodipodi="http://sodipodi.sourceforge.net/DTD/sodipodi-0.dtd"
   xmlns:inkscape="http://www.inkscape.org/namespaces/inkscape"
   width="123.56086mm"
   height="149.17459mm"
   viewBox="0 0 123.56086 149.1746"
   version="1.1"
   id="svg8"
   sodipodi:docname="android_studio.svg"
   inkscape:version="1.0.1 (3bc2e81, 2020-09-07)">
  <defs
     id="defs2" />
  <sodipodi:namedview
     id="base"
     pagecolor="#ffffff"
     bordercolor="#666666"
     borderopacity="1.0"
     inkscape:pageopacity="0.0"
     inkscape:pageshadow="2"
     inkscape:zoom="0.33836007"
     inkscape:cx="-173.76357"
     inkscape:cy="314.2199"
     inkscape:document-units="mm"
     inkscape:current-layer="layer1"
     inkscape:document-rotation="0"
     showgrid="false"
     inkscape:window-width="1338"
     inkscape:window-height="696"
     inkscape:window-x="14"
     inkscape:window-y="58"
     inkscape:window-maximized="0"
     inkscape:pagecheckerboard="true" />
  <metadata
     id="metadata5">
    <rdf:RDF>
      <cc:Work
         rdf:about="">
        <dc:format>image/svg+xml</dc:format>
        <dc:type
           rdf:resource="http://purl.org/dc/dcmitype/StillImage" />
        <dc:title />
      </cc:Work>
    </rdf:RDF>
  </metadata>
  <g
     inkscape:label="Layer 1"
     inkscape:groupmode="layer"
     id="layer1"
     transform="translate(-2227.6694,-123.91097)">
    <path
       style="fill:#4d4d4d;fill-opacity:1;stroke:none;stroke-width:0.264583"
       d="m 2281.1693,130.79018 v 8.99584 c 0,0.93133 0.2958,2.5609 -0.6133,3.16759 -0.935,0.62415 -2.8091,0.27199 -3.8846,0.27199 -4.2307,0 -10.1097,-0.99272 -11.9819,3.96875 -1.1642,3.08531 -0.4535,7.32208 -0.4535,10.58333 0,7.14058 -1.0459,15.17571 0.039,22.225 0.3773,2.45137 5.2337,4.38785 4.467,6.87917 -0.5723,1.85923 -2.0191,3.62162 -2.9901,5.29167 -2.0989,3.60944 -4.2071,7.21757 -6.2693,10.84792 -7.0376,12.38964 -14.1544,24.75177 -21.3638,37.04166 -2.2734,3.87562 -4.5469,7.75335 -6.8036,11.64167 -1.0507,1.81054 -2.6443,3.78619 -3.1954,5.82083 -0.9295,3.43218 -0.1321,8.08567 -0.1319,11.64167 10e-5,1.26735 -0.2199,2.92841 1.0872,3.65654 1.2638,0.70406 2.5888,-0.16801 3.6753,-0.78581 3.0283,-1.7227 7.1091,-3.29671 9.6497,-5.68431 2.7696,-2.6035 4.5939,-7.64593 6.4899,-10.94475 4.2712,-7.43162 9.5745,-14.88705 12.9646,-22.75417 12.151,7.09216 27.735,8.53149 41.275,5.32236 4.9144,-1.1647 9.2467,-3.68168 14.0229,-5.05778 0.9621,3.04007 3.1745,5.96821 4.7625,8.73125 2.8887,5.02629 5.7119,10.10047 8.6781,15.08125 1.7399,2.92127 3.2181,7.31071 5.7097,9.62819 2.6948,2.50693 7.6171,5.00168 11.0122,6.41535 1.5044,0.62627 3.1192,0.15584 3.374,-1.6039 0.5376,-3.71052 0.9125,-10.03168 -0.066,-13.64589 -0.6651,-2.45559 -2.6505,-4.96464 -3.942,-7.14375 -2.6503,-4.47278 -5.2419,-8.98631 -7.8324,-13.49375 -1.9291,-3.35677 -3.8574,-6.71565 -5.818,-10.05416 -0.5783,-0.98478 -2.1087,-2.78104 -1.9312,-3.96875 0.2268,-1.5158 2.3728,-3.10542 3.3163,-4.23334 2.3445,-2.80246 4.4413,-5.79331 6.204,-8.99583 5.0017,-9.08579 7.0027,-18.58883 7.4893,-28.83959 h -16.9334 c 0,10.31055 -4.0965,17.88293 -9.2604,26.45834 h -0.2646 c -2.722,-5.11466 -5.8187,-10.04888 -8.6915,-15.08125 -0.8329,-1.45918 -3.125,-4.1238 -3.1033,-5.82084 0.03,-2.29949 4.0007,-3.56208 4.567,-5.82083 0.6355,-2.53471 0.084,-5.85417 0.084,-8.46667 v -18.25625 c 0,-3.1914 0.5292,-6.75719 -2.1627,-9.08023 -3.3393,-2.88211 -10.36,-1.5031 -14.5061,-1.5031 v -12.43542 h -16.6687 m 7.1437,27.06397 c 12.9255,-1.67878 15.8991,18.87379 2.9105,20.74624 -13.8907,2.00237 -16.9037,-18.92855 -2.9105,-20.74624 m 8.9959,40.66937 11.1125,19.57917 c -10.5796,6.17378 -27.5775,6.61775 -38.1,0 l 3.3274,-6.87917 7.5205,-12.96458 c 3.8177,1.9804 6.4111,7.21333 11.3771,4.08543 1.737,-1.09432 2.9059,-2.95513 4.7625,-3.82085 m -16.1396,0.26458 0.2646,0.26459 -0.2646,-0.26459 m -0.2646,0.52917 0.2646,0.26458 -0.2646,-0.26458 m -0.2646,0.52917 -0.2646,0.52916 0.2646,-0.52916 m -0.5291,0.79375 0.2645,0.26458 -0.2645,-0.26458 m -0.2646,0.52916 0.2646,0.26459 -0.2646,-0.26459 m -0.2646,0.52917 -0.2646,0.52917 0.2646,-0.52917 m -0.5292,0.79375 0.2646,0.26458 -0.2646,-0.26458 m -0.2646,0.52917 -0.2645,0.52916 0.2645,-0.52916 m -0.5291,0.79375 0.2646,0.26458 -0.2646,-0.26458 m -0.2646,0.52916 0.2646,0.26459 -0.2646,-0.26459 m -0.2646,0.52917 -0.2646,0.52917 0.2646,-0.52917 m -0.5292,0.79375 0.2646,0.26458 -0.2646,-0.26458 m -0.2645,0.52917 0.2645,0.26458 -0.2645,-0.26458 m -0.2646,0.52916 -0.2646,0.52917 0.2646,-0.52917 m -0.5292,0.79375 0.2646,0.26459 -0.2646,-0.26459 m -0.2646,0.52917 0.2646,0.26458 -0.2646,-0.26458 m -0.5291,0.79375 0.2645,0.26458 -0.2645,-0.26458 m -0.2646,0.52917 0.2646,0.26458 -0.2646,-0.26458 m -0.2646,0.52916 0.2646,0.26459 -0.2646,-0.26459 m -0.5292,0.79375 0.2646,0.26459 -0.2646,-0.26459 m -0.2646,0.52917 0.2646,0.26458 -0.2646,-0.26458 m -0.2645,0.52917 0.2645,0.26458 -0.2645,-0.26458 m -0.5292,0.79375 0.2646,0.26458 -0.2646,-0.26458 m -0.2646,0.52916 0.2646,0.26459 -0.2646,-0.26459 m -0.2646,0.52917 -0.2646,0.52917 0.2646,-0.52917 m -0.5291,0.79375 0.2645,0.26458 -0.2645,-0.26458 m -0.2646,0.52917 0.2646,0.26458 -0.2646,-0.26458 m -0.5292,0.79375 0.2646,0.26458 -0.2646,-0.26458 m -0.2646,0.52916 0.2646,0.26459 -0.2646,-0.26459 m -0.2646,0.52917 0.2646,0.26458 z"
       id="path5444" />
    <path
       style="fill:#ffee84;fill-opacity:1;stroke:none;stroke-width:0.264583"
       d="m 2281.1693,123.91097 v 8.99584 c 0,0.93133 0.2958,2.5609 -0.6133,3.16759 -0.935,0.62415 -2.8091,0.27199 -3.8846,0.27199 -4.2307,0 -10.1097,-0.99272 -11.9819,3.96875 -1.1642,3.08531 -0.4535,7.32208 -0.4535,10.58333 0,7.14058 -1.0459,15.17571 0.039,22.225 0.3773,2.45137 5.2337,4.38785 4.467,6.87917 -0.5723,1.85923 -2.0191,3.62162 -2.9901,5.29167 -2.0989,3.60944 -4.2071,7.21757 -6.2693,10.84792 -7.0376,12.38964 -14.1544,24.75177 -21.3638,37.04166 -2.2734,3.87562 -4.5469,7.75335 -6.8036,11.64167 -1.0507,1.81054 -2.6443,3.78619 -3.1954,5.82083 -0.9295,3.43218 -0.1321,8.08567 -0.1319,11.64167 10e-5,1.26735 -0.2199,2.92841 1.0872,3.65654 1.2638,0.70406 2.5888,-0.16801 3.6753,-0.78581 3.0283,-1.7227 7.1091,-3.29671 9.6497,-5.68431 2.7696,-2.6035 4.5939,-7.64593 6.4899,-10.94475 4.2712,-7.43162 9.5745,-14.88705 12.9646,-22.75417 12.151,7.09216 27.735,8.53149 41.275,5.32236 4.9144,-1.1647 9.2467,-3.68168 14.0229,-5.05778 0.9621,3.04007 3.1745,5.96821 4.7625,8.73125 2.8887,5.02629 5.7119,10.10047 8.6781,15.08125 1.7399,2.92127 3.2181,7.31071 5.7097,9.62819 2.6948,2.50693 7.6171,5.00168 11.0122,6.41535 1.5044,0.62627 3.1192,0.15584 3.374,-1.6039 0.5376,-3.71052 0.9125,-10.03168 -0.066,-13.64589 -0.6651,-2.45559 -2.6505,-4.96464 -3.942,-7.14375 -2.6503,-4.47278 -5.2419,-8.98631 -7.8324,-13.49375 -1.9291,-3.35677 -3.8574,-6.71565 -5.818,-10.05416 -0.5783,-0.98478 -2.1087,-2.78104 -1.9312,-3.96875 0.2268,-1.5158 2.3728,-3.10542 3.3163,-4.23334 2.3445,-2.80246 4.4413,-5.79331 6.204,-8.99583 5.0017,-9.08579 7.0027,-18.58883 7.4893,-28.83959 h -16.9334 c 0,10.31055 -4.0965,17.88293 -9.2604,26.45834 h -0.2646 c -2.722,-5.11466 -5.8187,-10.04888 -8.6915,-15.08125 -0.8329,-1.45918 -3.125,-4.1238 -3.1033,-5.82084 0.03,-2.29949 4.0007,-3.56208 4.567,-5.82083 0.6355,-2.53471 0.084,-5.85417 0.084,-8.46667 v -18.25625 c 0,-3.1914 0.5292,-6.75719 -2.1627,-9.08023 -3.3393,-2.88211 -10.36,-1.5031 -14.5061,-1.5031 v -12.43542 h -16.6687 m 7.1437,27.06397 c 12.9255,-1.67878 15.8991,18.87379 2.9105,20.74624 -13.8907,2.00237 -16.9037,-18.92855 -2.9105,-20.74624 m 8.9959,40.66937 11.1125,19.57917 c -10.5796,6.17378 -27.5775,6.61775 -38.1,0 l 3.3274,-6.87917 7.5205,-12.96458 c 3.8177,1.9804 6.4111,7.21333 11.3771,4.08543 1.737,-1.09432 2.9059,-2.95513 4.7625,-3.82085 m -16.1396,0.26458 0.2646,0.26459 -0.2646,-0.26459 m -0.2646,0.52917 0.2646,0.26458 -0.2646,-0.26458 m -0.2646,0.52917 -0.2646,0.52916 0.2646,-0.52916 m -0.5291,0.79375 0.2645,0.26458 -0.2645,-0.26458 m -0.2646,0.52916 0.2646,0.26459 -0.2646,-0.26459 m -0.2646,0.52917 -0.2646,0.52917 0.2646,-0.52917 m -0.5292,0.79375 0.2646,0.26458 -0.2646,-0.26458 m -0.2646,0.52917 -0.2645,0.52916 0.2645,-0.52916 m -0.5291,0.79375 0.2646,0.26458 -0.2646,-0.26458 m -0.2646,0.52916 0.2646,0.26459 -0.2646,-0.26459 m -0.2646,0.52917 -0.2646,0.52917 0.2646,-0.52917 m -0.5292,0.79375 0.2646,0.26458 -0.2646,-0.26458 m -0.2645,0.52917 0.2645,0.26458 -0.2645,-0.26458 m -0.2646,0.52916 -0.2646,0.52917 0.2646,-0.52917 m -0.5292,0.79375 0.2646,0.26459 -0.2646,-0.26459 m -0.2646,0.52917 0.2646,0.26458 -0.2646,-0.26458 m -0.5291,0.79375 0.2645,0.26458 -0.2645,-0.26458 m -0.2646,0.52917 0.2646,0.26458 -0.2646,-0.26458 m -0.2646,0.52916 0.2646,0.26459 -0.2646,-0.26459 m -0.5292,0.79375 0.2646,0.26459 -0.2646,-0.26459 m -0.2646,0.52917 0.2646,0.26458 -0.2646,-0.26458 m -0.2645,0.52917 0.2645,0.26458 -0.2645,-0.26458 m -0.5292,0.79375 0.2646,0.26458 -0.2646,-0.26458 m -0.2646,0.52916 0.2646,0.26459 -0.2646,-0.26459 m -0.2646,0.52917 -0.2646,0.52917 0.2646,-0.52917 m -0.5291,0.79375 0.2645,0.26458 -0.2645,-0.26458 m -0.2646,0.52917 0.2646,0.26458 -0.2646,-0.26458 m -0.5292,0.79375 0.2646,0.26458 -0.2646,-0.26458 m -0.2646,0.52916 0.2646,0.26459 -0.2646,-0.26459 m -0.2646,0.52917 0.2646,0.26458 z"
       id="path5444-6" />
  </g>
</svg>
