<?xml version="1.0" encoding="UTF-8" standalone="no"?>
<svg
   xmlns:dc="http://purl.org/dc/elements/1.1/"
   xmlns:cc="http://creativecommons.org/ns#"
   xmlns:rdf="http://www.w3.org/1999/02/22-rdf-syntax-ns#"
   xmlns:svg="http://www.w3.org/2000/svg"
   xmlns="http://www.w3.org/2000/svg"
   xmlns:sodipodi="http://sodipodi.sourceforge.net/DTD/sodipodi-0.dtd"
   xmlns:inkscape="http://www.inkscape.org/namespaces/inkscape"
   width="57.034027mm"
   height="58.958004mm"
   viewBox="0 0 57.034027 58.958005"
   version="1.1"
   id="svg8"
   sodipodi:docname="bash.svg"
   inkscape:version="1.0.1 (3bc2e81, 2020-09-07)">
  <defs
     id="defs2" />
  <sodipodi:namedview
     id="base"
     pagecolor="#ffffff"
     bordercolor="#666666"
     borderopacity="1.0"
     inkscape:pageopacity="0.0"
     inkscape:pageshadow="2"
     inkscape:zoom="1.2996179"
     inkscape:cx="155.28923"
     inkscape:cy="149.21833"
     inkscape:document-units="mm"
     inkscape:current-layer="layer1"
     inkscape:document-rotation="0"
     showgrid="false"
     inkscape:window-width="1338"
     inkscape:window-height="696"
     inkscape:window-x="14"
     inkscape:window-y="58"
     inkscape:window-maximized="0"
     inkscape:pagecheckerboard="true" />
  <metadata
     id="metadata5">
    <rdf:RDF>
      <cc:Work
         rdf:about="">
        <dc:format>image/svg+xml</dc:format>
        <dc:type
           rdf:resource="http://purl.org/dc/dcmitype/StillImage" />
        <dc:title />
      </cc:Work>
    </rdf:RDF>
  </metadata>
  <g
     inkscape:label="Layer 1"
     inkscape:groupmode="layer"
     id="layer1"
     transform="translate(-551.81892,-35.429116)">
    <path
       style="fill:#4d4d4d;fill-opacity:1;stroke:none;stroke-width:0.264583"
       d="m 578.1441,37.237385 c -12.50648,1.646926 -23.08082,9.885416 -25.75319,22.641879 -3.81009,18.187459 11.97186,36.569656 30.78027,34.320426 11.97716,-1.43245 23.02352,-10.488081 25.23702,-22.678759 3.20252,-17.636385 -11.30168,-36.780675 -30.2641,-34.283546 m -11.64167,26.346046 c -0.35179,-2.161382 -2.9937,-1.663436 -2.11666,-4.233334 5.63369,0.787665 -0.39833,-2.87446 -0.23273,-5.291667 0.13002,-1.89783 2.06703,-2.487057 2.34939,-4.233333 1.19274,0.03913 4.58097,1.799378 3.61495,3.352615 -0.44976,0.723185 -2.26414,0.261593 -2.08502,1.414991 0.1828,1.177026 2.03454,1.765327 2.52682,2.906343 1.00891,2.338414 -1.72812,6.00792 -4.05675,6.084385 m 5.82594,-1.2319 c 1.75729,-0.376767 4.58251,-0.376767 6.33987,0 0.70194,0.150548 1.80896,1.058598 0.71332,1.601523 -1.27186,0.630766 -6.49468,0.630766 -7.76672,0 -1.0954,-0.542925 0.0114,-1.450975 0.71353,-1.601523 z"
       id="path1121" />
    <path
       style="fill:#ffee84;fill-opacity:1;stroke:none;stroke-width:0.264583"
       d="m 578.14408,35.649882 c -12.50648,1.646926 -23.08082,9.885416 -25.75319,22.64188 -3.81009,18.187459 11.97186,36.569658 30.78027,34.320429 11.97716,-1.43245 23.02352,-10.48809 25.23702,-22.678763 3.20252,-17.636384 -11.30168,-36.780675 -30.2641,-34.283546 m -11.64167,26.346046 c -0.35179,-2.161382 -2.9937,-1.663435 -2.11666,-4.233334 5.63369,0.787665 -0.39833,-2.87446 -0.23273,-5.291667 0.13002,-1.89783 2.06703,-2.487057 2.34939,-4.233333 1.19274,0.03913 4.58097,1.799378 3.61495,3.352615 -0.44976,0.723186 -2.26414,0.261593 -2.08502,1.414991 0.1828,1.177027 2.03454,1.765328 2.52682,2.906343 1.00891,2.338414 -1.72812,6.007921 -4.05675,6.084385 m 5.82594,-1.2319 c 1.75729,-0.376766 4.58251,-0.376766 6.33987,0 0.70194,0.150548 1.80896,1.058598 0.71332,1.601523 -1.27186,0.630767 -6.49468,0.630767 -7.76672,0 -1.0954,-0.542925 0.0114,-1.450975 0.71353,-1.601523 z"
       id="path1121-2" />
  </g>
</svg>
