<?xml version="1.0" encoding="UTF-8" standalone="no"?>
<svg
   xmlns:dc="http://purl.org/dc/elements/1.1/"
   xmlns:cc="http://creativecommons.org/ns#"
   xmlns:rdf="http://www.w3.org/1999/02/22-rdf-syntax-ns#"
   xmlns:svg="http://www.w3.org/2000/svg"
   xmlns="http://www.w3.org/2000/svg"
   xmlns:sodipodi="http://sodipodi.sourceforge.net/DTD/sodipodi-0.dtd"
   xmlns:inkscape="http://www.inkscape.org/namespaces/inkscape"
   width="56.13525mm"
   height="62.669872mm"
   viewBox="0 0 56.135251 62.669873"
   version="1.1"
   id="svg8"
   sodipodi:docname="c.svg"
   inkscape:version="1.0.1 (3bc2e81, 2020-09-07)">
  <defs
     id="defs2" />
  <sodipodi:namedview
     id="base"
     pagecolor="#ffffff"
     bordercolor="#666666"
     borderopacity="1.0"
     inkscape:pageopacity="0.0"
     inkscape:pageshadow="2"
     inkscape:zoom="0.52635207"
     inkscape:cx="-265.74925"
     inkscape:cy="266.49095"
     inkscape:document-units="mm"
     inkscape:current-layer="layer1"
     inkscape:document-rotation="0"
     showgrid="false"
     inkscape:window-width="1338"
     inkscape:window-height="696"
     inkscape:window-x="14"
     inkscape:window-y="58"
     inkscape:window-maximized="0"
     inkscape:pagecheckerboard="true" />
  <metadata
     id="metadata5">
    <rdf:RDF>
      <cc:Work
         rdf:about="">
        <dc:format>image/svg+xml</dc:format>
        <dc:type
           rdf:resource="http://purl.org/dc/dcmitype/StillImage" />
        <dc:title></dc:title>
      </cc:Work>
    </rdf:RDF>
  </metadata>
  <g
     inkscape:label="Layer 1"
     inkscape:groupmode="layer"
     id="layer1"
     transform="translate(-299.70256,9.1882099)">
    <path
       style="fill:#ffee84;stroke:none;stroke-width:0.264583;fill-opacity:1"
       d="m 326.60264,-9.0951572 c -2.40588,0.458531 -4.77734,2.372286 -6.87917,3.580244 -4.41399,2.536798 -8.80763,5.10931505 -13.22916,7.633096 -2.24907,1.283759 -5.36301,2.469118 -6.35143,5.066903 -0.80208,2.108042 -0.26316,5.1746952 -0.26316,7.4083342 v 15.874999 c 0,2.478882 -0.59336,5.804165 0.96545,7.926917 1.08036,1.471083 3.05257,2.279385 4.5908,3.182673 3.42072,2.009246 6.87713,3.962135 10.31875,5.935133 3.47867,1.994429 8.75075,6.638925 12.96459,5.886979 2.218,-0.396081 4.41642,-2.178314 6.35,-3.278187 4.60189,-2.617788 9.15617,-5.319448 13.75833,-7.9375 2.16985,-1.234281 5.20383,-2.409561 6.2529,-4.836848 0.7358,-1.702329 0.36168,-4.002881 0.36168,-5.820833 v -11.90625 c 0,-3.612409 1.23402,-10.0734812 -0.65696,-13.2281352 -2.10396,-3.510121 -8.55953,-5.78839495 -12.04304,-7.785417 -3.35438,-1.923098 -6.69448,-3.869505 -10.05416,-5.783678 -1.94363,-1.107408 -3.73248,-2.366888 -6.08542,-1.91843 m 17.19792,22.1010772 -8.20209,4.497916 c -1.54305,-2.075735 -3.44937,-3.876886 -6.08541,-4.374197 -5.60898,-1.058201 -11.47321,3.508613 -11.08861,9.40128 0.59473,9.112515 12.41152,11.842221 17.17402,4.233334 l 8.20209,4.497916 c -7.47448,15.800123 -33.43789,10.225617 -34.63674,-6.879166 -0.49239,-7.025217 2.0112,-13.466895 7.91382,-17.6107202 8.43383,-5.92081895 22.12366,-3.488478 26.72292,6.2336372 z"
       id="path4427" />
  </g>
</svg>
