<?xml version="1.0" encoding="UTF-8" standalone="no"?>
<svg
   xmlns:dc="http://purl.org/dc/elements/1.1/"
   xmlns:cc="http://creativecommons.org/ns#"
   xmlns:rdf="http://www.w3.org/1999/02/22-rdf-syntax-ns#"
   xmlns:svg="http://www.w3.org/2000/svg"
   xmlns="http://www.w3.org/2000/svg"
   xmlns:sodipodi="http://sodipodi.sourceforge.net/DTD/sodipodi-0.dtd"
   xmlns:inkscape="http://www.inkscape.org/namespaces/inkscape"
   width="126.7354mm"
   height="97.102097mm"
   viewBox="0 0 126.7354 97.102103"
   version="1.1"
   id="svg8"
   sodipodi:docname="chess.svg"
   inkscape:version="1.0.1 (3bc2e81, 2020-09-07)">
  <defs
     id="defs2" />
  <sodipodi:namedview
     id="base"
     pagecolor="#ffffff"
     bordercolor="#666666"
     borderopacity="1.0"
     inkscape:pageopacity="0.0"
     inkscape:pageshadow="2"
     inkscape:zoom="0.68291583"
     inkscape:cx="293.79483"
     inkscape:cy="179.55928"
     inkscape:document-units="mm"
     inkscape:current-layer="layer1"
     inkscape:document-rotation="0"
     showgrid="false"
     inkscape:window-width="1338"
     inkscape:window-height="696"
     inkscape:window-x="14"
     inkscape:window-y="58"
     inkscape:window-maximized="0"
     inkscape:pagecheckerboard="true" />
  <metadata
     id="metadata5">
    <rdf:RDF>
      <cc:Work
         rdf:about="">
        <dc:format>image/svg+xml</dc:format>
        <dc:type
           rdf:resource="http://purl.org/dc/dcmitype/StillImage" />
        <dc:title />
      </cc:Work>
    </rdf:RDF>
  </metadata>
  <g
     inkscape:label="Layer 1"
     inkscape:groupmode="layer"
     id="layer1"
     transform="translate(-2497.4614,-204.23624)">
    <path
       style="fill:#4d4d4d;fill-opacity:1;stroke:none;stroke-width:0.264583"
       d="m 2497.4614,206.35292 v 31.75 h 31.75 v 31.48542 h -31.75 v 31.75 h 31.75 v -31.75 h 31.75 v 31.75 h 31.4854 v -31.75 h 31.75 v -31.48542 h -31.75 v -31.75 h -31.4854 v 31.75 h 31.4854 v 31.48542 h -31.4854 l -0.2646,-31.48542 h -31.4854 v -31.75 h -31.75 m 79.6396,5.29167 c 0.4948,3.39111 2.4842,4.47714 1.0583,8.20208 2.1722,1.27283 -1.7116,6.02991 1.5875,7.9375 0.33,1.13707 2.2355,2.59699 1.5097,3.89893 -0.9424,1.69092 -8.197,1.69648 -9.1114,-0.004 -0.7819,-1.45399 1.1586,-2.88319 1.5163,-4.15964 1.9902,-1.1507 1.7558,-4.91406 0.2646,-6.35 v -0.26459 l 1.3229,-6.87916 h 0.2646 l 1.0583,2.64583 -0.5291,-4.7625 1.0583,-0.26458 m 30.6917,0.26458 0.5291,4.7625 -1.3229,-2.64583 -1.3229,7.40833 c 1.7484,1.07241 1.4719,5.07447 -0.2646,6.08542 -0.3445,1.22063 -2.286,2.56714 -1.7759,3.93996 0.7435,2.00046 8.0415,1.94728 9.2382,0.42198 1.0049,-1.28119 -1.1022,-2.92766 -1.3769,-4.09736 -1.347,-1.15483 -1.8415,-2.99426 -1.5272,-4.75864 0.2358,-1.32511 1.4764,-2.20588 -0.06,-3.17886 l 0.6213,-4.49792 -1.6796,-3.70416 -1.0583,0.26458 m -93.1334,6.35 v 0.26458 l 1.8521,0.52917 v 0.52917 l -1.3229,0.26458 c 0,1.5345 -0.054,3.05517 0.6316,4.47424 0.926,1.91767 2.7904,3.34642 2.2788,5.57993 l 0.7938,0.26458 v 0.52917 l -1.0584,1.05833 c -3.311,0.2613 -7.2277,1.05042 -10.0541,-1.05833 v -0.52917 l 0.7937,-0.26458 c -0.9994,-2.18655 1.7795,-4.24299 2.4772,-6.35 0.7431,-2.24417 -0.3023,-2.86351 -0.8897,-4.7625 l 1.8521,-0.26459 c -0.5916,-0.46191 -1.1904,-0.90487 -1.5406,-1.59178 -2.9478,-5.7821 8.6457,-5.80287 5.6535,-8.2e-4 -0.351,0.68048 -0.8087,1.0042 -1.4671,1.32802 m 28.8396,0.26458 -1.5875,0.26459 1.0583,1.05833 -3.4395,10.84792 c 2.6521,2.10926 6.8516,1.46306 10.0541,1.05833 l 1.0584,-1.05833 v -0.52917 l -0.7938,-0.26458 c 0.48,-2.12164 -1.3769,-3.74656 -2.286,-5.57993 -0.7099,-1.43132 -0.6244,-2.92018 -0.6244,-4.47424 l 1.3229,-0.26458 v -0.52917 l -1.8521,-0.52917 c 0.5826,-0.46929 1.1023,-0.90223 1.4364,-1.59178 2.7636,-5.70196 -8.1245,-5.86764 -5.7581,-0.2607 0.3098,0.73443 0.8739,1.284 1.4113,1.85248 m 32.5438,25.13542 0.2645,0.79375 -2.3812,1.05833 c 0.4178,0.73184 0.9578,1.49543 0.9739,2.37094 0.023,1.19829 -1.6248,2.36299 0.084,2.92073 0,2.66145 -0.017,5.48693 -1.1851,7.9375 -0.5725,1.20121 -2.5781,2.96439 -2.0277,4.44818 0.3884,1.04669 2.0293,1.08135 2.9482,1.1041 2.2662,0.0564 6.2193,0.78449 7.1438,-1.84811 -2.8506,-3.54701 -3.4396,-7.20328 -3.4396,-11.64167 l 1.0583,-0.26458 -1.3229,-1.5875 1.3229,-3.43959 -0.7937,0.26459 -1.5875,-1.32292 0.2646,-0.79375 h -1.3229 m 32.8083,-0.26458 c 0,1.27053 1.5679,2.25398 2.1167,2.11666 -1.2267,2.40083 -0.2625,2.93688 0,5.29167 h -1.0584 c 0.039,4.74769 1.3417,7.8912 3.7042,11.90625 v 0.26459 c -2.1484,2.11322 -8.4349,2.11322 -10.5833,0 v -0.26459 c 2.4119,-4.01479 3.7009,-7.14163 3.7041,-11.90625 -1.7071,-0.57388 -0.061,-1.72826 -0.1225,-2.92073 -0.044,-0.84402 -0.562,-1.6391 -0.9358,-2.37094 1.1112,0.0397 2.0063,-1.06971 2.1167,-2.11666 h 1.0583 m -99.2188,1.5875 c 0,3.73539 1.7942,6.51827 0.8214,10.31875 -0.4758,1.85843 -3.1541,4.62677 -2.2492,6.53441 0.7907,1.66688 6.481,0.96044 8.0424,0.85011 0.713,-0.0503 1.8525,-0.0995 2.2084,-0.8427 0.8819,-1.8415 -1.6652,-4.27434 -2.1637,-6.01265 -1.1023,-3.84467 0.4845,-7.01332 0.4845,-10.84792 h -1.0583 v 1.32291 h -0.5292 v -1.32291 h -3.9688 v 1.32291 h -0.5291 v -1.32291 h -1.0584 m 32.8084,0 v 1.32291 h 0.5291 v -1.32291 h 3.9688 v 1.32291 h 0.5292 v -1.32291 h 1.0583 c 0,3.86662 -1.6986,6.63839 -0.667,10.58307 0.4521,1.72826 3.131,4.50294 2.3452,6.2357 -0.3299,0.7276 -1.5226,0.79428 -2.2074,0.86307 -1.5774,0.15875 -7.2744,0.81624 -8.1497,-0.83159 -0.8959,-1.68592 1.7407,-4.60983 2.2154,-6.26718 1.1213,-3.91478 -0.6803,-6.73312 -0.6803,-10.58307 h 1.0584 m -30.1625,29.89792 c 1.1183,3.13875 5.6691,1.9595 6.35,5.29166 l -2.1167,-0.26458 v 0.26458 l 1.5875,0.79375 v 0.26459 l -4.2333,-0.26459 c 0.9414,2.01877 6.7217,5.97747 2.9104,8.20209 0.6347,1.44356 2.4773,4.20423 1.3464,5.7613 -1.3303,1.83197 -8.6174,1.87457 -9.7157,-0.23283 -0.8393,-1.61052 0.8512,-3.73275 1.2255,-5.26389 -2.3337,-0.94985 -0.2628,-2.37437 -0.4309,-4.20952 -0.1364,-1.48934 -1.1798,-2.72653 -1.2589,-4.25715 -0.1345,-2.60694 2.5715,-4.56538 4.3357,-6.08541 m 31.4854,0 -3.9706,4.7625 1.1091,5.82083 -1.1073,3.43958 1.5875,0.52917 c -0.4143,1.47637 -2.0923,3.59622 -1.4255,5.16784 0.9686,2.28309 8.5383,2.14921 9.879,0.32808 1.2044,-1.63565 -0.7919,-4.18173 -1.3097,-5.7605 3.6832,-2.2532 -1.9749,-6.19575 -2.9104,-8.20209 l 4.2333,0.26459 v -0.26459 l -1.0583,-0.52916 v -0.26459 l 1.3229,0.26459 c -0.163,-3.49462 -4.8075,-2.72468 -6.35,-5.55625 m 33.0729,0 c 0.5972,0.99695 0.7496,1.57268 0.2646,2.64583 2.3968,0.4908 1.2795,2.52148 0.7937,4.23333 0.6813,0.24077 0.9909,0.53922 0.797,1.32795 -0.5718,2.32489 -0.8528,4.78128 0.031,7.1284 0.5406,1.43616 2.1069,2.42332 2.0826,3.97907 1.1112,1.10887 -1.3224,1.67058 -2.1167,1.77562 -2.2477,0.2966 -5.1435,0.37968 -6.8792,-1.24645 v -0.26459 c 1.8566,-2.85432 5.551,-8.03248 2.3813,-11.37708 0.8141,-2.0783 0.5871,-2.83422 0.2646,-5.02708 l 1.852,-0.52917 c -0.5072,-1.12289 -0.3619,-1.79308 0.5292,-2.64583 m 31.2208,0 -0.2645,2.64583 c -2.1,0.43788 -1.1417,3.73274 -1.8521,5.55625 1.6478,1.74546 0.9673,6.17299 -0.1942,8.08593 -0.5948,0.97975 -2.553,2.70907 -1.692,3.97113 1.0072,1.47691 7.9255,1.59597 8.6492,-0.21114 0.3895,-0.97207 -0.5768,-2.10793 -1.0975,-2.82627 -1.5767,-2.17541 -1.8013,-4.53761 -1.6918,-7.16651 0.051,-1.2192 1.3113,-2.61911 -0.2696,-3.17606 0.4787,-1.69942 1.5587,-3.75152 -0.7937,-4.23333 v -0.79375 c 0.713,-0.71993 -0.092,-1.43404 -0.7938,-1.85208 m -59.5312,5.11519 c 0.2045,0 0.042,0.13176 -0.088,0.0884 z"
       id="path6229" />
    <path
       style="fill:#687aff;fill-opacity:1;stroke:none;stroke-width:0.264583"
       d="m 2497.4614,204.23624 v 31.75 h 31.75 v 31.48542 h -31.75 v 31.75 h 31.75 v -31.75 h 31.75 v 31.75 h 31.4854 v -31.75 h 31.75 v -31.48542 h -31.75 v -31.75 h -31.4854 v 31.75 h 31.4854 v 31.48542 h -31.4854 l -0.2646,-31.48542 h -31.4854 v -31.75 h -31.75 m 79.6396,5.29167 c 0.4948,3.39111 2.4842,4.47714 1.0583,8.20208 2.1722,1.27283 -1.7116,6.02991 1.5875,7.9375 0.33,1.13707 2.2355,2.59699 1.5097,3.89893 -0.9424,1.69092 -8.197,1.69648 -9.1114,-0.004 -0.7819,-1.45399 1.1586,-2.88319 1.5163,-4.15964 1.9902,-1.1507 1.7558,-4.91406 0.2646,-6.35 v -0.26459 l 1.3229,-6.87916 h 0.2646 l 1.0583,2.64583 -0.5291,-4.7625 1.0583,-0.26458 m 30.6917,0.26458 0.5291,4.7625 -1.3229,-2.64583 -1.3229,7.40833 c 1.7484,1.07241 1.4719,5.07447 -0.2646,6.08542 -0.3445,1.22063 -2.286,2.56714 -1.7759,3.93996 0.7435,2.00046 8.0415,1.94728 9.2382,0.42198 1.0049,-1.28119 -1.1022,-2.92766 -1.3769,-4.09736 -1.347,-1.15483 -1.8415,-2.99426 -1.5272,-4.75864 0.2358,-1.32511 1.4764,-2.20588 -0.06,-3.17886 l 0.6213,-4.49792 -1.6796,-3.70416 -1.0583,0.26458 m -93.1334,6.35 v 0.26458 l 1.8521,0.52917 v 0.52917 l -1.3229,0.26458 c 0,1.5345 -0.054,3.05517 0.6316,4.47424 0.926,1.91767 2.7904,3.34642 2.2788,5.57993 l 0.7938,0.26458 v 0.52917 l -1.0584,1.05833 c -3.311,0.2613 -7.2277,1.05042 -10.0541,-1.05833 v -0.52917 l 0.7937,-0.26458 c -0.9994,-2.18655 1.7795,-4.24299 2.4772,-6.35 0.7431,-2.24417 -0.3023,-2.86351 -0.8897,-4.7625 l 1.8521,-0.26459 c -0.5916,-0.46191 -1.1904,-0.90487 -1.5406,-1.59178 -2.9478,-5.7821 8.6457,-5.80287 5.6535,-8.2e-4 -0.351,0.68048 -0.8087,1.0042 -1.4671,1.32802 m 28.8396,0.26458 -1.5875,0.26459 1.0583,1.05833 -3.4395,10.84792 c 2.6521,2.10926 6.8516,1.46306 10.0541,1.05833 l 1.0584,-1.05833 v -0.52917 l -0.7938,-0.26458 c 0.48,-2.12164 -1.3769,-3.74656 -2.286,-5.57993 -0.7099,-1.43132 -0.6244,-2.92018 -0.6244,-4.47424 l 1.3229,-0.26458 v -0.52917 l -1.8521,-0.52917 c 0.5826,-0.46929 1.1023,-0.90223 1.4364,-1.59178 2.7636,-5.70196 -8.1245,-5.86764 -5.7581,-0.2607 0.3098,0.73443 0.8739,1.284 1.4113,1.85248 m 32.5438,25.13542 0.2645,0.79375 -2.3812,1.05833 c 0.4178,0.73184 0.9578,1.49543 0.9739,2.37094 0.023,1.19829 -1.6248,2.36299 0.084,2.92073 0,2.66145 -0.017,5.48693 -1.1851,7.9375 -0.5725,1.20121 -2.5781,2.96439 -2.0277,4.44818 0.3884,1.04669 2.0293,1.08135 2.9482,1.1041 2.2662,0.0564 6.2193,0.78449 7.1438,-1.84811 -2.8506,-3.54701 -3.4396,-7.20328 -3.4396,-11.64167 l 1.0583,-0.26458 -1.3229,-1.5875 1.3229,-3.43959 -0.7937,0.26459 -1.5875,-1.32292 0.2646,-0.79375 h -1.3229 m 32.8083,-0.26458 c 0,1.27053 1.5679,2.25398 2.1167,2.11666 -1.2267,2.40083 -0.2625,2.93688 0,5.29167 h -1.0584 c 0.039,4.74769 1.3417,7.8912 3.7042,11.90625 v 0.26459 c -2.1484,2.11322 -8.4349,2.11322 -10.5833,0 v -0.26459 c 2.4119,-4.01479 3.7009,-7.14163 3.7041,-11.90625 -1.7071,-0.57388 -0.061,-1.72826 -0.1225,-2.92073 -0.044,-0.84402 -0.562,-1.6391 -0.9358,-2.37094 1.1112,0.0397 2.0063,-1.06971 2.1167,-2.11666 h 1.0583 m -99.2188,1.5875 c 0,3.73539 1.7942,6.51827 0.8214,10.31875 -0.4758,1.85843 -3.1541,4.62677 -2.2492,6.53441 0.7907,1.66688 6.481,0.96044 8.0424,0.85011 0.713,-0.0503 1.8525,-0.0995 2.2084,-0.8427 0.8819,-1.8415 -1.6652,-4.27434 -2.1637,-6.01265 -1.1023,-3.84467 0.4845,-7.01332 0.4845,-10.84792 h -1.0583 v 1.32291 h -0.5292 v -1.32291 h -3.9688 v 1.32291 h -0.5291 v -1.32291 h -1.0584 m 32.8084,0 v 1.32291 h 0.5291 v -1.32291 h 3.9688 v 1.32291 h 0.5292 v -1.32291 h 1.0583 c 0,3.86662 -1.6986,6.63839 -0.667,10.58307 0.4521,1.72826 3.131,4.50294 2.3452,6.2357 -0.3299,0.7276 -1.5226,0.79428 -2.2074,0.86307 -1.5774,0.15875 -7.2744,0.81624 -8.1497,-0.83159 -0.8959,-1.68592 1.7407,-4.60983 2.2154,-6.26718 1.1213,-3.91478 -0.6803,-6.73312 -0.6803,-10.58307 h 1.0584 m -30.1625,29.89792 c 1.1183,3.13875 5.6691,1.9595 6.35,5.29166 l -2.1167,-0.26458 v 0.26458 l 1.5875,0.79375 v 0.26459 l -4.2333,-0.26459 c 0.9414,2.01877 6.7217,5.97747 2.9104,8.20209 0.6347,1.44356 2.4773,4.20423 1.3464,5.7613 -1.3303,1.83197 -8.6174,1.87457 -9.7157,-0.23283 -0.8393,-1.61052 0.8512,-3.73275 1.2255,-5.26389 -2.3337,-0.94985 -0.2628,-2.37437 -0.4309,-4.20952 -0.1364,-1.48934 -1.1798,-2.72653 -1.2589,-4.25715 -0.1345,-2.60694 2.5715,-4.56538 4.3357,-6.08541 m 31.4854,0 -3.9706,4.7625 1.1091,5.82083 -1.1073,3.43958 1.5875,0.52917 c -0.4143,1.47637 -2.0923,3.59622 -1.4255,5.16784 0.9686,2.28309 8.5383,2.14921 9.879,0.32808 1.2044,-1.63565 -0.7919,-4.18173 -1.3097,-5.7605 3.6832,-2.2532 -1.9749,-6.19575 -2.9104,-8.20209 l 4.2333,0.26459 v -0.26459 l -1.0583,-0.52916 v -0.26459 l 1.3229,0.26459 c -0.163,-3.49462 -4.8075,-2.72468 -6.35,-5.55625 m 33.0729,0 c 0.5972,0.99695 0.7496,1.57268 0.2646,2.64583 2.3968,0.4908 1.2795,2.52148 0.7937,4.23333 0.6813,0.24077 0.9909,0.53922 0.797,1.32795 -0.5718,2.32489 -0.8528,4.78128 0.031,7.1284 0.5406,1.43616 2.1069,2.42332 2.0826,3.97907 1.1112,1.10887 -1.3224,1.67058 -2.1167,1.77562 -2.2477,0.2966 -5.1435,0.37968 -6.8792,-1.24645 v -0.26459 c 1.8566,-2.85432 5.551,-8.03248 2.3813,-11.37708 0.8141,-2.0783 0.5871,-2.83422 0.2646,-5.02708 l 1.852,-0.52917 c -0.5072,-1.12289 -0.3619,-1.79308 0.5292,-2.64583 m 31.2208,0 -0.2645,2.64583 c -2.1,0.43788 -1.1417,3.73274 -1.8521,5.55625 1.6478,1.74546 0.9673,6.17299 -0.1942,8.08593 -0.5948,0.97975 -2.553,2.70907 -1.692,3.97113 1.0072,1.47691 7.9255,1.59597 8.6492,-0.21114 0.3895,-0.97207 -0.5768,-2.10793 -1.0975,-2.82627 -1.5767,-2.17541 -1.8013,-4.53761 -1.6918,-7.16651 0.051,-1.2192 1.3113,-2.61911 -0.2696,-3.17606 0.4787,-1.69942 1.5587,-3.75152 -0.7937,-4.23333 v -0.79375 c 0.713,-0.71993 -0.092,-1.43404 -0.7938,-1.85208 m -59.5312,5.11519 c 0.2045,0 0.042,0.13176 -0.088,0.0884 z"
       id="path6229-9" />
  </g>
</svg>
