<?xml version="1.0" encoding="UTF-8" standalone="no"?>
<svg
   xmlns:dc="http://purl.org/dc/elements/1.1/"
   xmlns:cc="http://creativecommons.org/ns#"
   xmlns:rdf="http://www.w3.org/1999/02/22-rdf-syntax-ns#"
   xmlns:svg="http://www.w3.org/2000/svg"
   xmlns="http://www.w3.org/2000/svg"
   xmlns:sodipodi="http://sodipodi.sourceforge.net/DTD/sodipodi-0.dtd"
   xmlns:inkscape="http://www.inkscape.org/namespaces/inkscape"
   width="50.158379mm"
   height="56.743767mm"
   viewBox="0 0 50.158379 56.743767"
   version="1.1"
   id="svg8"
   sodipodi:docname="cpp.svg"
   inkscape:version="1.0.1 (3bc2e81, 2020-09-07)">
  <defs
     id="defs2" />
  <sodipodi:namedview
     id="base"
     pagecolor="#ffffff"
     bordercolor="#666666"
     borderopacity="1.0"
     inkscape:pageopacity="0.0"
     inkscape:pageshadow="2"
     inkscape:zoom="1.0476242"
     inkscape:cx="-79.836155"
     inkscape:cy="115.28904"
     inkscape:document-units="mm"
     inkscape:current-layer="layer1"
     inkscape:document-rotation="0"
     showgrid="false"
     inkscape:window-width="1338"
     inkscape:window-height="696"
     inkscape:window-x="14"
     inkscape:window-y="58"
     inkscape:window-maximized="0"
     inkscape:pagecheckerboard="true" />
  <metadata
     id="metadata5">
    <rdf:RDF>
      <cc:Work
         rdf:about="">
        <dc:format>image/svg+xml</dc:format>
        <dc:type
           rdf:resource="http://purl.org/dc/dcmitype/StillImage" />
        <dc:title />
      </cc:Work>
    </rdf:RDF>
  </metadata>
  <g
     inkscape:label="Layer 1"
     inkscape:groupmode="layer"
     id="layer1"
     transform="translate(-170.67126,8.1780892)">
    <path
       style="fill:#4d4d4d;fill-opacity:1;stroke:none;stroke-width:0.264583"
       d="m 195.08828,-6.0044368 c -2.19843,0.360058 -4.17269,1.915993 -6.08542,2.966548 -4.0736,2.23744901 -8.12654,4.517734 -12.17083,6.807729 -1.98615,1.124611 -4.68686,2.12463 -5.59872,4.385839 -0.84471,2.0946268 -0.4867,4.6688108 -0.4867,6.8789548 V 28.2638 c 0,2.285207 -0.40555,5.146675 1.01976,7.119144 0.98329,1.360488 2.85067,2.084388 4.27191,2.895336 2.90076,1.654704 5.83234,3.255168 8.73125,4.913577 2.99331,1.712383 8.03486,5.907881 11.64166,5.317331 2.33839,-0.383117 4.5892,-2.086504 6.61459,-3.237706 3.86926,-2.199746 7.76896,-4.343665 11.64166,-6.536532 1.96744,-1.11416 4.68948,-2.148416 5.59859,-4.386791 0.84904,-2.089679 0.48683,-4.671484 0.48683,-6.878109 V 13.9763 c 0,-2.381197 0.34581,-5.1102678 -1.26709,-7.0947488 -2.75881,-3.39381 -9.21914,-5.563076 -13.02041,-7.68495499 C 203.47689,-2.4715218 198.68,-6.5926588 195.08828,-6.0044368 m 11.90625,18.9224038 c -1.43034,0.668629 -3.38641,2.536005 -5.02709,2.406782 -3.10409,-0.244528 -4.5802,-3.002306 -8.20208,-2.012553 -7.28702,1.99136 -8.26773,11.839046 -1.5875,15.263548 2.14127,1.097756 4.69847,1.156759 6.87917,0.130704 0.92524,-0.435504 1.86743,-1.44436 2.91041,-1.526381 1.64068,-0.129381 3.59675,1.738048 5.02709,2.40665 -0.95806,3.413654 -5.59118,5.183717 -8.73125,5.819775 -8.5766,1.737783 -16.87092,-5.369454 -16.93212,-14.021858 -0.0553,-7.820396 6.44761,-14.4954098 14.28628,-14.5508658 3.83276,-0.02712 10.21239,1.934527 11.37709,6.0841988 m 0.79375,4.7625 c 0.0212,1.780646 0.59716,2.338123 2.38125,2.38125 v 2.38125 c -1.78409,0.04313 -2.36009,0.600604 -2.38125,2.38125 h -2.64584 c -0.0214,-1.807898 -0.57335,-2.359819 -2.38125,-2.38125 v -2.38125 c 1.8079,-0.02143 2.35982,-0.573352 2.38125,-2.38125 h 2.64584 m 8.20208,0 c 0.11562,1.533261 0.84799,2.265627 2.38125,2.38125 v 2.38125 c -1.53326,0.115623 -2.26563,0.84799 -2.38125,2.38125 h -2.38125 c -0.11562,-1.53326 -0.84799,-2.265627 -2.38125,-2.38125 v -2.38125 c 1.53326,-0.115623 2.26563,-0.847989 2.38125,-2.38125 z"
       id="path935" />
    <path
       style="fill:#ffee84;fill-opacity:1;stroke:none;stroke-width:0.264583"
       d="m 195.08828,-8.1211032 c -2.19843,0.3600577 -4.17269,1.9159931 -6.08542,2.9665481 -4.0736,2.237449 -8.12654,4.51773357 -12.17083,6.8077284 -1.98615,1.1246112 -4.68686,2.1246302 -5.59872,4.3858392 -0.84471,2.094627 -0.4867,4.6688115 -0.4867,6.8789565 v 13.229167 c 0,2.285206 -0.40555,5.146675 1.01976,7.119144 0.98329,1.360487 2.85067,2.084387 4.27191,2.895335 2.90076,1.654704 5.83234,3.255169 8.73125,4.913577 2.99331,1.712384 8.03486,5.907882 11.64166,5.317332 2.33839,-0.383117 4.5892,-2.086505 6.61459,-3.237707 3.86926,-2.199746 7.76896,-4.343664 11.64166,-6.536531 1.96744,-1.11416 4.68948,-2.148417 5.59859,-4.386792 0.84904,-2.089679 0.48683,-4.671483 0.48683,-6.878108 V 11.859634 c 0,-2.3811975 0.34581,-5.1102685 -1.26709,-7.0947495 -2.75881,-3.3938102 -9.21914,-5.56307603 -13.02041,-7.6849546 -2.98847,-1.668118 -7.78536,-5.7892548 -11.37708,-5.2010331 m 11.90625,18.9224042 c -1.43034,0.668629 -3.38641,2.536006 -5.02709,2.406783 -3.10409,-0.244528 -4.5802,-3.002308 -8.20208,-2.012554 -7.28702,1.991361 -8.26773,11.839048 -1.5875,15.26355 2.14127,1.097756 4.69847,1.156758 6.87917,0.130704 0.92524,-0.435504 1.86743,-1.44436 2.91041,-1.526381 1.64068,-0.129382 3.59675,1.738048 5.02709,2.40665 -0.95806,3.413654 -5.59118,5.183716 -8.73125,5.819775 -8.5766,1.737783 -16.87092,-5.369454 -16.93212,-14.021859 -0.0553,-7.820397 6.44761,-14.4954115 14.28628,-14.5508675 3.83276,-0.02712 10.21239,1.934527 11.37709,6.0841995 m 0.79375,4.762501 c 0.0212,1.780646 0.59716,2.338123 2.38125,2.38125 v 2.381251 c -1.78409,0.04313 -2.36009,0.600604 -2.38125,2.38125 h -2.64584 c -0.0214,-1.807898 -0.57335,-2.359819 -2.38125,-2.38125 v -2.381251 c 1.8079,-0.02143 2.35982,-0.573352 2.38125,-2.38125 h 2.64584 m 8.20208,0 c 0.11562,1.533261 0.84799,2.265627 2.38125,2.38125 v 2.381251 c -1.53326,0.115623 -2.26563,0.847989 -2.38125,2.38125 h -2.38125 c -0.11562,-1.533261 -0.84799,-2.265627 -2.38125,-2.38125 v -2.381251 c 1.53326,-0.115623 2.26563,-0.847989 2.38125,-2.38125 z"
       id="path935-5" />
  </g>
</svg>
