<?xml version="1.0" encoding="UTF-8" standalone="no"?>
<svg
   xmlns:dc="http://purl.org/dc/elements/1.1/"
   xmlns:cc="http://creativecommons.org/ns#"
   xmlns:rdf="http://www.w3.org/1999/02/22-rdf-syntax-ns#"
   xmlns:svg="http://www.w3.org/2000/svg"
   xmlns="http://www.w3.org/2000/svg"
   xmlns:sodipodi="http://sodipodi.sourceforge.net/DTD/sodipodi-0.dtd"
   xmlns:inkscape="http://www.inkscape.org/namespaces/inkscape"
   width="100mm"
   height="102.11667mm"
   viewBox="0 0 99.999998 102.11668"
   version="1.1"
   id="svg8"
   sodipodi:docname="freecad.svg"
   inkscape:version="1.0.1 (3bc2e81, 2020-09-07)">
  <defs
     id="defs2" />
  <sodipodi:namedview
     id="base"
     pagecolor="#ffffff"
     bordercolor="#666666"
     borderopacity="1.0"
     inkscape:pageopacity="0.0"
     inkscape:pageshadow="2"
     inkscape:zoom="1.1629094"
     inkscape:cx="117.63306"
     inkscape:cy="122.3413"
     inkscape:document-units="mm"
     inkscape:current-layer="layer1"
     inkscape:document-rotation="0"
     showgrid="false"
     inkscape:window-width="1338"
     inkscape:window-height="696"
     inkscape:window-x="14"
     inkscape:window-y="58"
     inkscape:window-maximized="0"
     inkscape:pagecheckerboard="true" />
  <metadata
     id="metadata5">
    <rdf:RDF>
      <cc:Work
         rdf:about="">
        <dc:format>image/svg+xml</dc:format>
        <dc:type
           rdf:resource="http://purl.org/dc/dcmitype/StillImage" />
        <dc:title />
      </cc:Work>
    </rdf:RDF>
  </metadata>
  <g
     inkscape:label="Layer 1"
     inkscape:groupmode="layer"
     id="layer1"
     transform="translate(-2384.6805,84.750746)">
    <path
       style="fill:#4d4d4d;fill-opacity:1;stroke:none;stroke-width:0.0333333"
       d="m 2384.6805,-82.634079 v 100 h 100 v -100 h -100 m 45.3667,24.633333 v 0.03333 c -2.662,1.7959 -5.0737,3.926866 -7.0527,6.466666 -0.7237,0.928967 -1.407,1.890267 -2.014,2.9 -0.1857,0.308667 -0.37,0.617667 -0.5437,0.933334 -0.071,0.128666 -0.1473,0.350333 -0.274,0.432333 -0.19,0.123333 -0.6596,0.03433 -0.8823,0.03433 h -2.3 -8.6667 v 8.9 h 8.8 c -0.061,0.767667 -0.22,1.532 -0.2943,2.3 -0.1232,1.273333 -0.1604,2.585667 -0.1044,3.866667 0.072,1.636666 0.3896,3.214 0.5987,4.833333 h -9 v 18.6333408 h -10.8666 V -58.000746 h 32.6 m 16.1,0.03333 v 13.899999 c -2.3347,0 -4.6667,0.755 -6.5667,2.109667 -1.28,0.912333 -2.3537,2.083667 -3.173,3.423667 -0.7367,1.205 -1.2323,2.574333 -1.463,3.966666 -0.2263,1.365667 -0.2103,2.777 0.076,4.133334 0.273,1.291 0.7544,2.549333 1.4614,3.666666 0.764,1.207001 1.72,2.278001 2.865,3.136667 3.8766,2.908 9.204,2.968 13.2,0.274334 1.4263,-0.961334 2.6153,-2.288 3.4666,-3.777667 0.9667,-1.691667 1.4667,-3.622 1.4667,-5.566667 l 13.9667,0.03333 -0.243,3.366667 -0.657,3.3 -1.4667,-0.293 -1.2667,-0.273667 -1.162,3.166667 -0.7713,1.566667 c 0.81,0.349333 1.597,0.979667 2.3333,1.466667 -0.129,0.447 -0.4746,0.874 -0.7193,1.266666 -0.6267,1.006334 -1.3397,1.969334 -2.114,2.866667 -0.2523,0.292333 -0.5063,0.584333 -0.7697,0.866667 -0.078,0.08333 -0.204,0.258333 -0.3303,0.26 -0.148,0.0017 -0.329,-0.223667 -0.4333,-0.312667 -0.3907,-0.333 -0.7767,-0.671333 -1.1667,-1.005 -0.1123,-0.096 -0.3713,-0.410333 -0.5333,-0.369 -0.3524,0.09 -0.763,0.685 -1.0334,0.925 -0.6066,0.538667 -1.24,1.044 -1.9,1.515667 -0.2816,0.201333 -0.5743,0.462666 -0.9,0.586 l 1.3334,2.5 c -1.4027,0.858666 -2.8647,1.6133328 -4.4,2.2063328 -0.3737,0.144333 -0.7534,0.278 -1.1334,0.404667 -0.1096,0.03667 -0.3033,0.143333 -0.4193,0.099 -0.152,-0.058 -0.2383,-0.500334 -0.2913,-0.643334 -0.2364,-0.639333 -0.543,-1.2756658 -0.7227,-1.9333328 -1.5413,0.492667 -3.3087,0.899 -4.9333,0.9 v 2.7999998 c -1.601,0.202333 -3.3404,0.06933 -4.9334,-0.157667 -0.3893,-0.05533 -0.781,-0.105666 -1.1666,-0.182333 -0.1157,-0.023 -0.32,-0.023 -0.4134,-0.09933 -0.1226,-0.1 0,-0.521 0.023,-0.660667 0.064,-0.489 0.1323,-0.978667 0.2047,-1.4666668 0.021,-0.144 0.1253,-0.454333 0.049,-0.585666 -0.1103,-0.189 -0.788,-0.241334 -0.996,-0.293334 -0.9003,-0.225333 -1.811,-0.502 -2.6666,-0.863666 -0.244,-0.103334 -0.4904,-0.199667 -0.7334,-0.304667 -0.08,-0.03467 -0.1976,-0.117 -0.2873,-0.078 -0.1723,0.07467 -0.2967,0.468 -0.384,0.625333 -0.325,0.586334 -0.6213,1.189 -0.962,1.7666668 -1.541,-0.5976668 -3.0003,-1.5849998 -4.3333,-2.5473328 -0.42,-0.303334 -0.8024,-0.667667 -1.2334,-0.952667 l 0.671,-0.966667 0.9957,-1.3 v -0.03333 c -0.9903,-0.619667 -1.841,-1.688333 -2.5957,-2.566667 -0.2053,-0.239 -0.4023,-0.485666 -0.5973,-0.733333 -0.065,-0.08267 -0.1513,-0.250333 -0.275,-0.243667 -0.199,0.01067 -0.5007,0.29 -0.6653,0.399334 -0.5057,0.335333 -1.088,0.86 -1.6667,1.044333 -0.8547,-1.256333 -1.661,-2.505667 -2.3417,-3.866667 -0.301,-0.602333 -0.6466,-1.248333 -0.825,-1.9 l 2.5334,-1.166666 c -0.435,-0.976667 -0.7174,-2.058668 -0.9474,-3.100001 -0.1266,-0.573333 -0.294,-1.178333 -0.3193,-1.766667 l -2.8,0.233334 c -0.133,-1.684334 -0.403,-3.407667 -0.1807,-5.1 0.048,-0.364334 0.046,-0.734667 0.095,-1.1 0.013,-0.100334 -0.01,-0.295667 0.077,-0.365667 0.1354,-0.109667 0.5107,-0.003 0.6754,-0.001 0.7003,0.0087 1.399,0.133333 2.1,0.133333 0.048,-1.119333 0.407,-2.256333 0.6876,-3.333333 0.073,-0.282 0.176,-0.557 0.268,-0.833333 0.033,-0.1 0.112,-0.253667 0.067,-0.359334 -0.061,-0.143 -0.3577,-0.206333 -0.489,-0.266333 -0.4623,-0.211 -0.9323,-0.408667 -1.4,-0.607667 -0.1363,-0.058 -0.5667,-0.161666 -0.5767,-0.337 -0.021,-0.361333 0.34,-0.933333 0.4817,-1.263 0.479,-1.116 1.038,-2.195 1.6683,-3.233332 0.1914,-0.315334 0.384,-0.633 0.598,-0.933334 0.064,-0.09067 0.1497,-0.279 0.268,-0.305666 0.1464,-0.033 0.3757,0.174 0.494,0.245666 0.434,0.263667 0.8697,0.525667 1.3,0.795 0.1264,0.079 0.4394,0.354334 0.5944,0.294667 0.1193,-0.04633 0.2113,-0.231667 0.2846,-0.329667 0.1937,-0.258 0.384,-0.518666 0.5904,-0.766666 0.7026,-0.845 1.4596,-1.829667 2.364,-2.466667 v -0.03333 c -0.667,-0.582834 -1.182,-1.472167 -1.7334,-2.166667 v -0.03333 c 1.0884,-1.0023 2.311,-1.869467 3.5667,-2.647467 0.6067,-0.375833 1.24,-0.777733 1.9,-1.052533 0.3107,0.589533 0.668,1.1557 1,1.733333 0.091,0.157633 0.2327,0.553867 0.407,0.6253 0.2087,0.08547 0.7877,-0.321233 0.993,-0.405167 0.8817,-0.360366 1.8513,-0.8467 2.8,-0.9868 -0.04,-0.912633 -0.3927,-1.8692 -0.5667,-2.766666 0.7457,-0.1004 1.489,-0.351667 2.2334,-0.485867 1.477,-0.2663 3.001,-0.414133 4.5,-0.414133 z"
       id="path6395" />
    <path
       style="fill:#ffee84;fill-opacity:1;stroke:none;stroke-width:0.0333333"
       d="m 2384.6805,-86.867414 v 100 h 100 v -100 h -100 m 45.3667,24.633332 v 0.03333 c -2.662,1.795901 -5.0737,3.926866 -7.0527,6.466667 -0.7237,0.928966 -1.407,1.890266 -2.014,2.9 -0.1857,0.308666 -0.37,0.617667 -0.5437,0.933334 -0.071,0.128664 -0.1473,0.350332 -0.274,0.432332 -0.19,0.123333 -0.6596,0.03433 -0.8823,0.03433 h -2.3 -8.6667 v 8.900002 h 8.8 c -0.061,0.767667 -0.22,1.532001 -0.2943,2.299999 -0.1232,1.273334 -0.1604,2.585667 -0.1044,3.866668 0.072,1.636665 0.3896,3.214 0.5987,4.833332 h -9 v 18.633343 h -10.8666 v -49.333336 h 32.6 m 16.1,0.03333 v 13.899998 c -2.3347,0 -4.6667,0.755002 -6.5667,2.109669 -1.28,0.912334 -2.3537,2.083668 -3.173,3.423666 -0.7367,1.205 -1.2323,2.574332 -1.463,3.966668 -0.2263,1.365665 -0.2103,2.776998 0.076,4.133334 0.273,1.291 0.7544,2.549332 1.4614,3.666664 0.764,1.207 1.72,2.278002 2.865,3.136668 3.8766,2.908001 9.204,2.968 13.2,0.274333 1.4263,-0.961335 2.6153,-2.288001 3.4666,-3.777666 0.9667,-1.691669 1.4667,-3.622 1.4667,-5.566666 l 13.9667,0.03333 -0.243,3.366667 -0.657,3.3 -1.4667,-0.293 -1.2667,-0.273666 -1.162,3.166666 -0.7713,1.566666 c 0.81,0.349335 1.597,0.979668 2.3333,1.466668 -0.129,0.447 -0.4746,0.874 -0.7193,1.266666 -0.6267,1.006335 -1.3397,1.969333 -2.114,2.866668 -0.2523,0.292333 -0.5063,0.584332 -0.7697,0.866666 -0.078,0.08333 -0.204,0.258331 -0.3303,0.260001 -0.148,0.0016 -0.329,-0.223668 -0.4333,-0.312669 -0.3907,-0.332999 -0.7767,-0.671332 -1.1667,-1.004998 -0.1123,-0.096 -0.3713,-0.410335 -0.5333,-0.369001 -0.3524,0.09 -0.763,0.685 -1.0334,0.924999 -0.6066,0.538668 -1.24,1.044001 -1.9,1.515668 -0.2816,0.201332 -0.5743,0.462666 -0.9,0.585999 l 1.3334,2.5 c -1.4027,0.858666 -2.8647,1.613335 -4.4,2.206336 -0.3737,0.144333 -0.7534,0.278 -1.1334,0.404667 -0.1096,0.03667 -0.3033,0.143332 -0.4193,0.099 -0.152,-0.058 -0.2383,-0.500335 -0.2913,-0.643335 -0.2364,-0.639334 -0.543,-1.275666 -0.7227,-1.933332 -1.5413,0.492667 -3.3087,0.898998 -4.9333,0.899998 v 2.800003 c -1.601,0.202332 -3.3404,0.06933 -4.9334,-0.157668 -0.3893,-0.05533 -0.781,-0.105666 -1.1666,-0.182332 -0.1157,-0.02299 -0.32,-0.02299 -0.4134,-0.09933 -0.1226,-0.100001 0,-0.521002 0.023,-0.660668 0.064,-0.489 0.1323,-0.978668 0.2047,-1.466669 0.021,-0.143999 0.1253,-0.454332 0.049,-0.585665 -0.1103,-0.189 -0.788,-0.241335 -0.996,-0.293333 -0.9003,-0.225335 -1.811,-0.502002 -2.6666,-0.863667 -0.244,-0.103335 -0.4904,-0.199667 -0.7334,-0.304667 -0.08,-0.03467 -0.1976,-0.116999 -0.2873,-0.078 -0.1723,0.07467 -0.2967,0.468 -0.384,0.625332 -0.325,0.586335 -0.6213,1.189 -0.962,1.766668 -1.541,-0.597668 -3.0003,-1.585 -4.3333,-2.547335 -0.42,-0.303334 -0.8024,-0.667665 -1.2334,-0.952666 l 0.671,-0.966666 0.9957,-1.300001 v -0.03333 c -0.9903,-0.619667 -1.841,-1.688333 -2.5957,-2.566667 -0.2053,-0.239001 -0.4023,-0.485667 -0.5973,-0.733333 -0.065,-0.08267 -0.1513,-0.250332 -0.275,-0.243668 -0.199,0.01066 -0.5007,0.29 -0.6653,0.399333 -0.5057,0.335336 -1.088,0.860002 -1.6667,1.044335 -0.8547,-1.256335 -1.661,-2.505668 -2.3417,-3.866666 -0.301,-0.602335 -0.6466,-1.248333 -0.825,-1.900002 l 2.5334,-1.166665 c -0.435,-0.976667 -0.7174,-2.05867 -0.9474,-3.100001 -0.1266,-0.573333 -0.294,-1.178332 -0.3193,-1.766668 l -2.8,0.233334 c -0.133,-1.684332 -0.403,-3.407667 -0.1807,-5.1 0.048,-0.364334 0.046,-0.734666 0.095,-1.1 0.013,-0.100333 -0.01,-0.295667 0.077,-0.365667 0.1354,-0.109668 0.5107,-0.003 0.6754,-0.0011 0.7003,0.0087 1.399,0.133334 2.1,0.133334 0.048,-1.119333 0.407,-2.256332 0.6876,-3.333332 0.073,-0.282 0.176,-0.557 0.268,-0.833334 0.033,-0.1 0.112,-0.253667 0.067,-0.359333 -0.061,-0.143 -0.3577,-0.206333 -0.489,-0.266335 -0.4623,-0.211 -0.9323,-0.408665 -1.4,-0.607666 -0.1363,-0.058 -0.5667,-0.161666 -0.5767,-0.337 -0.021,-0.361333 0.34,-0.933333 0.4817,-1.262999 0.479,-1.116002 1.038,-2.195002 1.6683,-3.233333 0.1914,-0.315333 0.384,-0.632999 0.598,-0.933333 0.064,-0.09067 0.1497,-0.279001 0.268,-0.305668 0.1464,-0.033 0.3757,0.174001 0.494,0.245668 0.434,0.263666 0.8697,0.525667 1.3,0.794999 0.1264,0.079 0.4394,0.354335 0.5944,0.294667 0.1193,-0.04633 0.2113,-0.231667 0.2846,-0.329666 0.1937,-0.258 0.384,-0.518668 0.5904,-0.766667 0.7026,-0.845 1.4596,-1.829668 2.364,-2.466666 v -0.03333 c -0.667,-0.582832 -1.182,-1.472165 -1.7334,-2.166665 v -0.03333 c 1.0884,-1.0023 2.311,-1.869466 3.5667,-2.647466 0.6067,-0.375833 1.24,-0.777732 1.9,-1.052533 0.3107,0.589534 0.668,1.1557 1,1.733333 0.091,0.157633 0.2327,0.553868 0.407,0.6253 0.2087,0.08547 0.7877,-0.321233 0.993,-0.405167 0.8817,-0.360365 1.8513,-0.846701 2.8,-0.986801 -0.04,-0.912632 -0.3927,-1.869199 -0.5667,-2.766665 0.7457,-0.1004 1.489,-0.351667 2.2334,-0.485867 1.477,-0.2663 3.001,-0.414133 4.5,-0.414133 z"
       id="path6395-2" />
  </g>
</svg>
