<?xml version="1.0" encoding="UTF-8" standalone="no"?>
<svg
   xmlns:dc="http://purl.org/dc/elements/1.1/"
   xmlns:cc="http://creativecommons.org/ns#"
   xmlns:rdf="http://www.w3.org/1999/02/22-rdf-syntax-ns#"
   xmlns:svg="http://www.w3.org/2000/svg"
   xmlns="http://www.w3.org/2000/svg"
   xmlns:sodipodi="http://sodipodi.sourceforge.net/DTD/sodipodi-0.dtd"
   xmlns:inkscape="http://www.inkscape.org/namespaces/inkscape"
   width="169.01125mm"
   height="176.37978mm"
   viewBox="0 0 169.01125 176.37978"
   version="1.1"
   id="svg8"
   sodipodi:docname="git.svg"
   inkscape:version="1.0.1 (3bc2e81, 2020-09-07)">
  <defs
     id="defs2" />
  <sodipodi:namedview
     id="base"
     pagecolor="#ffffff"
     bordercolor="#666666"
     borderopacity="1.0"
     inkscape:pageopacity="0.0"
     inkscape:pageshadow="2"
     inkscape:zoom="0.33302775"
     inkscape:cx="-197.6559"
     inkscape:cy="357.63533"
     inkscape:document-units="mm"
     inkscape:current-layer="layer1"
     inkscape:document-rotation="0"
     showgrid="false"
     inkscape:window-width="1338"
     inkscape:window-height="696"
     inkscape:window-x="14"
     inkscape:window-y="58"
     inkscape:window-maximized="0"
     inkscape:pagecheckerboard="true" />
  <metadata
     id="metadata5">
    <rdf:RDF>
      <cc:Work
         rdf:about="">
        <dc:format>image/svg+xml</dc:format>
        <dc:type
           rdf:resource="http://purl.org/dc/dcmitype/StillImage" />
        <dc:title />
      </cc:Work>
    </rdf:RDF>
  </metadata>
  <g
     inkscape:label="Layer 1"
     inkscape:groupmode="layer"
     id="layer1"
     transform="translate(-256.87456,73.909162)">
    <path
       style="fill:#4d4d4d;fill-opacity:1;stroke:none;stroke-width:0.264583"
       d="m 347.68311,-3.2236548 c -0.76835,3.22712302 -0.26458,7.00987 -0.26458,10.31875 V 26.938844 c 0,4.487334 -1.05701,10.475912 0.0841,14.806083 0.41752,1.584325 2.76278,2.511161 3.79863,3.718719 2.56725,2.992437 3.99706,6.927056 3.18558,10.843948 -2.90512,14.018153 -23.79821,13.757803 -25.54049,-0.79375 -0.45429,-3.796242 1.04166,-7.602273 3.6658,-10.317692 1.07077,-1.10781 3.72957,-2.230702 4.13888,-3.729831 0.77919,-2.853267 0.0841,-6.805348 0.0841,-9.764977 v -21.43125 c 0,-4.2015828 1.03823,-9.95626978 -0.0841,-13.9951348 -0.33497,-1.205706 -2.18229,-1.880393 -3.08055,-2.653506 -1.69809,-1.461294 -3.0099,-3.251464 -3.8899,-5.3117752 -0.80248,-1.879071 -1.07765,-4.05765 -0.83423,-6.085416 0.14049,-1.1684 0.9562,-2.524919 0.57494,-3.704167 -0.5506,-1.703123 -2.82919,-3.2639 -4.06321,-4.497916 l -9.78958,-9.789584 c -1.10861,-1.108604 -3.13187,-4.061883 -4.7625,-4.254235 -1.31498,-0.155046 -2.8837,2.110846 -3.70417,2.931319 l -9.525,9.525 -29.10416,29.1041662 c -4.19315,4.193116 -10.27559,8.446029 -11.5057,14.5520828 -1.06996,5.311246 2.51698,9.002977 5.94945,12.435416 l 10.05416,10.054167 50.53542,50.535415 c 5.72717,5.727171 12.78519,16.388554 22.225,12.534104 4.37832,-1.787523 7.8359,-6.611671 11.1125,-9.88827 l 21.96044,-21.960417 35.71875,-35.718749 c 4.43098,-4.430712 11.71787,-9.348522 11.24082,-16.404166 -0.31855,-4.715669 -3.31734,-7.422356 -6.47832,-10.5833328 L 408.00811,-4.2819888 364.88103,-47.409071 352.71019,-59.579904 c -2.23625,-2.236258 -4.39023,-4.95346 -7.40833,-6.148705 -8.85772,-3.507893 -15.22624,5.764583 -20.6375,11.175788 -1.54781,1.547707 -5.45835,4.201689 -5.99387,6.35 -0.21352,0.856641 0.70855,1.581547 1.23269,2.116667 1.57004,1.603613 3.17421,3.175476 4.76118,4.762499 l 8.46667,8.466667 c 1.23322,1.233223 2.62625,3.218392 4.23333,3.951023 1.08876,0.496094 2.56064,-0.186002 3.70417,-0.236538 2.22382,-0.0979 4.35398,0.320411 6.35,1.323182 4.22619,2.123281 6.7429,6.220354 7.29112,10.837333 0.22728,1.913202 -1.16814,4.199995 0.16034,5.820833 3.34195,4.0777582 7.60465,7.6477812 11.33395,11.37708322 1.85738,1.85737498 3.81556,4.58178998 6.08542,5.91528898 1.86849,1.097757 5.62742,-0.364595 7.9375,0.320675 7.85336,2.330715 12.17507,11.3593568 7.97031,18.6348688 -5.27235,9.122833 -18.61953,8.638116 -23.00341,-1.058333 -0.95011,-2.10185 -1.3073,-4.316942 -1.06045,-6.614583 0.13732,-1.278996 1.05437,-2.754577 0.31962,-3.96875 -1.37372,-2.269861 -4.04971,-4.2132248 -5.9219,-6.0854168 -3.46419,-3.46419 -6.84345,-7.76234598 -10.84792,-10.583333 z"
       id="path5256" />
    <path
       style="fill:#ffee84;fill-opacity:1;stroke:none;stroke-width:0.264583"
       d="m 347.68311,-10.631989 c -0.76835,3.2271205 -0.26458,7.0098706 -0.26458,10.31875049 V 19.530507 c 0,4.48733 -1.05701,10.47591 0.0841,14.80608 0.41752,1.58432 2.76278,2.51116 3.79863,3.71872 2.56725,2.99244 3.99706,6.92705 3.18558,10.84395 -2.90512,14.01815 -23.79821,13.7578 -25.54049,-0.79375 -0.45429,-3.79625 1.04166,-7.60228 3.6658,-10.3177 1.07077,-1.10781 3.72957,-2.2307 4.13888,-3.72983 0.77919,-2.85326 0.0841,-6.80535 0.0841,-9.76497 V 2.8617612 c 0,-4.2015896 1.03823,-9.9562697 -0.0841,-13.9951402 -0.33497,-1.205701 -2.18229,-1.880391 -3.08055,-2.653502 -1.69809,-1.4613 -3.0099,-3.251471 -3.8899,-5.311782 -0.80248,-1.87907 -1.07765,-4.05765 -0.83423,-6.08541 0.14049,-1.1684 0.9562,-2.52492 0.57494,-3.70417 -0.5506,-1.70312 -2.82919,-3.2639 -4.06321,-4.49792 l -9.78958,-9.78958 c -1.10861,-1.10861 -3.13187,-4.06188 -4.7625,-4.25424 -1.31498,-0.15504 -2.8837,2.11085 -3.70417,2.93132 l -9.525,9.525 -29.10416,29.1041745 c -4.19315,4.1931101 -10.27559,8.4460299 -11.5057,14.5520764 -1.06996,5.3112491 2.51698,9.0029791 5.94945,12.4354191 l 10.05416,10.05417 50.53542,50.53541 c 5.72717,5.72717 12.78519,16.388525 22.225,12.534096 4.37832,-1.787516 7.8359,-6.611666 11.1125,-9.888266 l 21.96044,-21.96041 35.71875,-35.71875 c 4.43098,-4.43071 11.71787,-9.34852 11.24082,-16.40417 -0.31855,-4.7156673 -3.31734,-7.4223458 -6.47832,-10.58332551 L 408.00811,-11.690329 364.88103,-54.817413 352.71019,-66.988245 c -2.23625,-2.236258 -4.39023,-4.95346 -7.40833,-6.148705 -8.85772,-3.507893 -15.22624,5.764583 -20.6375,11.175788 -1.54781,1.547707 -5.45835,4.201689 -5.99387,6.349999 -0.21352,0.85664 0.70855,1.58155 1.23269,2.11667 1.57004,1.60361 3.17421,3.17547 4.76118,4.7625 l 8.46667,8.46667 c 1.23322,1.23322 2.62625,3.21839 4.23333,3.95102 1.08876,0.49609 2.56064,-0.186 3.70417,-0.23654 2.22382,-0.0979 4.35398,0.32041 6.35,1.32318 4.22619,2.12328 6.7429,6.22036 7.29112,10.83734 0.22728,1.9132 -1.16814,4.19999 0.16034,5.82083 3.34195,4.077762 7.60465,7.647784 11.33395,11.3770845 1.85738,1.85738 3.81556,4.58179 6.08542,5.9152901 1.86849,1.09775989 5.62742,-0.3645901 7.9375,0.32066992 7.85336,2.33071988 12.17507,11.35935548 7.97031,18.63486548 -5.27235,9.12284 -18.61953,8.63812 -23.00341,-1.05833 -0.95011,-2.10185 -1.3073,-4.31694 -1.06045,-6.61458 0.13732,-1.2789991 1.05437,-2.7545782 0.31962,-3.9687476 -1.37372,-2.2698588 -4.04971,-4.213228 -5.9219,-6.08541794 -3.46419,-3.46418986 -6.84345,-7.76233996 -10.84792,-10.58333046 z"
       id="path5256-0" />
  </g>
</svg>
