<?xml version="1.0" encoding="UTF-8" standalone="no"?>
<svg
   xmlns:dc="http://purl.org/dc/elements/1.1/"
   xmlns:cc="http://creativecommons.org/ns#"
   xmlns:rdf="http://www.w3.org/1999/02/22-rdf-syntax-ns#"
   xmlns:svg="http://www.w3.org/2000/svg"
   xmlns="http://www.w3.org/2000/svg"
   xmlns:sodipodi="http://sodipodi.sourceforge.net/DTD/sodipodi-0.dtd"
   xmlns:inkscape="http://www.inkscape.org/namespaces/inkscape"
   width="490.49283mm"
   height="485.24792mm"
   viewBox="0 0 490.49284 485.24794"
   version="1.1"
   id="svg8"
   sodipodi:docname="godot.svg"
   inkscape:version="1.0.1 (3bc2e81, 2020-09-07)">
  <defs
     id="defs2" />
  <sodipodi:namedview
     id="base"
     pagecolor="#ffffff"
     bordercolor="#666666"
     borderopacity="1.0"
     inkscape:pageopacity="0.0"
     inkscape:pageshadow="2"
     inkscape:zoom="0.11617617"
     inkscape:cx="905.37112"
     inkscape:cy="577.70369"
     inkscape:document-units="mm"
     inkscape:current-layer="layer1"
     inkscape:document-rotation="0"
     showgrid="false"
     inkscape:window-width="1338"
     inkscape:window-height="696"
     inkscape:window-x="14"
     inkscape:window-y="58"
     inkscape:window-maximized="0"
     inkscape:pagecheckerboard="true" />
  <metadata
     id="metadata5">
    <rdf:RDF>
      <cc:Work
         rdf:about="">
        <dc:format>image/svg+xml</dc:format>
        <dc:type
           rdf:resource="http://purl.org/dc/dcmitype/StillImage" />
        <dc:title />
      </cc:Work>
    </rdf:RDF>
  </metadata>
  <g
     inkscape:label="Layer 1"
     inkscape:groupmode="layer"
     id="layer1"
     transform="translate(-64.025742,198.84479)">
    <path
       style="fill:#4d4d4d;fill-opacity:1;stroke:none;stroke-width:0.264583"
       d="m 93.636825,138.67474 c 20.678515,2.61408 41.664205,4.39208 62.441675,6.0616 4.50347,0.36248 8.98869,0.99219 13.49375,1.32292 3.71686,0.27252 7.61973,0.38364 10.2317,3.46604 2.66409,3.1459 2.14974,7.29192 2.51328,11.10985 0.9136,9.60173 1.87272,19.46275 2.07168,29.10417 23.20978,0 46.37881,4.7625 69.58542,4.7625 1.10675,-8.74977 2.56566,-17.46779 3.85736,-26.19375 0.59266,-4.00314 0.58234,-8.41904 3.81952,-11.32681 4.59687,-4.13279 14.59124,-2.16694 20.36895,-2.16694 h 53.44583 12.7 c 3.20675,0 6.17273,-0.12964 8.7286,2.16694 3.23586,2.90777 3.22527,7.32367 3.81794,11.32681 1.29117,8.72596 2.75167,17.44398 3.85762,26.19375 23.20925,0 46.37617,-4.7625 69.58542,-4.7625 0.19843,-9.64142 1.15887,-19.50244 2.07168,-29.10417 0.36248,-3.81793 -0.15081,-7.96395 2.51355,-11.10985 2.1881,-2.58498 4.99533,-2.88396 8.11477,-3.25438 5.2705,-0.62177 10.58333,-1.1086 15.875,-1.53458 13.33235,-1.07156 26.63824,-2.61144 39.95208,-3.89996 7.24958,-0.70114 14.79814,-0.83343 21.96041,-2.16164 0,-28.99304 0.26459,-58.031063 0.26459,-87.047915 V 23.316409 c 0,-4.323026 -0.79905,-9.528703 0.0741,-13.7583315 0.67998,-3.295385 5.05354,-7.081044 7.02998,-9.78958301 5.55096,-7.61100399 11.15483,-15.27677649 16.129,-23.28333249 1.65629,-2.665148 3.39725,-5.278702 5.06412,-7.9375 0.64029,-1.02235 1.6854,-2.176727 1.18004,-3.439583 -1.84679,-4.627827 -5.55625,-9.096904 -8.31056,-13.229166 -7.21783,-10.826745 -15.29291,-21.098935 -23.7781,-30.956245 -2.77283,-3.22051 -5.60917,-6.37302 -8.45608,-9.525 -0.83873,-0.92816 -2.0373,-2.97524 -3.48457,-2.83528 -2.80458,0.27146 -6.23887,3.09933 -8.73125,4.35716 -8.21531,4.14761 -16.35918,8.90244 -24.07708,13.9147 -2.6326,1.71027 -5.27579,3.42292 -7.9375,5.08873 -0.80698,0.50483 -2.01877,1.66238 -2.98714,1.02712 -2.99773,-1.96956 -5.59065,-5.12287 -8.38994,-7.41733 -7.67821,-6.29259 -15.63687,-12.55448 -24.07708,-17.78847 -3.25173,-2.01533 -6.53786,-3.96954 -9.78959,-5.98382 -1.1086,-0.68738 -3.08239,-1.48457 -3.53483,-2.808808 -0.37571,-1.10543 0.16669,-2.82522 0.32544,-3.95817 0.40217,-2.90221 0.67204,-5.82189 1.016,-8.73125 1.09273,-9.21676 1.53458,-18.52215 1.93939,-27.78125 0.13494,-3.08319 0.37307,-6.17722 0.508,-9.26041 0.0423,-0.96229 0.3175,-2.70669 -0.26193,-3.53563 -0.65882,-0.94615 -2.42888,-1.45706 -3.43165,-1.95501 -2.94217,-1.4605 -5.97429,-2.78659 -8.99583,-4.07405 -12.14173,-5.17128 -24.77558,-9.51839 -37.57083,-12.75927 -3.70152,-0.93794 -7.4004,-1.87669 -11.1125,-2.77706 -1.00277,-0.24315 -3.12473,-1.12448 -4.07194,-0.54584 -1.016,0.62098 -1.66687,2.41962 -2.23837,3.42186 -1.65365,2.89771 -3.29407,5.79834 -4.88421,8.73125 -3.78354,6.97997 -7.28134,14.06922 -10.83204,21.16666 -2.17752,4.35848 -4.93448,9.07309 -6.28386,13.75834 -3.16177,-0.99986 -6.77069,-1.05014 -10.05416,-1.3679 -7.85813,-0.76015 -15.66598,-0.83979 -23.54792,-0.49451 -5.68431,0.24898 -12.25709,0.13256 -17.72708,1.86241 -1.34964,-4.68551 -4.10528,-9.39959 -6.28465,-13.75834 -3.54859,-7.09744 -7.04771,-14.18669 -10.83151,-21.16666 -1.59015,-2.93291 -3.18955,-5.8637 -4.89744,-8.73125 -0.58923,-0.98954 -1.21444,-2.80432 -2.22488,-3.42186 -0.94694,-0.57864 -3.06996,0.30242 -4.07194,0.54584 -3.7121,0.90143 -7.40992,1.83912 -11.1125,2.77706 -12.70979,3.21919 -25.25262,7.54407 -37.30624,12.68757 -3.10807,1.32609 -6.21904,2.67705 -9.26042,4.14866 -1.00224,0.48499 -2.77574,1.01204 -3.43218,1.9521 -0.5789,0.8292 -0.30374,2.57334 -0.26167,3.53563 0.1352,3.08319 0.37333,6.17722 0.50853,9.26041 0.40243,9.19242 1.02023,18.35044 1.90738,27.51667 0.28152,2.91068 0.61648,5.8338 1.01336,8.73125 0.16986,1.23984 0.71596,2.97497 0.43471,4.20581 -0.27517,1.203328 -2.12143,1.935428 -3.08055,2.514338 -3.0906,1.86505 -6.20633,3.70708 -9.26041,5.63086 -8.2984,5.22737 -16.22558,11.17891 -23.8125,17.3945 -3.20993,2.6297 -6.2828,6.25925 -9.74461,8.47567 -0.99615,0.63764 -2.13624,-0.55404 -2.95539,-1.06733 -2.65536,-1.66291 -5.25463,-3.41445 -7.9375,-5.0337 -7.93909,-4.79161 -15.83558,-9.66788 -24.07708,-13.93243 -2.43999,-1.26259 -5.98012,-4.12803 -8.73125,-4.3942 -1.42293,-0.13785 -2.66092,1.96347 -3.48457,2.87523 -2.84691,3.15198 -5.684305,6.30449 -8.456085,9.525 -8.48466,9.85811 -16.55974,20.12976 -23.7781,30.956245 -2.75511,4.132262 -6.46457,8.601339 -8.3113,13.229166 -0.50393,1.262856 0.53961,2.417233 1.18078,3.439583 1.6674,2.658798 3.40889,5.272352 5.06465,7.9375 4.97602,8.009466 10.57487,15.6699475 16.12874,23.28333249 1.9759,2.70853901 6.34947,6.49419801 7.02998,9.78958301 0.85698,4.1491945 0.0738,9.2530075 0.0738,13.4937485 V 50.833075 138.67474 M 192.32642,13.602497 c 5.64304,-0.666485 11.76655,0.156369 17.19792,1.699684 5.71685,1.624277 11.14557,4.312179 15.875,7.922683 26.18449,19.990328 24.42871,61.300251 -3.43959,78.950606 -6.08991,3.85498 -12.96378,6.1886 -20.10833,7.05379 -6.07166,0.73819 -12.35445,0.2831 -18.25625,-1.35731 -6.53653,-1.81769 -12.40446,-4.85246 -17.72708,-9.061982 -25.27326,-19.978686 -22.32316,-59.990299 3.96875,-77.516298 6.79053,-4.526491 14.469,-6.744493 22.48958,-7.691173 m 225.95416,0 c 5.62769,-0.664633 11.7766,0.135203 17.19791,1.665023 5.842,1.648354 11.30829,4.414838 16.13959,8.083285 26.36043,20.011231 23.98447,61.708768 -3.96875,79.060145 -5.91609,3.66977 -12.66825,5.99016 -19.57917,6.81831 -5.95048,0.71437 -11.90096,0.2249 -17.72708,-1.15358 -32.12306,-7.60148 -45.40779,-46.233293 -28.194,-73.117604 3.556,-5.555456 8.42433,-10.142537 13.9065,-13.757539 6.72571,-4.433623 14.29544,-6.661944 22.225,-7.59804 M 199.73476,32.424426 c -8.31877,1.07897 -15.94671,3.321843 -21.93687,9.678458 -15.86124,16.831733 -9.02018,46.565606 13.99937,52.875918 4.36033,1.195916 8.74447,1.579562 13.22916,1.021291 16.17028,-2.010833 28.48187,-16.756061 27.77093,-32.996185 -0.70696,-16.14408 -15.866,-32.809391 -33.06259,-30.579482 m 216.95832,0 c -9.65994,1.252802 -18.09486,4.236508 -24.27817,12.323233 -13.65514,17.854082 -4.77308,44.31506 16.86984,50.421643 4.04547,1.143 8.28674,1.3335 12.43541,0.830791 14.41979,-1.74625 26.32869,-13.692186 27.73627,-28.233686 1.46844,-15.157978 -7.92162,-29.805046 -22.70919,-34.054254 -3.0771,-0.884502 -6.85006,-1.703123 -10.05416,-1.287727 M 307.42017,41.64833 c 6.62252,-0.813329 13.6525,2.685785 16.3142,8.920162 1.98967,4.659312 1.1483,10.662707 1.1483,15.610415 v 24.341666 c 0,4.262437 0.58737,9.114895 -0.72761,13.229167 -1.73037,5.41867 -6.85271,9.40329 -12.50156,10.00919 -7.37923,0.78845 -15.13099,-2.74902 -17.34635,-10.27377 -1.02235,-3.47134 -0.38073,-7.7814 -0.38073,-11.377087 V 69.353907 c 0,-5.611812 -1.23058,-12.922249 0.67389,-18.256248 1.94548,-5.447506 7.26837,-8.767498 12.81986,-9.449329 M 93.636825,155.87265 c 0,17.03917 -0.3802,33.75025 6.462985,49.74167 12.94474,30.24981 43.34722,48.49283 72.91202,59.64237 33.6214,12.68148 69.42587,17.58156 105.03958,20.02102 29.86087,2.04523 60.23768,1.32292 89.95833,-2.33098 21.84664,-2.68287 43.86527,-6.38704 64.82291,-13.30325 37.02579,-12.2211 76.24233,-32.63635 88.62748,-72.49583 4.13808,-13.31118 3.44752,-27.50872 3.44752,-41.275 -11.557,2.14578 -23.75694,2.31511 -35.45417,3.48457 -11.91683,1.19062 -24.27552,3.38666 -36.24791,3.3946 -0.005,9.62025 -0.91282,19.81465 -2.03994,29.36875 -0.47096,3.99256 0.17462,8.14123 -2.80194,11.35327 -4.31006,4.64873 -14.46477,3.35227 -20.29354,3.75179 -18.29858,1.25413 -36.70035,3.47133 -55.03333,3.94758 -6.29179,0.16669 -16.19779,3.42636 -21.42067,-1.14829 -3.19616,-2.79929 -3.20145,-7.65968 -3.74914,-11.55435 -1.2409,-8.8265 -2.80988,-17.6186 -3.93436,-26.45833 h -69.32082 c -1.12316,8.83973 -2.69373,17.63183 -3.93436,26.45833 -0.54742,3.89467 -0.55192,8.75506 -3.74914,11.55435 -5.22341,4.57729 -15.11777,1.31498 -21.42067,1.14829 -18.33298,-0.47625 -36.7366,-2.69345 -55.03333,-3.94758 -5.89386,-0.40481 -15.91628,0.87842 -20.32397,-3.75179 -2.89454,-3.04006 -2.3749,-7.25487 -2.73976,-11.08869 -0.92631,-9.73402 -2.06534,-19.85433 -2.07169,-29.63333 -11.89434,-0.008 -24.14164,-2.24896 -35.98333,-3.3946 -11.7766,-1.14036 -24.08846,-1.32557 -35.718755,-3.48457 z"
       id="path5290" />
    <path
       style="fill:#ffee84;fill-opacity:1;stroke:none;stroke-width:0.264583"
       d="m 93.63697,116.44959 c 20.67852,2.61408 41.66421,4.39208 62.44168,6.0616 4.50347,0.36248 8.98869,0.99219 13.49375,1.32292 3.71686,0.27252 7.61973,0.38365 10.2317,3.46604 2.66408,3.14593 2.14978,7.29195 2.51328,11.10986 0.9136,9.60173 1.8727,19.46275 2.0717,29.10416 23.2098,0 46.3788,4.7625 69.5854,4.7625 1.1067,-8.74977 2.5657,-17.46779 3.8574,-26.19375 0.5926,-4.00312 0.5823,-8.41904 3.8195,-11.32681 4.5968,-4.13276 14.5912,-2.16694 20.3689,-2.16694 h 53.4459 12.7 c 3.2067,0 6.1727,-0.12962 8.7286,2.16694 3.2358,2.90777 3.2252,7.32369 3.8179,11.32681 1.2912,8.72596 2.7517,17.44398 3.8576,26.19375 23.2093,0 46.3762,-4.7625 69.5854,-4.7625 0.1985,-9.64141 1.1589,-19.50243 2.0717,-29.10416 0.3625,-3.81791 -0.1508,-7.96393 2.5136,-11.10986 2.1881,-2.58498 4.9953,-2.88396 8.1147,-3.25437 5.2705,-0.62177 10.5834,-1.10861 15.875,-1.53459 13.3324,-1.07156 26.6383,-2.61143 39.9521,-3.89995 7.2496,-0.70115 14.7982,-0.83341 21.9604,-2.16165 0,-28.992938 0.2646,-58.030928 0.2646,-87.047778 V 1.0914071 c 0,-4.3230272 -0.799,-9.5286945 0.074,-13.7583241 0.68,-3.295391 5.0535,-7.081054 7.03,-9.789595 5.551,-7.611003 11.1548,-15.276774 16.129,-23.283334 1.6563,-2.66515 3.3973,-5.278702 5.0641,-7.937502 0.6403,-1.02235 1.6854,-2.17673 1.18,-3.43958 -1.8468,-4.62783 -5.5562,-9.09691 -8.3105,-13.22917 -7.2178,-10.82675 -15.2929,-21.09893 -23.7781,-30.956252 -2.7728,-3.22053 -5.6092,-6.37305 -8.4561,-9.52506 -0.8387,-0.92816 -2.0373,-2.97525 -3.4846,-2.83529 -2.8045,0.27146 -6.2388,3.09935 -8.7312,4.35719 -8.2153,4.14763 -16.3592,8.90249 -24.0771,13.914742 -2.6326,1.71027 -5.2758,3.42292 -7.9375,5.08874 -0.807,0.50483 -2.0187,1.66238 -2.9871,1.02711 -2.9978,-1.96955 -5.5907,-5.12286 -8.39,-7.41733 -7.6782,-6.292602 -15.6368,-12.554522 -24.077,-17.788542 -3.2518,-2.01535 -6.5379,-3.96957 -9.7897,-5.98386 -1.1085,-0.68738 -3.0823,-1.48458 -3.5348,-2.80881 -0.3757,-1.10543 0.1667,-2.82522 0.3255,-3.95817 0.4021,-2.90221 0.672,-5.82189 1.016,-8.73125 1.0927,-9.21677 1.5346,-18.52216 1.9393,-27.78126 0.135,-3.08319 0.3731,-6.17722 0.508,-9.26041 0.042,-0.96229 0.3175,-2.70669 -0.2619,-3.53563 -0.6588,-0.94615 -2.4288,-1.45706 -3.4316,-1.95501 -2.9422,-1.4605 -5.9743,-2.78659 -8.9958,-4.07405 -12.1418,-5.17128 -24.7756,-9.51839 -37.5709,-12.75927 -3.7015,-0.93794 -7.4004,-1.87669 -11.1125,-2.77706 -1.0027,-0.24315 -3.1247,-1.12448 -4.0719,-0.54584 -1.016,0.62098 -1.6669,2.41962 -2.2384,3.42186 -1.6536,2.89771 -3.2941,5.79834 -4.8842,8.73125 -3.7835,6.97997 -7.2813,14.06922 -10.832,21.16666 -2.1776,4.35848 -4.9345,9.07309 -6.2839,13.75834 -3.1618,-0.99986 -6.7707,-1.05014 -10.0542,-1.3679 -7.8581,-0.76015 -15.6659,-0.83979 -23.5479,-0.49451 -5.6843,0.24898 -12.2571,0.13256 -17.7271,1.86241 -1.3496,-4.68551 -4.1052,-9.39959 -6.2846,-13.75834 -3.5486,-7.09744 -7.0477,-14.18669 -10.8315,-21.16666 -1.5902,-2.93291 -3.1896,-5.8637 -4.8975,-8.73125 -0.5892,-0.98954 -1.2144,-2.80432 -2.2248,-3.42186 -0.947,-0.57864 -3.07,0.30242 -4.072,0.54584 -3.7121,0.90143 -7.4099,1.83912 -11.1125,2.77706 -12.7098,3.21919 -25.2526,7.54407 -37.3062,12.68757 -3.1081,1.32609 -6.2191,2.67705 -9.2604,4.14866 -1.0023,0.48499 -2.7758,1.01204 -3.4322,1.9521 -0.5789,0.8292 -0.3038,2.57334 -0.2617,3.53563 0.1352,3.08319 0.3733,6.17722 0.5085,9.26041 0.4025,9.19242 1.0203,18.35044 1.9074,27.51668 0.2815,2.91068 0.6165,5.8338 1.0134,8.73125 0.1698,1.23984 0.7159,2.97497 0.4347,4.20581 -0.2752,1.20332 -2.1214,1.93543 -3.0806,2.51434 -3.0906,1.86506 -6.2063,3.7071 -9.2604,5.63089 -8.29837,5.2274 -16.22555,11.17897 -23.81247,17.394592 -3.20993,2.6297 -6.2828,6.25924 -9.74461,8.47566 -0.99615,0.63764 -2.13624,-0.55403 -2.95539,-1.06733 -2.65536,-1.6629 -5.25463,-3.41445 -7.9375,-5.0337 -7.93909,-4.791612 -15.83558,-9.667902 -24.07708,-13.932472 -2.43999,-1.26259 -5.98012,-4.12805 -8.73125,-4.39422 -1.42293,-0.13787 -2.66092,1.96348 -3.48457,2.87523 -2.84691,3.15201 -5.68431,6.30453 -8.45609,9.52506 -8.48466,9.858122 -16.55974,20.129762 -23.7781,30.956252 -2.75511,4.13226 -6.46457,8.60134 -8.3113,13.22917 -0.50393,1.26285 0.53961,2.41723 1.18078,3.43958 1.6674,2.6588 3.40889,5.272352 5.06465,7.937502 4.97602,8.00947 10.57487,15.669951 16.12874,23.283334 1.9759,2.708541 6.34947,6.494204 7.02998,9.789595 0.85698,4.1491896 0.0738,9.252997 0.0738,13.49373443 V 28.608062 116.44959 M 192.32648,-8.622507 c 5.643,-0.6664797 11.7665,0.1563696 17.1979,1.6996887 5.7169,1.6242691 11.1456,4.3121776 15.875,7.92267573 26.1845,19.99032457 24.4287,61.30023357 -3.4396,78.95057657 -6.0899,3.854989 -12.9638,6.188567 -20.1083,7.053751 -6.0717,0.738217 -12.3545,0.28311 -18.2563,-1.357271 -6.53649,-1.817711 -12.40442,-4.852463 -17.72704,-9.061973 -25.27326,-19.978669 -22.32316,-59.990279 3.96875,-77.51627253 6.79053,-4.52648727 14.46899,-6.74448607 22.48959,-7.69117547 m 225.9541,0 c 5.6277,-0.6646297 11.7766,0.1352096 17.198,1.6650291 5.842,1.6483487 11.3082,4.4148273 16.1395,8.083275 26.3605,20.0112249 23.9845,61.7087539 -3.9687,79.0601469 -5.9161,3.669719 -12.6683,5.990107 -19.5792,6.818241 -5.9505,0.714377 -11.9009,0.22492 -17.7271,-1.153554 -32.123,-7.601425 -45.4078,-46.233249 -28.194,-73.117569 3.556,-5.5554482 8.4244,-10.1425255 13.9065,-13.7575336 6.7257,-4.4336172 14.2955,-6.661936 22.225,-7.5980354 m -218.5458,18.821919 c -8.3187,1.07897 -15.9467,3.32185 -21.93684,9.67846 -15.86124,16.83174 -9.02018,46.565589 13.99934,52.875899 4.3604,1.19592 8.7445,1.57956 13.2292,1.02129 16.1703,-2.01083 28.4819,-16.756039 27.7709,-32.996159 -0.7069,-16.14408 -15.866,-32.8093888 -33.0626,-30.57949 m 216.9583,0 c -9.6599,1.25281 -18.0948,4.23651 -24.2781,12.32324 -13.6552,17.85408 -4.7731,44.315039 16.8698,50.421619 4.0455,1.143 8.2868,1.3335 12.4354,0.83079 14.4198,-1.74625 26.3287,-13.692161 27.7363,-28.233659 1.4684,-15.15798 -7.9216,-29.80505 -22.7092,-34.05426 -3.0771,-0.8845 -6.8501,-1.7031197 -10.0542,-1.28773 m -109.2729,9.22391 c 6.6226,-0.81333 13.6525,2.68578 16.3142,8.92016 1.9897,4.65931 1.1483,10.66271 1.1483,15.61042 v 24.341639 c 0,4.26244 0.5874,9.1149 -0.7276,13.229154 -1.7303,5.41866 -6.8527,9.403239 -12.5015,10.009153 -7.3793,0.788437 -15.131,-2.749002 -17.3464,-10.27371 -1.0223,-3.471342 -0.3807,-7.781407 -0.3807,-11.377097 V 47.128902 c 0,-5.61182 -1.2306,-12.92225 0.6739,-18.25625 1.9455,-5.44751 7.2683,-8.7675 12.8198,-9.44933 M 93.63687,133.64751 c 0,17.03916 -0.3802,33.75025 6.46299,49.74166 12.94474,30.24982 43.34722,48.49284 72.91202,59.64238 33.6214,12.68147 69.4259,17.58155 105.0396,20.021 29.8608,2.04524 60.2377,1.32293 89.9583,-2.33097 21.8467,-2.68287 43.8653,-6.38705 64.8229,-13.30325 37.0258,-12.2211 76.2424,-32.63635 88.6275,-72.49583 4.1381,-13.31116 3.4475,-27.50871 3.4475,-41.275 -11.557,2.14579 -23.7569,2.3151 -35.4541,3.48459 -11.9169,1.19059 -24.2756,3.38664 -36.248,3.39457 -0.01,9.62025 -0.9128,19.81468 -2.0399,29.36875 -0.471,3.99257 0.1746,8.14123 -2.8019,11.35327 -4.3101,4.64873 -14.4648,3.35228 -20.2936,3.7518 -18.2986,1.25412 -36.7003,3.47133 -55.0333,3.94758 -6.2918,0.16669 -16.1978,3.42635 -21.4207,-1.14829 -3.1961,-2.79929 -3.2014,-7.65969 -3.7491,-11.55436 -1.2409,-8.8265 -2.8099,-17.61857 -3.9344,-26.45833 h -69.3208 c -1.1232,8.83976 -2.6937,17.63183 -3.9344,26.45833 -0.5474,3.89467 -0.5519,8.75507 -3.7491,11.55436 -5.2234,4.57729 -15.1178,1.31498 -21.4207,1.14829 -18.333,-0.47625 -36.7366,-2.69346 -55.0333,-3.94758 -5.8939,-0.40482 -15.91628,0.87841 -20.32397,-3.7518 -2.89454,-3.04006 -2.3749,-7.25484 -2.73976,-11.08868 -0.92631,-9.73402 -2.06534,-19.85434 -2.07169,-29.63334 -11.89434,-0.008 -24.14164,-2.24895 -35.98333,-3.39457 -11.7766,-1.14038 -24.08846,-1.32559 -35.71876,-3.48458 z"
       id="path5290-2" />
  </g>
</svg>
