<?xml version="1.0" encoding="UTF-8" standalone="no"?>
<svg
   xmlns:dc="http://purl.org/dc/elements/1.1/"
   xmlns:cc="http://creativecommons.org/ns#"
   xmlns:rdf="http://www.w3.org/1999/02/22-rdf-syntax-ns#"
   xmlns:svg="http://www.w3.org/2000/svg"
   xmlns="http://www.w3.org/2000/svg"
   xmlns:sodipodi="http://sodipodi.sourceforge.net/DTD/sodipodi-0.dtd"
   xmlns:inkscape="http://www.inkscape.org/namespaces/inkscape"
   width="10.000028mm"
   height="8.4791536mm"
   viewBox="0 0 10.000028 8.4791542"
   version="1.1"
   id="svg8"
   sodipodi:docname="hamburger_open.svg"
   inkscape:version="1.0.1 (3bc2e81, 2020-09-07)">
  <defs
     id="defs2" />
  <sodipodi:namedview
     id="base"
     pagecolor="#ffffff"
     bordercolor="#666666"
     borderopacity="1.0"
     inkscape:pageopacity="0.0"
     inkscape:pageshadow="2"
     inkscape:zoom="5.8308776"
     inkscape:cx="-15.301917"
     inkscape:cy="18.846728"
     inkscape:document-units="mm"
     inkscape:current-layer="layer1"
     inkscape:document-rotation="0"
     showgrid="false"
     inkscape:window-width="1338"
     inkscape:window-height="696"
     inkscape:window-x="14"
     inkscape:window-y="58"
     inkscape:window-maximized="0"
     inkscape:pagecheckerboard="true" />
  <metadata
     id="metadata5">
    <rdf:RDF>
      <cc:Work
         rdf:about="">
        <dc:format>image/svg+xml</dc:format>
        <dc:type
           rdf:resource="http://purl.org/dc/dcmitype/StillImage" />
        <dc:title />
      </cc:Work>
    </rdf:RDF>
  </metadata>
  <g
     inkscape:label="Layer 1"
     inkscape:groupmode="layer"
     id="layer1"
     transform="translate(-2579.5094,-257.96673)">
    <path
       style="fill:#4d4d4d;stroke:none;stroke-width:0.0195647"
       d="m 2580.2628,257.99521 c -0.8148,0.11672 -1.0702,1.27557 -0.2543,1.61514 0.2247,0.0935 0.4853,0.059 0.7239,0.059 h 1.35 4.7738 1.4673 c 0.2657,0 0.5446,0.0357 0.7826,-0.10718 0.7217,-0.43317 0.4037,-1.49513 -0.3913,-1.57206 -0.5247,-0.0508 -1.077,-0.003 -1.6043,-0.003 h -3.189 -2.4261 c -0.4005,0 -0.8362,-0.0484 -1.2326,0.008 m -0.059,3.3854 c -0.8127,0.14364 -0.9599,1.30727 -0.1761,1.61622 0.2313,0.0912 0.4998,0.0573 0.7434,0.0573 h 1.35 4.7151 1.4478 c 0.2806,0 0.5691,0.0321 0.8217,-0.11498 0.6785,-0.39519 0.4498,-1.48036 -0.3326,-1.56418 -0.5541,-0.0594 -1.1445,-0.003 -1.7021,-0.003 h -3.4043 -2.3086 c -0.3701,0 -0.79,-0.0553 -1.1543,0.009 m -0.039,3.38478 c -0.8313,0.15575 -0.8666,1.35243 -0.098,1.62355 0.2375,0.0838 0.5156,0.0499 0.763,0.0499 h 1.35 4.6173 1.4478 c 0.2948,0 0.5952,0.0283 0.8608,-0.12399 0.6416,-0.36779 0.4802,-1.44155 -0.2739,-1.55269 -0.5311,-0.0783 -1.1258,-0.006 -1.663,-0.006 h -3.3456 -2.4456 c -0.3866,0 -0.8331,-0.062 -1.213,0.009 z"
       id="path5556" />
    <path
       style="fill:#666666;stroke:none;stroke-width:0.0195647"
       d="m 2580.2626,257.46581 c -0.8148,0.11672 -1.0702,1.27557 -0.2543,1.61514 0.2247,0.0935 0.4853,0.059 0.7239,0.059 h 1.35 4.7738 1.4673 c 0.2657,0 0.5446,0.0357 0.7826,-0.10718 0.7217,-0.43317 0.4037,-1.49513 -0.3913,-1.57206 -0.5247,-0.0508 -1.077,-0.003 -1.6043,-0.003 h -3.189 -2.4261 c -0.4005,0 -0.8362,-0.0484 -1.2326,0.008 m -0.059,3.3854 c -0.8127,0.14364 -0.9599,1.30727 -0.1761,1.61622 0.2313,0.0912 0.4998,0.0573 0.7434,0.0573 h 1.35 4.7151 1.4478 c 0.2806,0 0.5691,0.0321 0.8217,-0.11498 0.6785,-0.39519 0.4498,-1.48036 -0.3326,-1.56418 -0.5541,-0.0594 -1.1445,-0.003 -1.7021,-0.003 h -3.4043 -2.3086 c -0.3701,0 -0.79,-0.0553 -1.1543,0.009 m -0.039,3.38478 c -0.8313,0.15575 -0.8666,1.35243 -0.098,1.62355 0.2375,0.0838 0.5156,0.0499 0.763,0.0499 h 1.35 4.6173 1.4478 c 0.2948,0 0.5952,0.0283 0.8608,-0.12399 0.6416,-0.36779 0.4802,-1.44155 -0.2739,-1.55269 -0.5311,-0.0783 -1.1258,-0.006 -1.663,-0.006 h -3.3456 -2.4456 c -0.3866,0 -0.8331,-0.062 -1.213,0.009 z"
       id="path5556-2" />
  </g>
</svg>
