<?xml version="1.0" encoding="UTF-8" standalone="no"?>
<svg
   xmlns:dc="http://purl.org/dc/elements/1.1/"
   xmlns:cc="http://creativecommons.org/ns#"
   xmlns:rdf="http://www.w3.org/1999/02/22-rdf-syntax-ns#"
   xmlns:svg="http://www.w3.org/2000/svg"
   xmlns="http://www.w3.org/2000/svg"
   xmlns:sodipodi="http://sodipodi.sourceforge.net/DTD/sodipodi-0.dtd"
   xmlns:inkscape="http://www.inkscape.org/namespaces/inkscape"
   width="135.36761mm"
   height="138.85976mm"
   viewBox="0 0 135.36762 138.85976"
   version="1.1"
   id="svg8"
   sodipodi:docname="java.svg"
   inkscape:version="1.0.1 (3bc2e81, 2020-09-07)">
  <defs
     id="defs2" />
  <sodipodi:namedview
     id="base"
     pagecolor="#ffffff"
     bordercolor="#666666"
     borderopacity="1.0"
     inkscape:pageopacity="0.0"
     inkscape:pageshadow="2"
     inkscape:zoom="0.45951371"
     inkscape:cx="276.88018"
     inkscape:cy="207.95687"
     inkscape:document-units="mm"
     inkscape:current-layer="layer1"
     inkscape:document-rotation="0"
     showgrid="false"
     inkscape:window-width="1338"
     inkscape:window-height="696"
     inkscape:window-x="14"
     inkscape:window-y="58"
     inkscape:window-maximized="0"
     inkscape:pagecheckerboard="true" />
  <metadata
     id="metadata5">
    <rdf:RDF>
      <cc:Work
         rdf:about="">
        <dc:format>image/svg+xml</dc:format>
        <dc:type
           rdf:resource="http://purl.org/dc/dcmitype/StillImage" />
        <dc:title />
      </cc:Work>
    </rdf:RDF>
  </metadata>
  <g
     inkscape:label="Layer 1"
     inkscape:groupmode="layer"
     id="layer1"
     transform="translate(-244.11664,46.344022)">
    <path
       style="fill:#4d4d4d;fill-opacity:1;stroke:none;stroke-width:0.264583"
       d="m 307.46351,-42.873648 c -14.39836,1.890502 -27.49047,5.810626 -38.89375,15.309088 -26.09684,21.7375045 -32.26731,60.479117 -13.8398,89.089041 4.12187,6.399476 9.41515,12.153899 15.4273,16.820884 7.19905,5.588 15.55856,9.603316 24.34166,11.978745 8.55663,2.314046 17.70116,2.732352 26.45834,1.55284 31.66295,-4.265348 57.05977,-31.661099 58.46259,-63.689968 1.42055,-32.4410897 -20.7981,-62.287517 -52.64176,-69.492928 -6.10076,-1.380432 -13.0638,-2.38842 -19.31458,-1.567702 m 15.61438,9.951673 c 1.07395,0.119459 1.65497,1.803532 2.03015,2.636043 1.31022,2.905945 1.68513,5.846948 1.66978,8.995833 -0.0415,8.627004 -8.22351,14.7298831 -14.28723,19.6312891 -2.82231,2.28123737 -7.39907,5.291931 -7.88855,9.2082933 -0.68104,5.4509456 2.12725,11.7863926 4.22407,16.6687486 0.35825,0.834232 2.91412,4.990306 0.73845,4.927336 -2.96227,-0.08546 -6.83815,-5.728759 -8.50291,-7.837752 -1.59756,-2.024063 -2.93449,-4.2418 -3.95049,-6.614583 -0.7112,-1.660525 -1.2409,-3.477948 -1.28535,-5.2916664 -0.35295,-14.3639639 15.29053,-18.0456408 22.851,-27.2530876 2.54424,-3.098588 3.76555,-7.660984 3.59304,-11.640661 -0.0347,-0.798988 -0.79904,-3.608546 0.80804,-3.429793 m 10.03459,23.7397382 c 2.84692,0.3058585 -2.06825,3.8443958 -2.63022,4.2965687 -3.87747,3.1191728 -11.80307,8.44841 -10.76087,14.2872347 0.88476,4.9553804 5.46391,7.6858804 5.19403,13.2291654 -0.16907,3.473186 -2.75352,6.918061 -5.28505,9.104312 -0.69268,0.598488 -1.84018,1.863725 -2.86702,1.701007 -1.06151,-0.168275 -0.61992,-1.440921 -0.37492,-2.074069 0.82153,-2.123017 2.14154,-4.951941 0.86334,-7.14375 -1.72059,-2.949839 -4.17433,-5.187156 -5.43296,-8.466666 -3.86768,-10.07692 4.14761,-16.6486405 12.31345,-20.9600257 2.16588,-1.1435292 6.4807,-4.2420641 8.98022,-3.9737771 m 10.06978,36.6548438 c 7.22312,-1.031875 13.29795,5.351462 10.91432,12.620625 -1.77747,5.420253 -8.00603,8.377501 -13.03099,10.054166 -1.42452,0.475191 -3.22448,1.392237 -4.75721,1.259946 -2.73473,-0.236273 0.62045,-2.75934 1.31763,-3.278717 3.06731,-2.284412 10.41373,-7.43241 9.41969,-12.004145 -0.66066,-3.03821 -4.40081,-4.133585 -7.03844,-4.599781 -0.78873,-0.139436 -2.10238,0.05186 -2.74955,-0.474663 -1.70974,-1.391179 2.52412,-2.709333 3.27871,-2.936875 0.86043,-0.259027 1.75498,-0.513291 2.64584,-0.640556 m -54.76875,6.535208 c 2.85141,1.431131 6.42514,1.134269 9.525,1.346729 8.17959,0.560123 16.73516,0.409311 24.87083,-0.665162 3.00858,-0.397404 6.02324,-0.672306 8.99583,-1.322917 0.76544,-0.167746 2.58022,-0.862806 3.15225,0.0071 0.77443,1.17819 -1.62428,2.376487 -2.3585,2.787385 -3.20199,1.791494 -6.77942,2.817548 -10.31875,3.701256 -7.86791,1.963738 -16.05571,2.018771 -24.07708,1.82245 -5.36866,-0.131498 -11.49006,-0.262202 -16.40417,-2.721239 -2.91094,-1.456796 -4.71857,-5.056717 -1.31894,-7.213071 3.63881,-2.30796 9.2784,-2.718593 13.48978,-2.7686 1.05066,-0.01243 3.48509,-0.44106 4.33308,0.270669 0.93874,0.787665 -0.52917,1.598877 -1.15941,1.777736 -3.02392,0.858043 -5.824,1.769268 -8.72992,2.97762 m 4.23333,11.1125 c 8.50741,3.276335 19.3085,1.524264 28.04583,0.06535 3.61977,-0.604573 9.00298,-1.869546 11.07625,2.624402 0.58129,1.259681 -1.27211,1.575858 -2.08041,1.773766 -2.61488,0.640556 -5.28294,1.153054 -7.9375,1.600465 -9.16782,1.544902 -18.61106,2.460889 -27.78125,0.438414 -3.18294,-0.702204 -11.02572,-3.860799 -5.55519,-7.60042 0.64584,-0.441325 1.38588,-0.734219 2.1156,-1.004358 2.74744,-1.017059 4.92813,-0.518584 2.11667,2.102379 m 3.96875,11.377082 c 5.25754,1.019705 10.77013,1.790965 16.13958,1.277938 3.33878,-0.319088 6.97945,-1.685925 10.31875,-1.504421 1.48432,0.0807 6.83075,2.607998 7.02046,4.232539 0.12329,1.054894 -1.2536,1.381125 -1.99337,1.662377 -2.14683,0.815446 -4.36642,1.472671 -6.61459,1.948657 -7.98671,1.691216 -16.9283,1.668462 -24.87083,-0.307975 -2.94693,-0.733425 -8.31771,-2.67679 -6.44154,-6.775979 1.05648,-2.308754 8.28913,-4.060825 6.44154,-0.533136 m -18.78542,10.847963 c 16.324,5.311774 35.88835,4.196026 52.65209,1.780381 4.24471,-0.611717 10.92385,-0.83185 14.51186,-3.387725 0.92737,-0.660665 0.33444,-1.749425 1.04087,-2.415117 0.64744,-0.610393 1.57851,0.108215 2.00184,0.633148 1.8079,2.241815 0.12039,4.599517 -1.94416,5.803106 -4.10871,2.395273 -9.15061,3.294063 -13.75833,4.200525 -12.41743,2.443427 -25.76909,2.738437 -38.36458,1.87616 -5.919,-0.405341 -11.95097,-0.359568 -17.72708,-1.989137 -1.26683,-0.357452 -2.54715,-0.786342 -3.70417,-1.421077 -2.97895,-1.634596 -4.46519,-5.249598 -1.05728,-7.334779 3.11838,-1.908175 7.79542,-2.323835 11.37603,-2.497666 1.1512,-0.05609 3.63193,-0.783696 4.60163,-0.0032 0.92948,0.748241 -0.21061,1.536699 -0.90249,1.727464 -3.04245,0.838994 -6.03515,1.254654 -8.72623,3.027892 m 74.59689,2.048404 c 2.24049,-0.277813 0.16986,3.421062 -0.33602,4.037012 -2.19869,2.676789 -5.39036,4.252912 -8.6442,5.283993 -13.74087,4.355042 -29.54417,3.094567 -43.65625,2.130954 -3.53404,-0.241299 -7.09956,-0.853545 -10.58333,-1.481931 -0.87128,-0.156898 -2.94455,-0.147108 -3.24062,-1.225814 -0.43709,-1.59094 2.43126,-1.287727 3.24062,-1.192213 3.86291,0.455877 8.01608,0.453761 11.90625,0.453761 11.52101,0 23.85827,1.016264 35.18958,-1.378744 3.63035,-0.767292 7.2517,-1.794139 10.58333,-3.449373 1.61713,-0.803275 3.80127,-2.962275 5.54064,-3.177645 z"
       id="path969" />
    <path
       style="fill:#ffee84;fill-opacity:1;stroke:none;stroke-width:0.264583"
       d="m 307.46351,-46.048608 c -14.39836,1.890502 -27.49047,5.810626 -38.89375,15.309088 -26.09684,21.7375051 -32.26731,60.479118 -13.8398,89.089041 4.12187,6.399477 9.41515,12.1539 15.4273,16.820885 7.19905,5.588 15.55856,9.603317 24.34166,11.978741 8.55663,2.31405 17.70116,2.73236 26.45834,1.55284 31.66295,-4.265343 57.05977,-31.661095 58.46259,-63.689964 1.42055,-32.44109 -20.7981,-62.287518 -52.64176,-69.492929 -6.10076,-1.380432 -13.0638,-2.38842 -19.31458,-1.567702 m 15.61438,9.951673 c 1.07395,0.119459 1.65497,1.803532 2.03015,2.636043 1.31022,2.905945 1.68513,5.846948 1.66978,8.995833 -0.0415,8.627002 -8.22351,14.7298837 -14.28723,19.6312899 -2.82231,2.281238 -7.39907,5.29193096 -7.88855,9.2082939 -0.68104,5.4509445 2.12725,11.7863922 4.22407,16.6687482 0.35825,0.834232 2.91412,4.990307 0.73845,4.927336 -2.96227,-0.08546 -6.83815,-5.728759 -8.50291,-7.837752 -1.59756,-2.024063 -2.93449,-4.2418 -3.95049,-6.614584 -0.7112,-1.6605247 -1.2409,-3.4779468 -1.28535,-5.2916652 -0.35295,-14.3639644 15.29053,-18.0456428 22.851,-27.2530898 2.54424,-3.098587 3.76555,-7.660983 3.59304,-11.64066 -0.0347,-0.798988 -0.79904,-3.608546 0.80804,-3.429793 m 10.03459,23.739738 c 2.84692,0.305858 -2.06825,3.8443967 -2.63022,4.2965696 -3.87747,3.1191729 -11.80307,8.44841026 -10.76087,14.2872352 0.88476,4.9553802 5.46391,7.6858802 5.19403,13.2291652 -0.16907,3.473186 -2.75352,6.918061 -5.28505,9.10431 -0.69268,0.59849 -1.84018,1.863728 -2.86702,1.701009 -1.06151,-0.168275 -0.61992,-1.440921 -0.37492,-2.074069 0.82153,-2.123016 2.14154,-4.951941 0.86334,-7.14375 -1.72059,-2.949839 -4.17433,-5.187156 -5.43296,-8.466666 -3.86768,-10.0769202 4.14761,-16.6486406 12.31345,-20.9600261 2.16588,-1.1435291 6.4807,-4.2420659 8.98022,-3.9737779 m 10.06978,36.654845 c 7.22312,-1.031875 13.29795,5.351463 10.91432,12.620625 -1.77747,5.420252 -8.00603,8.3775 -13.03099,10.054167 -1.42452,0.475189 -3.22448,1.392235 -4.75721,1.259946 -2.73473,-0.236273 0.62045,-2.759342 1.31763,-3.278719 3.06731,-2.28441 10.41373,-7.432408 9.41969,-12.004144 -0.66066,-3.03821 -4.40081,-4.133585 -7.03844,-4.599781 -0.78873,-0.139435 -2.10238,0.05186 -2.74955,-0.474662 -1.70974,-1.39118 2.52412,-2.709334 3.27871,-2.936875 0.86043,-0.259027 1.75498,-0.513292 2.64584,-0.640557 m -54.76875,6.535209 c 2.85141,1.431128 6.42514,1.134268 9.525,1.346729 8.17959,0.560123 16.73516,0.40931 24.87083,-0.665163 3.00858,-0.397404 6.02324,-0.672306 8.99583,-1.322916 0.76544,-0.167746 2.58022,-0.862807 3.15225,0.0071 0.77443,1.178189 -1.62428,2.376487 -2.3585,2.787385 -3.20199,1.791494 -6.77942,2.817548 -10.31875,3.701256 -7.86791,1.963738 -16.05571,2.018771 -24.07708,1.82245 -5.36866,-0.131498 -11.49006,-0.262202 -16.40417,-2.721239 -2.91094,-1.456796 -4.71857,-5.056717 -1.31894,-7.213071 3.63881,-2.307961 9.2784,-2.718594 13.48978,-2.7686 1.05066,-0.01244 3.48509,-0.441061 4.33308,0.270669 0.93874,0.787664 -0.52917,1.598877 -1.15941,1.777735 -3.02392,0.858044 -5.824,1.769269 -8.72992,2.977621 m 4.23333,11.1125 c 8.50741,3.276335 19.3085,1.524264 28.04583,0.06535 3.61977,-0.604573 9.00298,-1.869546 11.07625,2.624402 0.58129,1.259682 -1.27211,1.575859 -2.08041,1.773767 -2.61488,0.640556 -5.28294,1.153054 -7.9375,1.600465 -9.16782,1.544902 -18.61106,2.460889 -27.78125,0.438414 -3.18294,-0.702204 -11.02572,-3.8608 -5.55519,-7.600421 0.64584,-0.441325 1.38588,-0.734218 2.1156,-1.004358 2.74744,-1.017058 4.92813,-0.518583 2.11667,2.102379 m 3.96875,11.377083 c 5.25754,1.019705 10.77013,1.790965 16.13958,1.277938 3.33878,-0.319088 6.97945,-1.685925 10.31875,-1.504421 1.48432,0.0807 6.83075,2.607998 7.02046,4.23254 0.12329,1.054893 -1.2536,1.381125 -1.99337,1.662377 -2.14683,0.815446 -4.36642,1.472671 -6.61459,1.948656 -7.98671,1.691217 -16.9283,1.668463 -24.87083,-0.307975 -2.94693,-0.733425 -8.31771,-2.67679 -6.44154,-6.775979 1.05648,-2.308754 8.28913,-4.060825 6.44154,-0.533136 m -18.78542,10.847962 c 16.324,5.311775 35.88835,4.196027 52.65209,1.780381 4.24471,-0.611716 10.92385,-0.83185 14.51186,-3.387725 0.92737,-0.660664 0.33444,-1.749425 1.04087,-2.415116 0.64744,-0.610394 1.57851,0.108214 2.00184,0.633148 1.8079,2.241814 0.12039,4.599516 -1.94416,5.803106 -4.10871,2.395273 -9.15061,3.294062 -13.75833,4.200525 -12.41743,2.443427 -25.76909,2.738437 -38.36458,1.87616 -5.919,-0.405341 -11.95097,-0.359568 -17.72708,-1.989137 -1.26683,-0.357452 -2.54715,-0.786342 -3.70417,-1.421077 -2.97895,-1.634596 -4.46519,-5.249598 -1.05728,-7.334779 3.11838,-1.908175 7.79542,-2.323836 11.37603,-2.497667 1.1512,-0.05609 3.63193,-0.783696 4.60163,-0.0032 0.92948,0.748242 -0.21061,1.5367 -0.90249,1.727465 -3.04245,0.838994 -6.03515,1.254654 -8.72623,3.027892 m 74.59689,2.048404 c 2.24049,-0.277813 0.16986,3.421062 -0.33602,4.037012 -2.19869,2.676787 -5.39036,4.25291 -8.6442,5.283991 -13.74087,4.355045 -29.54417,3.09457 -43.65625,2.130955 -3.53404,-0.241298 -7.09956,-0.853544 -10.58333,-1.481932 -0.87128,-0.156898 -2.94455,-0.147105 -3.24062,-1.225812 -0.43709,-1.590942 2.43126,-1.287727 3.24062,-1.192215 3.86291,0.455877 8.01608,0.453763 11.90625,0.453763 11.52101,0 23.85827,1.016262 35.18958,-1.378743 3.63035,-0.767295 7.2517,-1.79414 10.58333,-3.449373 1.61713,-0.803275 3.80127,-2.962275 5.54064,-3.177646 z"
       id="path969-8" />
  </g>
</svg>
