<?xml version="1.0" encoding="UTF-8" standalone="no"?>
<svg
   xmlns:dc="http://purl.org/dc/elements/1.1/"
   xmlns:cc="http://creativecommons.org/ns#"
   xmlns:rdf="http://www.w3.org/1999/02/22-rdf-syntax-ns#"
   xmlns:svg="http://www.w3.org/2000/svg"
   xmlns="http://www.w3.org/2000/svg"
   xmlns:sodipodi="http://sodipodi.sourceforge.net/DTD/sodipodi-0.dtd"
   xmlns:inkscape="http://www.inkscape.org/namespaces/inkscape"
   width="105.74208mm"
   height="109.09386mm"
   viewBox="0 0 105.74208 109.09387"
   version="1.1"
   id="svg8"
   sodipodi:docname="js.svg"
   inkscape:version="1.0.1 (3bc2e81, 2020-09-07)">
  <defs
     id="defs2" />
  <sodipodi:namedview
     id="base"
     pagecolor="#ffffff"
     bordercolor="#666666"
     borderopacity="1.0"
     inkscape:pageopacity="0.0"
     inkscape:pageshadow="2"
     inkscape:zoom="0.45951371"
     inkscape:cx="176.13451"
     inkscape:cy="176.1965"
     inkscape:document-units="mm"
     inkscape:current-layer="layer1"
     inkscape:document-rotation="0"
     showgrid="false"
     inkscape:window-width="1338"
     inkscape:window-height="696"
     inkscape:window-x="14"
     inkscape:window-y="58"
     inkscape:window-maximized="0"
     inkscape:pagecheckerboard="true" />
  <metadata
     id="metadata5">
    <rdf:RDF>
      <cc:Work
         rdf:about="">
        <dc:format>image/svg+xml</dc:format>
        <dc:type
           rdf:resource="http://purl.org/dc/dcmitype/StillImage" />
        <dc:title />
      </cc:Work>
    </rdf:RDF>
  </metadata>
  <g
     inkscape:label="Layer 1"
     inkscape:groupmode="layer"
     id="layer1"
     transform="translate(-127.37965,-7.4850174)">
    <path
       style="fill:#4d4d4d;fill-opacity:1;stroke:none;stroke-width:0.264583"
       d="m 177.52096,10.880979 c -13.29664,1.745827 -24.81607,5.59816 -34.65645,15.243862 -4.60333,4.512204 -8.29193,10.006806 -10.93274,15.864681 -12.40806,27.523809 1.52268,60.988308 29.97877,71.423468 8.44285,3.09589 17.59241,3.84149 26.45833,2.58445 26.3697,-3.73882 45.85705,-28.369941 44.70427,-54.693336 -0.9914,-22.638807 -16.93175,-42.34148 -38.61885,-48.530216 -5.22393,-1.490716 -11.50011,-2.606278 -16.93333,-1.892909 m -8.99584,80.056457 c 1.47506,-0.40349 3.50706,-1.982787 5.02709,-1.561306 2.16561,0.600339 4.55215,3.7846 6.87916,3.449637 1.83171,-0.263525 3.96214,-2.07645 5.55625,-2.986352 4.33282,-2.473589 8.63627,-4.998772 12.96459,-7.480035 1.88304,-1.0795 5.08052,-2.226204 6.41826,-3.957637 0.72601,-0.9398 0.4609,-2.49211 0.4609,-3.60389 V 66.066604 54.689521 c 0,-1.477963 0.38682,-3.617383 -0.19632,-4.999567 -0.74983,-1.776677 -4.28598,-3.036358 -5.88909,-3.956579 -4.51432,-2.591593 -9.01568,-5.218641 -13.49375,-7.872147 -1.56078,-0.924983 -4.13227,-3.164416 -5.97324,-3.228445 -1.70021,-0.059 -4.22407,2.111904 -5.66843,2.93317 -4.77414,2.71436 -9.51362,5.487723 -14.2875,8.202083 -1.63751,0.931068 -4.88103,2.054225 -5.62451,3.904985 -0.54107,1.347523 -0.19632,3.321314 -0.19632,4.751916 v 10.583334 9.789582 c 0,1.605227 -0.13626,3.107532 1.33747,4.110302 2.2643,1.541198 7.1964,5.322094 10.03855,3.789098 2.30638,-1.243806 1.85314,-3.83831 1.85314,-6.047316 V 60.24577 c 0,-2.211122 -0.81333,-6.402122 0.19632,-8.382528 0.47546,-0.932657 3.67242,-0.974196 4.29419,-0.189177 1.12845,1.424781 0.27199,6.247076 0.27199,8.042539 V 76.91452 c 0,2.827602 0.19606,6.123252 -1.69068,8.462698 -4.01347,4.976018 -10.78601,1.140089 -14.97807,-1.2446 -1.82747,-1.039548 -3.98727,-2.037027 -4.91675,-4.043363 -1.11469,-2.405856 -0.6395,-5.62557 -0.6395,-8.201818 V 54.954104 c 0,-2.61276 -0.55853,-6.171141 0.97976,-8.465608 1.22713,-1.830651 3.52689,-2.747697 5.37024,-3.817408 3.61342,-2.097352 7.21942,-4.206345 10.84792,-6.277503 3.54013,-2.020888 8.74845,-6.580717 12.96458,-6.453188 4.42066,0.133615 9.78112,4.662223 13.49375,6.862498 3.67559,2.17805 7.40569,4.273021 11.1125,6.398154 2.13942,1.226343 4.34393,2.312722 5.04614,4.873889 0.69162,2.523066 0.24553,5.601758 0.24553,8.202083 v 16.139583 c 0,2.707216 0.66966,6.462976 -1.16258,8.720666 -2.30479,2.839508 -7.06861,4.645289 -10.2145,6.434931 -4.16005,2.366433 -8.29601,4.779168 -12.43542,7.181585 -2.01983,1.172368 -4.15528,2.787121 -6.61458,2.637102 -2.41433,-0.147109 -4.60613,-1.928019 -6.61459,-3.118908 -1.54675,-0.917046 -3.85815,-1.729052 -4.7625,-3.334544 m 15.875,-40.404784 c 3.98225,-0.51726 9.42525,-0.127794 12.41081,2.858558 0.82841,0.82894 3.62083,5.251185 1.7915,6.16585 -0.73555,0.367771 -3.0226,0.403754 -3.69121,-0.112448 -1.10754,-0.854869 -1.26761,-2.599796 -2.57466,-3.525043 -2.59424,-1.836738 -10.70795,-2.332832 -11.72077,1.680633 -0.63077,2.498989 2.89401,3.109648 4.57808,3.439054 4.11851,0.805656 9.55173,0.515143 12.93998,3.355445 5.56525,4.665134 -0.20929,11.841692 -5.53164,12.929923 -4.52517,0.925248 -10.65901,0.858838 -14.55182,-1.941777 -1.17449,-0.844814 -5.12286,-6.044406 -2.56196,-7.304616 0.812,-0.399521 2.99799,-0.370681 3.65866,0.30136 1.0025,1.019969 0.83793,2.617523 2.1029,3.603625 2.84295,2.215621 11.9814,2.760133 13.70965,-1.158081 0.95065,-2.154502 -1.04642,-3.520546 -2.8866,-3.992298 -4.52411,-1.160198 -10.41744,-0.361156 -14.26369,-3.392752 -3.26072,-2.570427 -2.69346,-7.989623 0.24474,-10.546291 1.67825,-1.4605 4.18227,-2.07989 6.34603,-2.361142 z"
       id="path1019" />
    <path
       style="fill:#ffee84;fill-opacity:1;stroke:none;stroke-width:0.264583"
       d="m 177.52096,7.7059785 c -13.29664,1.7458261 -24.81607,5.5981585 -34.65645,15.2438605 -4.60333,4.512205 -8.29193,10.006807 -10.93274,15.864683 -12.40806,27.523807 1.52268,60.988291 29.97877,71.423448 8.44285,3.09589 17.59241,3.84149 26.45833,2.58445 26.3697,-3.73882 45.85705,-28.369922 44.70427,-54.693318 C 232.08174,35.490297 216.14139,15.787622 194.45429,9.5988863 189.23036,8.1081712 182.95418,6.9926098 177.52096,7.7059785 m -8.99584,80.0564575 c 1.47506,-0.40349 3.50706,-1.982788 5.02709,-1.561307 2.16561,0.60034 4.55215,3.784597 6.87916,3.449637 1.83171,-0.26352 3.96214,-2.076449 5.55625,-2.986351 4.33282,-2.47359 8.63627,-4.998773 12.96459,-7.480036 1.88304,-1.0795 5.08052,-2.226204 6.41826,-3.957637 0.72601,-0.9398 0.4609,-2.492111 0.4609,-3.60389 v -8.73125 -11.377083 c 0,-1.477963 0.38682,-3.617383 -0.19632,-4.999567 -0.74983,-1.776677 -4.28598,-3.036358 -5.88909,-3.956579 -4.51432,-2.591594 -9.01568,-5.218642 -13.49375,-7.872148 -1.56078,-0.924981 -4.13227,-3.164415 -5.97324,-3.228443 -1.70021,-0.059 -4.22407,2.111903 -5.66843,2.933168 -4.77414,2.714361 -9.51362,5.487726 -14.2875,8.202084 -1.63751,0.931068 -4.88103,2.054225 -5.62451,3.904985 -0.54107,1.347523 -0.19632,3.321315 -0.19632,4.751917 v 10.583333 9.789583 c 0,1.605227 -0.13626,3.107532 1.33747,4.110302 2.2643,1.541198 7.1964,5.322094 10.03855,3.789098 2.30638,-1.243806 1.85314,-3.83831 1.85314,-6.047316 V 57.070769 c 0,-2.211123 -0.81333,-6.402123 0.19632,-8.382529 0.47546,-0.932656 3.67242,-0.974196 4.29419,-0.189177 1.12845,1.424781 0.27199,6.247077 0.27199,8.042539 v 17.197917 c 0,2.827602 0.19606,6.123252 -1.69068,8.462698 -4.01347,4.976019 -10.78601,1.14009 -14.97807,-1.2446 -1.82747,-1.039548 -3.98727,-2.037027 -4.91675,-4.043363 -1.11469,-2.405856 -0.6395,-5.62557 -0.6395,-8.201818 V 51.779102 c 0,-2.61276 -0.55853,-6.171141 0.97976,-8.465608 1.22713,-1.830649 3.52689,-2.747695 5.37024,-3.817408 3.61342,-2.097352 7.21942,-4.206344 10.84792,-6.277502 3.54013,-2.020888 8.74845,-6.580718 12.96458,-6.453189 4.42066,0.133615 9.78112,4.662224 13.49375,6.862499 3.67559,2.178051 7.40569,4.273021 11.1125,6.398155 2.13942,1.226341 4.34393,2.31272 5.04614,4.873887 0.69162,2.523066 0.24553,5.601758 0.24553,8.202083 v 16.139583 c 0,2.707217 0.66966,6.462977 -1.16258,8.720667 -2.30479,2.839508 -7.06861,4.64529 -10.2145,6.434931 -4.16005,2.366434 -8.29601,4.779169 -12.43542,7.181586 -2.01983,1.17237 -4.15528,2.78712 -6.61458,2.6371 -2.41433,-0.14711 -4.60613,-1.92802 -6.61459,-3.11891 -1.54675,-0.91704 -3.85815,-1.72905 -4.7625,-3.33454 m 15.875,-40.404786 c 3.98225,-0.51726 9.42525,-0.127794 12.41081,2.858559 0.82841,0.828939 3.62083,5.251185 1.7915,6.16585 -0.73555,0.36777 -3.0226,0.403754 -3.69121,-0.112448 -1.10754,-0.854869 -1.26761,-2.599796 -2.57466,-3.525044 -2.59424,-1.836738 -10.70795,-2.332831 -11.72077,1.680633 -0.63077,2.49899 2.89401,3.109648 4.57808,3.439054 4.11851,0.805657 9.55173,0.515144 12.93998,3.355446 5.56525,4.665134 -0.20929,11.841692 -5.53164,12.929923 -4.52517,0.925248 -10.65901,0.858838 -14.55182,-1.941777 -1.17449,-0.844815 -5.12286,-6.044406 -2.56196,-7.304617 0.812,-0.39952 2.99799,-0.370681 3.65866,0.301361 1.0025,1.019969 0.83793,2.617523 2.1029,3.603625 2.84295,2.215621 11.9814,2.760133 13.70965,-1.158081 0.95065,-2.154503 -1.04642,-3.520546 -2.8866,-3.992298 -4.52411,-1.160198 -10.41744,-0.361157 -14.26369,-3.392752 -3.26072,-2.570428 -2.69346,-7.989623 0.24474,-10.546292 1.67825,-1.4605 4.18227,-2.07989 6.34603,-2.361142 z"
       id="path1019-6" />
  </g>
</svg>
