<?xml version="1.0" encoding="UTF-8" standalone="no"?>
<svg
   xmlns:dc="http://purl.org/dc/elements/1.1/"
   xmlns:cc="http://creativecommons.org/ns#"
   xmlns:rdf="http://www.w3.org/1999/02/22-rdf-syntax-ns#"
   xmlns:svg="http://www.w3.org/2000/svg"
   xmlns="http://www.w3.org/2000/svg"
   xmlns:sodipodi="http://sodipodi.sourceforge.net/DTD/sodipodi-0.dtd"
   xmlns:inkscape="http://www.inkscape.org/namespaces/inkscape"
   width="598.79303"
   height="576.45148"
   version="1.1"
   id="svg7004"
   sodipodi:docname="qt.svg"
   inkscape:version="1.0.1 (3bc2e81, 2020-09-07)">
  <metadata
     id="metadata7010">
    <rdf:RDF>
      <cc:Work
         rdf:about="">
        <dc:format>image/svg+xml</dc:format>
        <dc:type
           rdf:resource="http://purl.org/dc/dcmitype/StillImage" />
        <dc:title />
      </cc:Work>
    </rdf:RDF>
  </metadata>
  <defs
     id="defs7008" />
  <sodipodi:namedview
     pagecolor="#ffffff"
     bordercolor="#666666"
     borderopacity="1"
     objecttolerance="10"
     gridtolerance="10"
     guidetolerance="10"
     inkscape:pageopacity="0"
     inkscape:pageshadow="2"
     inkscape:window-width="1338"
     inkscape:window-height="696"
     id="namedview7006"
     showgrid="false"
     inkscape:zoom="0.4708017"
     inkscape:cx="-12.449544"
     inkscape:cy="412.00884"
     inkscape:window-x="14"
     inkscape:window-y="58"
     inkscape:window-maximized="0"
     inkscape:current-layer="svg7004"
     inkscape:document-rotation="0" />
  <path
     style="fill:#4d4d4d;fill-opacity:1;stroke:none"
     d="m 0,548 h 349 v 28 h 45 c 5.579,0 13.897,1.524 19,-1.028 11.35901,-5.679 17.00601,-21.946 29.00001,-26.369 7.323,-2.7 17.273,-10e-4 25,-0.774 19.99,-1.998 39.078,-13.482 50.56,-29.829 6.589,-9.381 11.834,-21.427 12.401,-33 0.366,-7.459 -2.071,-22.09 2.357,-28 13.662,-18.236 33.561,-33.879 49.682,-50 4.017,-4.017 16.793,-12.964 16.793,-19 0,-5.589 -11.112,-13.319 -14.793,-17 l -32,-32 c -3.614,-3.614 -8.88,-11.362 -14,-12.654 -3.256,-0.823 -5.962,2.689 -8,4.654 V 17.999996 H 163 96 c -27.6991,0 -53.9135,-0.0347 -74.9606,21.039399 C 0.25994,59.845395 0,86.662095 0,114 v 67 367 m 265,-97 c 0,6.295 2.78,21.295 -1.028,26.436 -2.801,3.783 -11.77,3.28 -15.972,3.73 -17.282,1.85 -35.72,0.491 -51,-8.619 C 177.951,461.19 169.683,440.301 168,419 124.401,415.169 107.81,361.632 101.92,326 99.3084,310.204 98,293.991 98,278 c 0,-60.565 -2.5002,-160.5725 75,-174.5756 11.479,-2.0741 24.365,-2.3664 36,-1.2546 83.436,7.9723 84.024,110.2992 84,173.8302 -0.005,13.282 -1.468,26.802 -2.95,40 -2.092,18.634 -6.08,37.703 -13.477,55 -6.229,14.564 -15.494,28.123 -28.573,37.279 -4.642,3.249 -21.649,7.943 -23.223,12.946 -1.071,3.402 1.407,8.669 2.677,11.775 7.113,17.404 21.234,18.7 37.546,18 M 187,130.468 c -23.819,4.501 -27.82,38.016 -30.155,57.532 -6.233,52.089 -6.748,109.162 1.908,161 4.027,24.113 14.927,50.575 44.247,44.904 24.296,-4.699 28.658,-37.654 30.834,-57.904 5.585,-51.974 6.812,-108.287 -1.754,-160 C 227.949,151.056 217.228,124.755 187,130.468 M 405,130 v 55 h 27.00001 v 28 H 405 v 117 c 0,11.794 -4.567,35.836 1.858,45.956 6.253,9.85 17.80501,1.904 25.14201,-1.956 0,6.716 2.99,23.154 -1.603,28.363 C 426.10401,407.23 416.012,409.572 410,411.414 388.749,417.923 363.641,418.945 353.338,395 345.497,376.779 349,353.357 349,334 V 213 h -14 v -28 h 14 l 13,-55 z"
     id="path8278" />
  <path
     style="fill:#ffee84;fill-opacity:1;stroke:none"
     d="m 0,530 h 349 v 28 h 45 c 5.579,0 13.897,1.524 19,-1.028 11.35901,-5.679 17.00601,-21.946 29.00001,-26.369 7.323,-2.7 17.273,-10e-4 25,-0.774 19.99,-1.998 39.078,-13.482 50.56,-29.829 6.589,-9.381 11.834,-21.427 12.401,-33 0.366,-7.459 -2.071,-22.09 2.357,-28 13.662,-18.236 33.561,-33.879 49.682,-50 4.017,-4.017 16.793,-12.964 16.793,-19 0,-5.589 -11.112,-13.319 -14.793,-17 l -32,-32 c -3.614,-3.614 -8.88,-11.362 -14,-12.654 -3.256,-0.823 -5.962,2.689 -8,4.654 V 3.7384769e-7 H 163 96 C 68.3009,3.7384769e-7 42.0865,-0.03469963 21.0394,21.039399 0.25994,41.845399 0,68.662099 0,95.999999 V 163 530 m 265,-97 c 0,6.295 2.78,21.295 -1.028,26.436 -2.801,3.783 -11.77,3.28 -15.972,3.73 -17.282,1.85 -35.72,0.491 -51,-8.619 C 177.951,443.19 169.683,422.301 168,401 124.401,397.169 107.81,343.632 101.92,308 99.3084,292.204 98,275.991 98,260 98,199.435 95.4998,99.427499 173,85.424399 c 11.479,-2.0741 24.365,-2.3664 36,-1.2546 83.436,7.9723 84.024,110.299201 84,173.830201 -0.005,13.282 -1.468,26.802 -2.95,40 -2.092,18.634 -6.08,37.703 -13.477,55 -6.229,14.564 -15.494,28.123 -28.573,37.279 -4.642,3.249 -21.649,7.943 -23.223,12.946 -1.071,3.402 1.407,8.669 2.677,11.775 7.113,17.404 21.234,18.7 37.546,18 M 187,112.468 c -23.819,4.501 -27.82,38.016 -30.155,57.532 -6.233,52.089 -6.748,109.162 1.908,161 4.027,24.113 14.927,50.575 44.247,44.904 24.296,-4.699 28.658,-37.654 30.834,-57.904 5.585,-51.974 6.812,-108.287 -1.754,-160 C 227.949,133.056 217.228,106.755 187,112.468 M 405,112 v 55 h 27.00001 v 28 H 405 v 117 c 0,11.794 -4.567,35.836 1.858,45.956 6.253,9.85 17.80501,1.904 25.14201,-1.956 0,6.716 2.99,23.154 -1.603,28.363 C 426.10401,389.23 416.012,391.572 410,393.414 388.749,399.923 363.641,400.945 353.338,377 345.497,358.779 349,335.357 349,316 V 195 h -14 v -28 h 14 l 13,-55 z"
     id="path8278-6" />
</svg>
