<?xml version="1.0" encoding="UTF-8" standalone="no"?>
<svg
   xmlns:dc="http://purl.org/dc/elements/1.1/"
   xmlns:cc="http://creativecommons.org/ns#"
   xmlns:rdf="http://www.w3.org/1999/02/22-rdf-syntax-ns#"
   xmlns:svg="http://www.w3.org/2000/svg"
   xmlns="http://www.w3.org/2000/svg"
   xmlns:sodipodi="http://sodipodi.sourceforge.net/DTD/sodipodi-0.dtd"
   xmlns:inkscape="http://www.inkscape.org/namespaces/inkscape"
   width="40.987762mm"
   height="37.796017mm"
   viewBox="0 0 40.987764 37.796018"
   version="1.1"
   id="svg8"
   sodipodi:docname="react.svg"
   inkscape:version="1.0.1 (3bc2e81, 2020-09-07)">
  <defs
     id="defs2" />
  <sodipodi:namedview
     id="base"
     pagecolor="#ffffff"
     bordercolor="#666666"
     borderopacity="1.0"
     inkscape:pageopacity="0.0"
     inkscape:pageshadow="2"
     inkscape:zoom="2.835798"
     inkscape:cx="52.93401"
     inkscape:cy="56.466275"
     inkscape:document-units="mm"
     inkscape:current-layer="layer1"
     inkscape:document-rotation="0"
     showgrid="false"
     inkscape:window-width="1338"
     inkscape:window-height="696"
     inkscape:window-x="14"
     inkscape:window-y="58"
     inkscape:window-maximized="0"
     inkscape:pagecheckerboard="true" />
  <metadata
     id="metadata5">
    <rdf:RDF>
      <cc:Work
         rdf:about="">
        <dc:format>image/svg+xml</dc:format>
        <dc:type
           rdf:resource="http://purl.org/dc/dcmitype/StillImage" />
        <dc:title />
      </cc:Work>
    </rdf:RDF>
  </metadata>
  <g
     inkscape:label="Layer 1"
     inkscape:groupmode="layer"
     id="layer1"
     transform="translate(-1763.7647,-147.28302)">
    <path
       style="fill:#4d4d4d;fill-opacity:1;stroke:none;stroke-width:0.264583"
       d="m 1784.4001,152.83286 c -2.9097,-2.7827 -10.3446,-7.75549 -12.3183,-1.32292 -0.7045,2.29608 0.7867,5.97112 -0.1694,7.864 -0.4784,0.94713 -2.2337,1.21386 -3.1227,1.63182 -2.6382,1.24018 -6.1055,3.81804 -4.7021,7.17293 1.4883,3.55785 5.5914,3.04933 7.707,5.47661 0.6687,0.76729 0.088,2.35691 -0.019,3.25464 -0.3134,2.62044 -0.094,7.09851 3.0995,7.83326 2.3852,0.54874 4.7051,-0.63606 6.6146,-1.92538 0.768,-0.51858 1.924,-1.87219 2.9104,-1.78276 3.3808,0.30692 6.8048,6.53944 10.7915,2.91439 1.8968,-1.72482 1.8254,-4.96306 1.5989,-7.30409 -0.078,-0.80513 -0.5757,-2.03729 -0.1672,-2.79956 0.4212,-0.7866 1.8415,-1.02341 2.5934,-1.3761 2.4599,-1.15331 5.7526,-2.96597 5.5245,-6.14309 -0.195,-2.71743 -3.0173,-4.44468 -5.2599,-5.4401 -0.853,-0.37856 -2.4003,-0.62555 -2.8794,-1.51257 -0.457,-0.84632 0.1018,-2.20501 0.1886,-3.1015 0.1667,-1.72138 0.1029,-3.65971 -0.5186,-5.29145 -2.0804,-5.46362 -9.5975,-1.2359 -11.8718,1.85187 m -10.3188,6.35 c -0.4356,-2.31219 -1.4205,-6.40001 0.4371,-8.35194 1.7338,-1.82179 7.3824,1.02401 7.938,3.08395 0.2358,0.87331 -0.8453,1.76178 -1.3335,2.35757 -1.8949,2.31307 -4.1716,2.53982 -7.0416,2.91042 m 20.3729,0 c -2.8699,-0.3706 -5.1466,-0.59735 -7.0416,-2.91042 -0.4963,-0.60573 -1.5666,-1.48455 -1.3335,-2.37082 0.5416,-2.06068 6.2143,-4.88196 7.938,-3.0707 1.8476,1.9414 0.8668,6.0452 0.4371,8.35194 m -10.0541,-3.70417 2.1166,2.64584 h -4.4979 l 2.3813,-2.64584 m -3.6553,4.65757 c 1.3367,-0.5629 6.3482,-0.66196 7.4841,0.26458 3.4729,2.83239 3.6274,6.69711 1.5676,10.1591 -0.5006,0.84111 -1.0483,2.08439 -2.0055,2.48629 -4.526,1.89892 -10.8572,-1.1213 -10.8572,-6.45504 0,-1.17051 0.9668,-2.46991 1.5404,-3.43958 0.5657,-0.95605 1.1837,-2.55757 2.2706,-3.01535 m -2.9593,0.36952 -2.1167,3.70416 -1.0583,-3.175 3.175,-0.52916 m 16.1396,0.52916 -1.0584,3.175 -2.1166,-3.70416 3.175,0.52916 m -21.1667,0.52917 c 0.5456,1.37845 1.1492,2.80837 1.5587,4.23333 0.2796,0.97306 0.014,1.73443 -0.3415,2.64584 -0.3057,0.78396 -0.6236,2.69769 -1.5553,2.95989 -2.9262,0.82338 -8.6814,-3.95727 -5.6973,-6.8425 0.667,-0.64484 1.5165,-1.15353 2.3312,-1.5881 1.1625,-0.62 2.4244,-1.10517 3.7042,-1.40846 m 23.0188,0 c 1.2797,0.30329 2.5418,0.78846 3.7041,1.40846 0.8147,0.43457 1.6642,0.94326 2.3313,1.5881 2.9842,2.88523 -2.7713,7.66588 -5.6973,6.8425 -0.9631,-0.27093 -1.3454,-2.404 -1.66,-3.22448 -0.362,-0.94355 -0.5276,-1.67018 -0.1791,-2.64583 0.4725,-1.32329 0.9318,-2.68507 1.501,-3.96875 m -12.7,1.47439 c -4.7192,1.35408 -2.3064,8.5557 2.3801,7.16584 4.7046,-1.39541 2.3062,-8.51053 -2.3801,-7.16584 m -7.1438,5.93394 2.1167,3.96875 -3.4396,-0.79375 1.3229,-3.175 m 16.9333,0 1.0584,3.175 -3.4396,0.79375 2.3812,-3.96875 m -18.7854,5.02709 c 3.1091,0.64135 5.1126,0.65484 7.2221,3.175 0.4249,0.508 1.1911,1.12527 1.1898,1.85102 0,2.24102 -5.9883,5.00936 -7.7784,3.54568 -2.216,-1.81239 -0.9303,-6.23543 -0.6335,-8.5717 m 20.3729,0 c 0.4175,2.21615 1.528,6.87996 -0.603,8.5717 -1.7552,1.39356 -7.8054,-1.35519 -7.8089,-3.54859 0,-0.80539 0.9435,-1.54834 1.4169,-2.1127 1.9547,-2.33098 4.115,-2.35188 6.995,-2.91041 m -7.9375,1.05833 -1.852,2.64583 -2.6459,-2.64583 z"
       id="path5342" />
    <path
       style="fill:#ffee84;fill-opacity:1;stroke:none;stroke-width:0.264583"
       d="m 1784.4001,151.77452 c -2.9097,-2.7827 -10.3446,-7.75549 -12.3183,-1.32292 -0.7045,2.29608 0.7867,5.97112 -0.1694,7.864 -0.4784,0.94713 -2.2337,1.21386 -3.1227,1.63182 -2.6382,1.24018 -6.1055,3.81804 -4.7021,7.17293 1.4883,3.55785 5.5914,3.04933 7.707,5.47661 0.6687,0.76729 0.088,2.35691 -0.019,3.25464 -0.3134,2.62044 -0.094,7.09851 3.0995,7.83326 2.3852,0.54874 4.7051,-0.63606 6.6146,-1.92538 0.768,-0.51858 1.924,-1.87219 2.9104,-1.78276 3.3808,0.30692 6.8048,6.53944 10.7915,2.91439 1.8968,-1.72482 1.8254,-4.96306 1.5989,-7.30409 -0.078,-0.80513 -0.5757,-2.03729 -0.1672,-2.79956 0.4212,-0.7866 1.8415,-1.02341 2.5934,-1.3761 2.4599,-1.15331 5.7526,-2.96597 5.5245,-6.14309 -0.195,-2.71743 -3.0173,-4.44468 -5.2599,-5.4401 -0.853,-0.37856 -2.4003,-0.62555 -2.8794,-1.51257 -0.457,-0.84632 0.1018,-2.20501 0.1886,-3.1015 0.1667,-1.72138 0.1029,-3.65971 -0.5186,-5.29145 -2.0804,-5.46362 -9.5975,-1.2359 -11.8718,1.85187 m -10.3188,6.35 c -0.4356,-2.31219 -1.4205,-6.40001 0.4371,-8.35194 1.7338,-1.82179 7.3824,1.02401 7.938,3.08395 0.2358,0.87331 -0.8453,1.76178 -1.3335,2.35757 -1.8949,2.31307 -4.1716,2.53982 -7.0416,2.91042 m 20.3729,0 c -2.8699,-0.3706 -5.1466,-0.59735 -7.0416,-2.91042 -0.4963,-0.60573 -1.5666,-1.48455 -1.3335,-2.37082 0.5416,-2.06068 6.2143,-4.88196 7.938,-3.0707 1.8476,1.9414 0.8668,6.0452 0.4371,8.35194 m -10.0541,-3.70417 2.1166,2.64584 h -4.4979 l 2.3813,-2.64584 m -3.6553,4.65757 c 1.3367,-0.5629 6.3482,-0.66196 7.4841,0.26458 3.4729,2.83239 3.6274,6.69711 1.5676,10.1591 -0.5006,0.84111 -1.0483,2.08439 -2.0055,2.48629 -4.526,1.89892 -10.8572,-1.1213 -10.8572,-6.45504 0,-1.17051 0.9668,-2.46991 1.5404,-3.43958 0.5657,-0.95605 1.1837,-2.55757 2.2706,-3.01535 m -2.9593,0.36952 -2.1167,3.70416 -1.0583,-3.175 3.175,-0.52916 m 16.1396,0.52916 -1.0584,3.175 -2.1166,-3.70416 3.175,0.52916 m -21.1667,0.52917 c 0.5456,1.37845 1.1492,2.80837 1.5587,4.23333 0.2796,0.97306 0.014,1.73443 -0.3415,2.64584 -0.3057,0.78396 -0.6236,2.69769 -1.5553,2.95989 -2.9262,0.82338 -8.6814,-3.95727 -5.6973,-6.8425 0.667,-0.64484 1.5165,-1.15353 2.3312,-1.5881 1.1625,-0.62 2.4244,-1.10517 3.7042,-1.40846 m 23.0188,0 c 1.2797,0.30329 2.5418,0.78846 3.7041,1.40846 0.8147,0.43457 1.6642,0.94326 2.3313,1.5881 2.9842,2.88523 -2.7713,7.66588 -5.6973,6.8425 -0.9631,-0.27093 -1.3454,-2.404 -1.66,-3.22448 -0.362,-0.94355 -0.5276,-1.67018 -0.1791,-2.64583 0.4725,-1.32329 0.9318,-2.68507 1.501,-3.96875 m -12.7,1.47439 c -4.7192,1.35408 -2.3064,8.5557 2.3801,7.16584 4.7046,-1.39541 2.3062,-8.51053 -2.3801,-7.16584 m -7.1438,5.93394 2.1167,3.96875 -3.4396,-0.79375 1.3229,-3.175 m 16.9333,0 1.0584,3.175 -3.4396,0.79375 2.3812,-3.96875 m -18.7854,5.02709 c 3.1091,0.64135 5.1126,0.65484 7.2221,3.175 0.4249,0.508 1.1911,1.12527 1.1898,1.85102 0,2.24102 -5.9883,5.00936 -7.7784,3.54568 -2.216,-1.81239 -0.9303,-6.23543 -0.6335,-8.5717 m 20.3729,0 c 0.4175,2.21615 1.528,6.87996 -0.603,8.5717 -1.7552,1.39356 -7.8054,-1.35519 -7.8089,-3.54859 0,-0.80539 0.9435,-1.54834 1.4169,-2.1127 1.9547,-2.33098 4.115,-2.35188 6.995,-2.91041 m -7.9375,1.05833 -1.852,2.64583 -2.6459,-2.64583 z"
       id="path5342-3" />
  </g>
</svg>
