<?xml version="1.0" encoding="UTF-8" standalone="no"?>
<svg
   xmlns:dc="http://purl.org/dc/elements/1.1/"
   xmlns:cc="http://creativecommons.org/ns#"
   xmlns:rdf="http://www.w3.org/1999/02/22-rdf-syntax-ns#"
   xmlns:svg="http://www.w3.org/2000/svg"
   xmlns="http://www.w3.org/2000/svg"
   xmlns:sodipodi="http://sodipodi.sourceforge.net/DTD/sodipodi-0.dtd"
   xmlns:inkscape="http://www.inkscape.org/namespaces/inkscape"
   width="57.186417mm"
   height="59.27631mm"
   viewBox="0 0 57.186419 59.276309"
   version="1.1"
   id="svg8"
   sodipodi:docname="scss.svg"
   inkscape:version="1.0.1 (3bc2e81, 2020-09-07)">
  <defs
     id="defs2" />
  <sodipodi:namedview
     id="base"
     pagecolor="#ffffff"
     bordercolor="#666666"
     borderopacity="1.0"
     inkscape:pageopacity="0.0"
     inkscape:pageshadow="2"
     inkscape:zoom="1.0001998"
     inkscape:cx="-102.11382"
     inkscape:cy="140.0955"
     inkscape:document-units="mm"
     inkscape:current-layer="layer1"
     inkscape:document-rotation="0"
     showgrid="false"
     inkscape:window-width="1338"
     inkscape:window-height="696"
     inkscape:window-x="14"
     inkscape:window-y="58"
     inkscape:window-maximized="0"
     inkscape:pagecheckerboard="true" />
  <metadata
     id="metadata5">
    <rdf:RDF>
      <cc:Work
         rdf:about="">
        <dc:format>image/svg+xml</dc:format>
        <dc:type
           rdf:resource="http://purl.org/dc/dcmitype/StillImage" />
        <dc:title />
      </cc:Work>
    </rdf:RDF>
  </metadata>
  <g
     inkscape:label="Layer 1"
     inkscape:groupmode="layer"
     id="layer1"
     transform="translate(-345.22441,38.092104)">
    <path
       style="fill:#4d4d4d;fill-opacity:1;stroke:none;stroke-width:0.264583"
       d="m 373.11307,-35.903971 c -3.10092,-0.370266 -6.9364,0.764905 -9.78959,1.870266 -12.27579,4.755753 -19.23567,17.319545 -17.94655,30.2125056 1.28233,12.824883 12.22436,23.2473504 24.82572,24.7951634 12.58464,1.545431 25.20659,-5.547255 30.00269,-17.3868304 1.19036,-2.93846201 2.76887,-7.363883 2.00448,-10.583333 -0.44185,-1.861079 -3.17949,-3.7160456 -4.4905,-5.0270826 l -11.64167,-11.641667 -8.99583,-8.995833 c -1.04087,-1.040977 -2.41115,-3.057218 -3.96875,-3.243189 m 1.85208,32.3473546 -0.26458,1.5875 c -1.05992,-0.218545 -3.379,-1.0668 -3.80656,0.553773 -0.31301,1.18586299 1.44118,1.69703799 2.21906,2.05634199 1.64385,0.75935401 2.80405,2.07618501 2.26642,4.00050001 -0.74666,2.674408 -7.20604,3.142985 -6.49976,-0.260615 0.84691,0.270934 5.94519,1.22899 4.32277,-1.26656 -0.98161,-1.509977 -3.37088,-1.26709 -4.27541,-2.97815001 -2.12799,-4.02537099 3.70364,-4.43282899 6.03806,-3.69278999 m 7.67292,2.38125 -0.26459,1.32291699 c -0.93133,5.29e-4 -2.05898,-0.135467 -2.85009,0.460904 -1.41076,1.06389001 -1.04457,3.46233801 0.48049,4.21349001 0.81782,0.40296 1.76926,0.153987 2.63419,0.08811 -0.18839,2.419615 -3.48377,2.107935 -4.8395,0.689504 -3.5306,-3.694377 0.84535,-7.725833 4.8395,-6.774921 m 6.35,0 -0.26459,1.32291699 c -0.68077,-0.02725 -2.55376,-0.457729 -2.74346,0.562769 -0.27993,1.50574401 3.79201,1.64279801 3.15383,4.19576201 -0.58155,2.325952 -5.23504,2.602707 -5.43745,0.004 0.45059,0.01931 0.88186,0.05715 1.32953,0.11139 4.5384,0.549275 -0.49107,-2.279121 -1.01653,-3.297767 -1.62824,-3.156744 3.2004,-3.322373 4.97867,-2.89904 m 3.43958,1.32291699 c 0.52599,1.81874601 2.53286,1.66237701 3.35518,3.20278101 1.87034,3.503084 -3.62558,3.3274 -5.47185,2.882636 l 0.26459,-1.322917 c 0.44873,0.03545 0.88318,0.0971 1.32953,0.151342 0.5834,0.07064 2.69319,0.02963 1.91108,-1.110721 -0.93398,-1.361811 -4.97231,-1.975908 -2.62731,-4.53654601 1.99813,-2.18175399 5.86502,0.598488 2.82628,0.620977 -0.53525,0.004 -1.05542,0.05609 -1.5875,0.112448 z"
       id="path5222" />
    <path
       style="fill:#ffee84;fill-opacity:1;stroke:none;stroke-width:0.264583"
       d="m 373.11307,-38.02064 c -3.10092,-0.370266 -6.9364,0.764905 -9.78959,1.870266 -12.27579,4.755753 -19.23567,17.319545 -17.94655,30.2125075 1.28233,12.8248833 12.22436,23.2473485 24.82572,24.7951635 12.58464,1.545431 25.20659,-5.547256 30.00269,-17.3868302 1.19036,-2.9384624 2.76887,-7.3638833 2.00448,-10.5833333 -0.44185,-1.8610795 -3.17949,-3.7160465 -4.4905,-5.0270845 l -11.64167,-11.641666 -8.99583,-8.995834 c -1.04087,-1.040977 -2.41115,-3.057218 -3.96875,-3.243189 m 1.85208,32.3473565 -0.26458,1.5875 c -1.05992,-0.218546 -3.379,-1.0668 -3.80656,0.5537733 -0.31301,1.1858625 1.44118,1.6970375 2.21906,2.0563417 1.64385,0.75935427 2.80405,2.07618533 2.26642,4.0004999 -0.74666,2.6744084 -7.20604,3.1429854 -6.49976,-0.2606146 0.84691,0.2709334 5.94519,1.2289896 4.32277,-1.26656037 -0.98161,-1.50997706 -3.37088,-1.26708954 -4.27541,-2.97814993 -2.12799,-4.025371 3.70364,-4.432829 6.03806,-3.69279 m 7.67292,2.3812503 -0.26459,1.3229168 c -0.93133,5.291e-4 -2.05898,-0.1354667 -2.85009,0.4609041 -1.41076,1.06388969 -1.04457,3.4623375 0.48049,4.2134896 0.81782,0.4029604 1.76926,0.1539875 2.63419,0.088112 -0.18839,2.4196146 -3.48377,2.1079354 -4.8395,0.6895042 -3.5306,-3.69437701 0.84535,-7.725833 4.8395,-6.7749209 m 6.35,0 -0.26459,1.3229168 c -0.68077,-0.027252 -2.55376,-0.4577292 -2.74346,0.5627687 -0.27993,1.50574376 3.79201,1.64279796 3.15383,4.1957624 -0.58155,2.3259521 -5.23504,2.6027063 -5.43745,0.004 0.45059,0.019315 0.88186,0.05715 1.32953,0.1113922 4.5384,0.549275 -0.49107,-2.27912077 -1.01653,-3.29776921 -1.62824,-3.15674389 3.2004,-3.32237299 4.97867,-2.89903969 m 3.43958,1.3229167 c 0.52599,1.81874849 2.53286,1.66237709 3.35518,3.2027812 1.87034,3.503086 -3.62558,3.3274 -5.47185,2.8826381 l 0.26459,-1.3229193 c 0.44873,0.035452 0.88318,0.097102 1.32953,0.1513443 0.5834,0.070638 2.69319,0.029628 1.91108,-1.1107209 -0.93398,-1.36181297 -4.97231,-1.97590821 -2.62731,-4.5365485 1.99813,-2.1817539 5.86502,0.5984903 2.82628,0.6209772 -0.53525,0.004 -1.05542,0.056092 -1.5875,0.1124479 z"
       id="path5222-9" />
  </g>
</svg>
