<?xml version="1.0" encoding="UTF-8" standalone="no"?>
<svg
   xmlns:dc="http://purl.org/dc/elements/1.1/"
   xmlns:cc="http://creativecommons.org/ns#"
   xmlns:rdf="http://www.w3.org/1999/02/22-rdf-syntax-ns#"
   xmlns:svg="http://www.w3.org/2000/svg"
   xmlns="http://www.w3.org/2000/svg"
   xmlns:sodipodi="http://sodipodi.sourceforge.net/DTD/sodipodi-0.dtd"
   xmlns:inkscape="http://www.inkscape.org/namespaces/inkscape"
   width="57.186417mm"
   height="57.159641mm"
   viewBox="0 0 57.186419 57.159641"
   version="1.1"
   id="svg8"
   sodipodi:docname="scss.svg"
   inkscape:version="1.0.1 (3bc2e81, 2020-09-07)">
  <defs
     id="defs2" />
  <sodipodi:namedview
     id="base"
     pagecolor="#ffffff"
     bordercolor="#666666"
     borderopacity="1.0"
     inkscape:pageopacity="0.0"
     inkscape:pageshadow="2"
     inkscape:zoom="1.1344753"
     inkscape:cx="232.19939"
     inkscape:cy="119.25068"
     inkscape:document-units="mm"
     inkscape:current-layer="layer1"
     inkscape:document-rotation="0"
     showgrid="false"
     inkscape:window-width="1338"
     inkscape:window-height="696"
     inkscape:window-x="14"
     inkscape:window-y="58"
     inkscape:window-maximized="0"
     inkscape:pagecheckerboard="true" />
  <metadata
     id="metadata5">
    <rdf:RDF>
      <cc:Work
         rdf:about="">
        <dc:format>image/svg+xml</dc:format>
        <dc:type
           rdf:resource="http://purl.org/dc/dcmitype/StillImage" />
        <dc:title></dc:title>
      </cc:Work>
    </rdf:RDF>
  </metadata>
  <g
     inkscape:label="Layer 1"
     inkscape:groupmode="layer"
     id="layer1"
     transform="translate(-345.22441,35.975435)">
    <path
       style="fill:#ffee84;stroke:none;stroke-width:0.264583;fill-opacity:1"
       d="m 373.11307,-35.903971 c -3.10092,-0.370266 -6.9364,0.764905 -9.78959,1.870266 -12.27579,4.755753 -19.23567,17.319545 -17.94655,30.2125056 1.28233,12.824883 12.22436,23.2473504 24.82572,24.7951634 12.58464,1.545431 25.20659,-5.547255 30.00269,-17.3868304 1.19036,-2.93846201 2.76887,-7.363883 2.00448,-10.583333 -0.44185,-1.861079 -3.17949,-3.7160456 -4.4905,-5.0270826 l -11.64167,-11.641667 -8.99583,-8.995833 c -1.04087,-1.040977 -2.41115,-3.057218 -3.96875,-3.243189 m 1.85208,32.3473546 -0.26458,1.5875 c -1.05992,-0.218545 -3.379,-1.0668 -3.80656,0.553773 -0.31301,1.18586299 1.44118,1.69703799 2.21906,2.05634199 1.64385,0.75935401 2.80405,2.07618501 2.26642,4.00050001 -0.74666,2.674408 -7.20604,3.142985 -6.49976,-0.260615 0.84691,0.270934 5.94519,1.22899 4.32277,-1.26656 -0.98161,-1.509977 -3.37088,-1.26709 -4.27541,-2.97815001 -2.12799,-4.02537099 3.70364,-4.43282899 6.03806,-3.69278999 m 7.67292,2.38125 -0.26459,1.32291699 c -0.93133,5.29e-4 -2.05898,-0.135467 -2.85009,0.460904 -1.41076,1.06389001 -1.04457,3.46233801 0.48049,4.21349001 0.81782,0.40296 1.76926,0.153987 2.63419,0.08811 -0.18839,2.419615 -3.48377,2.107935 -4.8395,0.689504 -3.5306,-3.694377 0.84535,-7.725833 4.8395,-6.774921 m 6.35,0 -0.26459,1.32291699 c -0.68077,-0.02725 -2.55376,-0.457729 -2.74346,0.562769 -0.27993,1.50574401 3.79201,1.64279801 3.15383,4.19576201 -0.58155,2.325952 -5.23504,2.602707 -5.43745,0.004 0.45059,0.01931 0.88186,0.05715 1.32953,0.11139 4.5384,0.549275 -0.49107,-2.279121 -1.01653,-3.297767 -1.62824,-3.156744 3.2004,-3.322373 4.97867,-2.89904 m 3.43958,1.32291699 c 0.52599,1.81874601 2.53286,1.66237701 3.35518,3.20278101 1.87034,3.503084 -3.62558,3.3274 -5.47185,2.882636 l 0.26459,-1.322917 c 0.44873,0.03545 0.88318,0.0971 1.32953,0.151342 0.5834,0.07064 2.69319,0.02963 1.91108,-1.110721 -0.93398,-1.361811 -4.97231,-1.975908 -2.62731,-4.53654601 1.99813,-2.18175399 5.86502,0.598488 2.82628,0.620977 -0.53525,0.004 -1.05542,0.05609 -1.5875,0.112448 z"
       id="path5222" />
  </g>
</svg>
