<?xml version="1.0" encoding="UTF-8" standalone="no"?>
<svg
   xmlns:dc="http://purl.org/dc/elements/1.1/"
   xmlns:cc="http://creativecommons.org/ns#"
   xmlns:rdf="http://www.w3.org/1999/02/22-rdf-syntax-ns#"
   xmlns:svg="http://www.w3.org/2000/svg"
   xmlns="http://www.w3.org/2000/svg"
   xmlns:sodipodi="http://sodipodi.sourceforge.net/DTD/sodipodi-0.dtd"
   xmlns:inkscape="http://www.inkscape.org/namespaces/inkscape"
   width="249.86632mm"
   height="249.76859mm"
   viewBox="0 0 249.86631 249.76861"
   version="1.1"
   id="svg8"
   sodipodi:docname="stockfish.svg"
   inkscape:version="1.0.1 (3bc2e81, 2020-09-07)">
  <defs
     id="defs2" />
  <sodipodi:namedview
     id="base"
     pagecolor="#ffffff"
     bordercolor="#666666"
     borderopacity="1.0"
     inkscape:pageopacity="0.0"
     inkscape:pageshadow="2"
     inkscape:zoom="0.21012116"
     inkscape:cx="1159.4183"
     inkscape:cy="218.20398"
     inkscape:document-units="mm"
     inkscape:current-layer="layer1"
     inkscape:document-rotation="0"
     showgrid="false"
     inkscape:window-width="1338"
     inkscape:window-height="696"
     inkscape:window-x="14"
     inkscape:window-y="58"
     inkscape:window-maximized="0"
     inkscape:pagecheckerboard="true" />
  <metadata
     id="metadata5">
    <rdf:RDF>
      <cc:Work
         rdf:about="">
        <dc:format>image/svg+xml</dc:format>
        <dc:type
           rdf:resource="http://purl.org/dc/dcmitype/StillImage" />
        <dc:title></dc:title>
      </cc:Work>
    </rdf:RDF>
  </metadata>
  <g
     inkscape:label="Layer 1"
     inkscape:groupmode="layer"
     id="layer1"
     transform="translate(-2085.8719,61.86269)">
    <g
       id="g6782" />
    <path
       style="fill:#9af488;stroke:none;stroke-width:0.264583;fill-opacity:1"
       d="m 2208.5275,-61.695577 c -3.5711,0.4689 -7.2535,0.11973 -10.8479,0.46178 -6.5781,0.62603 -13.1678,1.76408 -19.5792,3.36693 -26.9234,6.73084 -50.796,24.1641 -67.4994,46.06525 -27.1554,35.606036 -32.316,86.333802 -13.646,126.999997 11.2348,24.47104 31.2818,45.58823 54.9517,58.39116 24.1572,13.06671 51.8707,16.60551 78.8458,12.97172 43.2213,-5.82242 81.9528,-38.19789 97.2542,-78.77122 7.2239,-19.155299 8.9712,-39.830104 6.9469,-60.06041 -4.9112,-49.0839098 -43.1681,-92.789367 -90.7073,-105.273547 -8.7847,-2.30696 -17.6644,-3.61313 -26.723,-4.00979 -2.9786,-0.13041 -6.0094,-0.53398 -8.9958,-0.14187 m 31.4854,87.464792 c 1.37,0.316971 2.8165,1.132681 4.2334,1.113896 4.341,-0.05794 9.8996,-3.004079 14.0229,-4.377002 2.9011,-0.966259 7.4737,-2.427288 10.2698,-0.405871 1.2578,0.909637 2.0029,2.642658 2.8069,3.93356 1.8143,2.913327 3.6338,5.823744 5.4573,8.73125 0.9012,1.436952 2.3088,3.050381 2.576,4.762499 0.4178,2.675732 -1.9169,5.587471 -1.3634,7.9375 0.2548,1.08241 1.4748,2.096294 2.1794,2.910152 0.6522,0.753533 1.3562,1.79414 2.4148,1.973527 2.0069,0.340254 4.5855,-3.382962 5.8217,-4.619096 4.4519,-4.451879 8.8238,-8.998743 13.3048,-13.417284 1.6066,-1.584061 4.2114,-3.449638 6.5379,-2.275681 4.1238,2.080947 4.5905,9.576593 5.0691,13.576299 1.4203,11.869208 1.3055,23.85007 -0.028,35.718748 -0.4167,3.708929 -1.1099,10.799498 -4.786,12.812977 -2.4897,1.363662 -5.1311,-0.58129 -6.8689,-2.239963 -4.5955,-4.386791 -9.0014,-8.99107 -13.4937,-13.48343 -1.2994,-1.299369 -3.6973,-4.821767 -5.8206,-4.371446 -0.9602,0.203465 -1.5777,1.035579 -2.1923,1.726671 -0.634,0.712787 -1.732,1.546489 -1.9206,2.532592 -0.4181,2.186781 1.3798,4.557976 0.8334,6.991349 -0.4196,1.869017 -1.9785,3.692525 -2.9863,5.291667 -2.2384,3.551237 -4.4585,9.182099 -7.7679,11.795391 -1.6852,1.33059 -4.6149,1.08558 -6.604,0.69082 -5.0568,-1.0033 -9.7468,-3.722683 -14.8167,-4.587606 -1.9685,-0.335756 -4.1521,1.293813 -6.0854,1.626396 1.497,3.35862 4.7921,6.34127 7.0305,9.26041 0.8845,1.15359 2.1712,2.99059 1.2052,4.46273 -0.6419,0.97817 -1.9016,1.08665 -2.9441,1.32662 -2.7178,0.62601 -5.4509,1.143 -8.202,1.59782 -7.2417,1.19671 -16.138,2.41088 -23.0188,-0.85725 -4.8331,-2.29579 -8.455,-6.76936 -13.2292,-9.09558 -1.9621,-0.95594 -5.0051,-0.26141 -7.1437,-0.35507 -4.6739,-0.20479 -9.3718,-0.55033 -14.0229,-1.12342 -19.2593,-2.37252 -39.1427,-9.070183 -54.2396,-21.599526 -5.3004,-4.398697 -12.4722,-10.125074 -13.1842,-17.483401 -0.3114,-3.21601 -0.3585,-7.012516 0.8104,-10.054166 2.1432,-5.576358 8.3468,-10.646039 12.903,-14.231673 14.7748,-11.628436 33.0763,-18.343297 51.5937,-20.923513 5.3803,-0.749565 10.7551,-0.799835 16.1396,-1.312333 1.8084,-0.172244 4.1251,0.430477 5.8208,-0.293159 5.1652,-2.20345 8.9988,-7.336366 14.0229,-9.8562578 6.9157,-3.468422 16.2177,-2.243402 23.548,-1.029229 2.6527,0.439209 9.1556,0.557477 10.9161,2.7712458 1.1814,1.485635 -0.2667,3.481123 -1.1824,4.658254 -2.5101,3.227652 -5.4512,6.323541 -7.6171,9.789583 m -97.6312,28.169657 c -12.7259,2.385218 -8.4791,22.153561 4.2333,19.86174 13.1374,-2.368814 8.7543,-22.296171 -4.2333,-19.86174 m 0.5291,4.478337 c 7.378,-1.694921 10.3537,9.15035 2.9105,10.868289 -6.6413,1.532467 -9.7195,-9.303808 -2.9105,-10.868289 m 33.8667,4.658254 c -0.6853,3.532187 -2.2736,5.802841 -5.5562,7.408333 v 0.264583 c 5.3043,0.418571 10.0549,-1.620837 10.3187,-7.672916 h -4.7625 m 33.3375,0 c -0.2931,3.588544 -2.3185,5.646737 -5.2917,7.408333 v 0.264583 c 5.1933,0.656432 10.0383,-1.91426 10.0542,-7.672916 h -4.7625 m 33.3375,0 c -0.073,3.545416 -2.209,5.900737 -5.2917,7.408333 v 0.264583 c 5.2631,0.415396 10.0569,-1.662377 10.3188,-7.672916 h -5.0271 m -55.5625,1.852083 v 0.264584 c 7.0387,2.611966 7.0496,11.623674 0.2646,14.552082 2.7204,1.858434 6.9956,-0.322791 8.6728,-2.656152 2.9937,-4.164806 1.0438,-10.551847 -3.9103,-12.102041 -1.6264,-0.509058 -3.3787,-0.364596 -5.0271,-0.05847 m 33.6021,0 v 0.264584 c 6.8392,2.867024 6.8392,11.685057 0,14.552082 3.1885,1.910027 7.6864,-0.538691 9.2855,-3.439583 2.29,-4.154223 0.2929,-9.72132 -4.2584,-11.238706 -1.6513,-0.550333 -3.3422,-0.451114 -5.0271,-0.138377 m 33.3375,0 v 0.264584 c 6.4574,2.702718 7.6168,12.310797 0,14.552082 3.2512,1.947598 7.7163,-0.50456 9.384,-3.439583 2.3225,-4.087283 0.173,-9.870545 -4.3569,-11.259872 -1.664,-0.510382 -3.3377,-0.430742 -5.0271,-0.117211 m -83.6083,9.260416 c 1.0305,1.37848 2.9691,1.905 4.0645,3.439584 3.4798,4.875477 -0.084,8.963554 -4.0645,11.641666 7.8033,2.922323 13.6313,-7.544858 7.8914,-13.180218 -2.2272,-2.186782 -5.0207,-1.901032 -7.8914,-1.901032 m 33.602,0 c 1.051,1.447271 2.9705,2.142332 4.0617,3.704167 3.2281,4.620154 -0.3408,8.793691 -4.0617,11.377083 7.819,2.928144 13.4292,-7.733241 7.6624,-13.201385 -2.2035,-2.08915 -4.849,-1.879865 -7.6624,-1.879865 m 33.3375,0 c 1.0203,1.391444 2.9345,1.909763 4.0246,3.439584 3.4301,4.813829 -0.1016,8.990277 -4.0246,11.641666 8.1508,3.052498 13.7163,-8.169804 7.3634,-13.578152 -2.1132,-1.799166 -4.7741,-1.503098 -7.3634,-1.503098 z"
       id="path6814" />
  </g>
</svg>
