<?xml version="1.0" encoding="UTF-8" standalone="no"?>
<svg
   xmlns:dc="http://purl.org/dc/elements/1.1/"
   xmlns:cc="http://creativecommons.org/ns#"
   xmlns:rdf="http://www.w3.org/1999/02/22-rdf-syntax-ns#"
   xmlns:svg="http://www.w3.org/2000/svg"
   xmlns="http://www.w3.org/2000/svg"
   xmlns:sodipodi="http://sodipodi.sourceforge.net/DTD/sodipodi-0.dtd"
   xmlns:inkscape="http://www.inkscape.org/namespaces/inkscape"
   width="58.472916mm"
   height="59.53125mm"
   viewBox="0 0 58.472914 59.531256"
   version="1.1"
   id="svg8"
   sodipodi:docname="xournalpp.svg"
   inkscape:version="1.0.1 (3bc2e81, 2020-09-07)">
  <defs
     id="defs2" />
  <sodipodi:namedview
     id="base"
     pagecolor="#ffffff"
     bordercolor="#666666"
     borderopacity="1.0"
     inkscape:pageopacity="0.0"
     inkscape:pageshadow="2"
     inkscape:zoom="1.0790594"
     inkscape:cx="45.640582"
     inkscape:cy="137.4593"
     inkscape:document-units="mm"
     inkscape:current-layer="layer1"
     inkscape:document-rotation="0"
     showgrid="false"
     inkscape:window-width="1338"
     inkscape:window-height="696"
     inkscape:window-x="14"
     inkscape:window-y="58"
     inkscape:window-maximized="0"
     inkscape:pagecheckerboard="true" />
  <metadata
     id="metadata5">
    <rdf:RDF>
      <cc:Work
         rdf:about="">
        <dc:format>image/svg+xml</dc:format>
        <dc:type
           rdf:resource="http://purl.org/dc/dcmitype/StillImage" />
        <dc:title />
      </cc:Work>
    </rdf:RDF>
  </metadata>
  <g
     inkscape:groupmode="layer"
     id="layer4"
     inkscape:label="shadow"
     style="mix-blend-mode:multiply">
    <path
       style="fill:#4d4d4d;fill-opacity:1;stroke-width:0.264583"
       d="M 3.8210079,56.504758 C 1.815708,55.57103 0.61190803,53.662786 1.277608,52.473241 c 0.2246,-0.401328 0.2865,-0.381225 0.5803,0.188333 0.1808,0.350689 0.6342,0.965041 1.0075,1.365224 l 0.6786,0.727604 h 24.901697 24.901702 l 0.829498,-0.859896 c 0.456102,-0.472943 0.9555,-1.194483 1.109702,-1.60342 0.402299,-1.067178 0.810498,-0.628494 0.810498,0.87113 0,1.673188 -0.791398,2.638245 -2.790798,3.403386 -1.484802,0.568176 -1.566302,0.570042 -24.815602,0.567465 L 5.1648081,57.130467 Z M 8.2736072,50.312701 C 6.044108,50.243401 5.826208,50.190413 5.826208,49.717389 c 0,-0.454295 0.1859,-0.519237 1.4860998,-0.519237 h 1.4859991 l -0.1941,-0.727604 c -0.2288997,-0.857584 -0.2919997,-2.41427 -0.1207,-2.976563 0.095,-0.311396 -0.1782997,-0.414099 -1.2681991,-0.476848 C 6.042408,44.949607 5.826208,44.856961 5.826208,44.421825 c 0,-0.4932 0.2245,-0.515515 5.225598,-0.519391 2.874,-0.0021 5.3535,-0.09153 5.5099,-0.198437 0.4064,-0.277733 2.4937,-3.418049 2.4937,-3.751744 0,-0.188304 -2.1519,-0.279101 -6.6146,-0.279101 -6.4381979,0 -6.614598,-0.0141 -6.614598,-0.529167 0,-0.515879 0.1764001,-0.529167 7.024098,-0.529167 h 7.0241 l 0.6552,-0.706982 c 0.8704,-0.939178 1.0792,-1.87271 0.607,-2.714268 l -0.3814,-0.679791 -7.4645,-0.07026 c -7.2448981,-0.0682 -7.464498,-0.08571 -7.464498,-0.595313 0,-0.510725 0.1951001,-0.525047 7.152098,-0.525047 6.2015,0 7.1729,-0.05425 7.3087,-0.408204 0.187,-0.487355 -0.6602,-3.345347 -1.0739,-3.622642 -0.1595,-0.106913 -3.2368,-0.196209 -6.8384,-0.198437 -6.3273979,-0.0039 -6.548498,-0.02157 -6.548498,-0.522917 0,-0.470075 0.2177,-0.526053 2.3150992,-0.595313 l 2.3150988,-0.07645 -0.075,-0.799436 c -0.058,-0.622207 0.1322,-1.000315 0.8599,-1.705549 1.5228,-1.475962 1.3542,-1.596057 -2.2401994,-1.596057 -2.9985984,0 -3.1749985,-0.0294 -3.1749985,-0.529166 0,-0.504984 0.1764001,-0.529167 3.8595982,-0.529167 h 3.8596997 l 1.6559,-0.926042 c 1.4564,-0.814497 1.8809,-0.926041 3.5237,-0.926041 1.747,0 1.9394,0.05984 2.9761,0.926041 l 1.1084,0.926042 h 3.7742 3.774201 l 1.161698,-0.923474 c 1.0951,-0.870465 1.276702,-0.923621 3.164602,-0.926041 1.908199,-0.0024 2.054098,0.04122 3.084798,0.923473 0.8865,0.758774 1.2954,0.926042 2.264201,0.926042 1.362901,0 1.541701,-0.163402 2.5801,-2.359117 0.622499,-1.316411 0.678,-1.59358 0.3443,-1.721614 -0.218699,-0.08393 -8.6628,-0.152602 -18.7646,-0.152602 -18.1904978,0 -18.3668979,-0.0051 -18.3668979,-0.529167 0,-0.524192 0.1764001,-0.529167 18.7637979,-0.529167 10.320099,0 18.964999,-0.07723 19.211001,-0.171616 0.501298,-0.192349 2.060199,-3.449045 1.829599,-3.822146 -0.086,-0.139591 -8.423,-0.239571 -19.9762,-0.239571 -19.6517978,0 -19.8281979,-0.0047 -19.8281979,-0.529167 0,-0.524489 0.1764001,-0.529166 19.9543979,-0.529166 10.974999,0 20.148601,-0.07451 20.3859,-0.165588 0.462299,-0.177364 1.993099,-2.9911196 1.993099,-3.6633266 0,-0.3594669 -2.3528,-0.4044199 -21.166699,-0.4044199 -20.9902978,0 -21.1666979,-0.0044 -21.1666979,-0.5291661 0,-0.5248101 0.1764001,-0.529167 21.4208979,-0.529167 16.8008,0 21.4852,-0.07133 21.7196,-0.3307289 0.164401,-0.181901 0.6751,-1.0451041 1.134901,-1.9182291 0.725098,-1.376757 0.9477,-1.598314 1.6765,-1.668958 0.848199,-0.08221 2.149798,0.464707 4.180798,1.756751 2.488401,1.5830761 2.691302,2.1074012 1.5827,4.0908782 -0.369699,0.6614379 -1.032298,2.1894794 -1.472498,3.3956484 -0.440201,1.206169 -1.6119,3.87338 -2.603802,5.927136 -0.991799,2.053756 -1.890199,4.142352 -1.996498,4.641323 -0.106201,0.498972 -0.349502,1.085815 -0.5406,1.304097 -0.617902,0.705584 -1.978501,3.484308 -1.8265,3.73017 0.081,0.131217 0.616698,0.23858 1.190098,0.23858 0.866402,0 1.042802,0.08952 1.042802,0.529166 0,0.449321 -0.1764,0.529167 -1.169,0.529167 -0.643001,0 -1.370301,0.07723 -1.616202,0.171617 -0.501298,0.192349 -2.060199,3.449044 -1.829599,3.822143 0.082,0.131766 1.153099,0.239573 2.381401,0.239573 2.057,0 2.2334,0.04179 2.2334,0.529166 0,0.493335 -0.1764,0.529167 -2.604902,0.529167 -2.941198,0 -2.979798,0.02148 -3.982299,2.21438 -0.9026,1.974326 -0.8332,2.018953 3.1393,2.018953 3.271501,0 3.447901,0.02707 3.447901,0.529167 0,0.504643 -0.1764,0.529167 -3.8061,0.529167 h -3.8061 l -1.4196,1.16876 c -1.5298,1.259363 -2.6811,2.640592 -2.4193,2.902376 0.089,0.08921 2.7022,0.162197 5.806599,0.162197 5.468101,0 5.644501,0.01654 5.644501,0.529167 0,0.514583 -0.1764,0.529166 -6.398802,0.529166 -5.8601,0 -6.490898,0.04459 -7.492899,0.52968 -1.256599,0.60832 -4.202801,3.248092 -3.929801,3.521097 0.100401,0.100406 3.2513,0.182557 7.002002,0.182557 6.610199,0 7.631599,0.118671 6.943598,0.806669 -0.214699,0.214776 -33.712999,0.477975 -39.1850978,0.307883 z M 25.476906,49.038497 c 0.1414,-0.14147 -0.2594,-1.206699 -1.2343,-3.279929 -0.2922,-0.621424 -0.4509,-0.666088 -2.6218,-0.737978 -1.2709,-0.04209 -2.4827,0.01971 -2.6928,0.137321 -0.5405,0.302446 -2.7767,3.571785 -2.6184,3.827971 0.1508,0.243919 8.9256,0.294283 9.1673,0.05261 z m 7.358599,-3.158906 c 1.120902,-0.579649 0.725202,-0.914773 -1.080098,-0.914773 -1.742601,0 -2.1492,0.291034 -1.2685,0.907939 0.745998,0.522478 1.3481,0.524232 2.348598,0.0068 z M 14.557506,45.377309 c 0,-0.279262 -0.5078,-0.396586 -0.6588,-0.152223 -0.091,0.147895 0.019,0.268899 0.2463,0.268899 0.2269,0 0.4125,-0.0525 0.4125,-0.116676 z m 8.9103,-1.894184 c 0.2365,-0.616423 -0.7691,-3.413098 -1.2273,-3.413098 -0.4729,0 -2.4985,3.184382 -2.2655,3.561429 0.093,0.151265 0.881,0.275029 1.7502,0.275029 1.2044,0 1.6188,-0.100661 1.7426,-0.42336 z m 11.544799,-1.472903 c 0.087,-1.042946 0.098,-1.995446 0.02299,-2.116667 -0.075,-0.121222 -1.677,-0.220403 -3.560199,-0.220403 -2.741001,0 -3.423999,0.07311 -3.423999,0.366493 0,0.753713 0.8949,3.217574 1.284298,3.536111 0.261501,0.213873 1.307801,0.330729 2.961301,0.330729 h 2.556899 z m 0.235,-4.850612 c 0.1016,-0.727604 0.2207,-1.620573 0.264502,-1.984375 l 0.08,-0.661458 -4.5641,-0.07239 c -3.7835,-0.06001 -4.5641,-0.0087 -4.5641,0.300344 0,0.540316 0.8411,3.152484 1.1429,3.549579 0.191299,0.251732 1.1751,0.31923 3.856501,0.264583 l 3.599598,-0.07336 z m 1.195002,-4.048874 c 0.405,-0.257381 1.917599,-3.554947 1.753399,-3.822481 -0.186399,-0.303551 -8.254799,-0.237349 -8.8337,0.07248 -0.671499,0.359376 -2.704,3.370546 -2.4989,3.70227 0.1907,0.308629 9.098699,0.353013 9.579201,0.04773 z M 25.879906,30.137388 c 0.4026,-0.644667 0.2141,-1.04757 -0.4901,-1.04757 -0.5562,0 -0.5882,0.09143 -0.3468,0.992188 0.1975,0.737055 0.4027,0.750633 0.8369,0.05538 z m -7.1994,-2.464543 c 0.2091,-0.544979 -0.9141,-2.256054 -1.7722,-2.699821 -0.6959,-0.359862 -0.8516,-0.346823 -1.8322,0.153422 -1.3196,0.673218 -3.2122,2.349139 -3.0144,2.669263 0.08,0.129678 1.5712,0.235776 3.3135,0.235776 2.4215,0 3.2001,-0.08448 3.3053,-0.35864 z m 8.5825,0.02791 c 0.7428,-0.844449 2.3333,-3.492666 2.213701,-3.686063 -0.074,-0.119098 -1.5054,-0.216541 -3.181901,-0.216541 h -3.0481 l 0.175,0.859896 c 0.3118,1.531885 0.7597,2.704476 1.1621,3.042708 0.2165,0.181902 0.8424,0.33073 1.3909,0.33073 0.5485,0 1.1283,-0.148828 1.2883,-0.33073 z m 11.495199,0.165143 c 0.462201,-0.177366 1.993001,-2.99112 1.993001,-3.663327 0,-0.269937 -0.255299,-0.40442 -0.7678,-0.40442 -0.626401,0 -0.822399,0.156413 -1.063699,0.848514 -0.509902,1.462727 -1.279901,2.062128 -2.646402,2.060159 -0.762799,-0.0011 -1.504199,-0.196201 -2.004399,-0.527423 -0.436499,-0.289124 -1.063299,-0.526464 -1.392901,-0.527423 -0.743199,-0.0022 -2.6015,1.645317 -2.337499,2.072381 0.203301,0.329041 7.407799,0.453099 8.219699,0.141539 z"
       id="path6696-3" />
  </g>
  <g
     inkscape:label="Layer 1"
     inkscape:groupmode="layer"
     id="layer1"
     transform="translate(-2550.7024,73.094238)"
     style="display:inline">
    <path
       style="fill:#9af488;fill-opacity:1;stroke-width:0.264583"
       d="m 2553.955,-18.006605 c -2.0053,-0.933728 -3.2091,-2.841972 -2.5434,-4.031517 0.2246,-0.401328 0.2865,-0.381225 0.5803,0.188333 0.1808,0.350689 0.6342,0.965041 1.0075,1.365223 l 0.6786,0.727604 h 24.9017 24.9017 l 0.8295,-0.859896 c 0.4561,-0.472942 0.9555,-1.194482 1.1097,-1.603419 0.4023,-1.067179 0.8105,-0.628494 0.8105,0.87113 0,1.673188 -0.7914,2.638245 -2.7908,3.403385 -1.4848,0.568177 -1.5663,0.570042 -24.8156,0.567465 l -23.3259,-0.0026 z m 4.4526,-6.192057 c -2.2295,-0.0693 -2.4474,-0.122288 -2.4474,-0.595313 0,-0.454295 0.1859,-0.519237 1.4861,-0.519237 h 1.486 l -0.1941,-0.727604 c -0.2289,-0.857583 -0.292,-2.41427 -0.1207,-2.976562 0.095,-0.311396 -0.1783,-0.4141 -1.2682,-0.476848 -1.1729,-0.06753 -1.3891,-0.160176 -1.3891,-0.595313 0,-0.493199 0.2245,-0.515514 5.2256,-0.51939 2.874,-0.0021 5.3535,-0.09153 5.5099,-0.198438 0.4064,-0.277733 2.4937,-3.418048 2.4937,-3.751744 0,-0.188304 -2.1519,-0.279101 -6.6146,-0.279101 -6.4382,0 -6.6146,-0.0141 -6.6146,-0.529166 0,-0.51588 0.1764,-0.529167 7.0241,-0.529167 h 7.0241 l 0.6552,-0.706983 c 0.8704,-0.939178 1.0792,-1.87271 0.607,-2.714267 l -0.3814,-0.679792 -7.4645,-0.07026 c -7.2449,-0.0682 -7.4645,-0.08571 -7.4645,-0.595313 0,-0.510725 0.1951,-0.525047 7.1521,-0.525047 6.2015,0 7.1729,-0.05425 7.3087,-0.408204 0.187,-0.487355 -0.6602,-3.345347 -1.0739,-3.622641 -0.1595,-0.106913 -3.2368,-0.196209 -6.8384,-0.198437 -6.3274,-0.0039 -6.5485,-0.02157 -6.5485,-0.522917 0,-0.470075 0.2177,-0.526053 2.3151,-0.595313 l 2.3151,-0.07645 -0.075,-0.799436 c -0.058,-0.622207 0.1322,-1.000315 0.8599,-1.705549 1.5228,-1.475962 1.3542,-1.596057 -2.2402,-1.596057 -2.9986,0 -3.175,-0.0294 -3.175,-0.529166 0,-0.504984 0.1764,-0.529167 3.8596,-0.529167 h 3.8597 l 1.6559,-0.926042 c 1.4564,-0.814497 1.8809,-0.926041 3.5237,-0.926041 1.747,0 1.9394,0.05984 2.9761,0.926041 l 1.1084,0.926042 h 3.7742 3.7742 l 1.1617,-0.923474 c 1.0951,-0.870465 1.2767,-0.923621 3.1646,-0.926041 1.9082,-0.0024 2.0541,0.04122 3.0848,0.923473 0.8865,0.758774 1.2954,0.926042 2.2642,0.926042 1.3629,0 1.5417,-0.163402 2.5801,-2.359117 0.6225,-1.316411 0.678,-1.59358 0.3443,-1.721614 -0.2187,-0.08393 -8.6628,-0.152602 -18.7646,-0.152602 -18.1905,0 -18.3669,-0.0051 -18.3669,-0.529167 0,-0.524192 0.1764,-0.529167 18.7638,-0.529167 10.3201,0 18.965,-0.07723 19.211,-0.171616 0.5013,-0.192349 2.0602,-3.449045 1.8296,-3.822146 -0.086,-0.139591 -8.423,-0.239571 -19.9762,-0.239571 -19.6518,0 -19.8282,-0.0047 -19.8282,-0.529167 0,-0.524489 0.1764,-0.529166 19.9544,-0.529166 10.975,0 20.1486,-0.07451 20.3859,-0.165588 0.4623,-0.177364 1.9931,-2.991119 1.9931,-3.663326 0,-0.359467 -2.3528,-0.40442 -21.1667,-0.40442 -20.9903,0 -21.1667,-0.0044 -21.1667,-0.529166 0,-0.52481 0.1764,-0.529167 21.4209,-0.529167 16.8008,0 21.4852,-0.07133 21.7196,-0.330729 0.1644,-0.181901 0.6751,-1.045104 1.1349,-1.918229 0.7251,-1.376757 0.9477,-1.598314 1.6765,-1.668958 0.8482,-0.08221 2.1498,0.464707 4.1808,1.756751 2.4884,1.583076 2.6913,2.107401 1.5827,4.090878 -0.3697,0.661438 -1.0323,2.189479 -1.4725,3.395648 -0.4402,1.206169 -1.6119,3.87338 -2.6038,5.927136 -0.9918,2.053756 -1.8902,4.142352 -1.9965,4.641323 -0.1062,0.498972 -0.3495,1.085815 -0.5406,1.304097 -0.6179,0.705584 -1.9785,3.484308 -1.8265,3.73017 0.081,0.131217 0.6167,0.23858 1.1901,0.23858 0.8664,0 1.0428,0.08952 1.0428,0.529166 0,0.449321 -0.1764,0.529167 -1.169,0.529167 -0.643,0 -1.3703,0.07723 -1.6162,0.171617 -0.5013,0.192349 -2.0602,3.449045 -1.8296,3.822144 0.082,0.131765 1.1531,0.239572 2.3814,0.239572 2.057,0 2.2334,0.04179 2.2334,0.529167 0,0.493334 -0.1764,0.529167 -2.6049,0.529167 -2.9412,0 -2.9798,0.02148 -3.9823,2.21438 -0.9026,1.974326 -0.8332,2.018953 3.1393,2.018953 3.2715,0 3.4479,0.02707 3.4479,0.529167 0,0.504642 -0.1764,0.529166 -3.8061,0.529166 h -3.8061 l -1.4196,1.16876 c -1.5298,1.259364 -2.6811,2.640592 -2.4193,2.902376 0.089,0.08921 2.7022,0.162198 5.8066,0.162198 5.4681,0 5.6445,0.01654 5.6445,0.529166 0,0.514581 -0.1764,0.529167 -6.3988,0.529167 -5.8601,0 -6.4909,0.04459 -7.4929,0.52968 -1.2566,0.608319 -4.2028,3.248091 -3.9298,3.521096 0.1004,0.100407 3.2513,0.182557 7.002,0.182557 6.6102,0 7.6316,0.118669 6.9436,0.80667 -0.2147,0.214775 -33.713,0.477975 -39.1851,0.30788 z m 17.2033,-1.274205 c 0.1414,-0.14147 -0.2594,-1.206698 -1.2343,-3.279928 -0.2922,-0.621424 -0.4509,-0.666089 -2.6218,-0.737978 -1.2709,-0.04209 -2.4827,0.01971 -2.6928,0.137321 -0.5405,0.302445 -2.7767,3.571785 -2.6184,3.82797 0.1508,0.24392 8.9256,0.294283 9.1673,0.05261 z m 7.3586,-3.158905 c 1.1209,-0.579649 0.7252,-0.914773 -1.0801,-0.914773 -1.7426,0 -2.1492,0.291034 -1.2685,0.907939 0.746,0.522478 1.3481,0.524232 2.3486,0.0068 z m -18.278,-0.502282 c 0,-0.279263 -0.5078,-0.396587 -0.6588,-0.152223 -0.091,0.147894 0.019,0.268899 0.2463,0.268899 0.2269,0 0.4125,-0.0525 0.4125,-0.116676 z m 8.9103,-1.894184 c 0.2365,-0.616424 -0.7691,-3.413099 -1.2273,-3.413099 -0.4729,0 -2.4985,3.184382 -2.2655,3.56143 0.093,0.151265 0.881,0.275029 1.7502,0.275029 1.2044,0 1.6188,-0.100661 1.7426,-0.42336 z m 11.5448,-1.472904 c 0.087,-1.042945 0.098,-1.995445 0.023,-2.116666 -0.075,-0.121222 -1.677,-0.220404 -3.5602,-0.220404 -2.741,0 -3.424,0.07311 -3.424,0.366493 0,0.753713 0.8949,3.217574 1.2843,3.536111 0.2615,0.213874 1.3078,0.33073 2.9613,0.33073 h 2.5569 z m 0.235,-4.850611 c 0.1016,-0.727605 0.2207,-1.620573 0.2645,-1.984375 l 0.08,-0.661459 -4.5641,-0.07239 c -3.7835,-0.06001 -4.5641,-0.0087 -4.5641,0.300344 0,0.540316 0.8411,3.152484 1.1429,3.549579 0.1913,0.251732 1.1751,0.31923 3.8565,0.264583 l 3.5996,-0.07336 z m 1.195,-4.048874 c 0.405,-0.257381 1.9176,-3.554947 1.7534,-3.822481 -0.1864,-0.303551 -8.2548,-0.237349 -8.8337,0.07248 -0.6715,0.359376 -2.704,3.370546 -2.4989,3.70227 0.1907,0.308629 9.0987,0.353012 9.5792,0.04773 z m -10.5627,-2.973348 c 0.4026,-0.644668 0.2141,-1.04757 -0.4901,-1.04757 -0.5562,0 -0.5882,0.09143 -0.3468,0.992188 0.1975,0.737055 0.4027,0.750633 0.8369,0.05538 z m -7.1994,-2.464543 c 0.2091,-0.544979 -0.9141,-2.256054 -1.7722,-2.699821 -0.6959,-0.359862 -0.8516,-0.346823 -1.8322,0.153422 -1.3196,0.673218 -3.2122,2.349139 -3.0144,2.669263 0.08,0.129678 1.5712,0.235776 3.3135,0.235776 2.4215,0 3.2001,-0.08448 3.3053,-0.35864 z m 8.5825,0.02791 c 0.7428,-0.844449 2.3333,-3.492666 2.2137,-3.686063 -0.074,-0.119098 -1.5054,-0.216541 -3.1819,-0.216541 h -3.0481 l 0.175,0.859896 c 0.3118,1.531885 0.7597,2.704476 1.1621,3.042708 0.2165,0.181902 0.8424,0.33073 1.3909,0.33073 0.5485,0 1.1283,-0.148828 1.2883,-0.33073 z m 11.4952,0.165143 c 0.4622,-0.177366 1.993,-2.99112 1.993,-3.663327 0,-0.269937 -0.2553,-0.40442 -0.7678,-0.40442 -0.6264,0 -0.8224,0.156413 -1.0637,0.848514 -0.5099,1.462727 -1.2799,2.062128 -2.6464,2.060159 -0.7628,-0.0011 -1.5042,-0.196201 -2.0044,-0.527423 -0.4365,-0.289124 -1.0633,-0.526464 -1.3929,-0.527423 -0.7432,-0.0022 -2.6015,1.645317 -2.3375,2.072381 0.2033,0.329041 7.4078,0.453099 8.2197,0.141539 z"
       id="path6696" />
  </g>
</svg>
