<?xml version="1.0" encoding="UTF-8" standalone="no"?>
<svg
   xmlns:dc="http://purl.org/dc/elements/1.1/"
   xmlns:cc="http://creativecommons.org/ns#"
   xmlns:rdf="http://www.w3.org/1999/02/22-rdf-syntax-ns#"
   xmlns:svg="http://www.w3.org/2000/svg"
   xmlns="http://www.w3.org/2000/svg"
   xmlns:sodipodi="http://sodipodi.sourceforge.net/DTD/sodipodi-0.dtd"
   xmlns:inkscape="http://www.inkscape.org/namespaces/inkscape"
   width="56.283039mm"
   height="53.643772mm"
   viewBox="0 0 56.283038 53.643778"
   version="1.1"
   id="svg8"
   sodipodi:docname="zim.svg"
   inkscape:version="1.0.1 (3bc2e81, 2020-09-07)">
  <defs
     id="defs2" />
  <sodipodi:namedview
     id="base"
     pagecolor="#ffffff"
     bordercolor="#666666"
     borderopacity="1.0"
     inkscape:pageopacity="0.0"
     inkscape:pageshadow="2"
     inkscape:zoom="1.0271077"
     inkscape:cx="167.86911"
     inkscape:cy="57.253176"
     inkscape:document-units="mm"
     inkscape:current-layer="layer1"
     inkscape:document-rotation="0"
     showgrid="false"
     inkscape:window-width="1338"
     inkscape:window-height="696"
     inkscape:window-x="14"
     inkscape:window-y="58"
     inkscape:window-maximized="0"
     inkscape:pagecheckerboard="true" />
  <metadata
     id="metadata5">
    <rdf:RDF>
      <cc:Work
         rdf:about="">
        <dc:format>image/svg+xml</dc:format>
        <dc:type
           rdf:resource="http://purl.org/dc/dcmitype/StillImage" />
        <dc:title></dc:title>
      </cc:Work>
    </rdf:RDF>
  </metadata>
  <g
     inkscape:label="Layer 1"
     inkscape:groupmode="layer"
     id="layer1"
     transform="translate(-2558.487,69.355108)">
    <path
       style="fill:#9af488;stroke-width:0.264583;fill-opacity:1"
       d="m 2581.4328,-16.077786 c -3.4869,-0.717286 -6.7783,-2.09264 -9.525,-3.980249 -1.395,-0.958612 -1.5635,-1.004927 -4.0692,-1.118413 l -2.614,-0.118387 -2.9827,1.541118 c -2.5824,1.334328 -3.0406,1.493028 -3.4145,1.182722 -0.5074,-0.421119 -0.4304,-2.234557 0.1164,-2.740387 0.2693,-0.249166 0.2967,-0.237408 0.1296,0.05558 -0.1432,0.251034 -0.1115,0.309488 0.098,0.180154 0.1704,-0.105298 0.2551,-0.27995 0.1882,-0.388114 -0.1836,-0.29704 0.784,-1.653371 1.0148,-1.422554 0.1103,0.110313 0.1671,0.08151 0.1261,-0.06401 -0.12,-0.426209 0.313,-1.475293 0.5487,-1.329605 0.1186,0.07331 0.2104,-0.01426 0.2039,-0.194596 -0.031,-0.848199 0.094,-1.271037 0.3321,-1.124096 0.1628,0.100635 0.197,-0.157107 0.091,-0.686982 -0.1157,-0.578385 -0.078,-0.791605 0.1176,-0.670552 0.2002,0.123716 0.2403,-0.277072 0.1323,-1.322891 -0.1101,-1.067413 -0.07,-1.447879 0.1396,-1.318439 0.418,0.258352 0.098,-2.238619 -0.5175,-4.043739 -0.2685,-0.786765 -0.4789,-1.560671 -0.4675,-1.719791 0.011,-0.159121 0.2997,0.484597 0.6408,1.430483 0.3411,0.945885 0.6294,1.504405 0.6408,1.241155 0.011,-0.26325 0.1362,-0.407207 0.2775,-0.319908 0.1412,0.0873 0.3369,-0.173564 0.4347,-0.579697 0.7694,-3.193621 3.2419,-5.368634 6.103,-5.368634 1.0405,0 1.3632,-0.124563 1.885,-0.727604 l 0.6296,-0.727604 -0.5535,1.007311 c -0.3045,0.554022 -0.5536,1.190628 -0.5536,1.414682 0,0.506534 6.2098,8.93867 7.0965,9.63612 0.825,0.648933 1.5446,0.643273 2.6336,-0.02072 0.5637,-0.343673 0.9224,-0.807627 1.0264,-1.327433 0.088,-0.439507 0.2762,-0.871069 0.4186,-0.959025 0.3753,-0.231997 -0.014,0.965147 -0.5712,1.758432 -0.2557,0.363802 -0.7685,0.810448 -1.1394,0.992544 -0.4431,0.217498 -0.7302,0.628346 -0.837,1.197555 -0.4205,2.241579 -3.1643,4.043579 -6.663,4.375933 l -2.0968,0.199186 1.3891,0.873422 c 0.764,0.480382 1.3891,0.917826 1.3891,0.9721 0,0.05427 -0.5883,-0.196813 -1.3074,-0.557967 -0.719,-0.361156 -1.9989,-0.785534 -2.8443,-0.943062 -2.4735,-0.460973 -3.9392,-0.173805 -6.9418,1.360112 -1.4749,0.75348 -2.8626,1.300501 -3.0838,1.215604 -0.2289,-0.08783 -0.3326,-0.04162 -0.2407,0.107191 0.2942,0.475877 0.9329,0.27537 3.456,-1.084744 l 2.4973,-1.346301 2.8433,0.08953 2.8432,0.08953 2.0422,1.278943 c 2.5555,1.600467 5.0369,2.650567 8.05,3.40668 3.5169,0.882539 9.0232,0.821991 12.6281,-0.138854 8.6116,-2.295334 15.731,-8.976151 18.3051,-17.177414 0.2621,-0.83498 0.5269,-1.467771 0.5885,-1.406202 0.201,0.200988 -0.7832,2.877989 -1.8533,5.041014 -3.7456,7.571348 -10.5002,12.745825 -18.6833,14.312635 -2.4009,0.4597 -7.7904,0.442749 -10.097,-0.03176 z m 3.8364,-0.919417 c 0.2911,-0.125066 0.8864,-0.227391 1.3229,-0.227391 0.4366,0 1.0319,0.102325 1.3229,0.227391 0.362,0.155541 -0.056,0.227391 -1.3229,0.227391 -1.2668,0 -1.6849,-0.07185 -1.3229,-0.227391 z m -2.9104,-0.264583 c 0.291,-0.125066 0.8268,-0.233937 1.1906,-0.241935 0.5213,-0.01146 0.5774,0.03979 0.2646,0.241935 -0.2183,0.141065 -0.7541,0.249936 -1.1906,0.241935 -0.6815,-0.01249 -0.7189,-0.0467 -0.2646,-0.241935 z m 7.0115,0 c -0.3128,-0.202145 -0.2568,-0.2534 0.2645,-0.241935 0.3638,0.008 0.8996,0.116869 1.1907,0.241935 0.4543,0.19523 0.4169,0.229446 -0.2646,0.241935 -0.4366,0.008 -0.9724,-0.10087 -1.1906,-0.241935 z m -8.2021,-0.264584 c 0.5181,-0.334856 0.8684,-0.334856 0.6614,0 -0.09,0.145521 -0.3648,0.262761 -0.6109,0.260533 -0.3856,-0.0035 -0.3926,-0.0395 -0.05,-0.260533 z m 10.1864,0 c -0.2082,-0.336865 0.4048,-0.336865 0.9261,0 0.3226,0.208516 0.2884,0.257239 -0.1829,0.260533 -0.3188,0.0022 -0.6532,-0.115012 -0.7432,-0.260533 z m -11.5093,-0.264583 c 0.5212,-0.336865 1.1342,-0.336865 0.926,0 -0.09,0.145521 -0.4244,0.26276 -0.7432,0.260533 -0.4713,-0.0033 -0.5055,-0.05202 -0.1828,-0.260533 z m 12.7,0 c -0.3528,-0.227984 -0.3528,-0.256479 0,-0.256479 0.2182,0 0.5754,0.115414 0.7937,0.256479 0.3528,0.227984 0.3528,0.256479 0,0.256479 -0.2183,0 -0.5755,-0.115414 -0.7937,-0.256479 z m -13.5644,-0.297415 c 0.1795,-0.180822 0.393,-0.262115 0.4745,-0.180653 0.081,0.08146 -0.065,0.229407 -0.3263,0.328766 -0.3771,0.143584 -0.4075,0.113194 -0.1482,-0.148113 z m 14.8873,0.03283 c -0.2385,-0.15411 -0.2711,-0.258099 -0.082,-0.260533 0.1733,-0.0021 0.3887,0.115012 0.4786,0.260533 0.2031,0.328488 0.1115,0.328488 -0.3968,0 z m -15.681,-0.297416 c 0.1795,-0.180821 0.393,-0.262115 0.4744,-0.180652 0.082,0.08146 -0.065,0.229407 -0.3263,0.328766 -0.3771,0.143584 -0.4075,0.113194 -0.1481,-0.148114 z m 16.4747,0.03283 c -0.2384,-0.154109 -0.2711,-0.258098 -0.082,-0.260532 0.1733,-0.0021 0.3887,0.115011 0.4786,0.260532 0.203,0.328488 0.1114,0.328488 -0.3969,0 z m -17.8594,-0.264583 c -0.291,-0.125066 -0.4496,-0.23576 -0.3523,-0.245986 0.097,-0.01024 0.3846,-0.09836 0.6387,-0.195852 0.3419,-0.131199 0.405,-0.08514 0.2428,0.177255 -0.1614,0.261217 -0.1,0.308663 0.2349,0.180284 0.2697,-0.103486 0.3884,-0.06803 0.2924,0.08733 -0.1887,0.305351 -0.3398,0.304917 -1.0565,-0.003 z m 18.5227,0.003 c -0.093,-0.149981 0.014,-0.194336 0.249,-0.103984 0.2259,0.08666 0.4106,0.02951 0.4106,-0.127018 0,-0.157605 0.198,-0.208619 0.4437,-0.114332 0.397,0.152342 0.39,0.19127 -0.066,0.369975 -0.7096,0.277968 -0.8522,0.274579 -1.0372,-0.02463 z m -19.3768,-0.427723 c 0.1035,-0.103441 0.057,-0.34645 -0.104,-0.540019 -0.2202,-0.265301 -0.1874,-0.392105 0.1331,-0.515089 0.2338,-0.08973 0.3472,-0.2995 0.2519,-0.46615 -0.095,-0.166654 -0.08,-0.21938 0.033,-0.117169 0.1134,0.102212 0.3802,0.01183 0.5929,-0.200869 0.2127,-0.212687 0.5145,-0.307686 0.6708,-0.211103 0.1608,0.09939 0.2079,0.05228 0.1085,-0.108529 -0.097,-0.156274 0,-0.458153 0.2111,-0.670841 0.2127,-0.21269 0.313,-0.460414 0.223,-0.550497 -0.09,-0.09007 -0.018,-0.163777 0.1605,-0.163777 0.1783,0 0.2507,-0.119062 0.1607,-0.264583 -0.09,-0.145521 -0.03,-0.264584 0.1326,-0.264584 0.1804,0 0.2472,-0.310147 0.171,-0.79375 -0.069,-0.436562 -0.037,-0.79375 0.072,-0.79375 0.1082,0 0.3539,-0.293592 0.546,-0.652428 0.192,-0.358836 0.4205,-0.615847 0.5077,-0.571137 0.1822,0.09343 0.9275,-0.6853 1.0025,-1.047441 0.072,-0.345673 1.1172,-2.389841 1.1299,-2.208786 0.01,0.08273 -0.1702,0.759031 -0.3911,1.502899 -0.2988,1.006015 -0.6716,1.566243 -1.4552,2.186922 -0.7928,0.627845 -1.0536,1.023699 -1.0536,1.598877 0,1.016436 -1.0409,3.118651 -1.638,3.308172 -0.7586,0.240766 -1.367,0.952635 -1.0052,1.176216 0.208,0.128524 0.1531,0.248111 -0.1708,0.372412 -0.2624,0.100703 -0.3925,0.09846 -0.2891,-0.005 z m 20.8507,-0.09182 c -0.2457,-0.151797 -0.2168,-0.246843 0.1135,-0.373568 0.2436,-0.09348 0.5512,-0.103026 0.6836,-0.02122 0.1324,0.08182 0.2407,0.0028 0.2407,-0.17553 0,-0.178364 0.07,-0.254842 0.1544,-0.169955 0.085,0.08489 0.3825,-0.07386 0.6614,-0.352777 0.2789,-0.278916 0.656,-0.497718 0.8379,-0.48623 0.2628,0.01659 0.2625,0.0484 0,0.154889 -0.1828,0.0737 -0.278,0.222023 -0.2115,0.329605 0.1901,0.307629 -2.1089,1.323152 -2.4784,1.094772 z m -22.5762,-0.428559 c -1.0259,-0.556532 -0.9097,-0.748593 0.1322,-0.218686 0.9974,0.507225 1.1739,0.638686 0.8379,0.624009 -0.1334,-0.0058 -0.57,-0.188222 -0.9701,-0.405323 z m 25.5704,-1.374071 c -0.1609,-0.106913 -0.3792,-0.670637 -0.4851,-1.25272 -0.1059,-0.582083 -0.5501,-1.875517 -0.987,-2.874298 -0.6851,-1.566156 -0.7723,-2.021115 -0.6338,-3.307292 0.2927,-2.718594 0.096,-5.125403 -0.4756,-5.831737 -0.1655,-0.204412 -0.3009,-0.859255 -0.3009,-1.455208 0,-0.975694 -0.07,-1.091637 -0.7021,-1.164805 -0.548,-0.06343 -1.1088,0.28488 -2.5558,1.5875 -2.0687,1.862233 -5.2833,3.902576 -7.6285,4.841836 -1.8344,0.734703 -4.237,1.159658 -3.9523,0.699071 0.102,-0.165153 0.5059,-0.312145 0.8975,-0.326649 l 0.712,-0.02637 -0.6614,-0.231836 c -0.4737,-0.166023 -0.286,-0.192992 0.6614,-0.095 1.0151,0.104992 1.2306,0.06775 0.9261,-0.160067 -0.3133,-0.234334 -0.2389,-0.262277 0.3528,-0.132602 0.5359,0.11742 0.6952,0.07599 0.5585,-0.145216 -0.1199,-0.194125 -0.054,-0.261207 0.1763,-0.179938 0.7948,0.280178 6.2344,-3.02387 8.3384,-5.064787 0.6004,-0.582419 1.166,-0.984654 1.2568,-0.89386 0.091,0.09079 0.1651,0.02617 0.1651,-0.143597 0,-0.399294 1.4978,-0.403262 1.7442,-0.0046 0.1033,0.167232 0.2309,0.781941 0.2835,1.366022 0.053,0.584078 0.2278,1.221158 0.3893,1.415733 0.1615,0.194572 0.1897,0.355592 0.063,0.357819 -0.127,0.0021 -0.095,0.09152 0.071,0.198438 0.1662,0.106913 0.3448,0.789699 0.3969,1.517303 0.052,0.727605 0.1901,1.393241 0.3067,1.479191 0.2489,0.183546 -0.326,1.563526 -0.6514,1.563526 -0.1221,0 -0.2221,0.535781 -0.2221,1.190625 0,0.694076 0.1222,1.190625 0.2929,1.190625 0.1611,0 0.2244,0.178593 0.1406,0.396875 -0.084,0.218281 -0.03,0.396875 0.1196,0.396875 0.1495,0 0.1983,0.119062 0.1084,0.264583 -0.09,0.145521 -0.057,0.264583 0.074,0.264583 0.3229,0 0.8959,1.302126 0.7073,1.607328 -0.083,0.134615 -0.017,0.244756 0.1467,0.244756 0.1777,0 0.2302,0.213786 0.1301,0.529166 -0.1034,0.325774 -0.048,0.529167 0.1453,0.529167 0.1883,0 0.2647,0.254209 0.1914,0.637302 -0.088,0.458782 -0.021,0.59876 0.2368,0.499708 0.2434,-0.0934 0.306,-7.94e-4 0.195,0.28874 -0.1884,0.490765 -0.1527,0.475765 -0.5319,0.223845 z m 3.3391,-1.755502 c 0.5072,-0.567571 0.7273,-0.963433 0.4891,-0.879692 -0.3268,0.114927 -0.4004,0.02737 -0.2998,-0.357114 0.073,-0.280154 0.2454,-0.50937 0.3825,-0.50937 0.1372,0 0.1841,-0.105572 0.1044,-0.234604 -0.197,-0.318775 0.5009,-0.8686 0.7908,-0.622996 0.1273,0.107876 0.088,0.0066 -0.088,-0.225078 -0.1758,-0.231669 -0.2413,-0.49956 -0.1456,-0.595312 0.096,-0.09575 0.035,-0.174094 -0.1346,-0.174094 -0.3987,0 -0.4011,-0.705421 0,-0.951306 0.2008,-0.124119 0.2394,-0.0615 0.1127,0.182821 -0.1061,0.204386 0.065,0.04357 0.379,-0.357356 0.3145,-0.400931 0.6805,-0.661797 0.8134,-0.579697 0.1328,0.0821 0.2415,0.03168 0.2415,-0.11203 0,-0.143716 0.2073,-0.468598 0.4607,-0.721958 0.3312,-0.331229 0.3684,-0.491413 0.1323,-0.570116 -0.4189,-0.139631 -0.4654,-4.034108 -0.048,-4.034108 0.1541,0 0.2066,-0.119062 0.1167,-0.264583 -0.09,-0.145521 -0.03,-0.264583 0.1323,-0.264583 0.1627,0 0.2222,-0.119063 0.1323,-0.264584 -0.09,-0.145521 -0.03,-0.264583 0.1323,-0.264583 0.1626,0 0.2309,-0.104878 0.1517,-0.233066 -0.1198,-0.19386 0.488,-1.13274 1.6512,-2.550787 0.1219,-0.148672 0.1765,-0.405916 0.1213,-0.571651 -0.055,-0.165738 0.07,-0.460806 0.2789,-0.655706 0.257,-0.240102 0.3097,-0.53756 0.1633,-0.922497 -0.1188,-0.312473 -0.1343,-0.657487 -0.035,-0.766696 0.1,-0.109209 -0.086,-0.132599 -0.4137,-0.05197 -0.7531,0.185436 -0.7881,-0.341132 -0.066,-0.994497 0.2911,-0.26339 0.5292,-0.378148 0.5292,-0.255021 0,0.123129 0.1748,-0.0073 0.3885,-0.289722 0.2136,-0.282474 0.3922,-0.431887 0.3968,-0.332025 0,0.09986 0.3385,-0.138266 0.7419,-0.529167 0.6097,-0.590939 0.7041,-0.853435 0.56,-1.557382 -0.095,-0.465657 -0.098,-0.92274 -0.01,-1.015744 0.092,-0.093 -0.161,-0.01979 -0.5627,0.162708 -0.6507,0.295672 -0.801,0.265237 -1.3809,-0.279487 -0.3578,-0.336209 -0.5878,-0.713044 -0.5109,-0.837412 0.077,-0.124367 0.014,-0.226123 -0.1405,-0.226123 -0.3777,0 -0.3572,-0.714882 0.027,-0.952524 0.1741,-0.107635 0.5181,0.07013 0.7933,0.410049 0.3549,0.438221 0.6562,0.5573 1.1175,0.44153 0.9211,-0.231189 1.3233,0.416442 1.2645,2.036176 -0.045,1.245278 -0.1515,1.464726 -1.1508,2.374895 -0.6056,0.551558 -1.2529,0.944576 -1.4385,0.873371 -0.2102,-0.08066 -0.2819,0.01508 -0.1902,0.253937 0.081,0.21087 0.2454,0.383399 0.3656,0.383399 0.5434,0 0.4869,1.146982 -0.1316,2.669215 -0.739,1.818508 -1.3912,2.700187 -1.8072,2.443041 -0.1489,-0.09202 -0.1903,-0.03768 -0.092,0.121097 0.098,0.158416 -0.079,0.781526 -0.3936,1.384691 -0.5032,0.965304 -0.5511,1.355614 -0.3999,3.25858 l 0.1718,2.161918 -1.0805,0.931532 c -0.9263,0.7986 -1.0547,1.034148 -0.9,1.65064 l 0.1805,0.719108 0.7315,-0.592307 c 0.4022,-0.325768 0.6862,-0.67207 0.631,-0.769559 -0.055,-0.09749 0.1943,-0.409101 0.5545,-0.692478 0.3603,-0.283376 0.5825,-0.587764 0.4939,-0.676418 -0.089,-0.08865 0.034,-0.235997 0.272,-0.327432 0.2383,-0.09143 0.3668,-0.273669 0.2857,-0.404971 -0.081,-0.1313 0.038,-0.309894 0.2646,-0.396875 0.2266,-0.08698 0.3349,-0.283131 0.2404,-0.435885 -0.1073,-0.173684 -0.042,-0.197729 0.1739,-0.06418 0.2811,0.173709 0.2764,0.267914 -0.025,0.504859 -0.204,0.160216 -0.4057,0.469464 -0.4482,0.687218 -0.043,0.217755 -0.3054,0.589497 -0.5841,0.826093 -0.2787,0.236596 -0.4459,0.490913 -0.3717,0.565147 0.074,0.07424 -0.1649,0.370867 -0.5314,0.659181 -0.3666,0.288314 -0.6144,0.576217 -0.5509,0.639786 0.064,0.06357 -0.8019,1.002109 -1.9234,2.085644 -1.1214,1.083538 -1.624,1.505691 -1.1167,0.938118 z m 1.993,-2.070185 c 0.5752,-0.614767 0.8078,-0.927269 0.5167,-0.694447 -0.291,0.232823 -0.737,0.389234 -0.9911,0.347576 -0.5431,-0.08905 -0.8626,0.292309 -0.4556,0.543861 0.196,0.121087 0.1874,0.287846 -0.028,0.54745 -0.6729,0.810725 -0.029,0.31043 0.958,-0.74444 z m -0.7789,0.103523 c -0.075,-0.121269 0.032,-0.220487 0.2373,-0.220487 0.2055,0 0.3123,0.09922 0.2373,0.220487 -0.075,0.121267 -0.1817,0.220486 -0.2373,0.220486 -0.056,0 -0.1624,-0.09922 -0.2373,-0.220486 z m 5.529,-20.681598 c -0.09,-0.14552 0.015,-0.264583 0.2333,-0.264583 0.2183,0 0.4705,-0.119063 0.5604,-0.264583 0.092,-0.149117 -0.1217,-0.264584 -0.4901,-0.264584 -0.4799,0 -0.6301,0.123077 -0.5651,0.463021 0.1179,0.61586 0.1084,0.595313 0.2771,0.595313 0.081,0 0.074,-0.119063 -0.016,-0.264584 z m -31.9336,16.602604 c -0.6145,-0.487455 -6.5021,-8.584527 -6.7036,-9.219305 -0.4813,-1.51665 1.21,-2.930388 2.8367,-2.37113 1.2726,0.437523 7.0932,8.422553 7.0932,9.730904 0,1.657422 -2.0161,2.819442 -3.2263,1.859531 z m 30.8993,-1.217792 c -0.2034,-0.329073 0.5543,-1.268608 0.8138,-1.009118 0.1208,0.120811 0.013,0.37052 -0.2389,0.554913 -0.2521,0.184391 -0.3809,0.412782 -0.2862,0.507534 0.095,0.09475 0.1,0.172276 0.012,0.172276 -0.088,0 -0.2235,-0.101523 -0.3002,-0.225605 z m -26.8426,-1.134361 c -1.1283,-1.339438 -6.9158,-9.482942 -6.9158,-9.731076 0,-0.999403 2.463,-4.373692 5.0225,-6.880597 2.4721,-2.421277 9.0299,-6.932598 15.0176,-10.331051 1.4024,-0.795984 2.3723,-1.505961 2.2742,-1.664733 -0.098,-0.158001 -0.044,-0.19842 0.1245,-0.09416 0.1625,0.100474 1.4609,-0.447067 2.8851,-1.21676 5.4973,-2.970796 8.5645,-4.276346 10.3188,-4.392226 1.5447,-0.10203 1.6923,-0.0601 2.4474,0.69502 1.0077,1.00765 1.0495,2.12276 0.1395,3.714666 -0.3618,0.63282 -0.5794,1.287663 -0.4836,1.45521 0.096,0.167546 0.075,0.214823 -0.046,0.10506 -0.2785,-0.252651 -2.2737,2.719124 -2.0589,3.066618 0.088,0.141581 0.027,0.1756 -0.1351,0.0756 -0.3099,-0.191489 -1.1105,1.099454 -1.1105,1.790516 0,0.377544 -3.2947,4.7475 -6.3057,8.363713 -2.5616,3.076414 -7.231,7.951449 -8.699,9.08209 -0.7886,0.607404 -2.1703,1.668511 -3.0703,2.358017 -3.4518,2.644299 -8.5634,4.603145 -9.405,3.604094 z m 1.4847,-0.145336 c -0.2547,-0.06655 -0.6714,-0.06655 -0.9261,0 -0.2546,0.06655 -0.046,0.121002 0.4631,0.121002 0.5093,0 0.7176,-0.05445 0.463,-0.121002 z m 1.3174,-0.242051 c -0.088,-0.08792 -0.3161,-0.09732 -0.5071,-0.02088 -0.2111,0.08446 -0.1484,0.147156 0.1598,0.159851 0.2789,0.01148 0.4352,-0.05105 0.3473,-0.138965 z m 2.2014,-0.772983 c 0.4294,-0.222017 0.7807,-0.463201 0.7807,-0.535961 0,-0.118499 -1.5578,0.597368 -1.8301,0.840988 -0.2675,0.23938 0.3358,0.06403 1.0494,-0.305027 z m 2.1036,-1.334741 c 0,-0.07276 -0.2382,-0.0048 -0.5292,0.15091 -0.291,0.155761 -0.5292,0.342734 -0.5292,0.415494 0,0.07276 0.2382,0.0048 0.5292,-0.15091 0.291,-0.155761 0.5292,-0.342734 0.5292,-0.415494 z m 3.7992,-2.654607 c 2.1518,-1.839288 6.1175,-5.914924 8.5996,-8.838176 l 1.6832,-1.982348 -1.9276,2.116666 c -3.6114,3.96561 -8.8435,9.035127 -10.3685,10.046341 -0.8367,0.554834 -1.5213,1.058193 -1.5213,1.118579 0,0.272954 1.812,-0.988714 3.5346,-2.461062 z m 10.8851,-11.481983 c 0.2634,-0.291041 0.4194,-0.529166 0.3466,-0.529166 -0.073,0 -0.3478,0.238125 -0.6111,0.529166 -0.2634,0.291042 -0.4194,0.529167 -0.3466,0.529167 0.073,0 0.3478,-0.238125 0.6111,-0.529167 z m 1.0584,-1.322916 c 0.2634,-0.291042 0.4193,-0.529167 0.3466,-0.529167 -0.073,0 -0.3478,0.238125 -0.6112,0.529167 -0.2634,0.291041 -0.4194,0.529166 -0.3466,0.529166 0.073,0 0.3478,-0.238125 0.6112,-0.529166 z m 1.4552,-1.852084 c 0.461,-0.582083 0.7787,-1.058333 0.7059,-1.058333 -0.073,0 -0.5095,0.47625 -0.9705,1.058333 -0.461,0.582084 -0.7787,1.058334 -0.7059,1.058334 0.073,0 0.5095,-0.47625 0.9705,-1.058334 z m 2.6966,-3.571875 c 0.3697,-0.702367 -0.027,-0.267376 -1.0859,1.190625 l -0.8648,1.190625 0.8361,-0.926041 c 0.4599,-0.509323 0.9614,-1.164167 1.1146,-1.455209 z m 0.747,22.423438 c 0.01,-0.470368 0.4621,-0.911297 0.64,-0.62356 0.099,0.161058 0.048,0.292831 -0.1149,0.292831 -0.1627,0 -0.2222,0.119062 -0.1323,0.264583 0.09,0.145521 0.037,0.264583 -0.1166,0.264583 -0.1541,0 -0.2784,-0.0893 -0.2762,-0.198437 z m 0.6574,-1.124479 c -0.09,-0.145521 -0.037,-0.264584 0.1167,-0.264584 0.1541,0 0.2802,0.119063 0.2802,0.264584 0,0.14552 -0.053,0.264583 -0.1167,0.264583 -0.064,0 -0.1902,-0.119063 -0.2802,-0.264583 z m -48.2864,-0.802053 c 0,-0.140954 0.1786,-0.256281 0.3968,-0.256281 0.2183,0 0.3969,0.04679 0.3969,0.103984 0,0.05719 -0.1786,0.172516 -0.3969,0.256281 -0.2182,0.08376 -0.3968,0.03697 -0.3968,-0.103984 z m 48.551,0.0083 c -0.09,-0.145521 -0.037,-0.264584 0.1167,-0.264584 0.1541,0 0.2802,0.119063 0.2802,0.264584 0,0.145521 -0.052,0.264583 -0.1167,0.264583 -0.064,0 -0.1903,-0.119062 -0.2802,-0.264583 z m -48.8156,-0.79375 c 0,-0.145521 0.119,-0.264584 0.2646,-0.264584 0.1455,0 0.2646,0.119063 0.2646,0.264584 0,0.145521 -0.1191,0.264583 -0.2646,0.264583 -0.1456,0 -0.2646,-0.119062 -0.2646,-0.264583 z m 48.9479,0 c 0,-0.145521 0.1191,-0.264584 0.2646,-0.264584 0.1455,0 0.2646,0.119063 0.2646,0.264584 0,0.145521 -0.1191,0.264583 -0.2646,0.264583 -0.1455,0 -0.2646,-0.119062 -0.2646,-0.264583 z m -49.2125,-0.79375 c 0,-0.145521 0.1191,-0.264584 0.2646,-0.264584 0.1455,0 0.2646,0.119063 0.2646,0.264584 0,0.14552 -0.1191,0.264583 -0.2646,0.264583 -0.1455,0 -0.2646,-0.119063 -0.2646,-0.264583 z m 49.4771,0 c 0,-0.145521 0.119,-0.264584 0.2646,-0.264584 0.1455,0 0.2646,0.119063 0.2646,0.264584 0,0.14552 -0.1191,0.264583 -0.2646,0.264583 -0.1456,0 -0.2646,-0.119063 -0.2646,-0.264583 z m -50.25,-0.683506 c 0.013,-0.308227 0.075,-0.37092 0.1599,-0.159854 0.076,0.190995 0.067,0.419198 -0.021,0.507119 -0.088,0.08792 -0.1505,-0.06835 -0.139,-0.347265 z m 51.3292,0 c 0.013,-0.308227 0.075,-0.37092 0.1599,-0.159854 0.076,0.190995 0.067,0.419198 -0.021,0.507119 -0.088,0.08792 -0.1505,-0.06835 -0.139,-0.347265 z m -50.8209,-0.507119 c 0,-0.218282 0.1191,-0.396875 0.2646,-0.396875 0.1455,0 0.2646,0.178593 0.2646,0.396875 0,0.218281 -0.1191,0.396875 -0.2646,0.396875 -0.1455,0 -0.2646,-0.178594 -0.2646,-0.396875 z m 50.0063,0 c 0,-0.218282 0.119,-0.396875 0.2646,-0.396875 0.1455,0 0.2645,0.178593 0.2645,0.396875 0,0.218281 -0.119,0.396875 -0.2645,0.396875 -0.1456,0 -0.2646,-0.178594 -0.2646,-0.396875 z m -46.8313,-0.79375 c 0.3418,-0.363802 0.681,-0.661459 0.7537,-0.661459 0.073,0 -0.1473,0.297657 -0.4891,0.661459 -0.3418,0.363802 -0.6809,0.661458 -0.7537,0.661458 -0.073,0 0.1473,-0.297656 0.4891,-0.661458 z m -3.9478,-0.02204 c 0.013,-0.308226 0.075,-0.37092 0.1598,-0.159853 0.076,0.190994 0.067,0.419197 -0.021,0.507118 -0.088,0.08792 -0.1504,-0.06835 -0.1389,-0.347265 z m 51.8583,0 c 0.013,-0.308226 0.075,-0.37092 0.1598,-0.159853 0.077,0.190994 0.067,0.419197 -0.021,0.507118 -0.088,0.08792 -0.1505,-0.06835 -0.139,-0.347265 z m -51.3501,-0.374835 c 0,-0.49389 0.071,-0.564444 0.3175,-0.3175 0.247,0.246943 0.247,0.388056 0,0.635 -0.2469,0.246943 -0.3175,0.176389 -0.3175,-0.3175 z m 50.6535,0.24153 c -0.098,-0.158202 -0.045,-0.42014 0.1167,-0.582083 0.2162,-0.216207 0.2944,-0.139777 0.2944,0.287636 0,0.638839 -0.1374,0.737275 -0.4111,0.294447 z m -51.3956,-1.432155 c 0.01,-0.436563 0.065,-0.583126 0.1317,-0.325694 0.067,0.257431 0.063,0.614619 -0.01,0.79375 -0.072,0.17913 -0.1273,-0.03149 -0.1219,-0.468056 z m 52.3875,0 c 0.01,-0.436563 0.065,-0.583126 0.1317,-0.325694 0.067,0.257431 0.063,0.614619 -0.01,0.79375 -0.072,0.17913 -0.1273,-0.03149 -0.1219,-0.468056 z m -47.1887,-0.223571 c -0.241,-0.332099 -0.9554,-0.756237 -1.5875,-0.942525 -1.134,-0.334182 -3.3969,-1.598681 -3.3979,-1.89866 0,-0.366385 0.8627,-0.106627 1.4474,0.435252 0.3499,0.324276 0.7031,0.522714 0.7848,0.440974 0.082,-0.08174 0.1486,-0.01346 0.1486,0.151754 0,0.165206 0.1786,0.231844 0.3969,0.148082 0.2183,-0.08376 0.3969,-0.03164 0.3969,0.115824 0,0.147465 0.2227,0.209873 0.495,0.138679 0.5555,-0.145283 2.5094,1.400386 2.2666,1.793136 -0.2293,0.371007 -0.4761,0.271717 -0.9508,-0.382516 z m -4.7212,-0.570179 c 0,-0.570807 0.1068,-0.891255 0.2645,-0.79375 0.1456,0.08994 0.2646,0.447124 0.2646,0.79375 0,0.346625 -0.119,0.703812 -0.2646,0.79375 -0.1577,0.0975 -0.2645,-0.222944 -0.2645,-0.79375 z m 51.2409,0.749652 c -0.2712,-0.271233 -0.209,-1.359705 0.088,-1.543402 0.1575,-0.09731 0.2646,0.217739 0.2646,0.778134 0,0.966941 -0.048,1.070369 -0.3528,0.765268 z m -45.0389,-0.539642 c 0.072,-0.188267 0,-0.342302 -0.1558,-0.342302 -0.162,0 -0.2331,-0.282408 -0.1632,-0.648197 0.097,-0.504849 0,-0.665758 -0.4281,-0.727605 -0.3381,-0.04864 -0.5617,-0.284445 -0.577,-0.608573 -0.014,-0.291042 -0.045,-0.883081 -0.07,-1.315643 l -0.045,-0.786474 -0.415,0.592463 c -0.2283,0.325855 -0.5259,0.523914 -0.6615,0.440131 -0.1356,-0.08378 -0.2465,-0.02624 -0.2465,0.127866 0,0.154109 -0.2235,0.280199 -0.4967,0.280199 -0.5521,0 -1.1838,-0.612474 -0.9121,-0.88424 0.096,-0.09575 0.035,-0.174094 -0.1346,-0.174094 -0.3701,0 -0.4153,-0.961199 -0.056,-1.183484 0.1391,-0.08601 0.1906,-0.318894 0.1144,-0.517525 -0.2309,-0.601884 1.2214,-1.748318 1.9752,-1.559131 0.4489,0.112685 0.5894,0.06961 0.4593,-0.140855 -0.103,-0.166744 -0.091,-0.313501 0.027,-0.326127 1.6054,-0.17217 1.9339,-0.162116 1.9339,0.0592 0,0.142762 0.1094,0.191915 0.2432,0.109229 0.1338,-0.08269 0.4299,0.03626 0.6579,0.264324 0.3765,0.376494 0.4011,0.346276 0.2669,-0.328297 -0.1178,-0.592177 0.017,-0.900673 0.665,-1.520065 0.447,-0.427408 0.8128,-0.690604 0.8128,-0.584881 0,0.105724 0.1661,0.0387 0.3691,-0.148936 0.203,-0.187639 0.315,-0.430458 0.249,-0.539599 -0.066,-0.10914 0,-0.198437 0.1517,-0.198437 0.1496,0 0.2034,-0.178594 0.1196,-0.396875 -0.084,-0.218281 -0.034,-0.396875 0.1112,-0.396875 0.1449,0 0.247,-0.208359 0.2268,-0.463021 -0.02,-0.254661 0.1418,-0.466168 0.3601,-0.470014 0.2183,-0.0038 0.5457,-0.10017 0.7276,-0.214052 0.1819,-0.113883 0.4373,-0.141185 0.5676,-0.06067 0.1302,0.08051 0.3098,-0.04388 0.3991,-0.27642 0.092,-0.241063 0.3319,-0.35771 0.5569,-0.271367 0.217,0.08329 0.3946,0.02223 0.3946,-0.135699 0,-0.157926 0.2084,-0.236424 0.463,-0.174439 0.2547,0.06198 0.6714,-0.102723 0.9261,-0.366017 0.2546,-0.263293 0.3369,-0.478715 0.1828,-0.478715 -0.1541,0 -0.222,-0.09418 -0.1508,-0.209288 0.071,-0.115108 -0.2791,-0.161613 -0.7782,-0.103344 -0.6889,0.08043 -0.9075,0.0072 -0.9075,-0.304264 0,-0.225614 0.1177,-0.482949 0.2616,-0.571856 0.1524,-0.0942 0.2,0.03727 0.114,0.315115 -0.081,0.262219 0.025,0.187836 0.2358,-0.165296 0.3697,-0.61922 0.5994,-0.717839 2.0345,-0.873634 0.3638,-0.03949 0.8081,-0.210005 0.9874,-0.378913 0.1793,-0.168908 0.4759,-0.35707 0.6591,-0.418136 0.2374,-0.07913 0.1872,-0.256977 -0.1748,-0.618936 -0.2793,-0.279349 -0.5759,-0.48563 -0.6591,-0.458403 -0.083,0.02723 -0.1228,-0.181133 -0.088,-0.463021 0.035,-0.281888 -0.062,-0.512524 -0.2141,-0.512524 -0.1524,0 -0.2141,-0.101863 -0.1372,-0.226362 0.077,-0.1245 -0.1436,-0.172166 -0.4901,-0.105924 -0.446,0.08525 -0.7159,-0.04008 -0.9241,-0.429033 -0.3981,-0.743902 -1.2478,-1.189903 -1.4974,-0.786016 -0.1246,0.20159 -0.062,0.240323 0.1824,0.113387 0.2722,-0.141236 0.2655,-0.0991 -0.025,0.157557 -0.2183,0.192692 -0.4385,0.588475 -0.4894,0.879516 -0.051,0.291042 -0.2296,0.616641 -0.3969,0.723553 -0.1674,0.106912 -0.2059,0.196209 -0.086,0.198437 0.3258,0.006 -1.3216,1.591552 -1.6537,1.591552 -0.266,0 -0.3976,-0.373637 -0.3097,-0.879562 0.021,-0.119957 -0.074,-0.148629 -0.2119,-0.06371 -0.1374,0.08491 -0.438,-0.0338 -0.668,-0.263816 -0.23,-0.230013 -0.4182,-0.335591 -0.4182,-0.234618 0,0.100973 -0.1773,0.03645 -0.394,-0.143372 -0.2167,-0.179828 -0.335,-0.422362 -0.2629,-0.538966 0.072,-0.116603 -0.019,-0.272307 -0.2014,-0.346007 -0.2576,-0.103863 -0.2544,-0.1387 0.014,-0.15489 0.2001,-0.01207 0.266,-0.160506 0.156,-0.351618 -0.1047,-0.181901 -0.1018,-0.251354 0.01,-0.15434 0.1082,0.09701 0.4293,-0.05616 0.7135,-0.34038 0.2842,-0.284222 0.619,-0.453578 0.744,-0.376346 0.1249,0.07723 0.2983,-0.04503 0.3853,-0.271702 0.087,-0.226665 0.2656,-0.345731 0.3969,-0.264585 0.1313,0.0811 0.3101,-0.0386 0.3974,-0.266056 0.1004,-0.26167 0.3399,-0.35609 0.6519,-0.25706 0.574,0.18218 1.4176,-0.0799 1.2306,-0.38238 -0.07,-0.11378 0.049,-0.35401 0.2661,-0.53384 0.2167,-0.17982 0.394,-0.24434 0.394,-0.14337 0,0.10098 0.203,-0.0195 0.4512,-0.26762 0.2941,-0.29406 0.4862,-0.34615 0.5518,-0.14954 0.055,0.16592 0.2116,0.23302 0.3473,0.14913 0.292,-0.18047 2.0893,0.87689 2.0893,1.22915 0,0.4141 0.3862,0.26815 0.7247,-0.2739 0.2383,-0.38164 0.2443,-0.56542 0.023,-0.70233 -0.2004,-0.12391 -0.2275,-0.0621 -0.081,0.18617 0.1203,0.20438 -0.035,0.14907 -0.3455,-0.12292 -0.3102,-0.27199 -0.5391,-0.62917 -0.5085,-0.79375 0.031,-0.16457 -0.1109,-0.26354 -0.3145,-0.21992 -0.2036,0.0436 -0.5608,-0.008 -0.7938,-0.11493 -0.5636,-0.25848 -2.6759,-0.3162 -2.523,-0.069 0.2013,0.32581 -0.7213,1.07087 -1.1313,0.91354 -0.2114,-0.0811 -0.5135,-0.14751 -0.6714,-0.14751 -0.1579,0 -0.2087,-0.0783 -0.113,-0.17409 0.096,-0.0958 0.026,-0.35467 -0.1543,-0.57537 -0.2584,-0.31572 -0.1829,-0.3066 0.3542,0.0427 0.3754,0.2442 0.7623,0.36421 0.8598,0.26669 0.2856,-0.28558 0.2044,-0.56249 -0.1534,-0.52274 -0.8215,0.0913 -0.4072,-0.53542 0.8077,-1.2218 1.0856,-0.61332 1.3203,-0.67121 1.2677,-0.31265 -0.08,0.54166 -0.8523,1.00417 -1.3554,0.81114 -0.2047,-0.0786 -0.4304,-0.0489 -0.5014,0.066 -0.1903,0.30787 0.6651,0.29492 1.5051,-0.0228 0.4023,-0.15216 0.7156,-0.41032 0.6962,-0.57369 -0.092,-0.77688 0.076,-1.05393 0.3004,-0.49547 0.1316,0.32743 0.3919,0.59349 0.5785,0.59126 0.2587,-0.003 0.2532,-0.0586 -0.023,-0.23361 -0.263,-0.1666 -0.082,-0.31941 0.6614,-0.55708 0.5631,-0.18013 1.137,-0.43219 1.2752,-0.56013 0.1383,-0.12794 0.4955,-0.2308 0.7938,-0.22857 0.4556,0.003 0.4789,0.0489 0.1455,0.28472 -0.3528,0.24949 -0.3528,0.26793 0,0.16591 0.2183,-0.0631 0.3803,-0.31031 0.3601,-0.54931 -0.043,-0.50667 0.2031,-0.55922 0.6281,-0.13422 0.2241,0.22404 0.6033,0.22404 1.493,0 1.4868,-0.37438 1.7521,-0.3755 1.7521,-0.007 0,0.16109 -0.1747,0.22582 -0.3884,0.14385 -0.2136,-0.082 -0.4638,-0.0271 -0.5559,0.12202 -0.092,0.14908 -0.3341,0.20715 -0.5376,0.12904 -0.2036,-0.0781 -0.3701,-0.0128 -0.3701,0.14511 0,0.15793 -0.2119,0.23173 -0.4709,0.16401 -0.2589,-0.0677 -0.6161,0.0324 -0.7937,0.22256 -0.3881,0.41538 -0.4345,1.26196 -0.057,1.02832 0.1466,-0.0906 0.3376,0.0208 0.4246,0.24745 0.087,0.22667 0.2512,0.35459 0.365,0.28427 0.3129,-0.19338 0.6709,0.44479 0.6671,1.18923 0,0.36739 -0.1432,0.63444 -0.318,0.60068 -0.4371,-0.0844 -0.717,0.93761 -0.371,1.35459 0.1563,0.1883 0.2259,0.400686 0.1546,0.471968 -0.071,0.07128 0.1647,0.287107 0.5244,0.479618 0.6081,0.325444 0.7163,0.282003 1.5413,-0.61867 0.488,-0.532766 0.9674,-0.888536 1.0654,-0.790586 0.098,0.0979 0.1781,0.0293 0.1781,-0.15264 0,-0.1819 0.1477,-0.28147 0.3283,-0.22127 0.1806,0.0602 0.4936,-0.0558 0.6956,-0.25775 0.202,-0.20197 0.5305,-0.30457 0.73,-0.228 0.1995,0.0766 0.3627,0.0316 0.3627,-0.0999 0,-0.13154 0.4104,-0.38755 0.912,-0.56892 0.5016,-0.18138 0.8517,-0.42721 0.7781,-0.5463 -0.074,-0.11909 -0.011,-0.21652 0.1381,-0.21652 0.1495,0 0.2034,-0.1786 0.1196,-0.39688 -0.084,-0.21828 -0.024,-0.39687 0.1323,-0.39687 0.1565,0 0.216,-0.1786 0.1323,-0.39688 -0.084,-0.21828 -0.023,-0.39687 0.1349,-0.39687 0.2053,0 0.204,-0.18269 0,-0.64052 -0.1605,-0.35229 -0.4259,-0.59166 -0.5897,-0.53195 -0.3984,0.14526 -1.1278,-0.33464 -0.8821,-0.58036 0.1068,-0.10675 0.6241,0.0109 1.1496,0.26155 0.8693,0.41453 0.9429,0.53355 0.8154,1.31914 -0.3508,2.16126 -0.7905,2.68853 -3.0055,3.60381 -1.1436,0.47258 -2.2676,1.02513 -2.4977,1.227896 -0.2301,0.202766 -0.5043,0.282738 -0.6093,0.177715 -0.105,-0.105025 -0.1197,-0.0053 -0.033,0.221617 0.206,0.536813 -0.4735,1.090825 -1.2028,0.980677 -0.3149,-0.04755 -0.9459,-0.603321 -1.4023,-1.235045 l -0.8298,-1.14859 0.7262,-0.62465 c 0.9406,-0.80904 0.9163,-1.01861 -0.1981,-1.70736 -0.5085,-0.31423 -1.0282,-0.75677 -1.1551,-0.98344 -0.2074,-0.3706 -0.3808,-0.36488 -1.7214,0.0568 -0.8199,0.2579 -1.4908,0.55679 -1.4908,0.6642 0,0.10741 0.3706,0.26942 0.8236,0.36002 0.4656,0.0931 1.212,0.58869 1.7169,1.13993 0.8377,0.91451 0.8662,1.00512 0.4583,1.45585 -0.2392,0.26435 -0.6419,0.48064 -0.8948,0.48064 -0.253,0 -0.5315,0.186556 -0.619,0.414588 -0.2095,0.545933 -1.4682,0.399744 -1.8533,-0.215242 -0.2135,-0.341056 -0.2026,-0.600966 0.042,-0.992186 0.2975,-0.47626 0.2652,-0.53008 -0.3176,-0.53008 -0.3704,0 -0.8254,0.25227 -1.0606,0.58804 -0.5667,0.809146 -0.5192,0.999456 0.2496,0.999456 0.3638,0 0.8878,0.226372 1.1645,0.503048 0.2767,0.276676 0.7526,0.582267 1.0577,0.679092 0.3051,0.09683 0.6337,0.495533 0.7304,0.886016 0.097,0.390483 0.4056,0.873326 0.6867,1.072983 0.3553,0.252352 0.4716,0.569364 0.3817,1.039918 -0.071,0.372297 0,0.877779 0.1494,1.123292 0.1533,0.245514 0.2041,0.640754 0.113,0.878312 -0.2517,0.655862 -0.9449,0.51612 -1.1317,-0.228132 -0.1525,-0.607594 -0.2528,-0.646963 -1.2618,-0.495337 -1.2993,0.195241 -1.9187,0.626225 -0.9001,0.626225 0.3843,0 0.7797,0.130949 0.8786,0.290997 0.2901,0.469345 -0.7903,1.669526 -1.7642,1.959949 -0.4939,0.147261 -1.158,0.415417 -1.4759,0.595901 -0.3178,0.180484 -0.8144,0.328153 -1.1034,0.328153 -0.3749,0 -0.5783,0.240016 -0.7094,0.836985 -0.11,0.500908 -0.6497,1.260921 -1.3439,1.892776 -0.8571,0.779985 -1.1601,1.254682 -1.1601,1.817152 0,0.993006 -0.6655,1.246822 -1.3481,0.514162 -0.5523,-0.592867 -1.4185,-0.745467 -1.6947,-0.298575 -0.09,0.145521 -0.4334,0.264584 -0.7632,0.264584 -0.9133,0 -1.7503,1.055941 -1.7503,2.20817 0,1.220605 0.5822,1.522359 1.4196,0.735719 0.662,-0.621919 1.4753,-0.746096 1.5189,-0.23191 0.015,0.181901 0.01,0.649637 -0.018,1.039415 -0.031,0.476737 0.1331,0.804519 0.5011,1.001496 0.3069,0.164211 0.5472,0.557019 0.5472,0.89439 0,0.750252 0.4975,1.411472 1.1906,1.582152 0.291,0.07168 0.079,0.116695 -0.4704,0.100037 -0.7007,-0.02122 -0.9603,-0.132625 -0.8682,-0.372584 z m 11.525,-15.423552 c 0,-0.145521 -0.119,-0.264583 -0.2645,-0.264583 -0.1456,0 -0.2646,0.119062 -0.2646,0.264583 0,0.145521 0.119,0.264583 0.2646,0.264583 0.1455,0 0.2645,-0.119062 0.2645,-0.264583 z m -6.3112,-2.994139 c 0.2396,-0.182313 0.6501,-0.803604 0.9121,-1.380648 0.262,-0.577044 0.5172,-1.122967 0.5671,-1.213161 0.05,-0.09019 -0.3636,-0.13836 -0.9187,-0.107036 -1.0107,0.05702 -3.2451,1.243574 -3.2451,1.723232 0,0.220012 1.7451,1.296601 2.1167,1.305811 0.073,0.0018 0.3283,-0.145886 0.5679,-0.328198 z m 4.6347,-3.224667 c -0.5149,-0.37647 -0.3056,-0.68885 0.3133,-0.46768 0.4807,0.17178 0.43,0.10674 -0.3566,-0.45726 -0.291,-0.20869 -0.447,-0.28137 -0.3466,-0.16152 0.2167,0.25868 -0.3585,0.95335 -0.6455,0.77959 -0.3123,-0.18902 -0.2318,0.16232 0.1244,0.543696 0.1776,0.19012 0.5524,0.28567 0.8329,0.212324 0.463,-0.121084 0.4702,-0.162414 0.078,-0.44915 z m -7.1734,21.021262 c 0.6579,-0.686716 0.8697,-0.755846 1.9497,-0.636529 0.6664,0.07362 1.0699,0.03909 0.8965,-0.07674 -0.1831,-0.122359 0.1152,-0.210589 0.7121,-0.210589 0.565,0 0.8979,0.07994 0.7398,0.177654 -0.191,0.118033 -0.1636,0.217281 0.082,0.295736 0.203,0.06495 0.049,0.06908 -0.343,0.0092 -0.3916,-0.0599 -0.9483,0.01754 -1.2371,0.172058 -0.3174,0.169894 -0.764,0.192532 -1.1297,0.05726 -0.4638,-0.17158 -0.7054,-0.09925 -1.0372,0.310465 -0.2379,0.29379 -0.6437,0.56515 -0.9017,0.603022 -0.367,0.05386 -0.3085,-0.0989 0.2689,-0.701527 z m 0.417,0.08036 c 0.3291,-0.419645 0.3198,-0.429003 -0.1,-0.0999 -0.2546,0.199721 -0.463,0.408081 -0.463,0.463021 0,0.217763 0.2173,0.0776 0.5629,-0.363125 z m 36.3502,0.03203 c -0.2371,-0.237046 -0.3684,-0.594233 -0.2918,-0.79375 0.076,-0.199517 0.017,-0.36276 -0.1327,-0.36276 -0.1496,0 -0.1983,-0.119062 -0.1084,-0.264583 0.09,-0.145521 0.025,-0.264583 -0.145,-0.264583 -0.1697,0 -0.2429,-0.170903 -0.1627,-0.379781 0.08,-0.20888 0.044,-0.41724 -0.08,-0.46302 -0.124,-0.04578 -0.2661,-0.318299 -0.3159,-0.605595 -0.05,-0.287295 -0.388,-0.783 -0.7518,-1.101571 -0.6983,-0.611471 -0.9289,-2.104052 -0.3589,-2.322788 0.5912,-0.226864 2.1366,1.969736 1.7855,2.537854 -0.1222,0.197652 -0.066,0.226111 0.165,0.08342 0.2626,-0.162316 0.3025,-0.09172 0.1592,0.281784 -0.1052,0.274098 -0.106,0.413121 0,0.308938 0.3247,-0.324712 1.1163,1.287579 1.0565,2.151819 -0.031,0.452089 0.06,0.860994 0.2032,0.908677 0.2979,0.09933 -0.012,0.716931 -0.3595,0.716931 -0.1266,0 -0.424,-0.193945 -0.6611,-0.43099 z m 0.1159,-2.097842 c -0.4699,-0.56611 -0.618,-0.27183 -0.229,0.454946 0.209,0.390575 0.3718,0.4928 0.4433,0.278347 0.062,-0.186404 -0.034,-0.516387 -0.2143,-0.733293 z m -1.7172,-3.212195 c -0.3011,-0.459562 -0.5207,-0.604131 -0.5921,-0.389821 -0.1183,0.354669 0.7249,1.466152 0.9451,1.245936 0.069,-0.06911 -0.09,-0.454363 -0.353,-0.856115 z m -44.7461,2.698319 c 0,-1.164167 0.048,-1.607505 0.1034,-0.985195 0.056,0.622311 0.055,1.574811 0,2.116667 -0.057,0.541856 -0.1026,0.0327 -0.1016,-1.131472 z m 52.9128,0.264583 c 0,-1.018646 0.049,-1.402942 0.1063,-0.853995 0.057,0.548949 0.056,1.382387 0,1.852083 -0.058,0.469699 -0.1053,0.02056 -0.1041,-0.998088 z m -38.3816,0.992188 c 0.024,-0.327422 0.1435,-0.595313 0.2667,-0.595313 0.1231,0 0.1503,-0.119062 0.06,-0.264583 -0.09,-0.145521 -0.03,-0.264583 0.1323,-0.264583 0.1626,0 0.2222,-0.119063 0.1322,-0.264584 -0.09,-0.14552 -0.037,-0.264583 0.1167,-0.264583 0.1541,0 0.2802,-0.165857 0.2802,-0.368567 0,-0.202713 0.1786,-0.4371 0.3969,-0.520864 0.2183,-0.08376 0.3969,-0.29233 0.3969,-0.463484 0,-0.171154 0.2453,-0.561843 0.5452,-0.868199 0.3,-0.306355 1.3609,-1.420214 2.3577,-2.47524 0.9968,-1.055026 1.9379,-1.918229 2.0913,-1.918229 0.1533,0 0.408,-0.24146 0.566,-0.536577 0.1579,-0.295118 0.4011,-0.466165 0.5403,-0.380106 0.1393,0.08606 0.3246,-0.02967 0.4119,-0.257173 0.087,-0.227504 0.3284,-0.413644 0.5356,-0.413644 0.2073,0 0.4454,-0.178594 0.5292,-0.396875 0.084,-0.218282 0.3054,-0.396875 0.4926,-0.396875 0.1871,0 0.4116,-0.186141 0.4989,-0.413645 0.087,-0.227505 0.2662,-0.347251 0.3975,-0.266103 0.1313,0.08115 0.3099,-0.03791 0.3969,-0.264584 0.087,-0.226668 0.2789,-0.337501 0.4265,-0.246293 0.1475,0.09121 0.3394,-0.01962 0.4264,-0.246294 0.087,-0.226669 0.2656,-0.345732 0.3969,-0.264583 0.1313,0.08115 0.3099,-0.03791 0.3969,-0.264584 0.087,-0.226669 0.2647,-0.346251 0.395,-0.265738 0.1302,0.08051 0.2368,0.0203 0.2368,-0.133811 0,-0.154109 0.1786,-0.280199 0.3969,-0.280199 0.2183,0 0.3969,-0.119062 0.3969,-0.264583 0,-0.145521 0.1786,-0.264583 0.3969,-0.264583 0.2182,0 0.3968,-0.119063 0.3968,-0.264584 0,-0.145521 0.1659,-0.264583 0.3686,-0.264583 0.4303,0 0.6898,-0.564777 0.6898,-1.501618 0,-0.442073 0.1771,-0.710921 0.5291,-0.802969 0.2968,-0.0776 0.5292,-0.360896 0.5292,-0.644992 0,-0.848824 0.8124,-0.926421 1.4413,-0.137671 0.8567,1.07442 1.2882,0.926158 1.0697,-0.367518 -0.177,-1.047424 -0.1427,-1.111301 1.4121,-2.627911 1.6759,-1.63482 3.0632,-2.26596 4.1004,-1.86546 0.519,0.20042 0.5296,0.24073 0.1085,0.41084 -0.2569,0.10374 -0.7166,0.12335 -1.0216,0.0436 -0.6129,-0.16027 -0.7467,-0.0719 -2.6332,1.73904 -0.72,0.691226 -1.4068,1.25677 -1.5262,1.25677 -0.1193,0 -0.217,0.178594 -0.217,0.396875 0,0.218282 0.077,0.396875 0.1699,0.396875 0.093,0 0.4011,0.172672 0.6836,0.383716 0.496,0.370597 0.4932,0.378588 -0.082,0.233724 -0.3648,-0.09192 -0.5953,-0.02956 -0.5953,0.161067 0,0.171081 0.1488,0.234167 0.3307,0.14019 0.1819,-0.09398 0.033,0.07494 -0.3307,0.375377 -0.8199,0.677113 -0.8306,0.677241 -1.5376,0.01854 -0.4403,-0.41024 -0.579,-0.446458 -0.579,-0.151191 0,0.213555 -0.1862,0.574468 -0.4138,0.802027 -0.2276,0.227559 -0.3473,0.521237 -0.2661,0.652618 0.081,0.131381 -1.1316,1.052559 -2.6951,2.047063 -7.0519,4.485536 -11.7842,8.778879 -13.7967,12.517086 -0.5007,0.929963 -0.7772,1.253466 -0.7502,0.877599 z m 16.8645,-15.367561 c -0.1479,-0.04929 -0.2066,-0.190281 -0.1306,-0.313318 0.076,-0.123036 0.028,-0.292028 -0.1074,-0.375537 -0.1351,-0.08351 -0.2119,0.05709 -0.1706,0.312447 0.041,0.255355 -0.059,0.632238 -0.2217,0.837517 -0.2553,0.321155 -0.2133,0.321277 0.3012,8.73e-4 0.3289,-0.204801 0.4769,-0.412692 0.3291,-0.461979 z m 0.8937,-2.042535 c 0.09,-0.23546 0.046,-0.341663 -0.104,-0.248969 -0.1438,0.08891 -0.2615,0.273685 -0.2615,0.410617 0,0.380585 0.1896,0.29672 0.3655,-0.161648 z m -31.83,14.279194 c 0.013,-0.308226 0.075,-0.370919 0.1598,-0.159853 0.076,0.190994 0.067,0.419198 -0.021,0.507119 -0.088,0.08792 -0.1504,-0.06835 -0.1389,-0.347266 z m -0.2339,-1.830036 c 0.01,-0.436562 0.065,-0.583124 0.1317,-0.325693 0.067,0.257431 0.063,0.614618 -0.01,0.793749 -0.072,0.179131 -0.1273,-0.03149 -0.1219,-0.468056 z m 52.3777,0.132292 c 0,-0.363802 0.06,-0.51263 0.1334,-0.330729 0.073,0.181901 0.073,0.479557 0,0.661458 -0.073,0.181901 -0.1334,0.03307 -0.1334,-0.330729 z m -52.123,-1.5875 c 0,-0.363802 0.06,-0.51263 0.1335,-0.330729 0.073,0.181901 0.073,0.479557 0,0.661458 -0.073,0.181901 -0.1335,0.03307 -0.1335,-0.330729 z m 51.8584,0 c 0,-0.363802 0.06,-0.51263 0.1334,-0.330729 0.073,0.181901 0.073,0.479557 0,0.661458 -0.073,0.181901 -0.1334,0.03307 -0.1334,-0.330729 z m -51.6147,-1.212674 c 0.013,-0.308224 0.075,-0.370919 0.1599,-0.159852 0.076,0.190996 0.067,0.419199 -0.021,0.507118 -0.088,0.08792 -0.1505,-0.06835 -0.139,-0.347266 z m 51.3292,0 c 0.013,-0.308224 0.075,-0.370919 0.1599,-0.159852 0.076,0.190996 0.067,0.419199 -0.021,0.507118 -0.088,0.08792 -0.1505,-0.06835 -0.139,-0.347266 z m -49.7625,-4.442311 c 0,-0.285744 1.0509,-2.282515 1.2013,-2.282515 0.073,0 -0.1229,0.506016 -0.4347,1.124479 -0.6134,1.216252 -0.7666,1.447764 -0.7666,1.158036 z m 47.9919,-0.587864 c -0.1273,-0.507294 -0.2313,-0.593664 -0.3979,-0.330729 -0.1586,0.250319 -0.2267,0.260537 -0.2296,0.03445 0,-0.176781 0.2374,-0.450646 0.5325,-0.608588 0.2952,-0.157942 0.4744,-0.38778 0.3984,-0.510751 -0.076,-0.122972 0.047,-0.294751 0.274,-0.381732 0.2267,-0.08698 0.3375,-0.278891 0.2463,-0.426468 -0.091,-0.147576 0.02,-0.339487 0.2463,-0.426468 0.2266,-0.08698 0.3457,-0.265575 0.2646,-0.396875 -0.081,-0.1313 0.038,-0.309894 0.2645,-0.396875 0.2267,-0.08698 0.3458,-0.265575 0.2646,-0.396875 -0.081,-0.1313 0.038,-0.309894 0.2646,-0.396875 0.2267,-0.08698 0.354,-0.252258 0.2829,-0.367282 -0.071,-0.115024 0.056,-0.280301 0.2828,-0.367282 0.2267,-0.08698 0.3381,-0.27805 0.2475,-0.424599 -0.091,-0.146549 -0.032,-0.266452 0.1311,-0.266452 0.1627,0 0.2223,-0.119063 0.1323,-0.264583 -0.09,-0.145521 -0.03,-0.264584 0.1323,-0.264584 0.1627,0 0.2222,-0.119062 0.1323,-0.264583 -0.09,-0.145521 -0.03,-0.264583 0.1323,-0.264583 0.1627,0 0.2222,-0.11906 0.1323,-0.264576 -0.09,-0.14552 -0.03,-0.26459 0.1323,-0.26459 0.1627,0 0.2371,-0.095 0.1653,-0.21107 -0.072,-0.11609 -0.021,-0.38398 0.1127,-0.59531 0.2006,-0.31717 0.2438,-0.30189 0.2471,0.0876 0.01,0.67949 -1.1561,2.900014 -2.8261,5.400671 -1.0538,1.577929 -1.4011,2.316354 -1.2755,2.71198 0.095,0.299009 0.1073,0.543653 0.028,0.543653 -0.08,0 -0.2226,-0.30897 -0.3174,-0.686599 z m -46.1895,-1.610808 c 0.191,-0.07643 0.4192,-0.06703 0.5071,0.02089 0.088,0.08792 -0.068,0.150453 -0.3472,0.138964 -0.3082,-0.0127 -0.3709,-0.07539 -0.1599,-0.159852 z m -0.1913,-0.92169 c 0.1427,-0.266788 0.2894,-0.48507 0.3258,-0.48507 0.037,0 0.066,0.218282 0.066,0.48507 0,0.266788 -0.1466,0.485069 -0.3259,0.485069 -0.234,0 -0.2527,-0.136735 -0.066,-0.485069 z m 1.051,-1.520573 c 0.3728,-0.496767 0.8793,-0.932799 1.1257,-0.968961 0.2464,-0.03616 0.3797,0.0448 0.2962,0.179923 -0.084,0.13512 -0.2492,0.185511 -0.3682,0.111979 -0.3376,-0.20864 -0.8743,0.590718 -0.6535,0.973368 0.1086,0.188276 0.1001,0.254055 -0.019,0.146177 -0.1191,-0.107878 -0.4061,-0.04835 -0.6378,0.132292 -0.2316,0.180638 -0.1162,-0.07801 0.2566,-0.574778 z m 2.7547,-3.136499 c 1.0148,-1.05238 1.9002,-1.91341 1.9677,-1.91341 0.068,0 -0.2194,0.35719 -0.6377,0.79375 -0.4182,0.43656 -0.6602,0.79375 -0.5376,0.79375 0.1225,0 0.01,0.23885 -0.2576,0.53079 -0.2642,0.291926 -0.5423,0.468855 -0.618,0.393165 -0.076,-0.07569 -0.503,0.189301 -0.9497,0.588868 -0.4466,0.399568 0.018,-0.134546 1.0329,-1.186913 z m 0.4377,0.005 c 0.3291,-0.41965 0.3198,-0.42901 -0.1,-0.0999 -0.4407,0.34564 -0.5808,0.562906 -0.3631,0.562906 0.055,0 0.2633,-0.208356 0.463,-0.463016 z m -0.034,0.859889 c 0.3418,-0.363803 0.6809,-0.661459 0.7537,-0.661459 0.073,0 -0.1474,0.297656 -0.4891,0.661459 -0.3418,0.363802 -0.681,0.661458 -0.7537,0.661458 -0.073,0 0.1473,-0.297656 0.4891,-0.661458 z m 29.7644,0.134299 c 0.091,-0.146625 0.01,-0.270378 -0.1816,-0.275006 -0.2136,-0.0052 -0.1495,-0.157286 0.1672,-0.396876 0.2825,-0.213646 0.4168,-0.388456 0.2984,-0.388456 -0.1184,0 -0.067,-0.17859 0.1141,-0.39687 0.5494,-0.66203 1.0858,-0.50367 0.8041,0.23737 -0.1327,0.34884 -0.1887,0.686686 -0.1246,0.750771 0.064,0.06408 -0.1893,0.255824 -0.563,0.426088 -0.3923,0.178752 -0.6098,0.196914 -0.5146,0.04298 z m -9.0351,-0.813558 c -1.3635,-0.50439 -1.0162,-1.45034 0.6227,-1.69611 2.0844,-0.31257 2.5978,0.98075 0.6578,1.65704 -0.3925,0.136816 -0.9687,0.154396 -1.2805,0.0391 z m 1.5183,-0.62969 c 0.1331,0.0823 0.242,-0.0757 0.242,-0.35113 0,-0.27537 -0.1786,-0.50068 -0.3969,-0.50068 -0.2183,0 -0.3969,0.1131 -0.3969,0.25134 0,0.13824 -0.234,0.19014 -0.5201,0.11533 -0.692,-0.18095 -0.5717,0.42436 0.1232,0.62057 0.2911,0.0822 0.5691,0.0517 0.618,-0.0678 0.049,-0.11945 0.1976,-0.14989 0.3307,-0.0676 z m -20.2632,-0.41084 c -0.09,-0.14552 -0.1268,-0.27369 -0.082,-0.28483 0.8711,-0.21569 1.0194,-0.18019 0.7256,0.17378 -0.3707,0.44665 -0.4301,0.45689 -0.6438,0.11105 z m 2.2489,-0.20789 c 0,-0.11433 0.2294,-0.20788 0.5098,-0.20788 0.2803,0 0.4519,0.0936 0.3812,0.20788 -0.071,0.11434 -0.3,0.20789 -0.5097,0.20789 -0.2097,0 -0.3813,-0.0935 -0.3813,-0.20789 z m 28.575,-0.53294 c 0,-0.11642 0.1488,-0.38115 0.3307,-0.58829 0.1819,-0.20715 0.062,-0.15232 -0.2662,0.12185 -0.3283,0.27416 -0.6768,0.4186 -0.7744,0.32097 -0.098,-0.0976 0.04,-0.33669 0.3063,-0.53125 0.3781,-0.27649 0.4083,-0.40041 0.1382,-0.56732 -0.2408,-0.14885 -0.2819,-0.11061 -0.1355,0.12623 0.2458,0.39781 0.238,0.39482 -1.9215,-0.73043 -3.7474,-1.95273 -10.1609,-3.45576 -11.5572,-2.70849 -0.3502,0.18743 -0.832,0.26587 -1.0707,0.17429 -0.2386,-0.0916 -0.6805,-0.0345 -0.982,0.12688 -0.4061,0.2173 -0.7989,0.21066 -1.5147,-0.0256 -0.7349,-0.24252 -1.2342,-0.24689 -2.0835,-0.0182 -0.9425,0.25379 -1.2091,0.23279 -1.7073,-0.13443 -0.5752,-0.42407 -0.5632,-0.43088 0.468,-0.2663 0.6559,0.10467 0.9245,0.0787 0.7063,-0.0682 -0.5134,-0.34566 1.0626,-0.61092 2.7144,-0.4569 1.0254,0.0956 1.1546,0.0725 0.5481,-0.0982 -0.5439,-0.15298 0.2056,-0.22326 2.3812,-0.22326 2.1756,0 2.9252,0.0703 2.3813,0.22326 -0.6022,0.16937 -0.4668,0.19265 0.561,0.0964 1.5225,-0.14254 4.3284,0.35235 3.8109,0.67216 -0.1832,0.11323 0.1216,0.19355 0.6932,0.18266 1.1528,-0.022 4.6718,1.52931 6.9511,3.06431 1.2998,0.87529 1.3612,0.96311 0.8606,1.23097 -0.6416,0.3434 -0.8383,0.36141 -0.8383,0.0768 z m -0.7937,-1.49882 c 0,-0.0676 -0.2679,-0.2528 -0.5953,-0.41147 -0.5717,-0.27703 -0.575,-0.27214 -0.082,0.12298 0.5399,0.43249 0.6771,0.49096 0.6771,0.28849 z m -15.412,-3.2344 c -0.2547,-0.0666 -0.6714,-0.0666 -0.9261,0 -0.2546,0.0665 -0.046,0.121 0.4631,0.121 0.5093,0 0.7176,-0.0545 0.463,-0.121 z m 7.932,0.0225 c -0.088,-0.0879 -0.3161,-0.0973 -0.5071,-0.0209 -0.2111,0.0845 -0.1484,0.14716 0.1598,0.15985 0.2789,0.0115 0.4352,-0.0511 0.3473,-0.13896 z m -10.181,-0.27996 c -0.1819,-0.0734 -0.4795,-0.0734 -0.6614,0 -0.1819,0.0734 -0.033,0.13345 0.3307,0.13345 0.3638,0 0.5126,-0.0601 0.3307,-0.13345 z m 8.7313,0 c -0.1819,-0.0734 -0.4796,-0.0734 -0.6615,0 -0.1819,0.0734 -0.033,0.13345 0.3308,0.13345 0.3638,0 0.5126,-0.0601 0.3307,-0.13345 z m 11.7236,4.85976 c 0.109,-0.28422 3.81,-2.30328 4.2219,-2.30328 0.07,0 0.1279,0.1389 0.1279,0.30868 0,0.16977 -0.076,0.23268 -0.1689,0.1398 -0.1808,-0.18082 -3.6081,1.63113 -3.7557,1.9856 -0.1501,0.36032 -0.5648,0.23277 -0.4252,-0.1308 z m -32.9564,-0.28651 c 0,-0.0549 0.2083,-0.2633 0.463,-0.46302 0.4196,-0.32911 0.429,-0.31975 0.1,0.0999 -0.3457,0.44073 -0.5629,0.58089 -0.5629,0.36313 z m 44.3177,-0.42927 c -0.09,-0.14552 -0.037,-0.26458 0.1167,-0.26458 0.1541,0 0.2802,0.11906 0.2802,0.26458 0,0.14552 -0.053,0.26458 -0.1167,0.26458 -0.064,0 -0.1903,-0.11906 -0.2802,-0.26458 z m -43.1449,-0.5003 c 0.1887,-0.30543 1.2084,-0.92146 1.2084,-0.73007 0,0.0611 -0.3123,0.31581 -0.694,0.56592 -0.3817,0.25012 -0.6132,0.32398 -0.5144,0.16415 z m 30.048,-0.31709 c -0.5699,-0.46611 -0.5811,-0.50174 -0.081,-0.25728 0.3193,0.15607 0.6538,0.40219 0.7432,0.54692 0.2388,0.3864 0.079,0.31626 -0.6623,-0.28964 z m 12.7,-0.11696 c 0,-0.22285 -0.2084,-0.48407 -0.463,-0.58051 -0.4881,-0.1848 -1.2762,-0.86639 -1.0018,-0.86639 0.088,0 0.4588,0.19545 0.8234,0.43434 0.755,0.49469 1.3509,1.41774 0.9153,1.41774 -0.1506,0 -0.2739,-0.18233 -0.2739,-0.40518 z m -6.35,-0.59588 c 0,-0.14966 0.557,-0.4619 1.2378,-0.69386 1.3041,-0.44438 3.2601,-0.56973 3.2601,-0.20892 0,0.11705 -0.506,0.19513 -1.1245,0.17351 -0.6184,-0.0216 -1.2733,0.0758 -1.4552,0.21645 -0.1819,0.14067 -0.3307,0.16707 -0.3307,0.0587 0,-0.1084 -0.1786,-0.0489 -0.3969,0.13229 -0.2183,0.18116 -0.3968,0.24069 -0.3968,0.13229 0,-0.10839 -0.1786,-0.0489 -0.3969,0.1323 -0.2348,0.19484 -0.3969,0.21823 -0.3969,0.0573 z m -31.2208,-1.90935 c 0.2182,-0.14107 0.5159,-0.25649 0.6614,-0.25649 0.1455,0 0.086,0.11542 -0.1323,0.25649 -0.2182,0.14106 -0.5159,0.25648 -0.6614,0.25648 -0.1455,0 -0.086,-0.11542 0.1323,-0.25648 z m 19.8437,0 c -0.2183,-0.14107 -0.2778,-0.25649 -0.1323,-0.25649 0.1455,0 0.4432,0.11542 0.6615,0.25649 0.2183,0.14106 0.2778,0.25648 0.1323,0.25648 -0.1455,0 -0.4432,-0.11542 -0.6615,-0.25648 z m -3.4892,-1.23908 c 0.191,-0.0764 0.4192,-0.067 0.5071,0.0209 0.088,0.0879 -0.068,0.15045 -0.3472,0.13897 -0.3082,-0.0127 -0.3709,-0.0754 -0.1599,-0.15986 z m -11.3771,-0.26458 c 0.191,-0.0764 0.4192,-0.067 0.5072,0.0209 0.088,0.0879 -0.068,0.15045 -0.3473,0.13896 -0.3082,-0.0127 -0.3709,-0.0754 -0.1599,-0.15985 z m 10.0542,0 c 0.191,-0.0764 0.4192,-0.067 0.5071,0.0209 0.088,0.0879 -0.068,0.15045 -0.3472,0.13896 -0.3083,-0.0127 -0.371,-0.0754 -0.1599,-0.15985 z m -8.3459,-0.2672 c 0.2575,-0.0671 0.6147,-0.0627 0.7938,0.01 0.1791,0.0725 -0.032,0.12736 -0.4681,0.12197 -0.4365,-0.005 -0.5831,-0.0647 -0.3257,-0.13177 z m 6.35,0 c 0.2575,-0.0671 0.6147,-0.0627 0.7938,0.01 0.1791,0.0725 -0.032,0.12736 -0.4681,0.12197 -0.4365,-0.005 -0.5831,-0.0647 -0.3257,-0.13177 z m -3.5721,-0.27298 c 0.4755,-0.0589 1.1899,-0.0577 1.5875,0.003 0.3975,0.0604 0.01,0.10855 -0.8647,0.10707 -0.8731,-0.002 -1.1984,-0.0509 -0.7228,-0.10977 z"
       id="path6730" />
  </g>
</svg>
