<?xml version="1.0" encoding="UTF-8" standalone="no"?>
<svg
   xmlns:dc="http://purl.org/dc/elements/1.1/"
   xmlns:cc="http://creativecommons.org/ns#"
   xmlns:rdf="http://www.w3.org/1999/02/22-rdf-syntax-ns#"
   xmlns:svg="http://www.w3.org/2000/svg"
   xmlns="http://www.w3.org/2000/svg"
   xmlns:sodipodi="http://sodipodi.sourceforge.net/DTD/sodipodi-0.dtd"
   xmlns:inkscape="http://www.inkscape.org/namespaces/inkscape"
   width="145.42487mm"
   height="66.675011mm"
   viewBox="0 0 145.42487 66.675008"
   version="1.1"
   id="svg8"
   inkscape:version="1.0.1 (3bc2e81, 2020-09-07)"
   sodipodi:docname="uav.svg">
  <defs
     id="defs2" />
  <sodipodi:namedview
     id="base"
     pagecolor="#ffffff"
     bordercolor="#666666"
     borderopacity="1.0"
     inkscape:pageopacity="0.0"
     inkscape:pageshadow="2"
     inkscape:zoom="0.56502978"
     inkscape:cx="433.15227"
     inkscape:cy="143.63385"
     inkscape:document-units="mm"
     inkscape:current-layer="layer1"
     inkscape:document-rotation="0"
     showgrid="false"
     inkscape:window-width="1338"
     inkscape:window-height="696"
     inkscape:window-x="14"
     inkscape:window-y="58"
     inkscape:window-maximized="0" />
  <metadata
     id="metadata5">
    <rdf:RDF>
      <cc:Work
         rdf:about="">
        <dc:format>image/svg+xml</dc:format>
        <dc:type
           rdf:resource="http://purl.org/dc/dcmitype/StillImage" />
        <dc:title></dc:title>
      </cc:Work>
    </rdf:RDF>
  </metadata>
  <g
     inkscape:label="Layer 1"
     inkscape:groupmode="layer"
     id="layer1"
     transform="translate(18.276603,-143.86211)">
    <path
       style="fill:#040404;stroke:none;stroke-width:0.264583"
       d="m 67.448397,143.86211 c -1.79335,1.36838 -4.63206,4.02302 -6.87917,4.23334 -5.08476,5.88168 -13.25615,9.11675 -20.10833,12.35075 -2.48761,1.17395 -5.05434,3.34592 -7.67292,4.07881 -1.11522,0.31195 -2.29843,-0.21775 -3.43958,-0.0254 l 1.85208,1.05834 c -1.18242,0.55218 -2.3868,1.54516 -3.70416,1.72402 -2.92709,0.39767 -7.25408,-2.01295 -10.05417,-2.85644 -7.4625695,-2.24816 -14.8267195,-4.62174 -22.4895795,-6.15712 -3.66689,-0.73475 -11.3251805,-2.6916 -13.2291705,1.99787 4.96975,2.03888 9.7496005,4.74768 14.8166705,6.5233 6.4725,2.26828 13.5043295,3.71925 19.5791595,6.97045 l -15.61040951,8.15446 -3.99242999,2.60324 -3.94507,-0.70353 c 1.5667,1.89071 4.04759,2.63155 6.07009,3.89837 2.33121999,1.45997 4.97758,4.31932 8.21741,3.50996 -1.46659,-1.89997 -4.06982,-3.30253 -6.35000001,-3.96875 2.59238001,-5.08476 7.92850001,-6.81487 12.69999951,-9.525 1.5486,-0.87947 4.01134,-2.84956 5.82083,-2.8821 1.28191,-0.023 2.78421,0.84772 3.96875,1.28058 2.72627,0.99616 5.49407,1.87986 8.20208,2.92444 -3.14616,4.46643 -8.3939,5.78988 -12.21581,9.41361 -1.64994,1.56475 -3.48641,3.46789 -2.86544,5.93222 h 0.26459 c 0.16907,-1.92431 1.10172,-3.35968 2.38125,-4.7625 0,3.76 3.01942,5.26706 6.61458,3.84202 1.01282,-0.40164 2.29738,-1.76371 3.43958,-1.50628 3.24618,0.73158 4.15978,5.42582 5.02709,7.98301 h 0.26458 c -0.0669,-3.23823 -1.35678,-7.26546 -4.49792,-8.73125 v -0.52916 c 2.0574,-0.65114 3.72454,-2.39792 5.82084,-2.90804 1.33482,-0.32464 2.40559,0.69638 3.70416,0.64876 2.31352,-0.0849 3.69544,-3.06996 4.49792,-4.88447 l 12.17083,4.49791 c -3.62691,3.47081 -7.88246,6.56511 -11.90625,9.56654 -2.15635,1.60814 -4.57253,2.83422 -5.55625,5.51471 -2.62837,-0.75141 -5.94995,-3.14404 -8.73125,-2.38125 3.38297,3.94917 8.12007,3.97325 12.43542,5.90339 3.19352,1.42849 6.45372,3.85392 10.05417,3.8862 v -0.26458 c -2.2778,-1.39409 -4.66276,-2.84665 -7.14375,-3.8489 -0.78026,-0.31512 -2.40851,-0.48789 -2.77628,-1.36472 -0.43788,-1.04405 1.78224,-4.03648 2.51672,-4.68445 3.14775,-2.77601 6.53944,-5.28188 9.78456,-7.9412 1.16654,-0.95621 2.85803,-2.98371 4.38573,-3.25967 1.2065,-0.21775 2.97154,0.92895 4.08093,1.33959 3.43456,1.27079 6.88843,2.48972 10.31875,3.77216 11.76549,4.39843 23.72995,8.03566 35.718753,11.76047 3.17765,0.98742 6.36138,1.96003 9.525,2.99111 1.11258,0.36275 3.05832,1.33007 4.22275,1.02712 1.46871,-0.38206 5.45598,-6.32408 4.15581,-7.54407 -1.17951,-1.10675 -3.4663,-1.52162 -4.93897,-2.15001 -3.60575,-1.53881 -7.20672,-3.08716 -10.84792,-4.54369 -9.07944,-3.63193 -18.244873,-6.71671 -27.516673,-9.80731 -4.92839,-1.6428 -10.00019,-3.79915 -15.08125,-4.8506 l 4.23334,-3.10806 3.96875,1.64412 7.67291,1.46394 c -1.37795,-2.38522 -6.74687,-2.96598 -9.26041,-3.43959 2.85273,-5.21176 7.6237,-8.63891 12.17083,-12.27667 1.93754,-1.54992 4.95088,-3.20992 6.08542,-5.45041 h -0.79375 v -0.26459 l 1.5875,-1.32291 -5.02709,-10.05417 c -7.08792,2.68658 1.3253,9.2329 -0.42518,14.01895 -0.53896,1.47346 -2.6162,2.61355 -3.80815,3.53616 -3.19114,2.46988 -6.58918,4.47913 -9.77926,6.89901 -1.38325,1.04933 -2.76781,2.98132 -4.50824,3.41868 -1.81822,0.45667 -4.49898,-0.90064 -6.35,-1.14988 v 0.26458 l 5.82083,1.5875 -4.23333,2.99032 -4.49792,-1.22634 -10.31875,-3.35148 v -0.52916 l 6.35,-1.32292 -9.33582,0.71067 -7.06834,-2.29817 -10.84792,-3.70417 5.44407,-1.84494 8.84343,2.10952 v -0.26458 l -6.87917,-2.11667 c 5.4782,-7.6192 15.82288,-10.14465 23.01875,-15.76271 1.61052,-1.25746 7.06332,-4.24561 6.87917,-6.46229 z"
       id="path861" />
  </g>
</svg>
