<?xml version="1.0" encoding="UTF-8" standalone="no"?>
<svg
   xmlns:dc="http://purl.org/dc/elements/1.1/"
   xmlns:cc="http://creativecommons.org/ns#"
   xmlns:rdf="http://www.w3.org/1999/02/22-rdf-syntax-ns#"
   xmlns:svg="http://www.w3.org/2000/svg"
   xmlns="http://www.w3.org/2000/svg"
   xmlns:sodipodi="http://sodipodi.sourceforge.net/DTD/sodipodi-0.dtd"
   xmlns:inkscape="http://www.inkscape.org/namespaces/inkscape"
   width="157.95625mm"
   height="45.708851mm"
   viewBox="0 0 157.95625 45.708849"
   version="1.1"
   id="svg8"
   inkscape:version="1.0.1 (3bc2e81, 2020-09-07)"
   sodipodi:docname="uav2.svg">
  <defs
     id="defs2" />
  <sodipodi:namedview
     id="base"
     pagecolor="#ffffff"
     bordercolor="#666666"
     borderopacity="1.0"
     inkscape:pageopacity="0.0"
     inkscape:pageshadow="2"
     inkscape:zoom="0.55543025"
     inkscape:cx="311.96045"
     inkscape:cy="101.85399"
     inkscape:document-units="mm"
     inkscape:current-layer="layer1"
     inkscape:document-rotation="0"
     showgrid="false"
     inkscape:window-width="1338"
     inkscape:window-height="696"
     inkscape:window-x="14"
     inkscape:window-y="58"
     inkscape:window-maximized="0" />
  <metadata
     id="metadata5">
    <rdf:RDF>
      <cc:Work
         rdf:about="">
        <dc:format>image/svg+xml</dc:format>
        <dc:type
           rdf:resource="http://purl.org/dc/dcmitype/StillImage" />
        <dc:title></dc:title>
      </cc:Work>
    </rdf:RDF>
  </metadata>
  <g
     inkscape:label="Layer 1"
     inkscape:groupmode="layer"
     id="layer1"
     transform="translate(-30.851803,-90.665961)">
    <path
       style="fill:#010101;stroke:none;stroke-width:0.264583"
       d="m 116.84138,91.131017 -0.79375,-0.264583 v 5.291667 c 0.83873,0 0.56832,0.637645 0.52917,1.322916 l 0.26458,0.264584 v 0.264583 l 0.79375,0.264583 v 1.5875 l 0.79375,-0.79375 0.79375,2.645833 0.52917,-0.52917 h 0.26458 c 0.63077,1.11522 1.19433,1.89495 0.79375,3.175 l 0.52917,-0.52916 h 0.26458 v 1.05833 h 0.26458 l 0.52917,-1.05833 -0.26458,1.05833 0.79375,0.26458 -0.79375,2.91042 -1.05834,-0.26458 0.26459,1.5875 h -1.32292 v 1.05833 h -0.26458 v -1.05833 h -0.52917 l -0.26458,1.85208 -1.32292,-0.26458 c -0.14314,0.91678 -0.36777,1.3298 -1.32292,1.05833 l -0.79375,1.05834 0.26459,-0.52917 h -1.05834 l -0.26458,1.05833 h 0.26458 v -0.52916 h 0.26459 l -0.52917,1.5875 -3.175,-0.52917 -0.26458,0.79375 h -0.26459 v -0.79375 c -0.69426,0.27702 -1.32291,0.84772 -0.26458,1.05833 v 0.26459 l -1.32292,0.79375 -2.38125,-0.52917 -2.38125,-0.26458 0.52917,-1.32292 -1.5875,0.52917 -3.175,-0.79375 -0.793747,0.26458 0.26458,-0.79375 h -1.05833 v -0.26458 h 0.52917 v -0.26459 l -0.79375,0.26459 c -0.61886,-0.63818 -1.18507,-0.17357 -1.85209,0.26458 l -0.26458,-0.79375 -0.52917,0.52917 -3.175,-0.79375 0.79375,-1.32292 h -1.05833 l -0.26458,-1.5875 c 0.79798,-0.26591 1.24486,-0.48181 1.05833,0.26458 l 0.52917,-0.52917 h -0.26459 l 1.32292,-1.05833 -0.26458,-0.52917 h 0.26458 l 2.38125,0.52917 -0.79375,-1.05833 0.79375,-1.05834 h 0.26458 c 1.81425,2.07619 2.795587,-1.46632 3.968747,-2.11666 0.18204,1.09246 2.58181,0.6469 3.175,0 h -2.64583 v -0.26459 l 7.67292,-0.26458 0.26458,-1.05833 -1.05833,-0.79375 0.52916,0.52916 v 0.26459 l -0.79375,-0.52917 -1.32291,-0.26458 h -0.26459 -0.26458 l -5.82083,0.11244 -11.377087,0.0347 -5.02708,-0.1471 0.26458,1.85208 0.79375,-0.52917 c 0.35322,0.5215 0.54796,0.24792 0.79375,-0.26458 h 0.26459 c 1.74625,1.08638 6.57939,0.52917 8.73125,0.52917 l -0.26459,2.11666 -1.05833,-0.52916 -0.26458,0.26458 0.52916,1.05833 -2.91041,0.26459 0.79375,0.52916 v 0.26459 h -1.32292 l -0.52917,1.85208 -0.52916,-0.79375 h -0.26459 l 0.26459,1.32292 h -0.26459 v -0.52917 h -0.26458 l -2.91042,1.5875 0.52917,-1.05833 h -1.05833 v 0.79375 h -0.26459 l -1.05833,-0.79375 h -1.85208 v -0.26459 h 0.52916 v -0.26458 l -1.32291,0.26458 0.52916,-0.52916 v -0.26459 l -0.52916,-0.52916 c -1.05305,0.32014 -1.76266,0.81862 -2.64584,0 l -1.05833,0.26458 -0.52917,-1.05833 -0.52916,0.52916 h -0.26459 -0.26458 v -0.52916 l -2.91042,-1.05834 c -0.83846,0.15452 -1.69889,-0.20426 -1.05833,-1.05833 l -2.38125,-0.26458 v 0.52916 l -1.5875,-0.52916 0.26458,-0.79375 -1.32291,0.52916 0.79375,-1.32291 -1.05834,1.05833 -1.5875,-1.05833 h -1.85208 c 0.15214,-0.63395 0.12568,-0.65802 -0.52917,-0.79375 v -0.26459 h 0.79375 v -0.26458 l -5.02708,-0.26458 0.26458,-0.79375 h -1.32291 l 0.79375,-0.52917 c -1.73382,-0.10954 -3.26816,0.13785 -4.23334,-1.5875 -1.65393,0.09102 -3.43077,0.04075 -4.7625,-1.058334 l 0.79375,0.264584 c -0.13676,-0.650346 -0.41875,-0.932127 -0.79375,-0.264584 h -0.26458 c -0.10464,-0.889529 -4.1184,-0.212725 -2.91042,-1.852083 -2.11611,-0.503767 -4.59644,0.222514 -6.35,-1.322917 l 1.5875,-0.529167 h -2.11666 l 0.26458,0.79375 -0.79375,-0.79375 -3.43958,-1.058333 h 1.05833 v -0.264583 l -1.5875,-0.264584 v 0.79375 l -1.05833,-0.264583 0.52916,-0.264583 v -0.264584 h -2.91041 l 0.26458,0.79375 -0.52917,0.79375 h -0.26458 v -1.322916 h -0.26458 v 1.852083 l 0.79375,1.058333 0.52916,-0.529166 h 0.26459 l 0.52916,0.264583 v 0.264583 l -0.79375,0.264584 v 0.264583 l 0.79375,0.264584 v -0.529167 l 0.79375,0.79375 0.52917,-0.529167 c 0.90525,1.204913 1.76593,1.121834 1.05833,2.645834 l 1.5875,-0.264584 -0.52916,-0.529166 v -0.264584 l 1.05833,0.79375 h 1.32292 l -0.26459,0.79375 1.05834,-0.264583 -0.26459,1.058333 h 2.91042 c -0.41301,0.610654 -0.49826,0.701414 0.26458,0.793754 v 0.26458 h -0.79375 v 0.26458 l 1.5875,0.26459 1.05834,-0.52917 0.26458,0.79375 1.05833,-0.26458 1.5875,0.79375 2.38125,1.85208 3.175,0.52917 0.52917,1.32291 0.52917,-0.79375 -0.26459,0.52917 h 0.26459 l 2.38125,0.52917 -0.26459,1.32291 h 0.26459 l 0.26458,-1.05833 1.05833,0.26458 v 0.26459 l -1.05833,0.79375 h 1.32292 l -0.52917,-0.52917 1.32292,0.52917 2.91041,1.05833 -0.79375,-0.26458 4.49792,1.32291 -0.52917,1.05834 1.32292,0.26458 0.26458,-0.79375 2.38125,1.05834 4.23334,1.5875 v 0.26458 l -1.05834,0.26458 v 0.26459 l 4.22937,0.15531 2.38522,1.1676 0.26458,0.79375 1.85208,-0.79375 -0.79375,1.32292 h -1.05833 l 0.79375,0.26458 v 0.26459 l -1.5875,0.26458 0.52917,0.52917 -0.52917,0.52916 h -1.05833 l 0.52916,-0.79375 -0.79375,-0.26458 -0.26458,0.52917 v 0.52916 h 0.52917 v 0.26459 l -0.26459,0.79375 -1.32291,-0.52917 0.26458,0.52917 h -0.26458 l -2.64584,-1.5875 0.52917,0.52916 h 0.26458 l -0.79375,-1.05833 -0.26458,1.32292 h -0.26458 l -1.05834,-1.32292 v 0.26458 l 0.79375,0.26459 v 0.26458 l -2.11666,-1.05833 0.52916,-1.32292 h -1.05833 l -0.26458,0.79375 h -0.26459 l 0.26459,-0.79375 h -2.38125 l 0.52916,2.38125 0.52917,0.26458 v 0.26459 l 1.85208,0.79375 v 0.26458 l -0.79375,0.79375 h 1.32292 c 2.35453,0.31168 1.11972,2.54 2.11667,3.96875 -0.43471,0.55007 -0.31301,0.68289 0.26458,1.05833 l -0.26458,-0.79375 0.52916,0.52917 c 1.78938,-0.89482 2.10582,-2.1037 4.23334,-1.32292 l -0.52917,1.05834 4.49792,0.52916 -0.79375,-0.79375 v -0.26458 l 0.79375,-0.26458 v -0.26459 l -1.5875,-0.26458 0.52916,-0.26458 v -0.26459 h -0.79375 v -0.26458 h 0.52917 v -0.26458 l -3.43958,-0.79375 v -0.26459 l 1.85208,-1.32291 1.85208,0.52916 -0.52916,-0.52916 v -0.26459 l 2.91041,-2.91041 2.11667,0.52916 0.26458,-0.79375 h -0.79375 l 1.85209,-0.26458 -0.52917,1.05833 1.05833,-0.79375 h 0.26459 l 2.64583,1.5875 1.32292,-0.52916 -1.05834,0.79375 v 0.26458 l 2.64584,-0.52917 -0.26459,0.52917 h 0.26459 l 5.82083,1.05833 v 0.26459 h -0.52917 v 0.26458 l 1.5875,-0.26458 -0.26458,1.05833 2.645827,0.26458 v -0.26458 h -0.52916 v -0.26458 l 1.32291,0.79375 h -1.85208 v 0.26458 l 1.5875,0.79375 h 0.26458 l 0.52917,-0.79375 -0.79375,2.11667 -1.5875,-0.52917 c -0.009,1.09511 -0.319347,1.65735 -1.322917,2.11667 v -0.26459 h 0.52917 v -0.26458 l -0.79375,0.26458 0.26458,0.79375 -1.85208,0.26459 v 1.05833 h -0.26458 l -1.32292,-0.79375 v 2.11667 l -1.32292,-0.52917 -0.26458,1.32292 h -1.5875 v 1.05833 l 0.79375,-0.26458 c -1.51686,1.39012 -3.57399,1.45044 -5.55625,1.05833 0.037,1.19248 -0.47493,1.55575 -1.5875,1.85208 v 1.05834 l 2.91042,-0.26459 h 0.26458 l 1.32292,0.52917 v -0.79375 l 2.11666,0.52917 -1.05833,-1.32292 5.02708,-0.52917 h 0.26459 0.26458 l 1.85208,0.26459 -0.26458,0.52916 h 1.32292 l -0.52917,0.79375 5.291667,0.52917 h 0.26458 l 0.52917,-2.38125 h 0.26458 l 0.26458,0.52917 c 0.77021,-0.76068 1.2155,-0.50139 2.11667,0 l 1.5875,-0.79375 v 0.26458 h -1.05833 v 0.26458 l 1.85208,0.26459 c 0,-1.01838 3.07896,-0.52917 3.96875,-0.52917 v 0.26458 l -3.43958,0.26459 v 0.26458 l 4.49791,0.26458 -0.26458,1.32292 1.05833,0.26458 -0.26458,1.05834 0.79375,-0.52917 0.79375,0.79375 -0.52917,-0.79375 2.11667,-1.05833 v -1.32292 l 6.61458,-0.52917 h 0.26459 0.26458 c 0.29819,0.53076 0.49556,0.53076 0.79375,0 l 3.175,0.26459 v -1.05834 h -1.05833 l 0.26458,-1.05833 h -1.32292 l 0.52917,-0.52917 v -0.26458 l -1.05833,0.52917 c -0.73475,-0.49689 -1.08903,-0.31512 -1.32292,0.52916 h -3.70417 v -0.26458 l 0.79375,-0.79375 h 0.26459 v 0.79375 h 1.5875 v -0.26458 l -1.32292,-0.26459 v -0.26458 l 2.11667,0.26458 v -0.26458 l -0.79375,-1.32292 1.32291,-0.26458 0.26459,-1.05833 2.11666,1.05833 v -0.52917 l 7.67292,0.79375 v 0.26459 l -1.85208,0.79375 h 2.64583 v -0.26459 h -0.79375 v -0.26458 h 0.79375 v -0.26458 h -0.52917 v -0.26459 h 1.5875 v 0.26459 l -0.52916,0.79375 h 3.43958 v -0.26459 h -0.79375 v -0.26458 h 1.5875 v 0.79375 l 3.70417,-0.52917 v 0.26459 h -0.52917 v 0.26458 l 11.37708,0.52917 v 0.52916 h -1.32291 v 0.26459 c 0.81438,-0.0132 1.47796,0.0786 1.5875,-0.79375 l 1.05833,1.05833 16.40417,0.26458 v 0.26459 h -1.5875 v 0.79375 h 1.5875 v -0.79375 l 3.43958,0.26458 -0.26458,-0.52917 4.49791,0.52917 v 0.26458 h -1.05833 v 0.26459 l 2.64583,-0.52917 -0.52916,-0.26458 v -0.26459 l 5.55625,-0.26458 -0.52917,-1.5875 -5.02708,-0.26458 0.79375,-1.32292 h -0.26459 -0.26458 l -1.05833,1.05833 c -0.10134,-0.81994 -0.74824,-0.96017 -1.58274,-0.90275 -2.60324,0.17885 -5.11889,-0.12224 -7.67768,-0.68475 l 0.26458,-0.79375 -1.85208,-0.26458 h -0.26458 v 1.05833 l -1.05834,-0.26458 0.26459,-0.79375 c -0.81915,0.27305 -2.37967,1.05172 -2.11667,0 l -6.87917,-0.26458 0.79375,-0.79375 v -0.26459 c -1.39805,0.10266 -2.25927,1.10014 -3.43958,0 h 1.85208 v -0.26458 h -2.64583 l 0.26458,0.79375 -10.31875,-1.85208 0.26459,0.52916 h -1.05834 v -0.26458 l 0.52917,-0.26458 -5.82083,-0.26459 -2.11667,-1.05833 -1.32292,0.26458 v -0.52916 h 1.5875 v -0.26459 l -2.38125,-0.26458 c 0,1.18692 -2.10158,0.32835 -2.91041,0.26458 0.65775,-1.29196 1.98596,-2.27356 3.43958,-2.38125 l -0.79375,-0.52916 v -0.26459 l 1.05833,-0.52916 h 1.32292 v -1.5875 l 0.79375,0.52916 0.79375,-0.52916 c 0.12462,-1.07924 0.95409,-1.16338 1.85208,-1.5875 l 0.26459,0.79375 -0.79375,0.26458 c 0.69268,0.70564 1.16575,0.78105 2.11666,0.52917 v 0.52916 h 1.85209 l -0.52917,0.79375 c 1.83303,-0.14631 1.2663,-1.25888 1.05833,-2.64583 -0.83132,0.045 -2.89031,-0.48234 -2.11666,-1.5875 l -1.05834,-0.26458 0.52917,-1.32292 -1.5875,0.52917 -1.05833,-1.32292 v 0.26458 l 0.52916,0.52917 -1.85208,-1.05833 0.79375,0.26458 c -0.42439,-0.66516 -0.66172,-0.68395 -1.32292,-0.26458 l -0.26458,-2.11667 h -0.26458 l -0.26459,0.52916 -1.05833,-0.79375 -0.79375,0.52917 0.52917,-0.79375 -0.52917,-1.05833 h -3.96875 l 0.26458,1.5875 -0.26458,1.5875 h 0.26458 v -1.32292 c 0.61278,0.36777 0.62812,0.82762 0.79375,0 h 0.26459 l 0.26458,1.85209 0.26458,-0.79376 h 0.26459 l -0.79375,1.05834 c 0.19843,0.92154 0.72019,0.76676 1.05833,0 l 0.52917,1.05833 h 1.05833 l -0.26458,-0.52916 h 0.26458 l 1.05833,0.79375 v 0.79375 l -0.52916,2.38125 -1.05834,-0.52917 -0.52916,0.79375 0.79375,0.26458 v 0.26459 l -0.79375,0.52916 c -0.72232,-0.0323 -1.07527,0.0511 -0.79375,0.79375 -1.70551,0.55801 -3.32026,0.67337 -4.23334,2.38125 l -5.82083,-0.79375 -1.32292,0.26459 c 0.41302,-0.61066 0.49821,-0.70141 -0.26458,-0.79375 v -0.26459 h 0.79375 v -0.26458 c -1.13295,0 -2.43972,1.29222 -2.11667,0 l -2.38125,0.52917 v -0.26459 h 0.52917 v -0.26458 l -3.43958,-0.26458 v -0.26459 l 0.52916,-0.52916 -0.52916,0.26458 v -0.26458 -3.70417 l 0.79375,-0.26458 c 0.71622,0.81941 0.87788,-0.46144 0.79375,-1.05834 l 0.26458,-0.26458 0.79375,0.26458 c 0,-0.64452 0.20796,-0.4273 0.79375,-0.26458 l -0.26458,-1.05833 h 1.05833 l -0.52917,0.79375 c 0.91652,-0.25877 1.18587,-0.65458 1.32292,-1.58751 l 1.5875,0.26459 1.32292,-2.11667 -0.52917,0.52917 v 0.26458 c 0.77285,-0.50588 0.71173,-0.9779 0.52917,-1.85208 l 0.26458,-0.26459 1.32292,0.52917 v -0.26458 l -0.52917,-0.26459 0.52917,-0.79375 2.38125,-0.26458 c -0.18495,-0.92445 0.6768,-0.59029 0.52916,0 h 0.26459 l -0.26459,-1.32292 3.70417,-0.52916 -0.26458,-1.05834 1.05833,-0.79375 h 0.26458 l 2.11667,0.52917 -0.52917,-0.79375 0.52917,-1.05833 0.79375,0.26458 2.38125,-0.26458 -0.52917,-0.79375 h 0.52917 l -0.52917,-0.793754 1.5875,-0.264583 1.5875,-1.5875 V 97.7456 l 0.52917,-0.79375 -1.32292,0.529166 c -0.14631,-0.878681 -1.42266,-0.439737 -2.11666,-0.264583 l 0.52916,0.529167 v 0.264583 l -0.79375,0.79375 -1.32291,-0.529167 v 0.529167 h -1.5875 l 0.52916,0.529167 -0.52916,0.79375 -0.79375,-0.264584 -3.175,2.116664 -1.5875,-0.52916 -0.79375,0.26458 0.52916,1.05833 v 0.26459 c -2.032,0.0516 -1.81424,-1.29435 -2.38125,-2.91042 l -0.52916,0.52917 -0.79375,-0.52917 c 0.0876,-0.545571 -0.1196,-2.317486 -0.79375,-1.322917 l -1.85209,-1.322917 1.05834,-0.264583 -0.52917,0.79375 0.79375,-1.058333 -1.85208,0.529166 0.26458,-1.058333 h -0.26458 v 0.79375 h -0.26459 l -1.32291,-1.5875 0.79375,0.529167 0.79375,-0.529167 v -0.264584 l -1.32292,-0.529166 h -0.26458 v 0.79375 h -0.26459 l -0.52916,-0.529167 v -0.264583 l 0.79375,-1.058334 -1.05834,0.529167 -1.32291,-1.058333 1.05833,0.264583 c -0.52943,-0.848254 -1.12924,-1.100931 -2.11667,-1.058333 v -1.322917 l -1.05833,-0.264583 c -0.49768,-0.281517 -0.79772,-0.32729 -0.79375,0.264583 m 0.52917,0.264583 v 0.264584 l -0.52917,0.529166 h -0.26458 l 0.26458,-0.79375 h 0.52917 m 1.05833,0 v 0.529167 l -0.52917,-0.529167 h 0.52917 m 0.79375,1.322917 -0.26458,0.264583 0.26458,-0.264583 m 0.52917,0.264583 -0.26459,0.264584 0.26459,-0.264584 m -87.841667,1.058334 0.26458,0.79375 -0.26458,-0.79375 m 89.429167,0.529166 -0.26459,0.264584 0.26459,-0.264584 m -77.787497,1.058334 -0.26459,0.264583 0.26459,-0.264583 m 1.5875,0 0.79375,0.79375 v 0.264583 l -0.79375,-1.058333 m 0.79375,0 -0.26459,0.264583 0.26459,-0.264583 m -1.32292,0.264583 -0.26458,0.264584 0.26458,-0.264584 m -12.43542,0.529167 v 0.264583 l 1.32292,0.264584 -1.32292,-0.529167 m 83.961027,0.705644 0.0884,0.176212 -0.0884,-0.176212 m -79.727687,0.08811 -0.26459,0.264583 0.26459,-0.264583 m 12.17083,0.08811 c 0.20463,0 0.0424,0.131763 -0.0882,0.08837 l 0.0882,-0.08837 m 92.868747,0.441061 -0.79375,-0.529167 0.79375,0.529167 m -1.05833,-0.264584 -0.26459,0.264584 0.26459,-0.264584 m 2.11666,0 -0.26458,0.264584 0.26458,-0.264584 m -26.19375,0.264584 0.26459,0.264583 -0.26459,-0.264583 m -79.904157,0.352689 0.0882,0.08837 c -0.13057,0.04339 -0.29281,-0.08837 -0.0882,-0.08837 m 103.981247,-0.08811 -0.26459,0.264583 0.26459,-0.264583 m -85.460417,0.529167 0.26458,1.058333 0.79375,-0.264583 -1.05833,-0.79375 m 70.555637,0.176477 -0.0884,0.176212 0.0884,-0.176212 m -72.672307,0.08811 -0.26458,0.264583 0.26458,-0.264583 m 73.554167,0 -0.26458,0.264583 0.26458,-0.264583 m 10.84792,0.08811 c 0.20452,0 0.0423,0.131763 -0.0881,0.08837 l 0.0881,-0.08837 m -97.102087,0.176477 0.79375,0.264584 v 0.264583 c -0.58184,0.06085 -1.01044,0.09684 -0.79375,-0.529167 m 14.2875,0.529167 -1.05833,-0.264583 1.05833,0.264583 m -15.875,-0.264583 v 0.529166 l 0.52917,-0.529166 h -0.52917 m 87.753557,0.176477 -0.0884,0.176212 0.0884,-0.176212 m 0.61728,-0.176477 -0.26459,0.264583 0.26459,-0.264583 m 10.84791,0 -0.26458,0.264583 0.26458,-0.264583 m -0.52916,0.264583 -0.26459,0.264583 0.26459,-0.264583 m -3.175,0.529165 v 0.26458 l 1.05833,-0.529162 -1.05833,0.264582 m -75.141667,0 0.26458,0.26458 -0.26458,-0.26458 m 80.433327,0 -0.79375,0.79375 0.79375,-0.79375 m -95.514577,0.52917 -0.26458,0.26458 0.26458,-0.26458 m 94.456247,0 -0.26458,0.26458 0.26458,-0.26458 m -10.31875,0.35269 c 0.20452,0 0.0423,0.13176 -0.0881,0.0884 l 0.0881,-0.0884 m -83.079167,0.17647 -0.26458,0.26459 0.26458,-0.26459 m 0,0.79375 0.79375,0.79375 -0.79375,-0.79375 m 17.99167,0 -0.52917,0.52917 v -0.52917 h 0.52917 m 68.262497,0 0.26458,0.52917 -0.26458,-0.52917 m 1.32292,0 -0.26459,0.26459 0.26459,-0.26459 m -47.624997,0.35269 c 0.20452,0 0.0423,0.13177 -0.0881,0.0884 l 0.0881,-0.0884 m 0.70564,0.0884 -0.0884,0.17622 0.0884,-0.17622 m 42.862497,0 -0.0884,0.17622 0.0884,-0.17622 m -65.263977,0.17622 0.0881,0.0884 c -0.13044,0.0434 -0.29263,-0.0884 -0.0881,-0.0884 m 72.231247,-0.0881 -0.26458,0.26458 0.26458,-0.26458 m 0.52917,0 -0.26458,0.26458 0.26458,-0.26458 m -89.517347,0.35269 0.17637,0.0884 -0.17637,-0.0884 m 49.0361,-0.0881 -0.26458,0.26458 0.26458,-0.26458 m 26.193747,0 -0.26458,0.26458 0.26458,-0.26458 m -55.297917,0.52916 0.26459,0.26459 -0.26459,-0.26459 m 38.364587,0.52917 v 0.52917 l 1.85208,-0.26459 -1.85208,-0.26458 m 28.575,0 -0.26459,0.26458 0.26459,-0.26458 m -40.745837,0.79375 -0.26458,0.52917 h 0.52917 l -0.26459,-0.52917 m 9.260417,0 0.26458,0.26458 -0.26458,-0.26458 m 2.91042,0 0.26458,0.26458 -0.26458,-0.26458 m 16.13958,0 0.26458,0.26458 -0.26458,-0.26458 m 2.11667,0 -0.26459,0.26458 0.26459,-0.26458 m -51.593747,0.79375 v 0.26458 l -1.32292,-0.26458 h 1.32292 m 23.28333,-0.26458 -0.52917,0.52916 0.52917,-0.52916 m 29.104167,0 -0.26459,0.26458 0.26459,-0.26458 m -31.220837,0.26458 v 0.26458 h 1.05834 l -1.05834,-0.26458 m 5.29167,0 -0.26458,0.26458 0.26458,-0.26458 m 25.399997,0 0.79375,0.52917 v 0.26458 l -0.79375,-0.79375 m -69.409017,0.61727 0.17637,0.0884 -0.17637,-0.0884 m 70.643827,0.0884 -0.0884,0.17622 0.0884,-0.17622 m 3.79227,-0.17647 -0.26458,0.26458 0.26458,-0.26458 m -73.818747,0.26458 0.26459,0.26458 -0.26459,-0.26458 m 20.37292,0.26458 v 0.26459 l 1.05833,-0.52917 -1.05833,0.26458 m 21.69583,-0.26458 -0.52916,0.52917 0.52916,-0.52917 m -20.19644,0.35269 0.17622,0.0884 -0.17622,-0.0884 m 1.41103,-0.0881 0.52916,0.52917 v -0.52917 h -0.52916 m 46.302077,0 v 0.26458 l -1.05833,0.26459 v 0.26458 h 0.79375 v 0.26458 l -1.05834,0.26459 c 0.15558,-0.90038 0.4363,-1.1303 1.32292,-1.32292 m -28.310417,0.26458 -0.26458,0.26459 0.26458,-0.26459 m 28.839587,0 -0.26459,0.26459 0.26459,-0.26459 m -27.781247,0.26459 0.26458,0.26458 -0.26458,-0.26458 m 30.956247,0.26458 v 0.26458 h 1.05833 l -1.05833,-0.26458 m -50.535417,0.35269 c 0.20452,0 0.0423,0.13176 -0.0881,0.0884 l 0.0881,-0.0884 m 14.55208,-0.0881 v 0.26458 l -1.05833,0.52917 1.05833,-0.79375 m -12.08272,0.44106 0.0884,0.17621 -0.0884,-0.17621 m 2.82231,-0.17648 v 0.52917 h 0.52916 v -0.52917 h -0.52916 m 55.562497,0 0.26458,0.26458 -0.26458,-0.26458 m -56.620837,0.61727 c 0.20453,0 0.0423,0.13177 -0.0881,0.0884 l 0.0881,-0.0884 m 39.952087,-0.0881 0.26458,0.79375 h -0.26458 l -0.26459,-0.52916 0.26459,-0.26459 m 1.05833,0 -0.26458,0.26459 0.26458,-0.26459 m 2.64583,0.0881 c 0.20453,0 0.0423,0.13177 -0.0881,0.0884 l 0.0881,-0.0884 m 9.525,-0.0881 -0.26458,0.26459 0.26458,-0.26459 m 2.91042,0 v 0.26459 l -0.79375,0.52916 -1.05833,-0.52916 1.85208,-0.26459 m -56.620827,0.26459 -0.26459,0.26458 0.26459,-0.26458 m 53.181247,0.26458 0.52916,0.79375 -0.52916,-0.79375 m -10.05417,0.26458 -0.26458,0.26459 0.26458,-0.26459 m 13.22917,0 -0.26459,0.26459 0.26459,-0.26459 m -13.49375,0.52917 v 0.79375 l -0.79375,-0.26458 v -0.26459 l 0.79375,-0.26458 m -35.983337,0.26458 -0.79375,0.79375 0.79375,-0.79375 m 3.70417,0 0.52917,0.26459 v 0.26458 l -1.05834,-0.26458 0.52917,-0.26459 m 47.095827,0 0.79375,0.79375 -1.05833,-0.52916 0.26458,-0.26459 m -72.495827,0.26459 -0.26458,0.26458 0.26458,-0.26458 m 69.232727,0.17647 -0.0884,0.17622 0.0884,-0.17622 m -71.349397,0.0881 0.26459,0.26459 -0.26459,-0.26459 m 55.827087,0 -0.26459,0.26459 0.26459,-0.26459 m -29.104167,0.26459 1.5875,1.05833 v 0.26458 l -1.85208,-1.05833 0.26458,-0.26458 m 43.568137,0.0881 0.17622,0.0884 -0.17622,-0.0884 m -12.08272,0.17648 -0.52917,0.52917 0.52917,-0.52917 m -32.014587,0.35269 c 0.20453,0 0.0423,0.13176 -0.0881,0.0884 l 0.0881,-0.0884 m 2.11667,-0.0881 -0.26458,0.26459 0.26458,-0.26459 m 23.900607,0.17648 0.0884,0.17621 -0.0884,-0.17621 m 2.55772,-0.17648 -0.26458,0.26459 0.26458,-0.26459 m -24.958937,0.35269 0.17622,0.0884 -0.17622,-0.0884 m 23.283337,0.26459 0.17621,0.0884 -0.17621,-0.0884 m -48.418747,0.52916 0.17621,0.0884 -0.17621,-0.0884 m 1.94019,0.17648 0.26458,0.26458 -0.26458,-0.26458 m 46.037497,0.35269 c 0.20452,0 0.0423,0.13176 -0.0881,0.0884 l 0.0881,-0.0884 m -18.785417,0.17648 v 0.26458 h -0.79375 l 0.79375,-0.26458 m 2.11667,0 0.264577,0.26458 -0.264577,-0.26458 m 15.610407,0 0.52917,0.26458 v 0.26458 l -0.52917,-0.52916 m 24.07709,0 -0.79375,0.79375 0.79375,-0.79375 m 4.23333,0.0881 0.0881,0.0884 c -0.13044,0.0434 -0.29263,-0.0884 -0.0881,-0.0884 m -44.979167,0.70565 h -0.79375 l 0.26459,-0.52917 0.52916,0.52917 m 20.108337,-0.52917 -0.79375,0.52917 0.79375,-0.52917 m 24.34166,0 0.79375,0.52917 v 0.26458 l -1.05833,-0.52917 0.26458,-0.26458 m -69.056247,0.35269 c 0.20453,0 0.0423,0.13176 -0.0881,0.0884 l 0.0881,-0.0884 m 41.010417,0.17648 -0.52917,0.52916 0.52917,-0.52916 m -41.804167,0.26458 0.26459,0.26458 -0.26459,-0.26458 m 5.82084,1.05833 -0.79375,-0.52916 0.79375,0.52916 m 23.283327,-0.52916 -0.26458,0.26458 0.26458,-0.26458 m 0.52917,0 -0.26459,0.26458 0.26459,-0.26458 m 1.32291,0 -0.52916,0.79375 v -0.79375 h 0.52916 m 12.43542,0 -0.26458,0.26458 0.26458,-0.26458 m -36.777077,0.26458 -0.26459,0.26458 0.26459,-0.26458 m 59.266657,0 -0.52916,0.52917 0.52916,-0.52917 m 6.52648,0.0881 0.17621,0.0884 -0.17621,-0.0884 m -28.75148,0.17647 v 0.26459 l -0.79375,0.26458 0.79375,-0.52917 m -37.835407,0.26459 -0.26459,0.26458 0.26459,-0.26458 m 36.512497,0 -0.26459,0.26458 0.26459,-0.26458 m -50.182727,0.44106 0.0884,0.17621 -0.0884,-0.17621 m 42.509807,0.0881 0.26458,0.52917 h -0.52916 l 0.26458,-0.52917 m 7.67292,0 v 0.26459 l -1.32292,0.26458 v -0.26458 l 1.32292,-0.26459 m 0.52916,0 -0.26458,0.26459 0.26458,-0.26459 m 30.42709,0 -0.26459,0.26459 0.26459,-0.26459 m -76.993747,0.26459 -0.26459,0.26458 0.26459,-0.26458 m 8.20208,0 0.26458,0.26458 -0.26458,-0.26458 m 30.956247,0 -0.26458,0.26458 0.26458,-0.26458 m 28.83958,0 -0.52916,0.52916 0.52916,-0.52916 m 7.14375,0.26458 -1.05833,0.52917 0.26458,-0.79375 0.79375,0.26458 m -66.145827,0.79375 -0.26458,0.26458 0.26458,-0.26458 m 39.422917,0 v 0.26458 h 1.05833 l -1.05833,-0.26458 m 17.99166,0.26458 -0.26458,0.26459 0.26458,-0.26459 m -53.710407,0.26459 v 0.52916 h 0.52916 v -0.52916 h -0.52916 m 36.247907,0.26458 0.52917,0.52917 v -0.52917 h -0.52917 m 20.02023,0.17648 -0.0884,0.17621 0.0884,-0.17621 m -71.702077,0.17621 0.17621,0.0884 -0.17621,-0.0884 m 10.67144,-0.0881 v 0.26459 l -1.05834,0.52916 1.05834,-0.79375 m 61.647907,0 -0.26458,0.26459 0.26458,-0.26459 m -58.208327,0.26459 0.26458,0.26458 -0.26458,-0.26458 m 56.885417,0 -0.26459,0.26458 0.26459,-0.26458 m 8.99583,0 v 0.26458 h 0.79375 l -0.79375,-0.26458 m -15.16936,0.35269 0.17622,0.0884 -0.17622,-0.0884 m 14.11103,-0.0881 0.26458,0.26458 -0.26458,-0.26458 m -72.760417,0.26458 0.26458,0.52917 -0.26458,-0.52917 m 21.69583,0 -0.26458,0.26459 0.26458,-0.26459 m 30.427087,0 -0.26459,0.52917 h 0.52917 l -0.26458,-0.52917 m 11.90625,0 0.26458,0.52917 -0.26458,-0.52917 m -68.527087,0.26459 0.26459,0.26458 -0.26459,-0.26458 m 5.82084,0 -0.52917,0.79375 0.52917,-0.79375 m 1.5875,0 -0.26459,0.26458 0.26459,-0.26458 m 19.84375,0 -0.26459,0.26458 0.26459,-0.26458 m 26.458327,0 -0.26458,0.26458 0.26458,-0.26458 m 1.85208,0.26458 v 0.26458 h -1.05833 l 1.05833,-0.26458 m 9.26042,-0.26458 v 0.26458 h -0.79375 v 0.26458 h 0.52917 v 0.26459 l -0.79375,0.26458 c -0.11854,-0.78714 0.3376,-0.93557 1.05833,-1.05833 m -39.687497,0.26458 0.26458,0.26458 -0.26458,-0.26458 m 3.175,0 v 0.26458 h -0.79375 l 0.79375,-0.26458 m 39.687497,0 -0.26458,0.26458 0.26458,-0.26458 m -61.118747,0.26458 -0.26458,0.26459 0.26458,-0.26459 m -5.99731,0.44106 0.0884,0.17622 -0.0884,-0.17622 m 24.51814,0.35269 1.32292,-0.26458 -1.32292,0.26458 m 43.656247,-0.52916 0.52917,0.52916 v -0.52916 h -0.52917 m -37.30625,0.61727 c 0.20453,0 0.0423,0.13176 -0.0881,0.0884 l 0.0881,-0.0884 m 29.36875,-0.0881 h 1.05834 v 0.26459 c -0.43868,0.15451 -1.35097,0.44397 -1.05834,-0.26459 m 1.32292,0.52917 -0.26458,0.26458 0.26458,-0.26458 m 3.70417,0 -0.26459,0.26458 0.26459,-0.26458 m -31.48542,0.26458 v 0.26459 h -0.79375 l 0.79375,-0.26459 m 30.95625,0 -0.52917,0.52917 0.52917,-0.52917 m 2.11667,0.26459 v 0.52916 h 0.52916 l -0.52916,-0.52916 m -57.414587,0.26458 v 0.26458 h 0.79375 l -0.79375,-0.26458 m -1.32291,0.26458 1.05833,0.79375 v 0.26459 l -1.05833,-1.05834 m 25.047307,0.70565 -0.0884,0.17621 0.0884,-0.17621 m 37.57083,-0.0884 0.17621,0.0884 -0.17621,-0.0884 m -64.999387,0.44106 0.26458,0.26458 -0.26458,-0.26458 m 5.82083,0.26458 0.26458,0.26458 -0.26458,-0.26458 m 66.586887,0.0881 0.17622,0.0884 -0.17622,-0.0884 m 1.94019,-0.0881 v 0.26458 h 1.32292 l -1.32292,-0.26458 m -74.877077,0.26458 0.26458,0.26459 -0.26458,-0.26459 m 25.929167,0 -0.26459,0.26459 0.26459,-0.26459 m 11.90625,0 -0.26459,0.26459 0.26459,-0.26459 m -31.485417,0.26459 v 0.79375 h 0.26458 l -0.26458,-0.79375 m 33.602077,0 0.26459,1.05833 1.05833,-0.79375 h 0.26458 l -0.26458,0.79375 c 0.70247,-0.44027 1.12369,-0.66014 1.32292,0.26458 l 0.52916,-0.79375 4.49792,0.79375 v 0.26459 h -1.05833 v 0.26458 l 1.05833,0.26458 v 0.26459 l -1.32292,-0.26459 v 0.26459 l 2.11667,0.26458 c -0.35983,1.36551 -0.94694,2.03703 -2.38125,1.5875 0.05,1.39726 -0.8419,1.71291 -2.11667,1.5875 l 0.52917,0.79375 v 0.26458 l -1.32292,-0.26458 0.52917,-0.52917 -2.64583,-0.26458 -0.52917,1.05833 0.26458,-1.05833 -7.40833,0.26458 v 0.26459 l 6.35,0.26458 v 0.26458 c -1.89336,0 -6.49155,0.84429 -7.67292,-0.79375 h 1.32292 l -0.26458,-0.79375 1.5875,0.52917 v -0.26458 c -0.6567,-0.27782 -0.27993,-0.90805 0,-0.26459 h 0.26458 l 0.26458,-1.5875 0.52917,0.52917 0.79375,-0.52917 c -0.13705,-1.23375 -0.12039,-2.50243 1.32292,-2.64583 0.21695,-1.01256 1.21734,-0.8165 2.11666,-1.05833 m 32.01459,0 v 0.26458 h -1.05834 l 1.05834,-0.26458 m 5.20356,0.0881 0.17621,0.0884 -0.17621,-0.0884 m -74.877087,0.35296 -0.0884,0.17621 0.0884,-0.17621 m 24.165187,-0.17648 -0.26458,0.26458 0.26458,-0.26458 m 49.47709,0.26458 v 0.26459 l -1.32292,-0.26459 h 1.32292 m -50.00625,0 -0.26459,0.26459 0.26459,-0.26459 m -25.929167,0.26459 0.26458,0.26458 -0.26458,-0.26458 m 39.775607,0.17647 0.0884,0.17622 -0.0884,-0.17622 m 8.81962,0.79375 -0.0884,0.17622 0.0884,-0.17622 m -2.55773,0.0881 0.26458,0.26458 -0.26458,-0.26458 m 3.43958,0 -0.26458,0.26458 0.26458,-0.26458 m -1.32291,0.26458 -0.26459,0.26459 0.26459,-0.26459 m -24.870837,0.52917 -0.26458,0.26458 0.26458,-0.26458 m -1.85208,0.26458 -0.52917,0.52917 0.52917,-0.52917 m 1.32292,0 -0.26459,0.26459 0.26459,-0.26459 m 26.458327,0 -0.52917,0.52917 0.52917,-0.52917 m 4.49792,0 -0.26459,0.26459 0.26459,-0.26459 m -17.99167,0.26459 -0.26458,0.26458 0.26458,-0.26458 m 11.90625,0 v 0.79375 h 0.26458 l -0.26458,-0.79375 m 7.67292,0.26458 v 0.26458 h -1.32292 l 1.32292,-0.26458 m 42.8625,-0.26458 -0.79375,0.52916 0.79375,-0.52916 m 1.32291,0 0.26459,0.26458 -0.26459,-0.26458 m -42.59791,0.26458 v 0.26458 h -0.79375 l 0.79375,-0.26458 m -35.454167,0.26458 -0.52917,0.52917 v -0.52917 h 0.52917 m 13.229167,0 -0.52917,0.52917 0.52917,-0.52917 m 17.5506,0.17648 0.0884,0.17621 -0.0884,-0.17621 m 3.61606,-0.17648 -0.26458,0.26459 0.26458,-0.26459 m -19.49106,0.44106 0.0884,0.17622 -0.0884,-0.17622 m 71.79046,0.17622 0.17621,0.0884 -0.17621,-0.0884 m -74.25981,0.17647 -0.26459,0.26459 0.26459,-0.26459 m 72.49583,0 1.05833,0.52917 v 0.26458 l -1.05833,-0.79375 m -86.783327,0.26459 -0.26459,0.26458 0.26459,-0.26458 m 30.427077,0 -0.26458,0.79375 h -0.26459 l 0.52917,-0.79375 m -3.43958,0.26458 -0.26459,0.26458 0.26459,-0.26458 m 3.96875,0 -0.26459,0.26458 0.26459,-0.26458 m 14.2875,0 v 0.26458 h -1.05834 l 1.05834,-0.26458 m -32.01459,0.26458 v 0.52917 h -0.52916 l 0.52916,-0.52917 m 33.07292,0 -0.26458,0.26459 0.26458,-0.26459 m 2.11667,0 -0.26459,0.26459 0.26459,-0.26459 m -18.78542,0.26459 -0.26458,0.26458 0.26458,-0.26458 m -30.691667,0.26458 -0.26458,0.26458 0.26458,-0.26458 m 24.341667,0.26458 v 0.52917 l -0.52917,-0.52917 h 0.52917 m 2.11667,0 -0.26459,0.26459 0.26459,-0.26459 m 68.87977,0.17648 0.0884,0.17621 -0.0884,-0.17621 m -63.05894,0.0881 0.26458,0.26458 -0.26458,-0.26458 m 62.17708,0 -0.52916,0.52916 0.52916,-0.52916 m -81.22708,0.26458 -0.26458,0.26458 0.26458,-0.26458 m 10.31875,0 -0.26458,0.26458 0.26458,-0.26458 m 33.86667,0 v 0.52917 h 1.5875 v -0.52917 h -1.5875 m 3.175,0 v 0.52917 h 0.52916 l -0.52916,-0.52917 m 5.82083,0 v 0.26458 h -1.05833 l 1.05833,-0.26458 m -30.42708,0.26458 -0.26459,0.26459 0.26459,-0.26459 m 0.79375,0.26459 0.26458,0.26458 -0.26458,-0.26458 m 34.66041,0 0.26459,0.26458 -0.26459,-0.26458 m -69.056247,0.52916 -0.26458,0.26459 0.26458,-0.26459 m 16.404167,0 v 0.26459 h -2.38125 l 2.38125,-0.26459 m 3.70417,0 v 0.79375 l -0.52917,-0.79375 h 0.52917 m 61.11875,0 v 0.26459 h -0.79375 l 0.79375,-0.26459 m 2.64583,0.0881 c 0.20452,0 0.0423,0.13176 -0.0881,0.0884 l 0.0881,-0.0884 m 2.64583,-0.0881 v 0.26459 h -1.32291 l 1.32291,-0.26459 m -93.662497,0.26459 -0.26458,0.26458 0.26458,-0.26458 m 1.5875,0 -0.26458,0.26458 0.26458,-0.26458 m 4.23334,0 -0.52917,0.52916 0.52917,-0.52916 m 20.372907,0.0881 c 0.20453,0 0.0423,0.13177 -0.0881,0.0884 l 0.0881,-0.0884 m -26.722907,0.17648 -0.26459,0.26458 0.26459,-0.26458 m 1.05833,0.0881 c 0.20452,0 0.0423,0.13176 -0.0881,0.0884 l 0.0881,-0.0884 m 6.08542,-0.0881 -0.26459,0.26458 0.26459,-0.26458 m 0.79375,0 -0.52917,0.52917 0.52917,-0.52917 m 32.279157,0.0881 0.0881,0.0884 c -0.13044,0.0434 -0.29263,-0.0884 -0.0881,-0.0884 m -34.924997,0.17647 -0.26458,0.26459 0.26458,-0.26459 m 4.49792,0 -0.26458,0.26459 0.26458,-0.26459 m 8.466667,0 0.26458,0.26459 -0.26458,-0.26459 m 23.54791,0 -0.26458,0.26459 0.26458,-0.26459 m 46.30209,0 0.26458,0.26459 -0.26458,-0.26459 m 2.38125,0 v 0.26459 h 2.38125 l -2.38125,-0.26459 m -90.487497,0.26459 -0.26459,0.26458 0.26459,-0.26458 m 35.630637,0.0881 0.17621,0.0884 -0.17621,-0.0884 m 60.14852,-0.0881 0.26459,0.26458 -0.26459,-0.26458 m -69.32083,0.52916 0.52917,1.05834 v -1.05834 h -0.52917 m -24.077077,0.26459 -0.26459,0.26458 0.26459,-0.26458 m 0.79375,0 -0.26459,0.26458 0.26459,-0.26458 m 7.58481,0.0881 0.17621,0.0884 -0.17621,-0.0884 m 5.908937,-0.0881 -0.26459,0.26458 0.26459,-0.26458 m 14.2875,0 -0.26459,0.26458 0.26459,-0.26458 m -18.52084,0.26458 -0.26458,0.26458 0.26458,-0.26458 m 3.70417,0 -0.26458,0.26458 0.26458,-0.26458 m -5.556247,0.52917 0.26458,0.26458 -0.26458,-0.26458 m 18.785417,0.52916 -0.26459,0.26459 z"
       id="path895" />
  </g>
</svg>
