<?xml version="1.0" encoding="UTF-8" standalone="no"?>
<svg
   xmlns:dc="http://purl.org/dc/elements/1.1/"
   xmlns:cc="http://creativecommons.org/ns#"
   xmlns:rdf="http://www.w3.org/1999/02/22-rdf-syntax-ns#"
   xmlns:svg="http://www.w3.org/2000/svg"
   xmlns="http://www.w3.org/2000/svg"
   xmlns:sodipodi="http://sodipodi.sourceforge.net/DTD/sodipodi-0.dtd"
   xmlns:inkscape="http://www.inkscape.org/namespaces/inkscape"
   width="42.068748mm"
   height="61.592846mm"
   viewBox="0 0 42.068748 61.592846"
   version="1.1"
   id="svg8"
   sodipodi:docname="css.svg"
   inkscape:version="1.0.1 (3bc2e81, 2020-09-07)">
  <defs
     id="defs2" />
  <sodipodi:namedview
     id="base"
     pagecolor="#ffffff"
     bordercolor="#666666"
     borderopacity="1.0"
     inkscape:pageopacity="0.0"
     inkscape:pageshadow="2"
     inkscape:zoom="0.45951371"
     inkscape:cx="131.75971"
     inkscape:cy="-73.732054"
     inkscape:document-units="mm"
     inkscape:current-layer="layer1"
     inkscape:document-rotation="0"
     showgrid="false"
     inkscape:window-width="1338"
     inkscape:window-height="696"
     inkscape:window-x="14"
     inkscape:window-y="58"
     inkscape:window-maximized="0"
     inkscape:pagecheckerboard="true" />
  <metadata
     id="metadata5">
    <rdf:RDF>
      <cc:Work
         rdf:about="">
        <dc:format>image/svg+xml</dc:format>
        <dc:type
           rdf:resource="http://purl.org/dc/dcmitype/StillImage" />
        <dc:title />
      </cc:Work>
    </rdf:RDF>
  </metadata>
  <g
     inkscape:label="Layer 1"
     inkscape:groupmode="layer"
     id="layer1"
     transform="translate(-194.52831,-80.829129)">
    <path
       style="fill:#4d4d4d;fill-opacity:1;stroke:none;stroke-width:0.264583"
       d="m 202.99498,83.088332 v 7.9375 h 6.61458 v -2.38125 c -2.4244,0 -3.9587,0.198252 -3.96875,-2.645833 h 3.96875 c -4.5e-4,-4.028816 -3.3986,-2.910417 -6.61458,-2.910417 m 9.26041,0 c 0,2.666894 0.76491,3.675195 2.64584,5.55625 h -2.64584 v 2.38125 h 6.61459 c -2.7e-4,-2.385669 -0.70115,-3.345736 -2.38125,-5.027083 h 2.38125 v -2.910417 h -6.61459 m 11.90625,5.55625 h -2.64583 v 2.38125 h 6.61458 c -2.6e-4,-2.385669 -0.70114,-3.345736 -2.38125,-5.027083 h 2.38125 v -2.910417 c -2.33627,0 -9.41811,-0.606983 -5.78194,3.70377 0.55404,0.65704 1.20597,1.245129 1.81319,1.85248 m -29.63333,6.35 c 0,10.526898 1.59713,21.558778 2.83488,32.014578 0.30141,2.54609 0.40267,5.12102 0.64963,7.67293 0.0781,0.80697 -0.007,2.32833 0.4916,2.98899 1.02565,1.3597 5.01287,1.64677 6.60722,2.07804 3.22157,0.87154 6.97889,2.55535 10.31875,2.66832 3.12658,0.10584 7.05247,-1.66846 10.05417,-2.52042 1.70471,-0.48392 6.04123,-0.77417 7.13634,-2.22594 0.49848,-0.66066 0.41355,-2.18202 0.4916,-2.98899 0.24712,-2.55191 0.34819,-5.12684 0.64955,-7.67293 1.23798,-10.4558 2.83501,-21.48765 2.83501,-32.014578 h -42.06875 m 34.13125,8.466668 -0.53658,5.18102 -3.43217,1.73783 -8.73125,3.66448 v 0.26458 h 11.90625 c -0.46302,3.66263 -0.86889,7.42448 -1.04801,11.1125 -0.059,1.21365 0.17383,3.92378 -0.69903,4.84109 -0.95383,1.00224 -3.31126,1.2147 -4.60296,1.58591 -1.83594,0.52758 -3.90128,1.50389 -5.82083,1.57268 -2.07248,0.0744 -4.64442,-1.12501 -6.61459,-1.7399 -1.15612,-0.36089 -3.20344,-0.5379 -4.07368,-1.42531 -1.30278,-1.32821 -0.95321,-6.21427 -0.9534,-8.00947 h 5.29167 c 0.13004,1.02897 -0.0153,2.75352 0.53652,3.63035 0.51927,0.82524 1.77522,0.94959 2.63848,1.16576 3.47318,0.86942 5.60175,-0.32809 8.99583,-0.82736 l 0.26458,-6.87916 h -18.25625 l -0.26458,-5.29167 12.7,-5.02708 v -0.26459 h -13.22917 l -0.52916,-5.29166 z"
       id="path5092" />
    <path
       style="fill:#ffee84;fill-opacity:1;stroke:none;stroke-width:0.264583"
       d="m 202.99498,80.971664 v 7.937501 h 6.61458 v -2.38125 c -2.4244,0 -3.9587,0.198252 -3.96875,-2.645834 h 3.96875 c -4.5e-4,-4.028816 -3.3986,-2.910417 -6.61458,-2.910417 m 9.26041,0 c 0,2.666894 0.76491,3.675196 2.64584,5.556251 h -2.64584 v 2.38125 h 6.61459 c -2.6e-4,-2.38567 -0.70115,-3.345736 -2.38125,-5.027084 h 2.38125 v -2.910417 h -6.61459 m 11.90625,5.556251 h -2.64583 v 2.38125 h 6.61458 c -2.6e-4,-2.38567 -0.70114,-3.345736 -2.38125,-5.027084 h 2.38125 v -2.910417 c -2.33627,0 -9.41811,-0.606983 -5.78194,3.703771 0.55404,0.65704 1.20597,1.245128 1.81319,1.85248 m -29.63333,6.35 c 0,10.526885 1.59713,21.558765 2.83488,32.014565 0.30141,2.54609 0.40267,5.12102 0.64963,7.67293 0.0781,0.80697 -0.007,2.32833 0.4916,2.98899 1.02565,1.3597 5.01287,1.64677 6.60722,2.07804 3.22157,0.87154 6.97889,2.55535 10.31875,2.66832 3.12658,0.10584 7.05247,-1.66846 10.05417,-2.52042 1.70471,-0.48392 6.04123,-0.77417 7.13634,-2.22594 0.49848,-0.66066 0.41355,-2.18202 0.4916,-2.98899 0.24712,-2.55191 0.34819,-5.12684 0.64955,-7.67293 1.23798,-10.4558 2.83501,-21.48765 2.83501,-32.014565 h -42.06875 m 34.13125,8.466655 -0.53658,5.18102 -3.43217,1.73783 -8.73125,3.66448 v 0.26458 h 11.90625 c -0.46302,3.66263 -0.86889,7.42448 -1.04801,11.1125 -0.059,1.21365 0.17383,3.92378 -0.69903,4.84109 -0.95383,1.00224 -3.31126,1.2147 -4.60296,1.58591 -1.83594,0.52758 -3.90128,1.50389 -5.82083,1.57268 -2.07248,0.0744 -4.64442,-1.12501 -6.61459,-1.7399 -1.15612,-0.36089 -3.20344,-0.5379 -4.07368,-1.42531 -1.30278,-1.32821 -0.95321,-6.21427 -0.9534,-8.00947 h 5.29167 c 0.13004,1.02897 -0.0153,2.75352 0.53652,3.63035 0.51927,0.82524 1.77522,0.94959 2.63848,1.16576 3.47318,0.86942 5.60175,-0.32809 8.99583,-0.82736 l 0.26458,-6.87916 h -18.25625 l -0.26458,-5.29167 12.7,-5.02708 v -0.26459 h -13.22917 l -0.52916,-5.29166 z"
       id="path5092-1" />
  </g>
</svg>
