<?xml version="1.0" encoding="UTF-8" standalone="no"?>
<svg
   xmlns:dc="http://purl.org/dc/elements/1.1/"
   xmlns:cc="http://creativecommons.org/ns#"
   xmlns:rdf="http://www.w3.org/1999/02/22-rdf-syntax-ns#"
   xmlns:svg="http://www.w3.org/2000/svg"
   xmlns="http://www.w3.org/2000/svg"
   xmlns:sodipodi="http://sodipodi.sourceforge.net/DTD/sodipodi-0.dtd"
   xmlns:inkscape="http://www.inkscape.org/namespaces/inkscape"
   width="130.11659mm"
   height="108.46513mm"
   viewBox="0 0 130.11659 108.46515"
   version="1.1"
   id="svg8"
   sodipodi:docname="gimp.svg"
   inkscape:version="1.0.1 (3bc2e81, 2020-09-07)">
  <defs
     id="defs2" />
  <sodipodi:namedview
     id="base"
     pagecolor="#ffffff"
     bordercolor="#666666"
     borderopacity="1.0"
     inkscape:pageopacity="0.0"
     inkscape:pageshadow="2"
     inkscape:zoom="0.42837569"
     inkscape:cx="-132.77621"
     inkscape:cy="221.32394"
     inkscape:document-units="mm"
     inkscape:current-layer="layer1"
     inkscape:document-rotation="0"
     showgrid="false"
     inkscape:window-width="1338"
     inkscape:window-height="696"
     inkscape:window-x="14"
     inkscape:window-y="58"
     inkscape:window-maximized="0"
     inkscape:pagecheckerboard="true" />
  <metadata
     id="metadata5">
    <rdf:RDF>
      <cc:Work
         rdf:about="">
        <dc:format>image/svg+xml</dc:format>
        <dc:type
           rdf:resource="http://purl.org/dc/dcmitype/StillImage" />
        <dc:title />
      </cc:Work>
    </rdf:RDF>
  </metadata>
  <g
     inkscape:label="Layer 1"
     inkscape:groupmode="layer"
     id="layer1"
     transform="translate(-2619.2226,-165.69188)">
    <path
       style="fill:#4d4d4d;fill-opacity:1;stroke:none;stroke-width:0.264583"
       d="m 2643.934,178.11326 h -0.2646 c 0,7.98829 1.1737,16.98677 -0.057,24.87083 -0.3231,2.07036 -1.8367,3.97695 -2.3246,6.08541 -7.0525,-5.37739 -18.7676,-4.7027 -21.4985,5.02709 -0.6852,2.44157 -0.7249,5.45041 -0.249,7.9375 1.3742,7.18132 6.4959,14.26845 13.2808,17.23072 6.7462,2.94534 14.8709,1.57665 17.8718,-5.85364 0.8747,-2.16588 0.9136,-4.31853 0.9136,-6.61458 l 5.5563,0.26458 c -8e-4,7.10168 -3.3433,15.56094 -10.848,17.72708 1.7894,2.92762 7.768,4.81171 10.848,6.08251 11.0532,4.56089 23.2267,7.36044 35.1895,5.74913 3.3547,-0.45191 6.6453,-1.37954 9.7896,-2.6252 1.3079,-0.51805 3.0517,-1.87536 4.4979,-1.51474 4.108,1.02421 8.118,3.77481 12.1709,5.18187 3.2885,1.14168 8.1351,1.58088 11.0522,3.34909 0.936,0.56753 1.0408,1.90686 1.4689,2.82734 0.6636,1.42663 1.659,2.6125 2.825,3.65813 4.183,3.75206 9.8179,5.17816 15.081,6.66062 0,-6.51034 0.9683,-16.11021 -3.079,-21.69477 -1.3592,-1.87511 -3.8724,-3.24671 -6.1815,-3.41683 -1.1567,-0.0852 -2.6146,0.3593 -3.7041,-0.031 -1.8563,-0.6649 -3.6325,-2.5228 -5.2917,-3.606 -3.4166,-2.23018 -7.0771,-4.34182 -10.8479,-5.91185 1.9801,-4.24101 4.1497,-8.196 5.5496,-12.7 4.1553,-13.37152 4.5054,-27.40819 4.5046,-41.275 -3e-4,-4.43997 -0.2265,-9.44584 -1.3642,-13.75833 -0.5279,-2.0006 -1.5682,-4.01545 -3.9275,-3.95325 -3.0094,0.0794 -4.3003,3.46271 -5.3284,5.80533 -2.5668,5.84782 -5.7219,10.55608 -10.8112,14.54811 -4.1029,3.21839 -8.8437,5.61473 -13.7583,7.32129 -1.6672,0.57891 -3.7682,1.5068 -5.5563,1.48325 -3.0347,-0.0397 -5.9793,-2.18202 -9.2604,-2.18599 -2.6321,-0.003 -5.2835,0.54028 -7.6729,1.67217 -1.3277,0.62918 -2.7445,2.07645 -4.2333,2.19128 -2.7715,0.21352 -6.1987,-1.63036 -8.4667,-3.01969 -7.035,-4.30953 -11.3662,-10.82913 -15.875,-17.5125 m 48.4187,35.98333 c -0.9556,-0.69983 -1.3671,-2.00925 -2.1656,-2.90936 -1.6489,-1.8587 -3.8393,-2.80406 -6.301,-2.91148 v 0.26459 c 7.0051,1.41446 0.1587,12.15152 -4.272,6.30105 -0.4567,-0.60299 -0.6699,-1.32212 -0.73,-2.06772 -0.079,-0.97605 0.085,-1.77535 0.5041,-2.64583 -5.474,3.93991 -3.2978,11.96234 2.6458,14.02291 -4.7681,2.29156 -11.0993,-2.49528 -12.9908,-6.61458 -3.3104,-7.2099 1.2158,-15.84484 9.022,-17.21802 2.2424,-0.3945 4.4919,-0.18812 6.6146,0.66913 2.3516,0.94959 4.3146,2.52809 5.7248,4.64264 1.7322,2.59689 1.9481,5.44671 1.9481,8.46667 m -29.6333,-4.23334 -4.2333,-1.5875 v 0.26459 c 6.1359,2.88766 -2.5043,10.72673 -6.6146,5.82083 -0.3678,3.31205 1.8783,6.23464 5.0271,7.14375 -3.6576,1.53485 -6.6942,-1.4015 -8.3151,-4.23333 -0.6778,-1.18375 -1.8076,-2.37623 -2.1545,-3.70417 -0.8686,-3.32475 1.2089,-7.16306 3.855,-9.05166 4.5781,-3.26734 14.3859,-1.57665 12.4354,5.34749 m -11.1125,3.70417 h 0.2646 l 2.6458,-4.23333 c -2.183,0.64849 -2.8921,2.06242 -2.9104,4.23333 m 27.7813,-3.70417 0.2645,0.26459 -0.2645,-0.26459 m -50.0063,1.14644 c 7.2654,-1.18771 8.3132,12.28328 1.3229,13.48264 -7.2987,1.25201 -8.3303,-12.33726 -1.3229,-13.48264 m 68.7917,16.31606 c 4.6577,2.74744 9.1472,6.01716 6.8791,11.90625 6.9935,1.03294 14.6566,5.6261 20.6375,9.2075 1.5164,0.90805 5.4097,2.55746 5.9749,4.33229 0.2474,0.77682 -0.4686,1.85473 -0.6832,2.59979 -7.6718,-0.15927 -16.6907,-4.96596 -23.2833,-8.54842 -2.1553,-1.17104 -4.4458,-3.39883 -6.8038,-4.04574 -1.0869,-0.29845 -2.6733,0.41619 -3.7796,0.57467 -2.0894,0.29925 -4.5132,0.26829 -6.6145,0.0683 -7.6409,-0.72708 -14.564,-3.27105 -21.9605,-4.98211 v -0.26458 c 7.8031,0 15.8253,0.52678 23.548,-0.72866 2.3862,-0.38788 6.4251,-0.80592 7.6652,-3.24406 1.2115,-2.38151 -1.6036,-4.6519 -1.5798,-6.8752 z"
       id="path6331" />
    <path
       style="fill:#ffee84;fill-opacity:1;stroke:none;stroke-width:0.264583"
       d="m 2643.934,173.87988 h -0.2646 c 0,7.98829 1.1737,16.98677 -0.057,24.87083 -0.3231,2.07037 -1.8367,3.97696 -2.3246,6.08541 -7.0525,-5.37738 -18.7676,-4.7027 -21.4985,5.02709 -0.6852,2.44158 -0.7249,5.45041 -0.249,7.9375 1.3742,7.18132 6.4959,14.26846 13.2808,17.23073 6.7462,2.94533 14.8709,1.57665 17.8718,-5.85365 0.8747,-2.16588 0.9136,-4.31853 0.9136,-6.61457 l 5.5563,0.26457 c -8e-4,7.10169 -3.3433,15.56094 -10.848,17.72708 1.7894,2.92762 7.768,4.81171 10.848,6.08252 11.0532,4.56088 23.2267,7.36043 35.1895,5.74912 3.3547,-0.45191 6.6453,-1.37954 9.7896,-2.6252 1.3079,-0.51805 3.0517,-1.87535 4.4979,-1.51474 4.108,1.02421 8.118,3.77481 12.1709,5.18187 3.2885,1.14168 8.1351,1.58088 11.0522,3.34909 0.936,0.56754 1.0408,1.90686 1.4689,2.82734 0.6636,1.42664 1.659,2.61251 2.825,3.65813 4.183,3.75207 9.8179,5.17816 15.081,6.66062 0,-6.51034 0.9683,-16.1102 -3.079,-21.69476 -1.3592,-1.87511 -3.8724,-3.24671 -6.1815,-3.41683 -1.1567,-0.0852 -2.6146,0.35929 -3.7041,-0.031 -1.8563,-0.6649 -3.6325,-2.52279 -5.2917,-3.606 -3.4166,-2.23017 -7.0771,-4.34181 -10.8479,-5.91185 1.9801,-4.24101 4.1497,-8.19599 5.5496,-12.7 4.1553,-13.37151 4.5054,-27.40819 4.5046,-41.275 -3e-4,-4.43997 -0.2265,-9.44584 -1.3642,-13.75833 -0.5279,-2.0006 -1.5682,-4.01545 -3.9275,-3.95325 -3.0094,0.0794 -4.3003,3.46271 -5.3284,5.80533 -2.5668,5.84782 -5.7219,10.55608 -10.8112,14.54811 -4.1029,3.21839 -8.8437,5.61473 -13.7583,7.32129 -1.6672,0.57891 -3.7682,1.5068 -5.5563,1.48326 -3.0347,-0.0397 -5.9793,-2.18203 -9.2604,-2.18599 -2.6321,-0.003 -5.2835,0.54027 -7.6729,1.67216 -1.3277,0.62918 -2.7445,2.07645 -4.2333,2.19128 -2.7715,0.21352 -6.1987,-1.63036 -8.4667,-3.01969 -7.035,-4.30953 -11.3662,-10.82913 -15.875,-17.5125 m 48.4187,35.98333 c -0.9556,-0.69982 -1.3671,-2.00924 -2.1656,-2.90935 -1.6489,-1.85871 -3.8393,-2.80407 -6.301,-2.91148 v 0.26458 c 7.0051,1.41446 0.1587,12.15153 -4.272,6.30106 -0.4567,-0.60299 -0.6699,-1.32212 -0.73,-2.06773 -0.079,-0.97605 0.085,-1.77534 0.5041,-2.64583 -5.474,3.93991 -3.2978,11.96235 2.6458,14.02292 -4.7681,2.29155 -11.0993,-2.49529 -12.9908,-6.61459 -3.3104,-7.2099 1.2158,-15.84484 9.022,-17.21802 2.2424,-0.39449 4.4919,-0.18812 6.6146,0.66913 2.3516,0.9496 4.3146,2.52809 5.7248,4.64264 1.7322,2.5969 1.9481,5.44671 1.9481,8.46667 m -29.6333,-4.23333 -4.2333,-1.5875 v 0.26458 c 6.1359,2.88766 -2.5043,10.72674 -6.6146,5.82083 -0.3678,3.31206 1.8783,6.23464 5.0271,7.14375 -3.6576,1.53485 -6.6942,-1.4015 -8.3151,-4.23333 -0.6778,-1.18374 -1.8076,-2.37622 -2.1545,-3.70417 -0.8686,-3.32474 1.2089,-7.16305 3.855,-9.05166 4.5781,-3.26734 14.3859,-1.57665 12.4354,5.3475 m -11.1125,3.70416 h 0.2646 l 2.6458,-4.23333 c -2.183,0.64849 -2.8921,2.06243 -2.9104,4.23333 m 27.7813,-3.70416 0.2645,0.26458 -0.2645,-0.26458 m -50.0063,1.14643 c 7.2654,-1.1877 8.3132,12.28329 1.3229,13.48264 -7.2987,1.25202 -8.3303,-12.33725 -1.3229,-13.48264 m 68.7917,16.31607 c 4.6577,2.74743 9.1472,6.01715 6.8791,11.90625 6.9935,1.03293 14.6566,5.6261 20.6375,9.2075 1.5164,0.90805 5.4097,2.55745 5.9749,4.33229 0.2474,0.77681 -0.4686,1.85472 -0.6832,2.59979 -7.6718,-0.15928 -16.6907,-4.96597 -23.2833,-8.54842 -2.1553,-1.17105 -4.4458,-3.39883 -6.8038,-4.04575 -1.0869,-0.29845 -2.6733,0.41619 -3.7796,0.57467 -2.0894,0.29926 -4.5132,0.26829 -6.6145,0.0683 -7.6409,-0.72707 -14.564,-3.27105 -21.9605,-4.98211 v -0.26457 c 7.8031,0 15.8253,0.52677 23.548,-0.72867 2.3862,-0.38788 6.4251,-0.80591 7.6652,-3.24406 1.2115,-2.3815 -1.6036,-4.65189 -1.5798,-6.8752 z"
       id="path6331-7" />
  </g>
</svg>
