<?xml version="1.0" encoding="UTF-8" standalone="no"?>
<svg
   xmlns:dc="http://purl.org/dc/elements/1.1/"
   xmlns:cc="http://creativecommons.org/ns#"
   xmlns:rdf="http://www.w3.org/1999/02/22-rdf-syntax-ns#"
   xmlns:svg="http://www.w3.org/2000/svg"
   xmlns="http://www.w3.org/2000/svg"
   xmlns:sodipodi="http://sodipodi.sourceforge.net/DTD/sodipodi-0.dtd"
   xmlns:inkscape="http://www.inkscape.org/namespaces/inkscape"
   width="124.2058mm"
   height="127.32462mm"
   viewBox="0 0 124.2058 127.32464"
   version="1.1"
   id="svg8"
   sodipodi:docname="inkscape.svg"
   inkscape:version="1.0.1 (3bc2e81, 2020-09-07)">
  <defs
     id="defs2" />
  <sodipodi:namedview
     id="base"
     pagecolor="#ffffff"
     bordercolor="#666666"
     borderopacity="1.0"
     inkscape:pageopacity="0.0"
     inkscape:pageshadow="2"
     inkscape:zoom="0.79046238"
     inkscape:cx="279.89094"
     inkscape:cy="327.18382"
     inkscape:document-units="mm"
     inkscape:current-layer="layer1"
     inkscape:document-rotation="0"
     showgrid="false"
     inkscape:window-width="1338"
     inkscape:window-height="696"
     inkscape:window-x="14"
     inkscape:window-y="58"
     inkscape:window-maximized="0"
     inkscape:pagecheckerboard="true" />
  <metadata
     id="metadata5">
    <rdf:RDF>
      <cc:Work
         rdf:about="">
        <dc:format>image/svg+xml</dc:format>
        <dc:type
           rdf:resource="http://purl.org/dc/dcmitype/StillImage" />
        <dc:title />
      </cc:Work>
    </rdf:RDF>
  </metadata>
  <g
     inkscape:label="Layer 1"
     inkscape:groupmode="layer"
     id="layer1"
     transform="translate(-2454.905,-240.86645)">
    <path
       style="fill:#4d4d4d;fill-opacity:1;stroke:none;stroke-width:0.264583"
       d="m 2515.1371,244.04538 c -8.4156,1.13197 -13.7046,8.48252 -19.0949,14.43958 -9.493,10.49152 -19.584,20.68645 -29.5884,30.69167 -3.3735,3.3737 -7.1561,6.85323 -9.7883,10.84791 -1.2619,1.91506 -2.3115,4.33017 -1.4397,6.61459 1.0487,2.74796 4.1738,4.0849 6.7301,5.04031 4.8343,1.8071 9.9494,2.70616 14.8167,4.40399 1.7645,0.61542 4.4579,1.33773 5.6943,2.82681 1.1578,1.39409 -0.9837,2.64636 -1.9902,3.27871 -2.3177,1.456 -5.0071,2.46354 -7.1323,4.20926 -0.8569,0.70379 -1.8095,1.81531 -1.2755,2.99111 1.0168,2.23917 4.9733,3.39514 7.0849,4.23731 6.0846,2.42649 14.1499,3.63907 19.3032,7.85309 4.9043,4.01029 -5.0324,7.56259 -3.8425,11.99065 1.0641,3.96029 7.5308,3.33349 10.4685,4.79822 3.7012,1.84547 2.9633,5.16308 5.1379,7.89041 1.9587,2.45639 5.8481,2.15159 8.6204,1.78699 4.0944,-0.53869 8.1526,-2.20874 11.6417,-4.37224 1.1123,-0.68977 3.0342,-1.71503 3.0752,-3.22342 0.082,-3.01836 -7.8578,-2.95222 -4.1055,-6.85614 0.4784,-0.49795 1.0298,-0.9271 1.5594,-1.36763 0.6861,-0.57071 1.3783,-1.1311 2.1167,-1.63381 4.5233,-3.07895 9.6065,-3.29459 14.5521,-5.17525 2.4818,-0.94376 4.917,-2.62784 5.6512,-5.34088 1.0682,-3.94705 -5.8018,-6.50345 -8.297,-8.20975 -1.3145,-0.89853 -3.4089,-2.25981 -1.8119,-3.90552 2.159,-2.22488 6.1148,-3.32184 8.9556,-4.37329 6.0108,-2.22435 12.2605,-4.08887 17.9917,-6.99479 3.8481,-1.9513 8.2579,-4.67598 8.8757,-9.32498 0.9012,-6.78021 -7.8531,-12.55977 -11.7107,-16.93333 -10.5942,-12.01155 -22.7444,-22.65018 -33.3375,-34.66041 -4.762,-5.39922 -10.7683,-12.61774 -18.8609,-11.52917 m 27.2521,29.25625 -8.7312,-6.87917 -1.5875,10.05417 -7.1438,-3.33349 -3.7041,2.01057 -7.9375,5.02708 -3.7042,-15.34583 h -0.2646 c -0.9353,3.24829 -2.74,6.46377 -4.1751,9.525 -0.4633,0.98822 -0.8922,2.78527 -1.8145,3.43218 -0.9845,0.69082 -3.1758,0.27199 -4.3291,0.27199 -3.5746,0 -9.9277,1.21073 -12.9646,-0.79375 2.5723,-3.65152 6.3659,-6.89002 9.525,-10.05417 3.8756,-3.88196 7.4977,-8.02672 11.3771,-11.90625 3.3655,-3.36566 6.2328,-6.36087 11.377,-5.43335 5.7566,1.03791 10.2209,8.06098 14.0333,12.04794 2.4513,2.56354 4.9085,5.15249 7.3991,7.67291 1.0675,1.08056 2.5765,2.1 2.6447,3.70417 m -47.8896,46.83125 c 7.9021,0.005 16.8413,2.1926 24.3417,4.58893 1.505,0.48101 7.7494,2.12222 6.1788,4.64661 -1.4271,2.29341 -4.9638,2.23864 -7.2371,1.85552 -5.9965,-1.01017 -11.7925,-3.56023 -17.1979,-6.26321 -2.0498,-1.025 -5.6933,-2.30823 -6.0855,-4.82785 m 75.9355,14.13562 c -2.7472,0.3609 -5.3952,1.25016 -7.0853,3.60178 -0.5691,0.7919 -1.4333,2.12196 -0.6885,3.05382 0.6951,0.86968 2.253,1.07553 3.2758,1.27185 2.8507,0.54689 6.1058,0.72655 8.9959,0.35004 3.7608,-0.49 5.4567,-3.2422 2.3323,-6.18648 -1.7222,-1.62296 -4.5077,-2.39607 -6.8302,-2.09101 m -88.3709,11.38053 c -2.7905,0.43921 -6.065,1.8071 -7.1451,4.64634 -1.2774,3.35783 2.1464,7.05644 5.5576,6.52754 3.1258,-0.48498 8.1349,-4.90326 8.0148,-8.37962 -0.093,-2.67599 -4.5323,-3.09245 -6.4273,-2.79426 m 76.249,0.20452 c -1.9669,0.85116 -2.2942,4.40531 -1.3481,6.02536 1.2549,2.14921 4.182,2.64636 6.3249,1.61263 4.2849,-2.06692 -1.905,-8.96726 -4.9768,-7.63799 z"
       id="path6297" />
    <path
       style="fill:#ffee84;fill-opacity:1;stroke:none;stroke-width:0.264583"
       d="m 2515.1368,240.97647 c -8.4156,1.13197 -13.7046,8.48252 -19.0949,14.43958 -9.493,10.49152 -19.584,20.68645 -29.5884,30.69167 -3.3735,3.3737 -7.1561,6.85323 -9.7883,10.84791 -1.2619,1.91506 -2.3115,4.33017 -1.4397,6.61459 1.0487,2.74796 4.1738,4.0849 6.7301,5.04031 4.8343,1.8071 9.9494,2.70616 14.8167,4.40399 1.7645,0.61542 4.4579,1.33773 5.6943,2.82681 1.1578,1.39409 -0.9837,2.64636 -1.9902,3.27871 -2.3177,1.456 -5.0071,2.46354 -7.1323,4.20926 -0.8569,0.70379 -1.8095,1.81531 -1.2755,2.99111 1.0168,2.23917 4.9733,3.39514 7.0849,4.23731 6.0846,2.42649 14.1499,3.63907 19.3032,7.85309 4.9043,4.01029 -5.0324,7.56259 -3.8425,11.99065 1.0641,3.96029 7.5308,3.33349 10.4685,4.79822 3.7012,1.84547 2.9633,5.16308 5.1379,7.89041 1.9587,2.45639 5.8481,2.15159 8.6204,1.78699 4.0944,-0.53869 8.1526,-2.20874 11.6417,-4.37224 1.1123,-0.68977 3.0342,-1.71503 3.0752,-3.22342 0.082,-3.01836 -7.8578,-2.95222 -4.1055,-6.85614 0.4784,-0.49795 1.0298,-0.9271 1.5594,-1.36763 0.6861,-0.57071 1.3783,-1.1311 2.1167,-1.63381 4.5233,-3.07895 9.6065,-3.29459 14.5521,-5.17525 2.4818,-0.94376 4.917,-2.62784 5.6512,-5.34088 1.0682,-3.94705 -5.8018,-6.50345 -8.297,-8.20975 -1.3145,-0.89853 -3.4089,-2.25981 -1.8119,-3.90552 2.159,-2.22488 6.1148,-3.32184 8.9556,-4.37329 6.0108,-2.22435 12.2605,-4.08887 17.9917,-6.99479 3.8481,-1.9513 8.2579,-4.67598 8.8757,-9.32498 0.9012,-6.78021 -7.8531,-12.55977 -11.7107,-16.93333 -10.5942,-12.01155 -22.7444,-22.65018 -33.3375,-34.66041 -4.762,-5.39922 -10.7683,-12.61774 -18.8609,-11.52917 m 27.2521,29.25625 -8.7312,-6.87917 -1.5875,10.05417 -7.1438,-3.33349 -3.7041,2.01057 -7.9375,5.02708 -3.7042,-15.34583 h -0.2646 c -0.9353,3.24829 -2.74,6.46377 -4.1751,9.525 -0.4633,0.98822 -0.8922,2.78527 -1.8145,3.43218 -0.9845,0.69082 -3.1758,0.27199 -4.3291,0.27199 -3.5746,0 -9.9277,1.21073 -12.9646,-0.79375 2.5723,-3.65152 6.3659,-6.89002 9.525,-10.05417 3.8756,-3.88196 7.4977,-8.02672 11.3771,-11.90625 3.3655,-3.36566 6.2328,-6.36087 11.377,-5.43335 5.7566,1.03791 10.2209,8.06098 14.0333,12.04794 2.4513,2.56354 4.9085,5.15249 7.3991,7.67291 1.0675,1.08056 2.5765,2.1 2.6447,3.70417 m -47.8896,46.83125 c 7.9021,0.005 16.8413,2.1926 24.3417,4.58893 1.505,0.48101 7.7494,2.12222 6.1788,4.64661 -1.4271,2.29341 -4.9638,2.23864 -7.2371,1.85552 -5.9965,-1.01017 -11.7925,-3.56023 -17.1979,-6.26321 -2.0498,-1.025 -5.6933,-2.30823 -6.0855,-4.82785 m 75.9355,14.13562 c -2.7472,0.3609 -5.3952,1.25016 -7.0853,3.60178 -0.5691,0.7919 -1.4333,2.12196 -0.6885,3.05382 0.6951,0.86968 2.253,1.07553 3.2758,1.27185 2.8507,0.54689 6.1058,0.72655 8.9959,0.35004 3.7608,-0.49 5.4567,-3.2422 2.3323,-6.18648 -1.7222,-1.62296 -4.5077,-2.39607 -6.8302,-2.09101 m -88.3709,11.38053 c -2.7905,0.43921 -6.065,1.8071 -7.1451,4.64634 -1.2774,3.35783 2.1464,7.05644 5.5576,6.52754 3.1258,-0.48498 8.1349,-4.90326 8.0148,-8.37962 -0.093,-2.67599 -4.5323,-3.09245 -6.4273,-2.79426 m 76.249,0.20452 c -1.9669,0.85116 -2.2942,4.40531 -1.3481,6.02536 1.2549,2.14921 4.182,2.64636 6.3249,1.61263 4.2849,-2.06692 -1.905,-8.96726 -4.9768,-7.63799 z"
       id="path6297-7" />
  </g>
</svg>
