<?xml version="1.0" encoding="UTF-8" standalone="no"?>
<svg
   xmlns:dc="http://purl.org/dc/elements/1.1/"
   xmlns:cc="http://creativecommons.org/ns#"
   xmlns:rdf="http://www.w3.org/1999/02/22-rdf-syntax-ns#"
   xmlns:svg="http://www.w3.org/2000/svg"
   xmlns="http://www.w3.org/2000/svg"
   xmlns:sodipodi="http://sodipodi.sourceforge.net/DTD/sodipodi-0.dtd"
   xmlns:inkscape="http://www.inkscape.org/namespaces/inkscape"
   width="55.383221mm"
   height="59.15781mm"
   viewBox="0 0 55.383221 59.157811"
   version="1.1"
   id="svg8"
   sodipodi:docname="matlab.svg"
   inkscape:version="1.0.1 (3bc2e81, 2020-09-07)">
  <defs
     id="defs2" />
  <sodipodi:namedview
     id="base"
     pagecolor="#ffffff"
     bordercolor="#666666"
     borderopacity="1.0"
     inkscape:pageopacity="0.0"
     inkscape:pageshadow="2"
     inkscape:zoom="0.45951371"
     inkscape:cx="59.391971"
     inkscape:cy="-48.383699"
     inkscape:document-units="mm"
     inkscape:current-layer="layer1"
     inkscape:document-rotation="0"
     showgrid="false"
     inkscape:window-width="1338"
     inkscape:window-height="696"
     inkscape:window-x="14"
     inkscape:window-y="58"
     inkscape:window-maximized="0"
     inkscape:pagecheckerboard="true" />
  <metadata
     id="metadata5">
    <rdf:RDF>
      <cc:Work
         rdf:about="">
        <dc:format>image/svg+xml</dc:format>
        <dc:type
           rdf:resource="http://purl.org/dc/dcmitype/StillImage" />
        <dc:title />
      </cc:Work>
    </rdf:RDF>
  </metadata>
  <g
     inkscape:label="Layer 1"
     inkscape:groupmode="layer"
     id="layer1"
     transform="translate(-326.29265,-68.940266)">
    <path
       style="fill:#4d4d4d;fill-opacity:1;stroke:none;stroke-width:0.264583"
       d="m 351.20634,72.304538 c -4.88624,0.649425 -9.44919,2.129663 -13.49375,5.028094 -18.73464,13.425805 -13.56309,44.287758 9.26042,49.858558 3.14328,0.76729 6.56008,1.13876 9.78958,0.75274 4.56221,-0.54584 8.86222,-1.9566 12.7,-4.51644 19.52281,-13.02147 14.6095,-43.0594 -7.40833,-50.08586 -3.38614,-1.080561 -7.31414,-1.506762 -10.84792,-1.037092 m 18.52084,34.283552 c -1.44066,-0.59981 -2.87814,-1.60629 -4.49792,-1.55231 -5.16758,0.17251 -8.34443,7.76102 -12.96458,9.75439 -1.09088,-1.8759 -1.71397,-3.97246 -2.86163,-5.82083 -0.45569,-0.73396 -1.59372,-1.74096 -1.58261,-2.64584 0.0172,-1.39461 2.77498,-3.61235 3.61027,-4.7625 2.6461,-3.643573 4.52887,-7.548003 6.35344,-11.641663 0.45932,-1.030684 1.56263,-4.162478 2.94799,-4.141867 1.6338,0.02429 2.54,3.482949 3.01545,4.671034 2.08174,5.204301 4.71461,10.674616 5.97959,16.139586 m -15.875,-12.964586 -3.175,5.55625 c -5.28513,-1.526117 0.46064,-4.911514 3.175,-5.55625 m -15.61042,8.466666 c 1.90849,-1.10966 5.40737,-3.029214 7.67292,-2.826279 0.93667,0.08387 2.73571,1.023939 2.86387,2.078569 0.12047,0.99113 -1.16247,1.97749 -1.80575,2.55376 -3.1037,2.7813 -6.21993,1.23243 -8.73104,-1.80605 z"
       id="path1087" />
    <path
       style="fill:#ffee84;fill-opacity:1;stroke:none;stroke-width:0.264583"
       d="m 351.20634,69.129536 c -4.88624,0.649425 -9.44919,2.129664 -13.49375,5.028095 -18.73464,13.425805 -13.56309,44.287739 9.26042,49.858539 3.14328,0.76729 6.56008,1.13876 9.78958,0.75274 4.56221,-0.54584 8.86222,-1.9566 12.7,-4.51644 19.52281,-13.02147 14.6095,-43.059382 -7.40833,-50.085842 -3.38614,-1.080561 -7.31414,-1.506762 -10.84792,-1.037092 m 18.52084,34.283534 c -1.44066,-0.59981 -2.87814,-1.60629 -4.49792,-1.55231 -5.16758,0.17251 -8.34443,7.76102 -12.96458,9.75439 -1.09088,-1.8759 -1.71397,-3.97246 -2.86163,-5.82083 -0.45569,-0.73396 -1.59372,-1.74096 -1.58261,-2.64584 0.0172,-1.39461 2.77498,-3.612347 3.61027,-4.762488 2.6461,-3.643566 4.52887,-7.547996 6.35344,-11.641656 0.45932,-1.030684 1.56263,-4.162479 2.94799,-4.141867 1.6338,0.02429 2.54,3.482949 3.01545,4.671034 2.08174,5.204301 4.71461,10.674609 5.97959,16.139567 m -15.875,-12.964567 -3.175,5.556249 c -5.28513,-1.526116 0.46064,-4.911513 3.175,-5.556249 m -15.61042,8.466656 c 1.90849,-1.109654 5.40737,-3.029205 7.67292,-2.82627 0.93667,0.08387 2.73571,1.023939 2.86387,2.078563 0.12047,0.991124 -1.16247,1.977478 -1.80575,2.553748 -3.1037,2.7813 -6.21993,1.23243 -8.73104,-1.806041 z"
       id="path1087-2" />
  </g>
</svg>
