<?xml version="1.0" encoding="UTF-8" standalone="no"?>
<svg
   xmlns:dc="http://purl.org/dc/elements/1.1/"
   xmlns:cc="http://creativecommons.org/ns#"
   xmlns:rdf="http://www.w3.org/1999/02/22-rdf-syntax-ns#"
   xmlns:svg="http://www.w3.org/2000/svg"
   xmlns="http://www.w3.org/2000/svg"
   xmlns:sodipodi="http://sodipodi.sourceforge.net/DTD/sodipodi-0.dtd"
   xmlns:inkscape="http://www.inkscape.org/namespaces/inkscape"
   width="59.23452mm"
   height="61.184586mm"
   viewBox="0 0 59.23452 61.184587"
   version="1.1"
   id="svg8"
   sodipodi:docname="python.svg"
   inkscape:version="1.0.1 (3bc2e81, 2020-09-07)">
  <defs
     id="defs2">
    <filter
       inkscape:collect="always"
       style="color-interpolation-filters:sRGB"
       id="filter2043"
       x="-0.00048297815"
       width="1.000966"
       y="-0.00048004938"
       height="1.0009601">
      <feGaussianBlur
         inkscape:collect="always"
         stdDeviation="0.011908904"
         id="feGaussianBlur2045" />
    </filter>
  </defs>
  <sodipodi:namedview
     id="base"
     pagecolor="#ffffff"
     bordercolor="#666666"
     borderopacity="1.0"
     inkscape:pageopacity="0.0"
     inkscape:pageshadow="2"
     inkscape:zoom="1.5224848"
     inkscape:cx="59.7455"
     inkscape:cy="161.97498"
     inkscape:document-units="mm"
     inkscape:current-layer="layer1"
     inkscape:document-rotation="0"
     showgrid="false"
     inkscape:window-width="1338"
     inkscape:window-height="696"
     inkscape:window-x="14"
     inkscape:window-y="58"
     inkscape:window-maximized="0"
     inkscape:pagecheckerboard="true" />
  <metadata
     id="metadata5">
    <rdf:RDF>
      <cc:Work
         rdf:about="">
        <dc:format>image/svg+xml</dc:format>
        <dc:type
           rdf:resource="http://purl.org/dc/dcmitype/StillImage" />
        <dc:title />
      </cc:Work>
    </rdf:RDF>
  </metadata>
  <g
     inkscape:label="Layer 1"
     inkscape:groupmode="layer"
     id="layer1"
     transform="translate(-311.93862,-7.5298835)"
     style="filter:url(#filter2043)">
    <path
       style="fill:#4d4d4d;fill-opacity:1;stroke:none;stroke-width:0.264583"
       d="m 339.41233,9.3060205 c -5.44822,0.7174585 -10.54177,2.1114185 -15.08125,5.3767895 -3.19781,2.300288 -5.86727,5.206736 -7.95079,8.533845 -8.26553,13.199004 -4.58108,31.29915 8.21537,40.206348 6.34352,4.415366 14.10176,5.98461 21.69583,4.960937 3.91293,-0.527315 7.76314,-2.05396 11.1125,-4.106862 21.58471,-13.229696 16.77353,-47.285328 -7.67291,-53.984787 -3.2639,-0.8944885 -6.94267,-1.4308705 -10.31875,-0.9862705 m -5.82084,36.9293845 c -1.58461,0 -3.41294,0.162718 -4.70614,-0.944298 -2.72632,-2.333361 -2.75857,-9.780958 -0.29215,-12.256294 2.6575,-2.667079 9.43591,-1.351492 12.93579,-1.351492 v -0.79375 h -7.14375 c 0,-1.610598 -0.34742,-3.849528 0.76171,-5.187553 2.05785,-2.482532 10.26242,-2.243825 12.40713,-0.04757 1.88146,1.926564 1.29911,6.715019 1.09406,9.203875 -0.50192,6.087269 -8.50133,2.578365 -12.14623,4.007909 -3.11639,1.22211 -2.91042,4.619096 -2.91042,7.369175 m 3.49899,-19.642244 c -1.41687,0.598488 -0.4081,2.741533 0.95975,2.103597 1.37374,-0.640689 0.44584,-2.697322 -0.95975,-2.103597 m 4.43851,19.642244 v 0.79375 h 7.14375 c 0,1.565539 0.23866,3.353858 -0.78581,4.675452 -2.29711,2.963862 -9.8598,2.762514 -12.38395,0.264583 -1.87191,-1.852612 -1.29355,-6.476206 -1.09302,-8.908785 0.49723,-6.031971 8.47979,-2.632604 12.14585,-4.13094 3.10356,-1.268412 2.91068,-4.451271 2.91068,-7.246144 1.51051,0 3.43138,-0.280643 4.70615,0.715143 3.11361,2.432235 2.83792,10.416672 0,12.93233 -2.45269,2.174346 -9.51812,0.904611 -12.64365,0.904611 m 3.49991,2.853796 c -1.42028,0.560916 -0.43841,2.726795 0.93768,2.225939 1.47903,-0.538162 0.55801,-2.816754 -0.93768,-2.225939 z"
       id="path1053" />
    <path
       style="fill:#ffee84;fill-opacity:1;stroke:none;stroke-width:0.999999;filter:url(#filter2043)"
       d="M 103.72962,0.60204964 C 83.137921,3.3137038 63.886708,8.5822141 46.729618,20.923774 34.643407,29.617776 24.55411,40.602776 16.679388,53.177677 -14.560411,103.06368 -0.63493009,171.47368 47.729606,205.13868 c 23.975509,16.688 53.297994,22.619 81.999984,18.75 14.78903,-1.993 29.34101,-7.763 42,-15.522 81.58001,-50.002 63.39602,-178.716204 -28.99997,-204.0369938 -12.336,-3.38074396 -26.24001,-5.4080145 -39,-3.72763656 M 81.729594,140.17768 c -5.989078,0 -12.899301,0.61499 -17.786986,-3.569 C 53.638406,127.78967 53.516516,99.641277 62.838419,90.285676 72.882513,80.205377 98.501701,85.177674 111.72959,85.177674 v -3 H 84.729594 c 0,-6.087299 -1.313084,-14.549397 2.878904,-19.606499 7.777701,-9.382798 38.787102,-8.480599 46.893092,-0.179792 7.11103,7.281501 4.91002,25.379599 4.13503,34.786299 -1.89702,23.006998 -32.13101,9.744998 -45.907014,15.147998 -11.778482,4.619 -11.000012,17.45801 -11.000012,27.85201 M 94.954123,65.939282 c -5.355099,2.262002 -1.542425,10.361699 3.627402,7.950603 5.192085,-2.421502 1.685065,-10.194603 -3.627402,-7.950603 m 16.775467,74.238408 v 3 h 27 c 0,5.91699 0.90203,12.67599 -2.96999,17.671 -8.68199,11.20199 -37.265383,10.44099 -46.805477,0.99999 -7.074936,-7.00199 -4.889008,-24.477 -4.131099,-33.67099 1.879294,-22.79801 32.049596,-9.95 45.905576,-15.61301 11.72999,-4.79399 11.00099,-16.823698 11.00099,-27.386998 5.70902,0 12.969,-1.060698 17.78703,2.702903 11.76797,9.192699 10.726,39.370095 0,48.878095 -9.27001,8.218 -35.974,3.41901 -47.78703,3.41901 m 13.22801,10.786 c -5.36799,2.11999 -1.65698,10.30599 3.54399,8.41299 5.59003,-2.03399 2.10901,-10.646 -3.54399,-8.41299 z"
       id="path1053-0"
       transform="matrix(0.26458333,0,0,0.26458333,311.9672,7.5592269)" />
  </g>
</svg>
