<?xml version="1.0" encoding="UTF-8" standalone="no"?>
<svg
   xmlns:dc="http://purl.org/dc/elements/1.1/"
   xmlns:cc="http://creativecommons.org/ns#"
   xmlns:rdf="http://www.w3.org/1999/02/22-rdf-syntax-ns#"
   xmlns:svg="http://www.w3.org/2000/svg"
   xmlns="http://www.w3.org/2000/svg"
   xmlns:sodipodi="http://sodipodi.sourceforge.net/DTD/sodipodi-0.dtd"
   xmlns:inkscape="http://www.inkscape.org/namespaces/inkscape"
   width="113.28609mm"
   height="141.84584mm"
   viewBox="0 0 113.28609 141.84584"
   version="1.1"
   id="svg8"
   inkscape:version="1.0.1 (3bc2e81, 2020-09-07)"
   sodipodi:docname="horsey.svg">
  <defs
     id="defs2" />
  <sodipodi:namedview
     id="base"
     pagecolor="#ffffff"
     bordercolor="#666666"
     borderopacity="1.0"
     inkscape:pageopacity="0.0"
     inkscape:pageshadow="2"
     inkscape:zoom="0.30194994"
     inkscape:cx="364.5486"
     inkscape:cy="307.81975"
     inkscape:document-units="mm"
     inkscape:current-layer="layer1"
     inkscape:document-rotation="0"
     showgrid="false"
     fit-margin-top="0"
     fit-margin-left="0"
     fit-margin-right="0"
     fit-margin-bottom="0"
     inkscape:window-width="1338"
     inkscape:window-height="694"
     inkscape:window-x="14"
     inkscape:window-y="60"
     inkscape:window-maximized="0" />
  <metadata
     id="metadata5">
    <rdf:RDF>
      <cc:Work
         rdf:about="">
        <dc:format>image/svg+xml</dc:format>
        <dc:type
           rdf:resource="http://purl.org/dc/dcmitype/StillImage" />
        <dc:title></dc:title>
      </cc:Work>
    </rdf:RDF>
  </metadata>
  <g
     inkscape:label="Layer 1"
     inkscape:groupmode="layer"
     id="layer1"
     transform="translate(-43.992075,-31.138516)">
    <path
       style="fill:#000000;stroke-width:0.191997"
       d="m 102.95096,172.76107 c -0.47305,-0.21394 -0.97325,-0.65909 -1.29856,-1.15565 -0.47825,-0.73 -0.5419,-1.03298 -0.66194,-3.15087 -0.0731,-1.28877 -0.0982,-2.4005 -0.056,-2.47052 0.0423,-0.07 0.0233,-0.26819 -0.0421,-0.44037 -0.0836,-0.2202 -0.47469,0.29107 -1.318339,1.72368 -0.65968,1.1202 -1.57827,2.49064 -2.04131,3.04543 -0.46304,0.55479 -1.03491,1.28874 -1.2708,1.63101 -0.47841,0.69414 -1.60882,1.14321 -2.38339,0.94683 -0.72483,-0.18376 -0.98475,-1.19017 -0.97837,-3.78827 0.005,-2.18694 0.49146,-7.16078 0.86387,-8.8394 0.10496,-0.47311 0.16643,-0.88114 0.13659,-0.90673 -0.0298,-0.0256 -1.02194,-0.31741 -2.20468,-0.64848 -1.18275,-0.33107 -2.7301,-0.87191 -3.43857,-1.20188 -0.70847,-0.32997 -2.10478,-0.94728 -3.10292,-1.3718 -0.99814,-0.42452 -2.71742,-1.23084 -3.82062,-1.79182 -1.10321,-0.56097 -2.5646,-1.2653 -3.24754,-1.56517 -0.68293,-0.29986 -1.67152,-0.79796 -2.19686,-1.10687 -0.90077,-0.52968 -1.43696,-0.79196 -4.82103,-2.3583 -0.76036,-0.35193 -2.24984,-1.23148 -3.30996,-1.95455 -3.23172,-2.20423 -5.86271,-3.9538 -7.00078,-4.65541 -0.39811,-0.24543 -0.94595,-0.64132 -1.21744,-0.87978 -0.53148,-0.46681 -2.54672,-3.10288 -3.14955,-4.11984 -0.20267,-0.34191 -1.12799,-1.752 -2.05626,-3.13354 -0.95624,-1.42316 -1.88259,-3.05448 -2.13727,-3.76375 -0.24723,-0.68853 -0.73818,-1.75325 -1.09099,-2.36605 -0.86768,-1.50708 -1.37391,-2.66196 -1.67259,-3.81573 -0.13738,-0.53066 -0.44513,-1.44526 -0.6839,-2.03243 -0.23877,-0.58718 -0.79194,-2.5844 -1.22927,-4.43827 -0.43732,-1.85386 -0.96691,-3.82363 -1.17686,-4.37727 -0.20995,-0.55363 -0.45508,-1.46541 -0.54474,-2.02616 -0.20279,-1.26836 -0.69483,-3.33984 -1.17278,-4.93743 -0.55753,-1.86358 -0.77643,-4.87352 -0.53923,-7.414383 0.24415,-2.615253 0.85948,-7.073093 1.23255,-8.929373 0.14931,-0.742927 0.45658,-2.305967 0.68283,-3.473422 0.49702,-2.564754 3.03009,-10.473017 3.95576,-12.349946 0.82041,-1.663501 3.80494,-6.197579 4.99454,-7.587679 0.48327,-0.564724 1.56639,-1.843606 2.40693,-2.84196 2.78382,-3.306501 6.72164,-6.686509 10.88878,-9.346338 1.36588,-0.871817 3.30007,-2.133878 4.29821,-2.804576 2.41385,-1.621986 3.99304,-2.492044 6.97264,-3.841584 1.36588,-0.618641 3.53015,-1.626768 4.80949,-2.240284 1.27935,-0.613514 2.80521,-1.256178 3.39081,-1.428142 0.61317,-0.180062 1.06472,-0.423068 1.06472,-0.572991 0,-0.14318 0.25457,-1.095714 0.56571,-2.116741 0.31113,-1.021027 0.74494,-2.833544 0.96402,-4.027816 0.57117,-3.113715 1.10766,-4.70931 1.8512,-5.505679 0.58009,-0.621314 0.69373,-0.664586 1.50329,-0.572412 1.46497,0.166797 2.72506,1.77001 2.76724,3.520751 0.0102,0.424529 0.11957,1.509974 0.24298,2.412099 l 0.22439,1.640227 0.81412,-1.711701 c 1.0914,-2.294692 3.535579,-5.977327 4.157009,-6.263341 0.64534,-0.297016 1.71241,-0.288791 1.96105,0.01512 0.34757,0.424834 0.79381,2.532457 0.82923,3.916544 0.0375,1.464784 -0.33119,6.683042 -0.51306,7.261877 -0.18091,0.575771 0.10424,1.499377 0.55278,1.79045 0.22727,0.147484 1.40181,0.411346 2.61008,0.586362 1.20827,0.175014 2.75563,0.482962 3.43856,0.684328 0.68294,0.201364 2.0074,0.506801 2.94325,0.678749 0.93585,0.171946 3.91388,1.070169 6.61785,1.99605 4.99881,1.71167 5.46541,1.930393 10.11513,4.741517 0.89308,0.539932 3.33888,2.400356 5.43512,4.134277 2.09625,1.733923 4.46026,3.613419 5.25337,4.176657 0.7931,0.563241 1.7491,1.399585 2.12444,1.85854 2.81067,3.436829 4.16558,5.244564 4.94642,6.599569 0.49687,0.862223 1.21585,2.100633 1.59773,2.752025 0.38188,0.651392 0.77404,1.396121 0.87146,1.654953 0.0974,0.258832 0.66519,1.226953 1.26172,2.15138 1.18453,1.835651 2.81054,5.172228 3.11618,6.394425 0.10617,0.424529 0.25098,1.596809 0.3218,2.605067 0.077,1.095662 0.43029,3.036537 0.87822,4.824197 1.04942,4.188199 1.1746,5.113981 0.94665,7.001157 -0.10535,0.872254 -0.27834,3.105537 -0.38441,4.962857 -0.29376,5.14391 -0.69853,7.97016 -1.35419,9.45542 -0.67274,1.52398 -0.84541,2.2031 -1.23575,4.86033 -0.56004,3.81242 -1.46197,7.01127 -2.64859,9.39368 -1.42922,2.86949 -1.76906,3.39103 -3.37104,5.17332 -0.74633,0.83033 -2.0597,2.55172 -2.91861,3.82531 -0.92293,1.36852 -2.42346,3.22324 -3.66876,4.53475 -1.15892,1.22052 -2.89245,3.09036 -3.8523,4.1552 -2.0254,2.24695 -8.39742,7.40126 -11.33111,9.16572 -5.54562,3.33539 -12.37543,6.39605 -15.90336,7.1268 -0.67497,0.13981 -1.09843,0.32665 -1.09843,0.48465 0,0.14142 -0.20764,0.85158 -0.46143,1.57814 -0.25378,0.72656 -0.68913,1.97228 -0.96745,2.76828 -0.27832,0.79598 -0.71472,2.31562 -0.96979,3.37694 -0.98428,4.09554 -2.23533,5.54789 -4.06582,4.72004 z m 1.48903,-4.86478 c 0.27094,-1.251 1.1708,-4.14487 1.96514,-6.3197 0.25197,-0.68986 0.57655,-1.79363 0.7213,-2.45283 0.22198,-1.01089 0.41938,-1.36406 1.26084,-2.25574 0.7618,-0.80726 1.17061,-1.08559 1.72928,-1.17731 2.35604,-0.38684 10.90579,-4.38298 14.94044,-6.98315 2.42559,-1.5632 8.14935,-6.25497 9.56823,-7.8431 0.67944,-0.76048 2.27127,-2.47151 3.53739,-3.8023 1.26613,-1.33078 2.80537,-3.18372 3.42054,-4.11763 0.61517,-0.93392 1.63904,-2.35972 2.27526,-3.16846 2.08281,-2.64757 5.58143,-10.30165 6.1922,-13.54693 0.1498,-0.79599 0.52019,-2.61954 0.82307,-4.05233 0.66642,-3.15251 1.23381,-6.18717 1.49729,-8.00817 0.1075,-0.74292 0.33958,-2.29446 0.51574,-3.44786 0.21129,-1.383394 0.25461,-2.138631 0.12729,-2.219136 -0.10615,-0.06712 -0.25562,-0.969957 -0.33216,-2.006304 -0.12484,-1.690249 -0.10738,-1.871945 0.16956,-1.764597 0.34505,0.133748 0.31132,-0.239226 -0.20222,-2.236656 -0.98099,-3.815522 -1.21056,-4.951037 -1.37337,-6.792877 -0.16396,-1.854735 -0.27124,-2.254273 -1.0529,-3.9211 -0.47869,-1.020766 -1.24745,-2.436004 -1.70836,-3.144972 -0.46091,-0.708966 -1.17911,-1.940298 -1.596,-2.736291 -1.52294,-2.907867 -3.11692,-5.524611 -3.99656,-6.560908 -0.49548,-0.583728 -1.14369,-1.583477 -1.44045,-2.221666 -0.4323,-0.929619 -0.90404,-1.485986 -2.37246,-2.798035 -1.00809,-0.90073 -2.36345,-2.116916 -3.01191,-2.702633 -1.66844,-1.506981 -4.66565,-3.570821 -6.18719,-4.260409 -0.71163,-0.322525 -1.55222,-0.784723 -1.86797,-1.027108 -0.31576,-0.242385 -0.84754,-0.582952 -1.18175,-0.756813 -0.33421,-0.173862 -1.19385,-0.834678 -1.91032,-1.468481 -2.42473,-2.144985 -6.45372,-3.868677 -9.04271,-3.868677 -0.41067,0 -1.25308,-0.25162 -1.93764,-0.578751 -0.6661,-0.318314 -1.33394,-0.578821 -1.48408,-0.578904 -0.15014,-8.3e-5 -0.53698,-0.08352 -0.85964,-0.185419 -1.54829,-0.48895 -5.07943,-1.337059 -5.90036,-1.417148 l -0.91999,-0.08975 0.44241,0.486518 c 0.82894,0.91159 6.40444,3.30182 7.75422,3.32425 0.49325,0.0082 3.79171,1.774253 4.53213,2.426591 0.42027,0.370272 1.30343,0.947721 1.96259,1.283221 1.08667,0.553094 1.86884,1.124576 3.86626,2.824855 0.7055,0.600555 2.20017,1.412072 5.05993,2.747249 0.94561,0.441488 1.9342,0.950811 2.19687,1.131828 0.26266,0.181018 0.77845,0.445554 1.14618,0.587854 1.12178,0.434093 3.06735,1.933046 4.74943,3.659173 1.78534,1.83208 2.49087,2.860602 3.88653,5.665786 0.92164,1.852425 0.95657,1.981815 0.94413,3.496777 -0.0146,1.777862 -0.36535,3.383324 -1.10991,5.080434 -0.50684,1.155249 -3.51202,3.904823 -4.26784,3.904823 -0.1081,0 -0.6595,0.310491 -1.22532,0.689982 -0.65888,0.441908 -1.6709,0.862812 -2.81477,1.17068 -0.98231,0.264382 -2.55969,0.696485 -3.5053,0.960228 -4.81677,1.343469 -4.71116,1.330403 -10.4112,1.287902 -2.88935,-0.02154 -6.81764,-0.06477 -8.72952,-0.09606 l -3.47615,-0.05689 -0.1212,1.254291 c -0.15306,1.584014 -0.6084,3.509224 -1.09534,4.63123 -0.20728,0.477595 -0.74577,1.9538 -1.19664,3.280454 -0.45087,1.326655 -1.03164,3.019949 -1.29059,3.762879 -0.25894,0.74292 -0.74461,2.52305 -1.07925,3.95584 -0.33464,1.43278 -0.82111,3.45644 -1.081049,4.49701 -0.55657,2.22805 -1.02157,5.3561 -1.03828,6.98458 -0.0208,2.02408 -0.61124,3.14127 -2.00095,3.78589 -1.09642,0.50858 -1.90793,0.44949 -4.13908,-0.30139 -2.154,-0.72492 -4.717,-1.1511 -8.85105,-1.47179 -4.6592,-0.36143 -8.14164,-0.42456 -10.85017,-0.1967 -2.22229,0.18696 -2.95187,0.33647 -4.73098,0.9695 -2.91942,1.03875 -5.29869,2.65666 -6.26737,4.26178 -0.31197,0.51694 -0.40536,0.98596 -0.40591,2.03852 -5.8e-4,1.1509 0.12,1.66681 0.76258,3.26209 0.99448,2.46888 1.48462,3.28733 2.60871,4.35602 1.23079,1.17016 4.8446,3.90108 8.37642,6.33003 1.57601,1.08387 3.46028,2.44461 4.18726,3.02386 1.3556,1.08012 1.7148,1.20792 1.21726,0.43306 -0.38972,-0.60694 -1.15486,-3.03613 -1.14153,-3.62417 0.0135,-0.59609 0.51036,-2.54205 0.77805,-3.0473 0.31778,-0.59981 1.49921,-1.55849 2.55406,-2.07253 1.70329,-0.83002 3.15132,-0.56504 4.33141,0.79264 0.80179,0.92245 1.06904,1.64723 1.3511,3.66417 0.43335,3.09871 0.41408,3.18893 -0.96791,4.53388 -1.42355,1.38539 -1.93472,1.67819 -3.48887,1.99842 l -1.16301,0.23964 1.42445,1.01418 c 1.2036,0.85693 3.92737,2.3042 6.67781,3.54823 2.98467,1.34997 4.09754,1.93946 5.25628,2.78426 0.73387,0.53504 1.66438,1.08984 2.0678,1.23289 1.27209,0.45107 1.27657,0.52037 0.4224,6.53799 -0.24857,1.75118 -0.55102,4.08049 -0.6721,5.17624 -0.12108,1.09575 -0.26717,2.11607 -0.32465,2.26737 -0.24846,0.65405 0.27213,0.17672 0.81275,-0.74521 0.32441,-0.55322 0.95326,-1.59975 1.39745,-2.32564 1.23787,-2.02288 1.664,-2.78972 2.515129,-4.52598 0.89836,-1.83264 1.8671,-2.69465 2.77079,-2.46554 l 0.50184,0.12723 -0.16241,1.58346 c -0.31058,3.02804 -0.11072,9.59162 0.29206,9.59162 0.0744,0 0.25287,-0.54272 0.39653,-1.20605 z m -5.656759,-20.31883 c -0.51772,-0.22916 -1.40276,-1.18038 -1.40276,-1.50766 0,-0.0585 -0.24721,-0.6529 -0.54937,-1.32099 -0.75326,-1.66555 -1.05102,-2.7365 -0.90972,-3.27196 0.1782,-0.67524 1.274,-1.82548 2.03219,-2.13314 1.66107,-0.67404 2.795149,-0.8063 4.725849,-0.55114 2.90655,0.38412 3.78646,1.00033 4.34721,3.04438 0.10007,0.36475 0.18526,0.39919 0.59667,0.24119 1.13714,-0.43672 1.60983,0.66778 0.73516,1.71779 l -0.48389,0.58091 0.68741,0.69437 c 0.80153,0.80965 0.81431,1.32578 0.0471,1.90222 -0.66115,0.49676 -1.32112,0.24529 -1.78767,-0.68118 -0.17602,-0.34953 -0.34441,-0.66394 -0.37421,-0.6987 -0.0298,-0.0348 -0.55615,0.20183 -1.16965,0.52575 -2.58255,1.36354 -3.66718,1.7571 -4.79761,1.74083 -0.601499,-0.009 -1.365019,-0.13586 -1.696709,-0.28267 z m 5.414439,-2.98225 c 2.04501,-1.03227 2.21202,-1.63671 0.85143,-3.08149 -0.62923,-0.66816 -0.84568,-0.77766 -1.53732,-0.77766 -0.56713,0 -0.76406,0.0669 -0.6665,0.22634 0.39119,0.63938 0.41564,1.83125 0.0596,2.9033 -0.20159,0.60692 -0.36652,1.14964 -0.36652,1.20605 0,0.23483 0.58009,0.0682 1.65935,-0.47654 z m -4.443999,-1.33045 c 0.15124,-0.87512 0.409839,-1.79902 0.574659,-2.05312 0.42123,-0.6494 0.3826,-0.71725 -0.32118,-0.56415 -1.269439,0.27614 -1.671929,0.61322 -1.666959,1.39606 0.007,1.04742 0.29511,2.14006 0.67775,2.56716 0.1838,0.20516 0.36266,0.34425 0.39746,0.30909 0.0348,-0.0352 0.18703,-0.77993 0.33827,-1.65504 z m -9.45582,-11.33495 c -1.0494,-1.15252 -2.91581,-1.513 -5.512,-1.06457 -1.72116,0.29728 -1.97962,0.0383 -1.51732,-1.52038 0.28599,-0.96422 0.76428,-1.15318 2.89784,-1.14484 3.43232,0.0134 5.49178,0.91076 6.25451,2.72519 0.17505,0.41642 0.15458,0.60704 -0.1088,1.01308 -0.44727,0.68954 -1.38225,0.6856 -2.01423,-0.008 z m -9.91433,17.33496 c -0.26001,-0.18016 -0.98811,-0.76175 -1.61802,-1.29241 -0.6299,-0.53066 -1.93219,-1.52927 -2.89398,-2.21913 -0.96179,-0.68986 -2.64068,-1.9034 -3.73086,-2.69674 -1.09018,-0.79335 -2.84179,-2.01956 -3.89247,-2.72493 -3.17671,-2.13268 -4.86927,-3.78925 -6.57329,-6.43354 -1.09763,-1.70329 -1.85532,-3.2463 -2.51709,-5.12597 -0.61488,-1.74645 -0.60473,-4.58943 0.021,-5.89519 0.5258,-1.09717 2.57573,-3.22314 4.07671,-4.22795 1.68989,-1.13126 5.67067,-2.78253 7.47355,-3.10011 2.28116,-0.40184 5.45429,-0.51833 7.83478,-0.28764 1.15574,0.11201 3.36788,0.28278 4.91586,0.3795 3.32026,0.20746 5.99758,0.50109 7.97876,0.87506 1.16388,0.21969 1.70158,0.22723 2.86547,0.0402 l 1.43273,-0.23027 0.1568,-0.96484 c 0.0862,-0.53066 0.54806,-2.57129 1.02626,-4.53474 0.4782,-1.96345 0.98832,-4.26459 1.13361,-5.11365 0.32495,-1.89911 1.81953,-6.895631 3.030359,-10.130817 l 0.90277,-2.412099 0.1402,-3.569906 c 0.0771,-1.963448 0.23442,-3.800198 0.34958,-4.081666 0.53365,-1.304313 2.54771,-2.290014 3.86386,-1.891012 3.54691,1.075278 7.6655,1.442523 14.49111,1.292134 5.77345,-0.127207 8.72395,-0.601769 11.62799,-1.870266 2.16733,-0.946699 3.09884,-1.551397 4.59958,-2.985866 1.38701,-1.325753 1.60796,-1.832124 1.58895,-3.641563 -0.0159,-1.513704 -0.0627,-1.677935 -1.05638,-3.71045 -0.57185,-1.169656 -1.39207,-2.530973 -1.82269,-3.025152 -0.94471,-1.084121 -4.18036,-3.323905 -8.32079,-5.759818 -2.76607,-1.62734 -6.50443,-4.087567 -9.83812,-6.47449 -1.61989,-1.159845 -3.9467,-2.27118 -7.83228,-3.740867 -1.73361,-0.655725 -3.62482,-1.441727 -4.20269,-1.746674 -0.88894,-0.4691 -3.19915,-1.631641 -4.20269,-2.114878 -0.38626,-0.185991 -0.47889,-2.674512 -0.20834,-5.596888 0.11299,-1.220522 0.24916,-3.217739 0.30259,-4.438261 0.0534,-1.220522 0.14943,-2.696727 0.21333,-3.280455 0.10461,-0.955604 0.0867,-1.032491 -0.17976,-0.771871 -0.37787,0.369567 -3.327099,6.144972 -4.234899,8.293067 -0.7287,1.724305 -1.60183,2.735274 -2.29247,2.654374 -0.3606,-0.04224 -0.38886,-0.23452 -0.50291,-3.421693 -0.15506,-4.333339 -0.61926,-7.695018 -1.10438,-7.997882 -0.0903,-0.05637 -0.2627,0.578164 -0.38312,1.410079 -0.12043,0.831915 -0.51993,2.632791 -0.8878,4.001946 -0.49809,1.853868 -1.37981,5.57985 -1.41749,5.990117 -10e-4,0.01503 -0.23891,0.08451 -0.52784,0.154394 -1.03039,0.249235 -4.75216,1.719705 -6.16076,2.434118 -0.78801,0.399658 -2.20642,1.224775 -3.15202,1.833593 -0.94561,0.608817 -2.3219,1.42462 -3.05843,1.812897 -1.29093,0.680536 -2.02666,1.155356 -6.05897,3.910313 -4.78718,3.270699 -10.77998,8.787401 -13.37032,12.308123 -1.40905,1.915131 -4.09949,6.344063 -6.38861,10.51675 -0.81331,1.482536 -1.81143,4.576977 -2.42745,7.525748 -0.26606,1.273589 -0.61602,2.692744 -0.77769,3.153679 -0.62664,1.786666 -1.06247,5.347989 -1.06247,8.681872 0,5.3871 0.62,9.61659 2.09793,14.3116 0.51785,1.64505 1.33443,4.29354 1.81463,5.88552 2.19556,7.27882 2.34935,7.65677 5.7713,14.18314 1.22719,2.3405 1.27303,2.39244 5.32499,6.03254 1.31963,1.18551 3.16542,2.58276 4.03364,3.05344 0.50616,0.27439 1.95187,1.06302 3.21269,1.75249 1.26082,0.68947 2.85115,1.50338 3.53408,1.80867 0.68292,0.3053 2.56447,1.23167 4.18122,2.05862 2.90843,1.48764 3.6178,1.7912 2.70072,1.15573 z M 110.98252,74.918924 c -0.55652,-0.09752 -1.27594,-0.31526 -1.59873,-0.483869 -0.72385,-0.378113 -1.61438,-1.279547 -1.77776,-1.799526 -0.1466,-0.466597 0.19029,-1.174943 0.55881,-1.174943 0.14531,0 0.38214,-0.04572 0.5263,-0.101596 0.14415,-0.05588 0.55563,0.163129 0.9144,0.486685 1.22103,1.101184 2.78906,1.298089 5.39495,0.677465 0.65811,-0.156738 1.29823,-0.286262 1.42248,-0.28783 0.68573,-0.0087 0.34757,2.213451 -0.37881,2.489249 -0.68413,0.259758 -3.96868,0.385883 -5.06164,0.194365 z m 4.73696,-5.695158 c -1.16427,-0.507469 -2.07369,-1.58231 -2.48956,-2.94239 -0.20675,-0.67616 -0.37591,-1.485056 -0.37591,-1.797544 0,-0.312487 -0.13239,-0.826773 -0.29421,-1.142857 -0.49681,-0.970484 -0.20983,-1.720633 1.21841,-3.184796 2.10268,-2.155559 3.87604,-2.629002 5.35388,-1.429346 0.43454,0.352753 0.79008,0.746454 0.79008,0.874895 0,0.12844 0.12455,0.337943 0.27678,0.46556 0.15222,0.127618 0.37894,0.550719 0.50382,0.940225 0.12487,0.389508 0.40251,1.08989 0.61698,1.556408 0.35633,0.775121 0.3704,0.963278 0.16326,2.183449 -0.26899,1.584544 -0.57163,2.22853 -1.45418,3.094336 -1.31615,1.291191 -3.16065,1.882742 -4.30935,1.38206 z m 1.57115,-2.309099 c 0.24766,-0.250175 -0.10963,-0.857182 -0.50455,-0.857182 -0.2294,0 -0.52025,-0.104203 -0.64633,-0.231562 -0.3755,-0.379309 -0.27934,-2.625789 0.1627,-3.800585 0.4569,-1.214324 0.38261,-1.654515 -0.24528,-1.453213 -0.54485,0.174684 -1.85795,1.26812 -1.8625,1.550928 -0.007,0.448629 0.91312,3.095151 1.29712,3.730042 0.51373,0.849385 1.45752,1.406354 1.79884,1.061572 z m 2.01397,-0.696477 c 0.21848,-0.220687 0.16532,-1.955473 -0.0936,-3.055224 -0.1012,-0.429811 -0.12991,-0.398245 -0.26328,0.289452 -0.19888,1.025449 -0.2113,2.991003 -0.0189,2.991003 0.0841,0 0.25316,-0.101355 0.37579,-0.225231 z M 95.183611,65.457293 c -1.22426,-0.281162 -2.01464,-0.794698 -2.40562,-1.563009 -0.20038,-0.393769 -0.36433,-0.84453 -0.36433,-1.001693 0,-0.408652 -0.35308,-0.573055 -0.66647,-0.310329 -0.36147,0.303039 -1.13073,0.170949 -1.20184,-0.206367 -0.062,-0.328899 0.19709,-1.038141 0.57395,-1.571243 0.20048,-0.283588 0.13071,-0.428466 -0.47712,-0.990866 -0.39156,-0.362293 -0.71193,-0.828922 -0.71193,-1.036957 0,-0.474022 0.57669,-1.016964 1.08017,-1.016964 0.38097,0 1.2096,0.732223 1.21513,1.07376 0.001,0.09929 0.0778,0.300009 0.16941,0.446036 0.13382,0.213403 0.33005,0.153518 0.99999,-0.305167 3.54252,-2.425452 6.2735,-2.984143 7.560639,-1.546723 0.52072,0.581503 1.70665,2.820494 2.07597,3.919331 0.38931,1.158307 0.2488,1.655361 -0.75443,2.668765 -1.08882,1.099848 -2.756269,1.663451 -4.841089,1.636298 -0.81856,-0.01067 -1.83216,-0.09835 -2.25243,-0.194872 z m 1.33139,-1.860149 c -0.49933,-1.185593 -0.55085,-1.816754 -0.24481,-2.999038 0.17056,-0.658908 0.27014,-1.239346 0.22129,-1.289861 -0.13627,-0.140911 -2.01941,0.903246 -2.75486,1.527501 l -0.65435,0.555418 0.35889,0.682632 c 0.66904,1.272532 1.13735,1.55436 3.05235,1.836888 0.09,0.01328 0.0997,-0.127808 0.0215,-0.31354 z m 3.40277,-0.114835 c 1.011449,-0.427077 1.113579,-0.666737 0.872709,-2.048011 -0.19356,-1.110025 -0.65918,-1.937722 -1.090059,-1.937722 -0.0899,0 -0.21101,0.635104 -0.26913,1.411342 -0.0581,0.776237 -0.23806,1.731428 -0.39988,2.122647 -0.34075,0.823782 -0.18397,0.903686 0.88636,0.451744 z m -15.84698,78.586511 c 0.49068,-0.32831 0.92868,-0.65664 0.97335,-0.72964 0.14097,-0.23041 -0.44299,-2.70236 -0.86224,-3.64991 -0.64032,-1.44717 -1.8929,-2.17641 -1.8929,-1.10202 0,0.34782 0.10279,0.48242 0.36841,0.48242 1.12274,0 1.30028,1.7429 0.39615,3.88909 -0.79562,1.88866 -0.54888,2.15792 1.01723,1.11006 z m -3.38776,-4.12425 c 0.1286,-1.43363 0.002,-1.77047 -0.45536,-1.21259 -0.15718,0.19167 -0.17954,2.12709 -0.0385,3.32869 0.0617,0.52535 0.37873,-0.83331 0.49381,-2.1161 z"
       id="path847" />
  </g>
</svg>
