<?xml version="1.0" encoding="UTF-8" standalone="no"?>
<svg
   xmlns:dc="http://purl.org/dc/elements/1.1/"
   xmlns:cc="http://creativecommons.org/ns#"
   xmlns:rdf="http://www.w3.org/1999/02/22-rdf-syntax-ns#"
   xmlns:svg="http://www.w3.org/2000/svg"
   xmlns="http://www.w3.org/2000/svg"
   xmlns:sodipodi="http://sodipodi.sourceforge.net/DTD/sodipodi-0.dtd"
   xmlns:inkscape="http://www.inkscape.org/namespaces/inkscape"
   width="102.57555mm"
   height="110.79076mm"
   viewBox="0 0 102.57555 110.79076"
   version="1.1"
   id="svg8"
   inkscape:version="1.0.1 (3bc2e81, 2020-09-07)"
   sodipodi:docname="tin-drum.svg">
  <defs
     id="defs2" />
  <sodipodi:namedview
     id="base"
     pagecolor="#ffffff"
     bordercolor="#666666"
     borderopacity="1.0"
     inkscape:pageopacity="0.0"
     inkscape:pageshadow="2"
     inkscape:zoom="0.42272991"
     inkscape:cx="398.8404"
     inkscape:cy="380.41057"
     inkscape:document-units="mm"
     inkscape:current-layer="layer1"
     inkscape:document-rotation="0"
     showgrid="false"
     fit-margin-top="0"
     fit-margin-left="0"
     fit-margin-right="0"
     fit-margin-bottom="0"
     inkscape:window-width="1338"
     inkscape:window-height="694"
     inkscape:window-x="14"
     inkscape:window-y="60"
     inkscape:window-maximized="0" />
  <metadata
     id="metadata5">
    <rdf:RDF>
      <cc:Work
         rdf:about="">
        <dc:format>image/svg+xml</dc:format>
        <dc:type
           rdf:resource="http://purl.org/dc/dcmitype/StillImage" />
        <dc:title></dc:title>
      </cc:Work>
    </rdf:RDF>
  </metadata>
  <g
     inkscape:label="Layer 1"
     inkscape:groupmode="layer"
     id="layer1"
     transform="translate(-360.88359,-49.000555)">
    <path
       style="fill:#f1002a;stroke-width:0.264583;fill-opacity:1"
       d="m 429.92843,159.57289 c -3.97492,-0.2058 -5.36879,-0.36183 -14.15521,-1.58454 -8.31305,-1.15684 -17.36277,-3.45098 -23.07309,-5.84913 -3.96632,-1.66572 -5.49583,-2.04369 -9.38827,-2.32004 -5.15912,-0.36628 -7.33935,-1.10462 -9.80335,-3.31998 -2.10956,-1.89667 -4.1988,-5.48491 -6.58316,-11.3065 -0.6583,-1.60731 -1.73499,-4.06923 -2.39264,-5.47095 -3.09065,-6.58743 -3.65202,-8.7094 -3.64911,-13.79337 0.002,-3.36894 0.0784,-4.04603 0.62782,-5.55625 1.42921,-3.92888 3.52668,-7.27203 6.86628,-10.944169 1.04072,-1.14435 1.94378,-2.33498 2.0068,-2.64584 0.063,-0.31086 0.26515,-1.38307 0.44918,-2.38269 0.27692,-1.50424 0.37771,-1.72085 0.58479,-1.25677 0.30107,0.67472 0.58233,0.71592 0.81145,0.11885 0.15569,-0.40572 -0.0939,-0.71849 -0.77441,-0.97038 -0.14552,-0.0539 -0.0562,-0.33307 0.19844,-0.62045 0.25466,-0.28738 0.47489,-0.87032 0.4894,-1.29542 0.0145,-0.42511 0.1122,-1.07058 0.2171,-1.43438 0.18432,-0.63921 0.37823,0.56625 0.95766,5.95313 0.0939,0.87312 0.45739,2.41193 0.80772,3.41956 0.35034,1.00763 0.63698,2.049429 0.63698,2.315099 0,0.26568 0.10588,0.48305 0.2353,0.48305 0.12942,0 0.18749,-1.0418 0.12906,-2.315109 -0.0584,-1.27331 -0.0155,-2.13651 0.0954,-1.91823 0.11092,0.21828 0.43601,0.74305 0.72242,1.16615 0.42728,0.63119 0.50647,1.12985 0.44121,2.778119 -0.0437,1.10487 -0.18879,2.12197 -0.32231,2.26021 -0.15068,0.156 -0.24278,0.0807 -0.24278,-0.19844 0,-0.50244 -0.4037,-0.60226 -0.67306,-0.16642 -0.3304,0.53459 0.17607,2.62469 0.82203,3.39236 0.63163,0.75065 0.64025,0.82323 0.38544,3.24241 -0.14336,1.36101 -0.26272,3.83678 -0.26524,5.5017 -0.004,2.66581 -0.049,2.96643 -0.37645,2.51858 -0.34992,-0.47855 -0.36408,-0.46781 -0.23985,0.18205 0.11801,0.61731 0.0622,0.67726 -0.52596,0.56483 -0.52744,-0.10083 -0.74695,-0.40865 -1.10644,-1.55156 -0.24666,-0.78418 -0.39873,-1.57498 -0.33795,-1.75733 0.0608,-0.18235 -0.2488,-1.10687 -0.68796,-2.0545 -0.69149,-1.49208 -0.8133,-2.09974 -0.90906,-4.53492 -0.0833,-2.11887 -5.8e-4,-3.19032 0.33566,-4.34695 0.48542,-1.66981 0.92141,-1.59294 0.92896,0.16378 0.005,1.07555 0.98126,5.02284 1.33122,5.38039 0.3134,0.32021 0.15791,-1.05124 -0.65098,-5.74157 -0.37151,-2.1542 -0.75331,-5.279589 -0.84845,-6.945309 -0.0951,-1.66572 -0.27683,-3.02858 -0.40378,-3.02858 -0.28581,0 -0.74688,1.17012 -0.74688,1.89547 0,0.74097 -0.78751,2.33729 -1.15462,2.34047 -0.16532,10e-4 -0.49743,0.56697 -0.73801,1.25677 -0.24058,0.68979 -1.15505,2.803009 -2.03215,4.696039 -2.46234,5.31443 -3.39007,9.80272 -2.89062,13.98459 0.17421,1.45865 0.57068,2.58633 1.82238,5.18346 0.87985,1.82558 1.82297,3.87787 2.09583,4.56064 0.91839,2.29808 3.43364,7.10377 5.32746,10.17875 3.4151,5.54506 5.86188,7.60962 10.95159,9.2408 1.64955,0.52866 3.80806,1.38296 4.79669,1.89846 0.98862,0.51549 2.33328,1.21632 2.98812,1.55739 0.93397,0.48645 1.90355,0.67804 4.49792,0.8888 1.81901,0.14778 4.61698,0.57362 6.21771,0.94632 2.74385,0.63885 7.54063,1.16111 7.54063,0.82102 0,-0.0856 -0.716,-0.29654 -1.5911,-0.46871 -2.00335,-0.39413 -3.83238,-1.53389 -4.41197,-2.7493 -0.39849,-0.83563 -0.40937,-1.25072 -0.10932,-4.17166 0.36868,-3.58901 0.54102,-3.94617 2.27593,-4.71642 3.40429,-1.51143 10.18721,-1.95349 26.36612,-1.71837 l 12.34321,0.17938 2.60575,-1.29574 c 1.43316,-0.71266 4.37534,-2.05464 6.53817,-2.98219 l 3.93242,-1.68644 -0.17324,-1.46508 c -0.29807,-2.52072 -0.66716,-10.5514 -0.67536,-14.69424 -0.012,-6.08467 -0.59477,-8.78994 -2.48952,-11.55715 -1.03181,-1.50692 -3.86526,-7.248079 -3.86526,-7.831829 0,-0.12174 -0.17845,-0.45245 -0.39655,-0.73493 -0.36598,-0.47401 -0.3867,-0.42184 -0.26878,0.67704 0.0966,0.90002 0.0707,1.02918 -0.10624,0.52916 -0.22541,-0.63713 -0.23499,-0.62984 -0.26039,0.19844 -0.0145,0.47294 0.0969,0.8599 0.24752,0.8599 0.1888,0 0.1888,0.15899 0,0.511769 -0.34587,0.64625 -0.34291,2.7366 0.006,4.11843 0.42452,1.68216 0.54673,8.25087 0.18705,10.05417 l -0.31664,1.5875 -0.1742,-1.19062 c -0.0958,-0.65485 -0.0653,-1.32765 0.0678,-1.49512 0.27849,-0.35032 0.24367,-4.32572 -0.0379,-4.32572 -0.10269,0 -0.33397,0.50602 -0.51395,1.12448 -0.17998,0.61847 -0.75134,1.99284 -1.26969,3.05416 -1.59691,3.26973 -4.48814,5.48843 -11.07831,8.50141 -3.74925,1.71413 -3.99813,1.80945 -9.63352,3.6897 -6.71758,2.24133 -6.66746,2.228 -6.91438,1.83858 -0.1217,-0.19192 -0.22471,-2.43255 -0.22893,-4.97916 -0.004,-2.54661 -0.0789,-4.89598 -0.16597,-5.22081 -0.12213,-0.45562 -0.0155,-0.6452 0.46664,-0.82953 1.34754,-0.51521 2.34356,-2.40757 2.3466,-4.45835 10e-4,-0.6959 0.16322,-2.33959 0.36042,-3.65264 l 0.35855,-2.38738 3.37617,-3.43346 c 1.8569,-1.8884 3.2984,-3.205839 3.20334,-2.927649 -0.0951,0.2782 -0.5999,1.945069 -1.12187,3.704169 -1.29521,4.36504 -4.33762,14.41256 -5.53508,18.27961 -0.54075,1.74625 -1.08259,3.28537 -1.20409,3.42028 -0.12674,0.14072 -0.39421,-0.16947 -0.62742,-0.7276 -0.22357,-0.53509 -0.4679,-0.97289 -0.54295,-0.97289 -0.19291,0 0.0218,2.23477 0.25021,2.60436 0.11528,0.18652 0.0108,0.30606 -0.26743,0.30606 -0.25112,0 -0.4,0.0566 -0.33084,0.12574 0.18322,0.18322 3.13034,-0.31907 6.2345,-1.06259 2.75733,-0.66044 5.69659,-1.72455 8.03117,-2.90758 1.3091,-0.66337 1.71336,-1.0267 0.84418,-0.7587 -0.25467,0.0785 0.54907,-0.39858 1.78608,-1.06021 1.237,-0.66163 2.64045,-1.56042 3.11878,-1.99731 0.83252,-0.76039 0.85189,-0.82148 0.45338,-1.42968 -0.38124,-0.58185 -0.37929,-0.64956 0.0232,-0.804 0.35306,-0.13548 0.40542,-0.38166 0.26627,-1.25188 -0.22021,-1.37707 -4.48067,-14.25969 -5.96805,-18.045939 l -1.12591,-2.8661 0.7562,-0.88757 c 0.41591,-0.48817 1.82769,-2.15618 3.13729,-3.70669 1.3096,-1.55051 2.82376,-3.08309 3.36481,-3.40573 0.54104,-0.32264 1.46468,-1.03162 2.05253,-1.575521 1.06415,-0.984597 1.06981,-0.986256 1.3001,-0.38122 0.12721,0.334227 0.4347,1.083931 0.6833,1.666021 0.24861,0.58208 0.60577,1.53458 0.7937,2.11666 0.54438,1.6862 1.81041,4.24948 1.92664,3.9008 0.20543,-0.61628 -0.97758,-4.20523 -2.3381,-7.093185 -0.59246,-1.257609 -0.61714,-1.667137 -0.13846,-2.297715 0.53762,-0.708224 0.7513,-0.554279 0.55088,0.396875 -0.13867,0.658111 -0.10766,0.789805 0.13215,0.561202 0.17233,-0.16428 0.37915,-0.789358 0.45958,-1.389063 0.15562,-1.160182 0.70878,-1.472102 0.9532,-0.537479 0.10846,0.414755 0.27892,0.510249 0.68232,0.382217 0.29575,-0.09387 0.77621,-0.04304 1.06768,0.112945 0.72463,0.38781 2.71832,3.796923 2.52108,4.310923 -0.0867,0.22581 0.0906,0.89705 0.39398,1.49164 0.30334,0.5946 0.71868,1.95468 0.92297,3.0224 0.20428,1.06772 0.81096,3.12285 1.34816,4.56696 1.10537,2.97146 3.65394,8.474969 4.21146,9.094429 1.92029,2.13364 3.10639,8.07763 3.1177,15.62393 0.007,4.41695 -0.43216,7.17917 -2.33197,14.68039 -1.38703,5.47661 -1.54383,5.72899 -4.47563,7.20401 -1.01864,0.51249 -1.90216,0.97784 -1.96337,1.03412 -0.0612,0.0563 0.13922,0.36974 0.4454,0.69659 0.93061,0.99344 1.1211,1.9373 1.1211,5.55504 0,2.96836 -0.0793,3.63482 -0.54714,4.60135 -1.40768,2.90788 -5.84959,4.96098 -13.0789,6.04523 -2.75603,0.41334 -6.4159,0.44897 -12.7,0.12361 z m 17.81344,-6.87141 c 3.63582,-1.00954 7.18969,-3.04744 7.18969,-4.1228 0,-1.0015 -3.68647,-2.79349 -6.8355,-3.32273 -1.72222,-0.28944 -1.9019,-0.26139 -7.68279,1.19934 -4.98327,1.25919 -6.61504,1.55466 -10.31875,1.86844 -5.34106,0.45251 -7.52532,0.92874 -10.99851,2.39803 -1.46373,0.61922 -3.13758,1.27372 -3.71966,1.45445 -0.58209,0.18073 -1.15454,0.41638 -1.27213,0.52366 -0.36271,0.33093 7.16422,0.50357 10.79713,0.24765 2.45013,-0.17261 5.34238,-0.13436 10.05416,0.13296 7.67604,0.4355 10.11315,0.36326 12.78636,-0.379 z m -23.6182,-4.96292 c -0.1249,-0.1249 -2.52961,0.91395 -2.52961,1.09281 0,0.0684 0.59265,-0.12598 1.317,-0.43201 0.72435,-0.30603 1.27003,-0.60339 1.21261,-0.6608 z m -3.58795,-0.91195 c 3.22893,-0.86265 4.25051,-0.97762 6.16332,-0.69363 1.56153,0.23183 2.03768,0.19399 3.62459,-0.28802 3.35178,-1.01807 2.76465,-1.17907 -3.96707,-1.08781 -9.60196,0.13018 -17.19792,0.84098 -17.19792,1.60933 0,0.26587 1.62546,0.74813 3.57187,1.05975 1.87147,0.29961 5.47573,0.0227 7.80521,-0.59962 z m 24.27552,-31.08926 c 1.03649,-0.83209 1.41215,-1.39812 0.92605,-1.39532 -0.27137,0.002 -2.71198,2.23177 -2.71198,2.47818 0,0.26455 0.43941,-0.002 1.78593,-1.08286 z m 0.71303,-2.81669 c 0.47306,-1.69506 0.9709,-5.64029 1.00629,-7.97455 l 0.0268,-1.76841 0.47183,0.88524 c 0.32488,0.60953 0.48485,1.54446 0.51362,3.0019 0.023,1.16417 0.10031,1.87854 0.17185,1.5875 0.0715,-0.29104 0.22577,-0.64823 0.34273,-0.79375 0.11697,-0.14552 0.36273,-0.99241 0.54615,-1.88197 0.25625,-1.24283 0.2756,-3.00072 0.0836,-7.590759 -0.29354,-7.01604 -0.59312,-7.89694 -1.42768,-4.19808 -0.27703,1.22781 -0.3807,1.40396 -0.57132,0.97081 -0.15991,-0.36334 -0.19331,-0.14852 -0.10659,0.68552 0.0695,0.66808 0.0254,1.32292 -0.0978,1.45521 -0.20911,0.2244 -0.47753,1.82918 -1.89892,11.353019 -0.94735,6.34755 -0.93726,5.91254 -0.13352,5.7589 0.57365,-0.10966 0.75982,-0.36828 1.07303,-1.49058 z M 372.836,106.47317 c -0.0608,-0.40219 -0.1122,-0.13593 -0.11419,0.59167 -0.002,0.72761 0.0478,1.05666 0.11058,0.73124 0.0628,-0.32542 0.0644,-0.92073 0.004,-1.32291 z m 77.77094,-7.717979 c -0.0997,-4.92631 -0.14299,-5.30598 -0.66912,-5.87072 l -0.56251,-0.60378 v 3.8561 c 0,2.90492 0.0974,4.043039 0.39504,4.613949 0.21727,0.41682 0.47073,1.3234 0.56325,2.01462 0.0925,0.69123 0.21586,1.25677 0.27409,1.25677 0.0582,0 0.0579,-2.37012 -8e-4,-5.266939 z m -0.25075,-12.25862 c -0.0633,-0.32912 -0.11747,-0.12215 -0.12041,0.45994 -0.003,0.58208 0.0488,0.85136 0.11507,0.59839 0.0662,-0.25296 0.0686,-0.72921 0.005,-1.05833 z m 0.25268,-1.59058 c -0.0734,-0.1819 -0.13346,-0.0331 -0.13346,0.33073 0,0.3638 0.0601,0.51263 0.13346,0.33072 0.0734,-0.1819 0.0734,-0.47955 0,-0.66145 z m 0.24921,-2.508034 c -0.26896,-0.268952 -0.49087,0.135967 -0.2702,0.493019 0.16669,0.269722 0.22902,0.269931 0.31864,0.0011 0.0613,-0.18383 0.0395,-0.40617 -0.0484,-0.494089 z m -29.29342,49.547023 c -0.12855,-1.77605 0.0223,-3.09849 0.34122,-2.99217 0.17151,0.0572 0.4394,0.33498 0.59532,0.61736 0.15591,0.28238 0.39577,0.59419 0.53302,0.69291 0.35557,0.25575 -0.2383,1.44487 -0.89789,1.79787 -0.43555,0.2331 -0.54806,0.21028 -0.57167,-0.11597 z m -2.1968,-0.8692 c 0.0985,-0.5457 0.23989,-1.09757 0.31428,-1.22637 0.19037,-0.32964 0.83291,0.90583 0.84421,1.62324 0.007,0.4639 -0.1393,0.59532 -0.66407,0.59532 -0.63365,0 -0.66287,-0.0587 -0.49442,-0.99219 z m -8.66783,-2.44922 c -0.53468,-0.13539 -1.34764,-0.47451 -1.80657,-0.75361 l -0.83443,-0.50745 2.73261,-0.17942 c 2.77189,-0.182 6.40374,-0.54988 8.23921,-0.83458 l 1.00868,-0.15645 -0.0826,1.1171 -0.0826,1.1171 -1.98437,0.0604 c -1.09141,0.0332 -2.93688,0.13302 -4.10104,0.22174 -1.16417,0.0887 -2.55414,0.0505 -3.08882,-0.0848 z m -14.37368,-2.4934 c -1.60073,-0.33471 -4.16058,-1.00415 -5.68854,-1.48766 -1.52797,-0.4835 -3.07579,-0.90403 -3.43959,-0.93451 -2.42302,-0.203 -3.95859,-0.53144 -4.7625,-1.01866 -0.50932,-0.30868 -1.35179,-0.78213 -1.87214,-1.05211 -1.79325,-0.9304 -2.62758,-1.80282 -2.80559,-2.93371 -0.0916,-0.58209 -0.2857,-1.1363 -0.43128,-1.23159 -0.17526,-0.11472 -0.15739,-0.96393 0.0529,-2.51354 0.17467,-1.28716 0.33422,-3.62015 0.35454,-5.18442 0.0339,-2.60997 0.0876,-2.89174 0.65245,-3.42235 0.76172,-0.71561 1.06032,-1.8136 1.29124,-4.74819 l 0.17968,-2.283419 1.83584,-0.82543 c 2.12716,-0.95642 2.44485,-1.01103 2.10804,-0.36242 -0.33149,0.63838 -3.6059,12.777389 -4.40056,16.313909 -0.64028,2.84947 -0.64969,3.46463 -0.0497,3.24938 0.40331,-0.14469 1.76169,0.54787 1.76169,0.89819 0,0.15037 0.0978,0.21297 0.21728,0.13911 0.1195,-0.0738 0.77928,0.40425 1.46617,1.06245 0.6869,0.6582 1.80951,1.43588 2.4947,1.72818 0.6852,0.29229 1.78159,0.77432 2.43643,1.07118 2.16499,0.98143 6.48049,2.27875 8.74757,2.62967 1.72866,0.26758 2.05346,0.37958 1.43889,0.49618 -0.66872,0.12687 -0.48118,0.217 1.19062,0.57219 1.38654,0.29458 1.70538,0.42529 1.05834,0.43386 -0.50933,0.007 -2.23573,-0.26159 -3.83646,-0.59629 z m -12.03854,-3.98707 c -0.36381,-0.20797 -0.78053,-0.37812 -0.92605,-0.37812 -0.14552,0 0.0331,0.17015 0.39688,0.37812 0.3638,0.20797 0.78052,0.37813 0.92604,0.37813 0.14552,0 -0.0331,-0.17016 -0.39687,-0.37813 z m 14.76705,3.65572 c 0.191,-0.0764 0.4192,-0.067 0.50712,0.0209 0.0879,0.0879 -0.0684,0.15045 -0.34726,0.13896 -0.30823,-0.0127 -0.37092,-0.0754 -0.15986,-0.15985 z m -1.39593,-1.20832 c -0.0583,-0.1819 -1.11467,-3.18823 -2.34748,-6.68073 -1.23281,-3.4925 -3.34243,-9.74328 -4.68805,-13.89063 -1.34561,-4.147339 -2.52831,-7.634339 -2.62821,-7.748889 -0.0999,-0.11455 -0.49868,-0.0877 -0.88617,0.0596 -1.7287,0.65724 -0.17523,-0.33174 3.71997,-2.36825 l 2.17556,-1.13744 3.51298,0.57527 c 1.93214,0.31639 3.81064,0.57479 4.17444,0.57422 0.43767,-8e-4 1.4248,0.64667 2.9176,1.91336 1.24087,1.05294 2.71907,2.29524 3.28487,2.76067 0.76947,0.63297 0.95966,0.93304 0.75468,1.19063 -0.33162,0.416709 -9.3384,24.294739 -9.3384,24.757179 0,0.42593 -0.51492,0.42199 -0.65179,-0.005 z m -19.26862,-1.78594 c -0.0865,-0.33071 -0.008,-0.52917 0.20895,-0.52917 0.21708,0 0.29544,0.19846 0.20896,0.52917 -0.0761,0.29104 -0.17014,0.52917 -0.20896,0.52917 -0.0388,0 -0.13284,-0.23813 -0.20895,-0.52917 z m -1.31966,0.10298 c -0.28808,-0.28807 -0.2295,-1.4259 0.0734,-1.4259 0.14552,0 0.2664,-0.32742 0.26863,-0.7276 0.003,-0.56699 0.0607,-0.63999 0.26053,-0.33073 0.14107,0.21828 0.25831,0.70154 0.26054,1.07391 0.005,0.76222 -0.5709,1.70253 -0.86311,1.41032 z m -1.32587,-1.85504 c -0.10353,-0.10352 -0.18822,-0.35195 -0.18822,-0.55206 0,-0.20011 -0.23813,-0.61944 -0.52917,-0.93183 -0.64242,-0.68956 -0.67969,-1.06579 -0.0942,-0.95064 0.74397,0.14631 1.46964,1.35264 1.21986,2.02785 -0.12104,0.3272 -0.30477,0.5102 -0.40829,0.40668 z m 42.95463,-3.84821 c -0.82817,-0.88894 -0.72006,-1.31242 0.24881,-0.97467 0.49477,0.17248 0.79375,0.4604 0.79375,0.76437 0,0.76126 -0.44553,0.85113 -1.04256,0.2103 z m 23.12439,-0.23817 c -0.0959,-0.1552 -0.11765,-0.33893 -0.0483,-0.40828 0.0694,-0.0694 0.1966,0.0576 0.28278,0.28218 0.1789,0.46623 0.0264,0.54824 -0.23448,0.1261 z m -22.76729,-3.78601 c -0.0839,-0.21867 -0.0403,-0.59826 0.097,-0.84353 0.21299,-0.3806 0.2692,-0.34325 0.38353,0.25482 0.14621,0.76481 -0.23415,1.23078 -0.48053,0.58871 z m 2.43809,-2.27235 c 0.17946,-2.02233 0.47165,-2.58577 1.0794,-2.08138 0.18493,0.15348 0.51639,0.20992 0.73657,0.12542 0.35737,-0.13713 0.35736,-0.0507 -10e-5,0.80477 -0.22024,0.52713 -0.34038,1.01846 -0.26697,1.09187 0.0734,0.0734 0.002,0.29174 -0.15842,0.48518 -0.16054,0.19343 -0.2251,0.52575 -0.14347,0.73847 0.10001,0.26063 0.0224,0.33841 -0.23799,0.23849 -0.25447,-0.0976 -0.33797,-0.0221 -0.24456,0.22136 0.093,0.24228 -0.0448,0.36964 -0.39976,0.36964 -0.51351,0 -0.53243,-0.10349 -0.3647,-1.99382 z m -2.63457,0.60791 c -0.28,-0.28 -0.20453,-1.94028 0.0882,-1.94028 0.14552,0 0.26459,0.47625 0.26459,1.05834 0,1.08142 -0.0438,1.19092 -0.35278,0.88194 z m 0.86771,-2.89291 c -0.33067,-0.61786 -0.31658,-0.72583 0.13815,-1.05834 1.11084,-0.81226 1.68785,-0.27798 1.0017,0.92754 -0.5654,0.99339 -0.67168,1.00558 -1.13985,0.1308 z m -4.26396,-1.89164 c -0.44052,-1.12137 -0.3033,-1.46591 0.29616,-0.7436 0.17386,0.20948 0.27773,0.7155 0.23084,1.12448 -0.0815,0.71085 -0.10472,0.69408 -0.527,-0.38088 z m -0.57291,-2.59467 c -0.47307,-0.4161 -1.31454,-1.95189 -2.27864,-4.158829 -2.24543,-5.14002 -2.13742,-4.94996 -2.7589,-4.85512 -0.3818,0.0583 -0.71615,0.49672 -1.09224,1.43231 -0.2981,0.74158 -0.62155,1.42787 -0.71877,1.5251 -0.16569,0.16569 -3.69443,-2.5552 -4.3708,-3.37018 -0.26384,-0.3179 0.41577,-0.37422 4.63952,-0.38447 10.1723,-0.0247 20.9617,-1.98657 28.04677,-5.09987 1.35335,-0.59469 2.52482,-1.08125 2.60328,-1.08125 0.17189,0 -3.41755,4.18553 -3.61356,4.21366 -0.0754,0.0108 -0.34016,-0.30775 -0.58828,-0.70793 -0.24811,-0.40018 -0.45428,-0.57877 -0.45815,-0.39687 -0.004,0.1819 -0.22544,0.33073 -0.49238,0.33073 -0.38355,0 -0.6372,0.51326 -1.2095,2.44739 -0.79043,2.67135 -0.83266,2.72942 -5.40236,7.429599 -2.06603,2.12501 -2.30252,2.29397 -2.61424,1.86766 -0.1885,-0.25779 -0.34273,-0.55057 -0.34273,-0.65062 0,-0.35648 -1.55867,-0.82009 -2.13847,-0.63607 -0.32449,0.10299 -0.86069,0.47934 -1.19155,0.83635 l -0.60156,0.6491 -0.54775,-0.54775 c -0.80351,-0.8035 -2.01272,-0.71099 -2.94936,0.22565 -0.42537,0.42537 -0.77339,0.96115 -0.77339,1.19063 0,0.57364 -0.26921,0.51279 -1.14694,-0.25922 z m -37.16359,-1.63866 c 0.0709,-1.61826 0.13183,-1.78865 0.6491,-1.81479 0.48149,-0.0243 0.5993,0.16076 0.75249,1.18233 0.11898,0.79343 0.0818,1.24446 -0.10784,1.30767 -0.15921,0.0531 -0.28947,0.32469 -0.28947,0.60361 0,0.3345 -0.18424,0.50712 -0.54126,0.50712 -0.49955,0 -0.53523,-0.1376 -0.46302,-1.78594 z m -0.32225,-2.725209 c -0.002,-0.21101 -0.0754,-0.65154 -0.16316,-0.97896 -0.0877,-0.32742 -0.0405,-0.59531 0.10507,-0.59531 0.36018,0 0.61001,1.39361 0.30593,1.70656 -0.15255,0.156989 -0.24559,0.107329 -0.24784,-0.13229 z m 2.25361,-2.36186 c -0.22655,-1.34093 -1.17484,-2.76011 -1.91585,-2.8672 -0.31555,-0.0456 -0.65616,-0.34266 -0.75693,-0.66014 -0.10076,-0.31749 -0.52143,-0.87549 -0.93482,-1.24001 -0.92537,-0.81598 -1.42948,-2.40571 -1.97154,-6.21735 -0.30727,-2.16059 -0.54481,-3.030926 -0.92352,-3.383748 -0.28041,-0.261247 -0.50984,-0.645137 -0.50984,-0.853086 0,-0.207952 0.92273,0.547196 2.05052,1.678101 1.12779,1.130913 2.7451,2.509293 3.59403,3.063083 3.13764,2.0468 8.14017,4.2024 12.05004,5.19238 0.63698,0.16129 1.0537,0.38763 0.92604,0.50299 -0.3492,0.31557 -3.27575,1.8684 -3.52129,1.8684 -0.11765,0 -0.36328,-0.53352 -0.54585,-1.1856 -0.34943,-1.24803 -0.85961,-1.87973 -1.29887,-1.60825 -0.14427,0.0892 -0.57025,1.17168 -0.94662,2.40559 l -0.6843,2.24347 -2.10181,1.05677 c -1.156,0.58123 -2.15352,1.05677 -2.21672,1.05677 -0.0632,0 -0.1949,-0.47347 -0.29267,-1.05217 z m -3.04375,0.11052 c 0,-0.22687 0.11906,-0.33891 0.26458,-0.24897 0.14552,0.0899 0.26459,0.27556 0.26459,0.41249 0,0.13693 -0.11907,0.24897 -0.26459,0.24897 -0.14552,0 -0.26458,-0.18563 -0.26458,-0.41249 z m 33.81706,-5.58909 c 0.19099,-0.0764 0.41919,-0.067 0.50712,0.0209 0.0879,0.0879 -0.0684,0.15045 -0.34727,0.13896 -0.30823,-0.0127 -0.37092,-0.0754 -0.15985,-0.15985 z m -13.59201,-0.99207 c -0.70568,-0.52084 -0.15902,-1.16211 0.58539,-0.68671 0.42639,0.2723 0.42964,0.29367 0.0255,0.16801 -0.25466,-0.0792 -0.46302,-0.0357 -0.46302,0.0967 0,0.43031 0.54305,0.58975 0.92604,0.2719 0.40808,-0.33868 1.02807,-0.11455 0.78245,0.28286 -0.22915,0.37078 -1.27551,0.29594 -1.85636,-0.13276 z m -0.625,-2.15653 c 0.0127,-0.30822 0.0754,-0.37092 0.15985,-0.15985 0.0764,0.19099 0.067,0.4192 -0.0209,0.50712 -0.0879,0.0879 -0.15045,-0.0684 -0.13897,-0.34727 z m -24.04651,-2.66727 c -0.30102,-0.57108 -0.33786,-1.940888 -0.0522,-1.940888 0.22161,0 0.61477,2.119998 0.42783,2.306938 -0.0658,0.0658 -0.23483,-0.0989 -0.37563,-0.36605 z m 35.71931,-1.10172 c -0.20536,-0.13482 1.1325,-0.29483 3.30729,-0.39556 3.92616,-0.18184 10.76299,-0.966155 14.34484,-1.645621 2.48853,-0.472067 8.69731,-2.32233 9.92743,-2.958451 0.70851,-0.366385 0.74654,-0.439071 0.30987,-0.592249 -0.39194,-0.137483 -0.22281,-0.281255 0.7955,-0.676235 2.28195,-0.885119 3.55583,-0.275199 1.38009,0.660775 -6.03954,2.598145 -14.13711,4.596096 -21.38579,5.276621 -4.57001,0.42904 -8.31227,0.57164 -8.67923,0.33072 z m -8.51868,-0.52146 c 0,-0.116296 0.41671,-0.162802 0.92604,-0.10334 0.50932,0.05946 0.92604,0.15461 0.92604,0.21146 0,0.0568 -0.41672,0.10334 -0.92604,0.10334 -0.50933,0 -0.92604,-0.0952 -0.92604,-0.21146 z m -4.36563,-0.344029 c -0.43656,-0.134982 -1.86531,-0.482589 -3.175,-0.772464 -5.57666,-1.234279 -11.14873,-3.50965 -14.56567,-5.947934 -3.15571,-2.251861 -5.69771,-5.877769 -5.65759,-8.069948 l 0.017,-0.926042 0.5256,1.331564 c 2.12927,5.394407 8.71716,9.696863 18.85811,12.315944 2.19868,0.567851 3.40229,0.95866 2.67468,0.868468 -1.55115,-0.192278 -1.52004,0.03227 0.0534,0.385811 0.635,0.142673 1.19513,0.147968 1.33053,0.01257 0.12861,-0.128611 0.82233,-0.147492 1.5416,-0.04196 l 1.30776,0.191881 -0.92604,0.172093 -0.92605,0.17209 0.8599,0.03483 c 0.47294,0.01916 0.8599,0.153892 0.8599,0.299413 0,0.324263 -1.69624,0.308193 -2.77813,-0.02633 z m -7.26838,-0.227928 c -0.21407,-0.135379 -0.3085,-0.326858 -0.20985,-0.42551 0.24212,-0.242118 0.99594,0.06584 0.99594,0.406873 0,0.336047 -0.27392,0.342543 -0.78609,0.01863 z m 28.10935,-0.193688 c 0.25743,-0.06708 0.61462,-0.06267 0.79375,0.0098 0.17913,0.07248 -0.0315,0.127363 -0.46805,0.121971 -0.43657,-0.0054 -0.58313,-0.06469 -0.3257,-0.131774 z m 2.50851,-0.256458 c 0.1819,-0.0734 0.47956,-0.0734 0.66146,0 0.1819,0.0734 0.0331,0.133453 -0.33073,0.133453 -0.3638,0 -0.51263,-0.06006 -0.33073,-0.133453 z m -33.73438,-0.362183 c -0.50217,-0.20185 -0.85546,-0.785505 -0.47546,-0.785505 0.33756,0 1.46765,0.643887 1.46765,0.836221 0,0.27152 -0.21826,0.260363 -0.99219,-0.05072 z m 37.45508,-0.172495 c 0.191,-0.07643 0.4192,-0.06703 0.50712,0.02088 0.0879,0.08792 -0.0683,0.150453 -0.34726,0.138964 -0.30823,-0.0127 -0.37092,-0.07539 -0.15986,-0.15985 z m 21.74545,-0.99427 c 0,-0.397184 0.47501,-0.819419 0.68529,-0.609144 0.18454,0.184538 -0.18081,0.990404 -0.44902,0.990404 -0.12995,0 -0.23627,-0.171567 -0.23627,-0.38126 z m -0.77286,-1.556369 c -0.0171,-0.82655 0.0638,-0.995447 0.44213,-0.92334 0.58209,0.110945 0.80017,1.273469 0.23888,1.273469 -0.21627,0 -0.45328,0.148828 -0.52668,0.330729 -0.0734,0.181901 -0.14285,-0.124487 -0.15433,-0.680858 z m 1.6989,-0.179038 c -0.0899,-0.145521 -0.0374,-0.264583 0.11667,-0.264583 0.15411,0 0.2802,0.119062 0.2802,0.264583 0,0.145521 -0.0525,0.264583 -0.11667,0.264583 -0.0642,0 -0.19026,-0.119062 -0.2802,-0.264583 z m -11.18005,-3.019708 c -2.56856,-0.704482 -2.94007,-0.949042 -1.44168,-0.949042 1.11468,0 3.88904,0.892482 4.16565,1.340046 0.21874,0.35393 -0.25678,0.285673 -2.72397,-0.391004 z m 12.43617,-3.813384 c -0.2413,-0.153205 -0.109,-0.421831 0.48664,-0.988134 0.89277,-0.848797 1.56453,-1.972316 1.56453,-2.616677 0,-0.306969 -0.28701,-0.410014 -1.14203,-0.410014 -1.82076,0 -4.22074,-0.515329 -4.99882,-1.073356 -0.39429,-0.282779 -1.1682,-0.523203 -1.71979,-0.534273 -1.18915,-0.02387 -2.94274,-0.606396 -2.55214,-0.847802 0.15049,-0.09301 1.07606,-0.198729 2.05682,-0.234942 1.43539,-0.053 1.9108,-0.184089 2.43738,-0.672108 0.5058,-0.468757 0.96315,-0.606269 2.01638,-0.606269 1.05949,0 1.29164,-0.07056 1.0447,-0.3175 -0.62515,-0.625152 -0.28224,-0.740833 2.19604,-0.740833 h 2.51354 l -0.006,2.182812 c -0.007,2.472479 -0.43926,3.702249 -2.04207,5.803985 -0.97971,1.284684 -1.25091,1.438907 -1.85538,1.055111 z m 3.13124,-4.113612 c 0.52316,-1.152081 0.66655,-2.147451 0.27444,-1.905112 -0.12815,0.0792 -0.29196,0.413645 -0.36404,0.743218 -0.0721,0.329573 -0.33053,1.05651 -0.57434,1.615419 -0.25859,0.592772 -0.31591,0.937469 -0.13758,0.827254 0.16815,-0.103918 0.52883,-0.680268 0.80152,-1.280779 z m -76.37432,1.017087 c -0.33802,-0.809006 -0.37155,-1.223981 -0.15573,-1.927206 0.19381,-0.631466 0.18959,-1.103302 -0.0143,-1.597293 -0.39199,-0.94992 -0.29461,-1.47516 0.63834,-3.443015 0.439,-0.925974 0.82298,-1.85257 0.85329,-2.059102 0.0998,-0.679978 3.15695,-3.545576 5.34261,-5.007858 2.73245,-1.828098 6.50927,-3.615874 7.1331,-3.376486 0.26901,0.103228 0.39924,0.0721 0.30903,-0.07388 -0.0898,-0.145349 0.25627,-0.232314 0.81649,-0.20516 0.53483,0.02592 1.92492,-0.228218 3.08909,-0.56476 1.16416,-0.336541 2.9501,-0.806361 3.96875,-1.044042 1.01864,-0.237682 2.01381,-0.486768 2.21148,-0.553525 0.28929,-0.0977 0.3409,0.330774 0.26458,2.196427 -0.0948,2.316477 -0.0944,2.317848 0.58045,2.396472 1.42173,0.165635 2.13075,-1.892904 0.84609,-2.456513 -0.64009,-0.280824 -0.73826,-0.783597 -0.35159,-1.80063 0.26852,-0.706257 0.26354,-0.705028 5.57711,-1.374682 3.60377,-0.454173 13.90627,-0.52755 17.67137,-0.12586 1.41309,0.150759 3.79994,0.517498 5.30411,0.814974 1.50417,0.297475 2.78944,0.486274 2.85616,0.419553 0.0667,-0.06672 -0.68771,-0.27028 -1.67652,-0.452352 -1.90482,-0.350739 -2.67696,-0.635711 -2.29483,-0.846948 0.12783,-0.07066 1.29727,0.08624 2.59875,0.348675 5.31411,1.071549 11.61615,3.407356 11.70894,4.339844 0.0288,0.289357 0.20176,1.329459 0.38435,2.311338 0.21026,1.130606 0.23957,1.876868 0.0799,2.035128 -0.13863,0.137442 -1.74034,0.331542 -3.55935,0.431334 -3.07627,0.168766 -3.45515,0.134962 -5.42396,-0.483931 -6.5232,-2.050559 -17.81829,-2.867047 -26.59062,-1.922156 -14.79073,1.59315 -26.90061,6.863842 -30.75101,13.384038 l -0.98537,1.668621 z M 383.34619,54.93351 c 0.28247,-0.213654 0.40153,-0.384674 0.26458,-0.380046 -0.13695,0.0046 -0.48012,0.183221 -0.7626,0.396875 -0.28247,0.213653 -0.40153,0.384673 -0.26458,0.380046 0.13695,-0.0046 0.48012,-0.183222 0.7626,-0.396875 z m 2.92599,-1.32774 c 0.7276,-0.35322 1.02526,-0.568917 0.66146,-0.479324 -0.7583,0.186744 -2.64799,1.132942 -2.24896,1.126088 0.14552,-0.0025 0.8599,-0.293543 1.5875,-0.646764 z m 53.2915,0.31366 c -0.0606,-0.05305 -0.4079,-0.238211 -0.77171,-0.411471 -0.62369,-0.297034 -0.63213,-0.291527 -0.14786,0.09645 0.42148,0.337676 1.28266,0.632693 0.91957,0.315019 z m -2.62379,-1.226464 c -0.21828,-0.141065 -0.51594,-0.256481 -0.66146,-0.256481 -0.14552,0 -0.086,0.115416 0.13229,0.256481 0.21828,0.141064 0.51594,0.25648 0.66146,0.25648 0.14552,0 0.086,-0.115416 -0.13229,-0.25648 z m -1.74901,-0.668733 c -0.45263,-0.198541 -1.16701,-0.427846 -1.5875,-0.509568 -0.42049,-0.08172 -0.16922,0.0812 0.55838,0.362059 1.50965,0.582722 2.26968,0.691661 1.02912,0.147509 z m -2.8812,-0.918767 c -0.29104,-0.125065 -0.70776,-0.227391 -0.92604,-0.227391 -0.25016,0 -0.20125,0.08406 0.13229,0.227391 0.29104,0.125064 0.70776,0.22739 0.92604,0.22739 0.25016,0 0.20126,-0.08406 -0.13229,-0.22739 z m -1.52686,-0.424436 c -0.0879,-0.08792 -0.31613,-0.09732 -0.50712,-0.02089 -0.21107,0.08446 -0.14838,0.147157 0.15985,0.159852 0.27891,0.01149 0.43518,-0.05104 0.34727,-0.138964 z m 11.24113,7.499127 c -0.39673,-0.486059 -1.12318,-3.105941 -0.86124,-3.105941 0.12406,0 0.15867,-0.255788 0.0769,-0.568417 l -0.14864,-0.568417 0.85839,0.502271 c 1.14894,0.672271 4.25094,3.235366 4.25094,3.512425 0,0.121215 -0.79262,0.242197 -1.76138,0.268848 -0.96875,0.02665 -1.84823,0.10214 -1.95439,0.167752 -0.10617,0.06561 -0.31343,-0.02822 -0.46059,-0.208521 z m 0.86994,-2.310769 c -0.0894,-0.144738 -0.4239,-0.390854 -0.74321,-0.546924 -0.50018,-0.244464 -0.48898,-0.208832 0.0809,0.257278 0.74076,0.605906 0.90114,0.676043 0.66233,0.289646 z"
       id="path847" />
  </g>
</svg>
