<?xml version="1.0" encoding="UTF-8" standalone="no"?>
<svg
   xmlns:dc="http://purl.org/dc/elements/1.1/"
   xmlns:cc="http://creativecommons.org/ns#"
   xmlns:rdf="http://www.w3.org/1999/02/22-rdf-syntax-ns#"
   xmlns:svg="http://www.w3.org/2000/svg"
   xmlns="http://www.w3.org/2000/svg"
   xmlns:sodipodi="http://sodipodi.sourceforge.net/DTD/sodipodi-0.dtd"
   xmlns:inkscape="http://www.inkscape.org/namespaces/inkscape"
   width="249"
   height="326"
   version="1.1"
   id="svg7004"
   sodipodi:docname="glade.svg"
   inkscape:version="1.0.1 (3bc2e81, 2020-09-07)">
  <metadata
     id="metadata7010">
    <rdf:RDF>
      <cc:Work
         rdf:about="">
        <dc:format>image/svg+xml</dc:format>
        <dc:type
           rdf:resource="http://purl.org/dc/dcmitype/StillImage" />
        <dc:title />
      </cc:Work>
    </rdf:RDF>
  </metadata>
  <defs
     id="defs7008" />
  <sodipodi:namedview
     pagecolor="#ffffff"
     bordercolor="#666666"
     borderopacity="1"
     objecttolerance="10"
     gridtolerance="10"
     guidetolerance="10"
     inkscape:pageopacity="0"
     inkscape:pageshadow="2"
     inkscape:window-width="1338"
     inkscape:window-height="696"
     id="namedview7006"
     showgrid="false"
     inkscape:zoom="1.3183887"
     inkscape:cx="118.74845"
     inkscape:cy="143.54594"
     inkscape:window-x="14"
     inkscape:window-y="58"
     inkscape:window-maximized="0"
     inkscape:current-layer="svg7004"
     inkscape:document-rotation="0" />
  <path
     style="fill:#4d4d4d;fill-opacity:1;stroke:none"
     d="m 52,6.000005 c -0.4893,11.3968 -1.4638,23.5441 4.3488,34 10.2095,18.3654 35.7092,23.6849 53.6512,31.4282 6.294,2.7163 11.009,7.4804 17,10.5718 -1.294,-10.2426 -2.08,-20.882 -7.475,-30 -11.595,-19.5963 -32.034,-22.4607 -50.525,-32.3233 -6.7421,-3.596 -10.9626,-9.33493 -17,-13.6767 m 87,42 c 7.665,18.226 16.631,31.2408 9.644,52.000005 -1.254,3.7258 -5.118,16.077 -10.446,15.218 -3.464,-0.559 -4.571,-6.579 -5.65,-9.218 -2.711,-6.625505 -6.745,-12.432805 -12.563,-16.699105 -12.459,-9.137 -28.33,-8.5023 -41.985,-14.6134 -11.0002,-4.9229 -16.3679,-14.8647 -26,-20.6875 0,24.6171 4.027,40.5451 18,61.000005 -14.2032,-0.619 -26.9447,-10.2742 -33,-23.000005 H 36 L 43,133 c -13.1293,-2.708 -30.655,-7.757 -43,0 30.2457,18.598 23.6671,52.596 32.4398,82 3.5411,11.869 12.3285,22.062 20.5602,31 L 40,236 c 0.3935,18.962 12.1708,45.469 27.0394,57.471 18.2896,14.762 47.3816,22.545 69.9606,27.318 14.684,3.105 46.012,7.458 56,-7.789 L 136,302.656 67,270 v -1 c 36.413,17.001 70.115,33.303 111,36.09001 16.276,1.10899 37.444,0.401 46,-16.09 -35.626,0 -67.877,-4.305 -101,-18.427 C 106.592,263.577 92.035,253.495 76,246 v -1 c 40.084,16.777 76.002,37 121,37 18.47,0 42.639,-1.949 45,-25 -55.02,15.462 -105.612,-16.849 -153,-39 v -1 c 38.791,16.236 73.432,35.859 117,35.999 10.927,0.035 32.786,-0.724 40.142,-10.389 2.884,-3.79 2.763,-11.029 2.858,-15.61 -13.192,1.948 -24.321,5.56 -38,4.961 C 171.398,230.227 139.511,210.322 105,194 v -1 c 35.93,14.963 66.952,31 107,31 9.662,0 30.759,-0.877 35.933,-11.105 2.39,-4.725 -1.01,-13.426 -2.933,-17.895 h -1 c -6.762,11.452 -24.302,10.801 -36,9.282 C 175.06,200.003 150.385,185.736 121,172 v -1 c 30.284,12.609 57.202,26.398 91,25.996 12.665,-0.151 35.432,-3.656 27.247,-19.996 -1.04,-2.076 -2.016,-4.856 -3.884,-6.353 -3.263,-2.615 -8.093,1.116 -11.363,2.132 -6.985,2.172 -15.756,1.63 -23,1.131 -20.602,-1.418 -45.34,-11.563 -61,-24.91 18.983,9.988 42.991,19.959 65,17.83 6.492,-0.628 19.143,-1.839 21.852,-8.935 3.959,-10.371 -5.152,-24.08 -9.852,-32.89499 -3.353,5.30199 -4.635,11.41899 -10.04,15.34799 -12.401,9.014 -34.186,-1.575 -43.96,-10.34799 8.311,2.81099 16.992,6.75099 26,5.82599 23.784,-2.443 19.185,-28.491 11.216,-43.825995 -10.857,-20.8913 -36.922,-41.8655 -61.216,-44 m 86,50 C 215.016,110.19201 225.005,120.00601 230,132 h 1 c 4.959,-12.17199 0.853,-23.16299 -6,-33.999995 M 120,170.333 c 0.773,0 0.16,0.498 -0.333,0.334 L 120,170.333 M 105,193 l -3,-2 3,2 m -17,23.333 c 0.773,0 0.16,0.498 -0.333,0.334 L 88,216.333 M 76,245 l -3,-2 3,2 m -22,1 -1,1 1,-1 m 20,54 c 12.163,14.94 38.21,24.505 57,26 v -1 z"
     id="path8244" />
  <path
     style="fill:#ffee84;fill-opacity:1;stroke:none"
     d="M 52,0 C 51.5107,11.3968 50.5362,23.5441 56.3488,34 66.5583,52.3654 92.058,57.6849 110,65.4282 116.294,68.1445 121.009,72.9086 127,76 125.706,65.7574 124.92,55.118 119.525,46 107.93,26.4037 87.491,23.5393 69,13.676701 62.2579,10.080701 58.0374,4.34177 52,0 m 87,42 c 7.665,18.226 16.631,31.2408 9.644,52 -1.254,3.7258 -5.118,16.07699 -10.446,15.21801 -3.464,-0.559 -4.571,-6.579 -5.65,-9.21801 C 129.837,93.3745 125.803,87.5672 119.985,83.3009 107.526,74.1639 91.655,74.7986 78,68.6875 66.9998,63.7646 61.6321,53.8228 52,48 52,72.6171 56.027,88.5451 70,109.00001 55.7968,108.38101 43.0553,98.7258 37,86 h -1 l 7,41.00001 c -13.1293,-2.708 -30.655,-7.75701 -43,0 C 30.2457,145.598 23.6671,179.596 32.4398,209 35.9809,220.869 44.7683,231.062 53,240 L 40,230 c 0.3935,18.962 12.1708,45.469 27.0394,57.471 18.2896,14.762 47.3816,22.545 69.9606,27.318 14.684,3.105 46.012,7.458 56,-7.789 L 136,296.656 67,264 v -1 c 36.413,17.001 70.115,33.303 111,36.09001 16.276,1.10899 37.444,0.401 46,-16.09 -35.626,0 -67.877,-4.305 -101,-18.427 C 106.592,257.577 92.035,247.495 76,240 v -1 c 40.084,16.777 76.002,37 121,37 18.47,0 42.639,-1.949 45,-25 -55.02,15.462 -105.612,-16.849 -153,-39 v -1 c 38.791,16.236 73.432,35.859 117,35.999 10.927,0.035 32.786,-0.724 40.142,-10.389 2.884,-3.79 2.763,-11.029 2.858,-15.61 -13.192,1.948 -24.321,5.56 -38,4.961 C 171.398,224.227 139.511,204.322 105,188 v -1 c 35.93,14.963 66.952,31 107,31 9.662,0 30.759,-0.877 35.933,-11.105 2.39,-4.725 -1.01,-13.426 -2.933,-17.895 h -1 c -6.762,11.452 -24.302,10.801 -36,9.282 C 175.06,194.003 150.385,179.736 121,166 v -1 c 30.284,12.609 57.202,26.398 91,25.996 12.665,-0.151 35.432,-3.656 27.247,-19.996 -1.04,-2.076 -2.016,-4.856 -3.884,-6.353 -3.263,-2.615 -8.093,1.116 -11.363,2.132 -6.985,2.172 -15.756,1.63 -23,1.131 -20.602,-1.418 -45.34,-11.563 -61,-24.91 18.983,9.988 42.991,19.959 65,17.83 6.492,-0.628 19.143,-1.839 21.852,-8.935 3.959,-10.371 -5.152,-24.07999 -9.852,-32.89499 -3.353,5.30199 -4.635,11.41899 -10.04,15.34799 -12.401,9.014 -34.186,-1.575 -43.96,-10.34799 8.311,2.811 16.992,6.751 26,5.82599 C 212.784,127.38301 208.185,101.335 200.216,86 189.359,65.1087 163.294,44.1345 139,42 m 86,50 c -9.984,12.192 0.005,22.006 5,34.00001 h 1 C 235.959,113.828 231.853,102.837 225,92 m -105,72.333 c 0.773,0 0.16,0.498 -0.333,0.334 L 120,164.333 M 105,187 l -3,-2 3,2 m -17,23.333 c 0.773,0 0.16,0.498 -0.333,0.334 L 88,210.333 M 76,239 l -3,-2 3,2 m -22,1 -1,1 1,-1 m 20,54 c 12.163,14.94 38.21,24.505 57,26 v -1 z"
     id="path8244-9" />
</svg>
