<?xml version="1.0" encoding="UTF-8" standalone="no"?>
<svg
   xmlns:dc="http://purl.org/dc/elements/1.1/"
   xmlns:cc="http://creativecommons.org/ns#"
   xmlns:rdf="http://www.w3.org/1999/02/22-rdf-syntax-ns#"
   xmlns:svg="http://www.w3.org/2000/svg"
   xmlns="http://www.w3.org/2000/svg"
   xmlns:sodipodi="http://sodipodi.sourceforge.net/DTD/sodipodi-0.dtd"
   xmlns:inkscape="http://www.inkscape.org/namespaces/inkscape"
   width="98.130096mm"
   height="134.83482mm"
   viewBox="0 0 98.130097 134.83482"
   version="1.1"
   id="svg8"
   sodipodi:docname="html.svg"
   inkscape:version="1.0.1 (3bc2e81, 2020-09-07)">
  <defs
     id="defs2" />
  <sodipodi:namedview
     id="base"
     pagecolor="#ffffff"
     bordercolor="#666666"
     borderopacity="1.0"
     inkscape:pageopacity="0.0"
     inkscape:pageshadow="2"
     inkscape:zoom="0.39924962"
     inkscape:cx="-378.15252"
     inkscape:cy="164.95106"
     inkscape:document-units="mm"
     inkscape:current-layer="layer1"
     inkscape:document-rotation="0"
     showgrid="false"
     inkscape:window-width="1338"
     inkscape:window-height="696"
     inkscape:window-x="14"
     inkscape:window-y="58"
     inkscape:window-maximized="0"
     inkscape:pagecheckerboard="true" />
  <metadata
     id="metadata5">
    <rdf:RDF>
      <cc:Work
         rdf:about="">
        <dc:format>image/svg+xml</dc:format>
        <dc:type
           rdf:resource="http://purl.org/dc/dcmitype/StillImage" />
        <dc:title />
      </cc:Work>
    </rdf:RDF>
  </metadata>
  <g
     inkscape:label="Layer 1"
     inkscape:groupmode="layer"
     id="layer1"
     transform="translate(-282.95608,-17.677553)">
    <path
       style="fill:#4d4d4d;fill-opacity:1;stroke:none;stroke-width:0.264583"
       d="m 292.18618,21.576356 v 18.520833 h 5.82084 v -6.085417 h 6.08541 v 6.085417 h 5.82083 V 21.576356 h -5.82083 v 6.35 h -6.08541 v -6.35 h -5.82084 m 20.37292,0 v 6.35 h 5.55625 v 12.170833 h 6.35 V 27.926356 h 5.82083 v -6.35 H 312.5591 m 20.10833,0 v 18.520833 h 6.35 v -8.73125 h 0.26458 l 3.70417,6.085417 4.49792,-6.085417 v 8.73125 h 6.08541 V 21.576356 c -1.69042,0 -4.21666,-0.473895 -5.79622,0.15965 -1.88384,0.755624 -3.68883,4.692015 -4.52253,6.454933 -1.13929,-1.721643 -2.64848,-5.598503 -4.58417,-6.454933 -1.55919,-0.689901 -4.30503,-0.15965 -5.99916,-0.15965 m 24.07708,0 v 18.520833 h 15.08125 v -5.820833 c -2.03888,0 -6.67041,0.870558 -8.38253,-0.271939 -0.90911,-0.606637 -0.6133,-2.236285 -0.6133,-3.167644 v -9.260417 h -6.08542 m 24.34167,26.987499 h -72.49583 -18.52083 c -1.51363,0 -5.51979,-0.713317 -6.71563,0.271992 -0.87786,0.723371 -0.0435,3.990445 0.0561,5.019675 0.49456,5.110426 0.82835,10.235141 1.32291,15.345832 1.67968,17.357195 2.81826,34.765986 4.49792,52.122916 0.39997,4.13305 0.78928,8.29363 1.07958,12.43541 0.10517,1.50046 -0.17055,3.99548 0.90157,5.16864 3.56393,3.90075 10.1719,6.66538 14.99711,8.5897 15.90886,6.34418 34.27412,6.81725 50.27083,0.42333 4.25556,-1.70074 8.27775,-3.77613 12.17083,-6.19495 1.3552,-0.84191 3.62638,-1.9902 4.49051,-3.36048 1.11284,-1.76424 0.64796,-5.48904 0.84614,-7.53665 0.5879,-6.07669 1.13929,-12.16607 1.56633,-18.25625 1.08162,-15.432353 2.5183,-30.901746 3.98992,-46.302082 0.55986,-5.859992 1.42107,-11.842485 1.54252,-17.727083 m -18.52083,20.108332 c -2.7e-4,3.050911 -0.28443,6.2357 -0.68157,9.260417 -0.11324,0.86307 0.17912,2.55905 -0.57309,3.167591 -1.49966,1.213379 -6.88313,0.271992 -8.79951,0.271992 h -25.13542 -8.46666 c -0.9189,0 -2.56646,-0.30189 -3.27898,0.424127 -0.68845,0.701675 -0.20294,2.148946 -0.16061,3.015456 0.14288,2.915973 0.66861,5.815277 0.79375,8.73125 h 44.18542 c 0,9.25354 -1.06416,19.13414 -2.26907,28.31041 -0.28654,2.18361 -0.38655,4.4196 -0.59637,6.61459 -0.0693,0.72549 0.14737,1.80869 -0.4691,2.34447 -2.0283,1.76265 -7.05089,2.13757 -9.63004,2.87047 -4.65508,1.32265 -10.50978,4.15289 -15.34584,4.21534 -4.35821,0.0563 -9.54722,-2.61118 -13.75833,-3.70761 -2.74876,-0.7157 -5.46947,-1.5457 -8.20208,-2.32013 -0.97288,-0.27596 -2.52413,-0.4355 -3.24326,-1.20729 -0.94113,-1.01045 -0.67099,-4.03781 -0.73581,-5.37025 -0.21881,-4.50321 -1.04802,-8.97784 -1.04802,-13.49375 h 12.7 l 0.26459,6.61458 0.42412,2.77469 5.39671,1.83462 7.9375,2.10449 7.40833,-1.83912 5.66129,-1.83541 0.69903,-4.89135 1.04802,-10.31875 H 304.6216 l -1.89706,-22.225 -1.27794,-15.345833 z"
       id="path5058" />
    <path
       style="fill:#ffee84;fill-opacity:1;stroke:none;stroke-width:0.264583"
       d="m 292.18618,16.813857 v 18.520829 h 5.82084 v -6.08541 h 6.08541 v 6.08541 h 5.82083 V 16.813857 h -5.82083 v 6.35 h -6.08541 v -6.35 h -5.82084 m 20.37292,0 v 6.35 h 5.55625 v 12.170829 h 6.35 V 23.163857 h 5.82083 v -6.35 H 312.5591 m 20.10833,0 v 18.520829 h 6.35 V 26.60344 h 0.26458 l 3.70417,6.085416 4.49792,-6.085416 v 8.731246 h 6.08541 V 16.813857 c -1.69042,0 -4.21666,-0.473895 -5.79622,0.15965 -1.88384,0.755624 -3.68883,4.692015 -4.52253,6.454933 -1.13929,-1.721643 -2.64848,-5.598503 -4.58417,-6.454933 -1.55919,-0.689901 -4.30503,-0.15965 -5.99916,-0.15965 m 24.07708,0 v 18.520829 h 15.08125 v -5.82083 c -2.03888,0 -6.67041,0.87056 -8.38253,-0.27194 -0.90911,-0.60664 -0.6133,-2.23628 -0.6133,-3.167641 v -9.260418 h -6.08542 m 24.34167,26.987499 h -72.49583 -18.52083 c -1.51363,0 -5.51979,-0.71332 -6.71563,0.27199 -0.87786,0.72337 -0.0435,3.99045 0.0561,5.01968 0.49456,5.11042 0.82835,10.23514 1.32291,15.34583 1.67968,17.35719 2.81826,34.76596 4.49792,52.122884 0.39997,4.13305 0.78928,8.29363 1.07958,12.43541 0.10517,1.50046 -0.17055,3.99548 0.90157,5.16864 3.56393,3.90075 10.1719,6.66538 14.99711,8.5897 15.90886,6.34418 34.27412,6.81725 50.27083,0.42333 4.25556,-1.70074 8.27775,-3.77613 12.17083,-6.19495 1.3552,-0.84191 3.62638,-1.9902 4.49051,-3.36048 1.11284,-1.76424 0.64796,-5.48904 0.84614,-7.53665 0.5879,-6.07669 1.13929,-12.16607 1.56633,-18.25625 1.08162,-15.432324 2.5183,-30.901714 3.98992,-46.302054 0.55986,-5.85999 1.42107,-11.84248 1.54252,-17.72708 m -18.52083,20.10833 c -2.7e-4,3.05091 -0.28443,6.2357 -0.68157,9.26042 -0.11324,0.86307 0.17912,2.55905 -0.57309,3.16759 -1.49966,1.21338 -6.88313,0.27199 -8.79951,0.27199 h -25.13542 -8.46666 c -0.9189,0 -2.56646,-0.30189 -3.27898,0.42413 -0.68845,0.70167 -0.20294,2.14895 -0.16061,3.01545 0.14288,2.91598 0.66861,5.81528 0.79375,8.73125 h 44.18542 c 0,9.253526 -1.06416,19.134114 -2.26907,28.310384 -0.28654,2.18361 -0.38655,4.4196 -0.59637,6.61459 -0.0693,0.72549 0.14737,1.80869 -0.4691,2.34447 -2.0283,1.76265 -7.05089,2.13757 -9.63004,2.87047 -4.65508,1.32265 -10.50978,4.15289 -15.34584,4.21534 -4.35821,0.0563 -9.54722,-2.61118 -13.75833,-3.70761 -2.74876,-0.7157 -5.46947,-1.5457 -8.20208,-2.32013 -0.97288,-0.27596 -2.52413,-0.4355 -3.24326,-1.20729 -0.94113,-1.01045 -0.67099,-4.03781 -0.73581,-5.37025 -0.21881,-4.50321 -1.04802,-8.97784 -1.04802,-13.49375 h 12.7 l 0.26459,6.61458 0.42412,2.77469 5.39671,1.83462 7.9375,2.10449 7.40833,-1.83912 5.66129,-1.83541 0.69903,-4.89135 1.04802,-10.31875 H 304.6216 l -1.89706,-22.224974 -1.27794,-15.34583 z"
       id="path5058-9" />
  </g>
</svg>
