<?xml version="1.0" encoding="UTF-8" standalone="no"?>
<svg
   xmlns:dc="http://purl.org/dc/elements/1.1/"
   xmlns:cc="http://creativecommons.org/ns#"
   xmlns:rdf="http://www.w3.org/1999/02/22-rdf-syntax-ns#"
   xmlns:svg="http://www.w3.org/2000/svg"
   xmlns="http://www.w3.org/2000/svg"
   xmlns:sodipodi="http://sodipodi.sourceforge.net/DTD/sodipodi-0.dtd"
   xmlns:inkscape="http://www.inkscape.org/namespaces/inkscape"
   width="47.624989mm"
   height="70.275581mm"
   viewBox="0 0 47.624988 70.275581"
   version="1.1"
   id="svg8"
   sodipodi:docname="jquery.svg"
   inkscape:version="1.0.1 (3bc2e81, 2020-09-07)">
  <defs
     id="defs2" />
  <sodipodi:namedview
     id="base"
     pagecolor="#ffffff"
     bordercolor="#666666"
     borderopacity="1.0"
     inkscape:pageopacity="0.0"
     inkscape:pageshadow="2"
     inkscape:zoom="0.6050381"
     inkscape:cx="-50.049833"
     inkscape:cy="193.80569"
     inkscape:document-units="mm"
     inkscape:current-layer="layer1"
     inkscape:document-rotation="0"
     showgrid="false"
     inkscape:window-width="1338"
     inkscape:window-height="696"
     inkscape:window-x="14"
     inkscape:window-y="58"
     inkscape:window-maximized="0"
     inkscape:pagecheckerboard="true" />
  <metadata
     id="metadata5">
    <rdf:RDF>
      <cc:Work
         rdf:about="">
        <dc:format>image/svg+xml</dc:format>
        <dc:type
           rdf:resource="http://purl.org/dc/dcmitype/StillImage" />
        <dc:title />
      </cc:Work>
    </rdf:RDF>
  </metadata>
  <g
     inkscape:label="Layer 1"
     inkscape:groupmode="layer"
     id="layer1"
     transform="translate(-234.35988,-78.232538)">
    <path
       style="fill:#4d4d4d;fill-opacity:1;stroke:none;stroke-width:0.264583"
       d="m 240.18071,88.082381 -3.175,-0.79375 v 3.439583 c 1.21015,0 4.738,0.599599 5.54889,-0.424233 0.9343,-1.179645 0.61558,-7.091654 0.18783,-8.532416 -0.28196,-0.949695 -2.21263,-1.224809 -2.80466,-0.419126 -0.38997,0.530728 0.14208,1.406895 0.20883,1.977866 0.18132,1.550273 0.0341,3.191748 0.0341,4.752076 m 3.43958,-6.879167 v 9.525 h 6.61459 v -9.525 h -6.61459 m 7.67292,0 v 9.789583 h 7.40833 v -9.789583 h -2.38125 v 6.614583 h -2.38125 v -6.614583 h -2.64583 m 8.20208,0 v 9.525 h 7.14375 v -2.645833 h -4.23333 v -1.058334 h 3.96875 c -0.01,-2.779421 -1.64015,-2.38125 -3.96875,-2.38125 v -0.79375 h 4.23333 v -2.645833 h -7.14375 m 7.67292,0 v 9.525 h 2.38125 v -2.645833 h 0.26458 c 0.72787,2.5264 1.82298,2.645833 4.23334,2.645833 l -1.5875,-3.175 h 1.32291 l -0.26458,-6.35 h -6.35 m 7.14375,0 2.38125,9.525 h 2.38125 c 0,-3.596005 1.09458,-6.207548 2.38125,-9.525 h -2.64584 l -0.79375,2.910417 c -1.08267,-2.032847 -1.22052,-2.908486 -3.70416,-2.910417 m -3.175,1.852083 v 2.116667 h -1.85208 c 0.0177,-1.495531 0.29104,-2.065417 1.85208,-2.116667 m -23.01875,0.264584 v 3.704166 h -0.26458 l -0.79375,-1.5875 h -0.52917 l -0.52917,1.058334 h -0.26458 v -3.175 h 2.38125 m -2.11667,3.439583 0.79375,1.322917 h -1.05833 l 0.26458,-1.322917 m -11.64165,8.202083 c 0.001,10.902153 2.09002,21.936603 2.88694,32.808333 0.27046,3.68988 0.48784,7.4459 0.96952,11.1125 0.15674,1.19301 -0.0713,2.76966 0.52609,3.85789 0.93128,1.69624 6.75487,2.34712 8.58203,2.86808 3.24157,0.92419 7.47686,2.96334 10.84792,2.89825 3.78645,-0.073 8.26426,-2.20477 11.90625,-3.23718 1.72693,-0.48948 6.28782,-0.91228 7.40092,-2.34632 0.64638,-0.83238 0.48525,-3.25914 0.53657,-4.3053 0.15135,-3.08954 0.59108,-6.17432 0.8173,-9.26042 0.84138,-11.48001 2.24605,-22.92165 3.15145,-34.395833 h -47.62499 m 38.62916,7.937503 c 0,9.457 -1.19539,19.45719 -2.38125,28.83958 h -7.9375 l -2.97868,0.42413 -1.25465,5.92587 -9.78958,1.05833 -0.52917,-3.43958 7.40833,-0.79375 0.26459,-3.175 h -11.1125 c -0.0783,-9.45594 -1.19558,-19.45772 -2.38125,-28.83958 h 30.69166 m -25.4,5.02708 1.32292,18.52083 h 7.67292 c 0.25505,-1.37371 0.027,-3.78671 0.80115,-4.94294 0.61569,-0.91969 3.116,-0.94853 3.49224,0.2196 0.38788,1.20491 -0.35904,3.23744 -0.58923,4.45876 h 6.35 l 0.79375,-18.25625 z"
       id="path5158" />
    <path
       style="fill:#ffee84;fill-opacity:1;stroke:none;stroke-width:0.264583"
       d="m 240.18071,85.965712 -3.175,-0.79375 v 3.43958 c 1.21015,0 4.738,0.5996 5.54889,-0.42423 0.9343,-1.17964 0.61558,-7.091654 0.18783,-8.532416 -0.28196,-0.949695 -2.21263,-1.224809 -2.80466,-0.419126 -0.38997,0.530728 0.14208,1.406895 0.20883,1.977866 0.18132,1.550273 0.0341,3.191748 0.0341,4.752076 m 3.43958,-6.879167 v 9.524997 h 6.61459 v -9.524997 h -6.61459 m 7.67292,0 v 9.789587 h 7.40833 v -9.789587 h -2.38125 v 6.614587 h -2.38125 v -6.614587 h -2.64583 m 8.20208,0 v 9.524997 h 7.14375 v -2.64583 h -4.23333 v -1.05833 h 3.96875 c -0.01,-2.779425 -1.64015,-2.381254 -3.96875,-2.381254 v -0.79375 h 4.23333 v -2.645833 h -7.14375 m 7.67292,0 v 9.524997 h 2.38125 v -2.64583 h 0.26458 c 0.72787,2.5264 1.82298,2.64583 4.23334,2.64583 l -1.5875,-3.175 h 1.32291 l -0.26458,-6.349997 h -6.35 m 7.14375,0 2.38125,9.524997 h 2.38125 c 0,-3.596 1.09458,-6.207545 2.38125,-9.524997 h -2.64584 l -0.79375,2.910417 c -1.08267,-2.032847 -1.22052,-2.908486 -3.70416,-2.910417 m -3.175,1.852083 v 2.116667 h -1.85208 c 0.0177,-1.495531 0.29104,-2.065417 1.85208,-2.116667 m -23.01875,0.264584 v 3.70417 h -0.26458 l -0.79375,-1.587504 h -0.52917 l -0.52917,1.058334 h -0.26458 v -3.175 h 2.38125 m -2.11667,3.439583 0.79375,1.322917 h -1.05833 l 0.26458,-1.322917 m -11.64165,8.202087 c 0.001,10.902138 2.09002,21.936588 2.88694,32.808318 0.27046,3.68988 0.48784,7.4459 0.96952,11.1125 0.15674,1.19301 -0.0713,2.76966 0.52609,3.85789 0.93128,1.69624 6.75487,2.34712 8.58203,2.86808 3.24157,0.92419 7.47686,2.96334 10.84792,2.89825 3.78645,-0.073 8.26426,-2.20477 11.90625,-3.23718 1.72693,-0.48948 6.28782,-0.91228 7.40092,-2.34632 0.64638,-0.83238 0.48525,-3.25914 0.53657,-4.3053 0.15135,-3.08954 0.59108,-6.17432 0.8173,-9.26042 0.84138,-11.48001 2.24605,-22.92165 3.15145,-34.395818 h -47.62499 m 38.62916,7.937488 c 0,9.457 -1.19539,19.45719 -2.38125,28.83958 h -7.9375 l -2.97868,0.42413 -1.25465,5.92587 -9.78958,1.05833 -0.52917,-3.43958 7.40833,-0.79375 0.26459,-3.175 h -11.1125 c -0.0783,-9.45594 -1.19558,-19.45772 -2.38125,-28.83958 h 30.69166 m -25.4,5.02708 1.32292,18.52083 h 7.67292 c 0.25505,-1.37371 0.027,-3.78671 0.80115,-4.94294 0.61569,-0.91969 3.116,-0.94853 3.49224,0.2196 0.38788,1.20491 -0.35904,3.23744 -0.58923,4.45876 h 6.35 l 0.79375,-18.25625 z"
       id="path5158-1" />
  </g>
</svg>
