<?xml version="1.0" encoding="UTF-8" standalone="no"?>
<svg
   xmlns:dc="http://purl.org/dc/elements/1.1/"
   xmlns:cc="http://creativecommons.org/ns#"
   xmlns:rdf="http://www.w3.org/1999/02/22-rdf-syntax-ns#"
   xmlns:svg="http://www.w3.org/2000/svg"
   xmlns="http://www.w3.org/2000/svg"
   xmlns:sodipodi="http://sodipodi.sourceforge.net/DTD/sodipodi-0.dtd"
   xmlns:inkscape="http://www.inkscape.org/namespaces/inkscape"
   width="95.186653mm"
   height="97.000282mm"
   viewBox="0 0 95.186651 97.00029"
   version="1.1"
   id="svg8"
   sodipodi:docname="music.svg"
   inkscape:version="1.0.1 (3bc2e81, 2020-09-07)">
  <defs
     id="defs2" />
  <sodipodi:namedview
     id="base"
     pagecolor="#ffffff"
     bordercolor="#666666"
     borderopacity="1.0"
     inkscape:pageopacity="0.0"
     inkscape:pageshadow="2"
     inkscape:zoom="0.43741105"
     inkscape:cx="-175.46954"
     inkscape:cy="141.10943"
     inkscape:document-units="mm"
     inkscape:current-layer="layer1"
     inkscape:document-rotation="0"
     showgrid="false"
     inkscape:window-width="1338"
     inkscape:window-height="696"
     inkscape:window-x="14"
     inkscape:window-y="58"
     inkscape:window-maximized="0"
     inkscape:pagecheckerboard="true" />
  <metadata
     id="metadata5">
    <rdf:RDF>
      <cc:Work
         rdf:about="">
        <dc:format>image/svg+xml</dc:format>
        <dc:type
           rdf:resource="http://purl.org/dc/dcmitype/StillImage" />
        <dc:title />
      </cc:Work>
    </rdf:RDF>
  </metadata>
  <g
     inkscape:label="Layer 1"
     inkscape:groupmode="layer"
     id="layer1"
     transform="translate(-2470.1633,-219.45094)">
    <path
       style="fill:#4d4d4d;fill-opacity:1;stroke:none;stroke-width:0.190253"
       d="m 2510.8308,222.092 c -6.7934,1.0584 -13.2584,3.44666 -19.0254,7.21157 -5.2257,3.41157 -9.84,7.87125 -13.3175,13.06203 -14.1863,21.17522 -9.2724,51.14511 11.9857,65.82299 4.6267,3.19436 9.7778,5.63018 15.2204,7.06621 4.2605,1.12402 8.3778,1.11945 12.747,1.11945 2.1165,0 4.3716,0.21879 6.4686,-0.0814 6.6267,-0.94898 13.2481,-3.37871 18.8351,-7.08485 22.4413,-14.88735 28.7073,-46.2672 12.5788,-68.17415 -3.0163,-4.09691 -6.6988,-7.78138 -10.8666,-10.70733 -4.9465,-3.47278 -10.489,-5.98793 -16.3617,-7.41079 -4.0087,-0.97124 -7.8876,-0.90723 -11.986,-0.90723 -2.0466,0 -4.2541,-0.23186 -6.2784,0.0835 m 19.2156,16.65878 5.3271,3.23431 c 0.7085,-2.44845 1.695,-4.8252 2.5385,-7.22963 0.2807,-0.79966 0.6939,-2.1956 1.8168,-1.98959 0.9128,0.16751 0.7408,1.31253 0.8386,1.98959 0.2946,2.03682 1.2382,3.92868 1.7896,5.89786 0.5949,2.12456 0.956,4.25426 0.8652,6.46862 -0.044,1.07589 -0.6211,2.37931 -0.4069,3.42457 0.3601,1.75718 1.7744,3.62947 2.4514,5.3271 1.3921,3.49115 2.2806,7.45832 2.283,11.22496 2.9965,0.30688 4.8374,3.32773 5.1045,6.08811 0.1994,2.05969 0.032,4.20937 0.032,6.27837 0,5.81092 1.6109,15.39475 -6.6589,15.96418 -0.9587,0.0662 -1.9118,-0.009 -2.8538,-0.19139 -7.6092,-1.46876 -5.3271,-12.64445 -5.3271,-18.24608 0,-3.38309 -0.3067,-8.49273 3.9953,-9.51268 -0.012,-4.40019 -1.4002,-8.90463 -3.4833,-12.74699 -0.9205,-1.69802 -2.4258,-3.20102 -3.1755,-4.9466 h -0.3805 c -0.7081,3.06099 -2.1756,5.96788 -3.171,8.94192 -0.5303,1.58424 -1.0112,3.81592 -2.2187,5.01965 -2.6191,2.61047 -8.7315,2.27163 -10.5197,-1.21743 -1.144,-2.23186 0.4296,-4.27519 2.5916,-4.9913 2.873,-0.95165 5.3157,0.001 7.8004,1.37934 0.7682,-2.70636 1.8519,-5.34023 2.7952,-7.99065 0.2651,-0.74447 1.1568,-2.17251 0.9041,-2.96263 -0.4431,-1.38467 -3.2663,-2.77371 -4.4603,-3.46319 -0.9199,-0.531 -3.607,-2.3112 -4.6814,-1.73207 -0.8211,0.44272 -1.1337,2.20333 -1.4068,3.02104 -1.0502,3.14451 -2.1146,6.9102 -6.2783,6.21634 -2.8799,-0.47981 -5.3024,-3.88821 -1.7123,-5.50213 2.1175,-0.95203 3.9654,0.0807 5.8979,0.80782 l 1.7123,-5.32711 c -3.7802,-0.29832 -7.1578,-0.50759 -10.8445,0.71308 -10.1,3.34466 -17.284,14.24618 -17.3131,24.78091 4.3021,1.01995 3.9954,6.12959 3.9954,9.51268 0,5.56263 2.2691,16.83496 -5.3271,18.2769 -0.9378,0.17789 -1.9009,0.22754 -2.8538,0.16057 -8.1557,-0.57152 -6.6589,-9.81937 -6.6589,-15.58367 0,-1.95371 -0.1165,-3.94853 0.017,-5.89786 0.2063,-3.01381 1.6665,-6.49545 5.1197,-6.84913 0.01,-15.04602 11.6894,-29.42239 26.8258,-31.0429 2.9453,-0.31531 6.2906,-0.3596 9.1322,0.60233 0.4657,-2.01213 1.3451,-3.95325 2.0339,-5.89787 0.2221,-0.62639 0.4403,-1.7297 1.203,-1.90811 1.0482,-0.24518 0.956,1.66722 1.117,2.28862 0.6001,2.31672 2.2142,5.17233 1.544,7.61014 m -3.4246,-4.75634 -0.9513,3.04406 3.6148,1.14152 c -0.4779,-1.4659 -1.2235,-3.44985 -2.6635,-4.18558 m 11.7957,5.89786 -1.155,3.61483 1.3281,1.71228 3.2514,3.80507 c 0.6035,-3.2503 -0.9657,-6.94825 -3.4245,-9.13218 m -10.8445,4.37584 -0.1902,0.19025 0.1902,-0.19025 m -28.7283,20.54738 -0.1902,0.19026 0.1902,-0.19026 m 38.0508,0.19026 -0.5708,0.38051 0.5708,-0.38051 m -37.48,0.19025 -0.1902,0.19026 0.1902,-0.19026 m -0.761,0.19026 -0.1903,0.19025 0.1903,-0.19025 m 1.522,0.3805 -0.5708,-0.19025 0.5708,0.19025 m 37.0994,-0.3805 -0.1901,0.19025 0.1901,-0.19025 m -37.8604,0.3805 -0.1902,0.19026 0.1902,-0.19026 m 37.2897,0 -0.1902,0.19026 0.1902,-0.19026 m 0.8879,0.12691 -0.063,0.1267 0.063,-0.1267 m -2.0294,0.0633 -0.5708,0.38051 0.5708,-0.38051 m 1.7122,0 -0.1901,0.19025 0.1901,-0.19025 m -39.0653,0.31715 -0.063,0.12671 0.063,-0.12671 m 2.7269,-0.1269 -0.1902,0.19026 0.1902,-0.19026 m -2.283,0.38051 -0.1903,0.19026 0.1903,-0.19026 m 2.6002,0.1269 -0.063,0.12671 0.063,-0.12671 m 36.5287,0 -0.063,0.12671 0.063,-0.12671 m -0.3172,0.25361 -0.1903,0.19025 0.1903,-0.19025 m -39.1922,0.19025 -0.1902,0.19026 0.1902,-0.19026 m 35.8946,0.1269 -0.063,0.12671 0.063,-0.12671 m -34.9433,0.63412 -0.1903,0.19025 0.1903,-0.19025 m 36.6555,0.12689 -0.063,0.12671 0.063,-0.12671 m -2.283,0.19026 -0.063,0.12671 0.063,-0.12671 m 2.9172,-0.1269 -0.1903,0.19025 0.1903,-0.19025 m -36.719,0.19025 -0.1903,0.19026 0.1903,-0.19026 m 2.6636,0 -0.1903,0.19026 0.1903,-0.19026 m -1.5221,0.38051 -0.1902,0.19025 0.1902,-0.19025 m 32.2798,0.1269 -0.063,0.12671 0.063,-0.12671 m -29.9967,1.01462 v 0.57076 h -0.1903 l 0.1903,-0.57076 m 31.8992,0.31715 -0.063,0.12671 0.063,-0.12671 m -0.5074,1.20488 -0.1902,0.19025 0.1902,-0.19025 m 0.3805,0.3805 -0.1902,0.19026 0.1902,-0.19026 m -0.4438,0.31716 -0.063,0.12671 0.063,-0.12671 m 0.063,18.51795 v 0.76102 h -0.1903 l 0.1903,-0.76102 m 0.3804,0.38051 -0.1902,0.19025 0.1902,-0.19025 m -0.634,1.26842 -0.063,0.12671 0.063,-0.12671 m 0.634,-0.0636 c 0.1472,0 0.03,0.0947 -0.063,0.0636 l 0.063,-0.0636 m 0.3806,0.69766 -0.1903,0.19026 0.1903,-0.19026 m -34.8164,0.19026 -0.1903,0.19025 0.1903,-0.19025 m 2.283,0.19025 v 0.57076 h -0.1902 l 0.1902,-0.57076 m 32.9139,0.19026 -0.1903,0.19025 0.1903,-0.19025 m -2.5367,0.31715 -0.063,0.12671 0.063,-0.12671 m -30.5674,0.25361 -0.1903,0.19025 0.1903,-0.19025 m -2.6636,0.19025 -0.1903,0.19025 0.1903,-0.19025 m 34.1823,0.1269 -0.063,0.12671 0.063,-0.12671 m -34.753,0.25361 -0.1903,0.19025 0.1903,-0.19025 m 34.2456,0 0.3805,0.76101 h -0.1903 l -0.1902,-0.76101 m 2.4733,0.44386 c 0.1471,0 0.03,0.0947 -0.063,0.0636 l 0.063,-0.0636 m 0.761,-0.0634 -0.1903,0.19026 0.1903,-0.19026 m -34.8164,0.19026 -0.5708,0.57076 0.1903,-0.57076 h 0.3805 m 33.1041,0 -0.1903,0.19025 0.1903,-0.19025 m -36.592,0.31715 -0.063,0.12671 0.063,-0.12671 m 0.5708,0 -0.063,0.12671 0.063,-0.12671 m 38.3042,-0.1269 -0.1902,0.19025 0.1902,-0.19025 m -2.6635,0.38051 -0.1902,0.19025 0.1902,-0.19025 m 1.6489,0.12689 -0.063,0.12671 0.063,-0.12671 m -37.6068,0.0634 0.1902,0.38051 -0.1902,-0.38051 m 2.4733,0 -0.1903,0.19025 0.1903,-0.19025 m 34.0554,0 -0.1903,0.19025 0.1903,-0.19025 m -0.3806,0.19025 -0.1902,0.19026 0.1902,-0.19026 m 2.0929,0 -0.1903,0.19026 0.1903,-0.19026 m -1.3318,0.19026 -0.1903,0.19025 0.1903,-0.19025 m -0.5708,0.2536 0.063,0.0636 c -0.094,0.0312 -0.2104,-0.0636 -0.063,-0.0636 m -35.9579,0.1269 -0.1903,0.19026 0.1903,-0.19026 m 0.9513,0.25361 0.063,0.0636 c -0.094,0.0312 -0.2104,-0.0636 -0.063,-0.0636 m 35.7677,0.1269 -0.1903,0.19025 0.1903,-0.19025 m 0.5073,0.1269 -0.063,0.12671 0.063,-0.12671 m -36.8458,0.12671 c 0.1471,0 0.03,0.0947 -0.063,0.0636 z"
       id="path6263" />
    <path
       style="fill:#687aff;fill-opacity:1;stroke:none;stroke-width:0.190253"
       d="m 2510.5558,219.61659 c -6.7934,1.0584 -13.2584,3.44666 -19.0254,7.21157 -5.2257,3.41157 -9.84,7.87125 -13.3175,13.06203 -14.1863,21.17522 -9.2724,51.14511 11.9857,65.82299 4.6267,3.19436 9.7778,5.63018 15.2204,7.06622 4.2605,1.12401 8.3778,1.11944 12.747,1.11944 2.1165,0 4.3716,0.21879 6.4686,-0.0814 6.6267,-0.94899 13.2481,-3.37872 18.8351,-7.08486 22.4413,-14.88735 28.7073,-46.2672 12.5788,-68.17415 -3.0163,-4.09691 -6.6988,-7.78138 -10.8666,-10.70733 -4.9465,-3.47278 -10.489,-5.98793 -16.3617,-7.41079 -4.0087,-0.97124 -7.8876,-0.90723 -11.986,-0.90723 -2.0466,0 -4.2541,-0.23186 -6.2784,0.0835 m 19.2156,16.65878 5.3271,3.23431 c 0.7085,-2.44845 1.695,-4.8252 2.5385,-7.22963 0.2807,-0.79966 0.6939,-2.1956 1.8168,-1.98959 0.9128,0.16751 0.7408,1.31253 0.8386,1.98959 0.2946,2.03682 1.2382,3.92868 1.7896,5.89786 0.5949,2.12456 0.956,4.25426 0.8652,6.46862 -0.044,1.07589 -0.6211,2.37931 -0.4069,3.42457 0.3601,1.75718 1.7744,3.62947 2.4514,5.3271 1.3921,3.49115 2.2806,7.45832 2.283,11.22496 2.9965,0.30688 4.8374,3.32774 5.1045,6.08811 0.1994,2.05969 0.032,4.20937 0.032,6.27837 0,5.81092 1.6109,15.39475 -6.6589,15.96418 -0.9587,0.0662 -1.9118,-0.009 -2.8538,-0.19138 -7.6092,-1.46876 -5.3271,-12.64446 -5.3271,-18.24609 0,-3.38309 -0.3067,-8.49272 3.9953,-9.51267 -0.012,-4.4002 -1.4002,-8.90464 -3.4833,-12.74699 -0.9205,-1.69803 -2.4258,-3.20103 -3.1755,-4.94661 h -0.3805 c -0.7081,3.06099 -2.1756,5.96788 -3.171,8.94192 -0.5303,1.58424 -1.0112,3.81592 -2.2187,5.01965 -2.6191,2.61047 -8.7315,2.27163 -10.5197,-1.21743 -1.144,-2.23186 0.4296,-4.27519 2.5916,-4.9913 2.873,-0.95165 5.3157,0.001 7.8004,1.37934 0.7682,-2.70636 1.8519,-5.34023 2.7952,-7.99065 0.2651,-0.74447 1.1568,-2.17251 0.9041,-2.96263 -0.4431,-1.38467 -3.2663,-2.77371 -4.4603,-3.46319 -0.9199,-0.531 -3.607,-2.3112 -4.6814,-1.73207 -0.8211,0.44272 -1.1337,2.20333 -1.4068,3.02104 -1.0502,3.14451 -2.1146,6.9102 -6.2783,6.21634 -2.8799,-0.4798 -5.3024,-3.88821 -1.7123,-5.50213 2.1175,-0.95203 3.9654,0.0807 5.8979,0.80782 l 1.7123,-5.32711 c -3.7802,-0.29832 -7.1578,-0.50759 -10.8445,0.71308 -10.1,3.34466 -17.284,14.24618 -17.3131,24.78092 4.3021,1.01995 3.9954,6.12958 3.9954,9.51267 0,5.56264 2.2691,16.83496 -5.3271,18.2769 -0.9378,0.17789 -1.9009,0.22754 -2.8538,0.16057 -8.1557,-0.57152 -6.6589,-9.81937 -6.6589,-15.58367 0,-1.95371 -0.1165,-3.94853 0.017,-5.89786 0.2063,-3.0138 1.6665,-6.49545 5.1197,-6.84913 0.01,-15.04602 11.6894,-29.42239 26.8258,-31.0429 2.9453,-0.31531 6.2906,-0.3596 9.1322,0.60233 0.4657,-2.01213 1.3451,-3.95325 2.0339,-5.89787 0.2221,-0.62639 0.4403,-1.7297 1.203,-1.90811 1.0482,-0.24518 0.956,1.66722 1.117,2.28862 0.6001,2.31672 2.2142,5.17233 1.544,7.61014 m -3.4246,-4.75634 -0.9513,3.04406 3.6148,1.14152 c -0.4779,-1.4659 -1.2235,-3.44985 -2.6635,-4.18558 m 11.7957,5.89786 -1.155,3.61483 1.3281,1.71228 3.2514,3.80507 c 0.6035,-3.2503 -0.9657,-6.94825 -3.4245,-9.13218 m -10.8445,4.37584 -0.1902,0.19025 0.1902,-0.19025 m -28.7283,20.54738 -0.1902,0.19026 0.1902,-0.19026 m 38.0508,0.19026 -0.5708,0.38051 0.5708,-0.38051 m -37.48,0.19026 -0.1902,0.19025 0.1902,-0.19025 m -0.761,0.19025 -0.1903,0.19025 0.1903,-0.19025 m 1.522,0.3805 -0.5708,-0.19025 0.5708,0.19025 m 37.0994,-0.3805 -0.1901,0.19025 0.1901,-0.19025 m -37.8604,0.3805 -0.1902,0.19026 0.1902,-0.19026 m 37.2897,0 -0.1902,0.19026 0.1902,-0.19026 m 0.8879,0.12691 -0.063,0.1267 0.063,-0.1267 m -2.0294,0.0633 -0.5708,0.38051 0.5708,-0.38051 m 1.7122,0 -0.1901,0.19025 0.1901,-0.19025 m -39.0653,0.31715 -0.063,0.12671 0.063,-0.12671 m 2.7269,-0.1269 -0.1902,0.19026 0.1902,-0.19026 m -2.283,0.38052 -0.1903,0.19025 0.1903,-0.19025 m 2.6002,0.12689 -0.063,0.12671 0.063,-0.12671 m 36.5287,0 -0.063,0.12671 0.063,-0.12671 m -0.3172,0.25361 -0.1903,0.19025 0.1903,-0.19025 m -39.1922,0.19025 -0.1902,0.19026 0.1902,-0.19026 m 35.8946,0.1269 -0.063,0.12671 0.063,-0.12671 m -34.9433,0.63412 -0.1903,0.19025 0.1903,-0.19025 m 36.6555,0.12689 -0.063,0.12671 0.063,-0.12671 m -2.283,0.19026 -0.063,0.12672 0.063,-0.12672 m 2.9172,-0.1269 -0.1903,0.19026 0.1903,-0.19026 m -36.719,0.19026 -0.1903,0.19025 0.1903,-0.19025 m 2.6636,0 -0.1903,0.19025 0.1903,-0.19025 m -1.5221,0.3805 -0.1902,0.19025 0.1902,-0.19025 m 32.2798,0.12691 -0.063,0.1267 0.063,-0.1267 m -29.9967,1.01461 v 0.57076 h -0.1903 l 0.1903,-0.57076 m 31.8992,0.31715 -0.063,0.12671 0.063,-0.12671 m -0.5074,1.20488 -0.1902,0.19025 0.1902,-0.19025 m 0.3805,0.3805 -0.1902,0.19026 0.1902,-0.19026 m -0.4438,0.31716 -0.063,0.12671 0.063,-0.12671 m 0.063,18.51795 v 0.76102 h -0.1903 l 0.1903,-0.76102 m 0.3804,0.38051 -0.1902,0.19026 0.1902,-0.19026 m -0.634,1.26842 -0.063,0.12671 0.063,-0.12671 m 0.634,-0.0636 c 0.1472,0 0.03,0.0947 -0.063,0.0636 l 0.063,-0.0636 m 0.3806,0.69767 -0.1903,0.19025 0.1903,-0.19025 m -34.8164,0.19025 -0.1903,0.19025 0.1903,-0.19025 m 2.283,0.19025 v 0.57077 h -0.1902 l 0.1902,-0.57077 m 32.9139,0.19027 -0.1903,0.19024 0.1903,-0.19024 m -2.5367,0.31714 -0.063,0.12671 0.063,-0.12671 m -30.5674,0.25361 -0.1903,0.19026 0.1903,-0.19026 m -2.6636,0.19026 -0.1903,0.19024 0.1903,-0.19024 m 34.1823,0.1269 -0.063,0.1267 0.063,-0.1267 m -34.753,0.2536 -0.1903,0.19025 0.1903,-0.19025 m 34.2456,0 0.3805,0.76101 h -0.1903 l -0.1902,-0.76101 m 2.4733,0.44386 c 0.1471,0 0.03,0.0947 -0.063,0.0636 l 0.063,-0.0636 m 0.761,-0.0634 -0.1903,0.19027 0.1903,-0.19027 m -34.8164,0.19027 -0.5708,0.57075 0.1903,-0.57075 h 0.3805 m 33.1041,0 -0.1903,0.19024 0.1903,-0.19024 m -36.592,0.31714 -0.063,0.12672 0.063,-0.12672 m 0.5708,0 -0.063,0.12672 0.063,-0.12672 m 38.3042,-0.1269 -0.1902,0.19026 0.1902,-0.19026 m -2.6635,0.38051 -0.1902,0.19025 0.1902,-0.19025 m 1.6489,0.12689 -0.063,0.12672 0.063,-0.12672 m -37.6068,0.0634 0.1902,0.38051 -0.1902,-0.38051 m 2.4733,0 -0.1903,0.19025 0.1903,-0.19025 m 34.0554,0 -0.1903,0.19025 0.1903,-0.19025 m -0.3806,0.19025 -0.1902,0.19026 0.1902,-0.19026 m 2.0929,0 -0.1903,0.19026 0.1903,-0.19026 m -1.3318,0.19026 -0.1903,0.19025 0.1903,-0.19025 m -0.5708,0.2536 0.063,0.0636 c -0.094,0.0312 -0.2104,-0.0636 -0.063,-0.0636 m -35.9579,0.1269 -0.1903,0.19027 0.1903,-0.19027 m 0.9513,0.25361 0.063,0.0636 c -0.094,0.0312 -0.2104,-0.0636 -0.063,-0.0636 m 35.7677,0.1269 -0.1903,0.19026 0.1903,-0.19026 m 0.5073,0.1269 -0.063,0.12672 0.063,-0.12672 m -36.8458,0.12672 c 0.1471,0 0.03,0.0947 -0.063,0.0636 z"
       id="path6263-6" />
  </g>
</svg>
