<?xml version="1.0" encoding="UTF-8" standalone="no"?>
<svg
   xmlns:dc="http://purl.org/dc/elements/1.1/"
   xmlns:cc="http://creativecommons.org/ns#"
   xmlns:rdf="http://www.w3.org/1999/02/22-rdf-syntax-ns#"
   xmlns:svg="http://www.w3.org/2000/svg"
   xmlns="http://www.w3.org/2000/svg"
   xmlns:sodipodi="http://sodipodi.sourceforge.net/DTD/sodipodi-0.dtd"
   xmlns:inkscape="http://www.inkscape.org/namespaces/inkscape"
   version="1.1"
   id="svg949"
   width="503.34747"
   height="504.60947"
   viewBox="0 0 503.34747 504.60947"
   sodipodi:docname="home.svg"
   inkscape:version="1.0.1 (3bc2e81, 2020-09-07)">
  <metadata
     id="metadata955">
    <rdf:RDF>
      <cc:Work
         rdf:about="">
        <dc:format>image/svg+xml</dc:format>
        <dc:type
           rdf:resource="http://purl.org/dc/dcmitype/StillImage" />
        <dc:title></dc:title>
      </cc:Work>
    </rdf:RDF>
  </metadata>
  <defs
     id="defs953" />
  <sodipodi:namedview
     pagecolor="#ffffff"
     bordercolor="#666666"
     borderopacity="1"
     objecttolerance="10"
     gridtolerance="10"
     guidetolerance="10"
     inkscape:pageopacity="0"
     inkscape:pageshadow="2"
     inkscape:window-width="1338"
     inkscape:window-height="696"
     id="namedview951"
     showgrid="false"
     inkscape:zoom="0.55592718"
     inkscape:cx="409.49442"
     inkscape:cy="332.38475"
     inkscape:window-x="14"
     inkscape:window-y="58"
     inkscape:window-maximized="0"
     inkscape:current-layer="g957"
     inkscape:document-rotation="0"
     inkscape:pagecheckerboard="true" />
  <g
     inkscape:groupmode="layer"
     inkscape:label="Image"
     id="g957"
     transform="translate(-669.19276,-313.15908)">
    <path
       style="fill:#ffffff;stroke:none"
       d="m 897.56744,314.49746 c -44.502,5.86023 -84.566,18.43392 -121.99996,43.91972 -25.4055,17.2964 -47.3137,40.1364 -64.3333,65.6559 -16.1321,24.189 -28.8253,51.522 -35.24155,80 -9.71014,43.097 -9.37358,88.482 3.29555,131 35.2953,118.453 155.20626,196.295 277.27926,180.715 34.862,-4.45 67.97196,-16.662 97.99996,-34.715 24.452,-14.701 45.775,-33.913 63.739,-56 93.812,-115.342 61.043,-288.479 -60.739,-369.6667 -23.186,-15.457 -48.967,-26.9467 -75.99996,-33.7067 -26.65,-6.66432 -56.53,-10.81972 -84,-7.20222 m 8,28.86112 c 24.545,-2.896 51.455,1.8718 75,8.5741 25.43996,7.2415 50.07296,19.3293 70.99996,35.5656 98.262,76.2368 116.082,221.6398 35.562,317.5748 -15.509,18.477 -33.871,34.186 -54.562,46.6 -27.083,16.25 -57.55496,26.866 -88.99996,30.234 -108.214,11.592 -211.90796,-58.394 -238.52466,-164.834 -7.814,-31.248 -8.2692,-63.372 -2.7253,-95 4.3569,-24.857 13.6801,-49.384 26.6497,-71 15.208,-25.347 34.9247,-47.3755 58.6003,-65.1049 35.19396,-26.3549 75.08996,-37.5467 117.99996,-42.6096 m 3,8.1389 c -50.277,6.6013 -94.306,19.7961 -132.99996,54.7454 -19.4297,17.5492 -35.6738,39.3582 -47.2438,62.8302 -52.4539,106.413 -4.684,239.978 104.24376,288.138 37.142,16.422 77.975,20.971 118,15.58 105.05796,-14.153 184.56196,-112.639 179.96096,-217.718 -4.074,-93.009 -69.246,-174.6888 -159.96096,-197.3734 -19.358,-4.8409 -42.039,-8.823 -62,-6.2022 m 75,213.5756 v 51 c 0,6.399 1.772,16.217 -2.09,21.772 -2.319,3.336 -6.259,3.208 -9.91,3.227 -7.617,0.04 -28.436,3.642 -32.682,-4.108 -2.542,-4.639 -1.318,-11.789 -1.318,-16.891 v -36 h -35 v 36 c 0,5.295 1.03,12.047 -1.573,16.891 -4.104,7.64 -23.962,4.157 -31.427,4.108 -3.531,-0.023 -7.695,0.038 -9.821,-3.343 -3.216,-5.114 -1.179,-15.797 -1.179,-21.656 v -53 c -3.146,2.711 -6.545,5.965 -11,5.833 -5.971,-0.176 -11.527,-7.046 -8.806,-12.833 3.029,-6.44 10.791,-11.157 15.806,-15.989 13.941,-13.434 28.48,-26.49 43,-39.296 5.471,-4.826 12.988,-15.46 21,-15.498 7.871,-0.038 15.574,9.852 21,14.628 l 40,35 c 5.827,5.129 14.233,10.317 18.127,17.155 5.30096,9.307 -6.256,16.308 -14.127,13 z"
       id="path2659" />
  </g>
</svg>
