<?xml version="1.0" encoding="UTF-8" standalone="no"?>
<svg
   xmlns:dc="http://purl.org/dc/elements/1.1/"
   xmlns:cc="http://creativecommons.org/ns#"
   xmlns:rdf="http://www.w3.org/1999/02/22-rdf-syntax-ns#"
   xmlns:svg="http://www.w3.org/2000/svg"
   xmlns="http://www.w3.org/2000/svg"
   xmlns:sodipodi="http://sodipodi.sourceforge.net/DTD/sodipodi-0.dtd"
   xmlns:inkscape="http://www.inkscape.org/namespaces/inkscape"
   version="1.1"
   id="svg2"
   width="56.32"
   height="52.480042"
   viewBox="0 0 56.320001 52.480041"
   sodipodi:docname="sde.svg"
   inkscape:version="1.0.1 (3bc2e81, 2020-09-07)">
  <metadata
     id="metadata8">
    <rdf:RDF>
      <cc:Work
         rdf:about="">
        <dc:format>image/svg+xml</dc:format>
        <dc:type
           rdf:resource="http://purl.org/dc/dcmitype/StillImage" />
        <dc:title></dc:title>
      </cc:Work>
    </rdf:RDF>
  </metadata>
  <defs
     id="defs6" />
  <sodipodi:namedview
     pagecolor="#ffffff"
     bordercolor="#666666"
     borderopacity="1"
     objecttolerance="10"
     gridtolerance="10"
     guidetolerance="10"
     inkscape:pageopacity="0"
     inkscape:pageshadow="2"
     inkscape:window-width="1366"
     inkscape:window-height="724"
     id="namedview4"
     showgrid="false"
     inkscape:zoom="4.2274307"
     inkscape:cx="26.88367"
     inkscape:cy="17.858196"
     inkscape:window-x="0"
     inkscape:window-y="44"
     inkscape:window-maximized="0"
     inkscape:current-layer="g10" />
  <g
     inkscape:groupmode="layer"
     inkscape:label="Image"
     id="g10"
     transform="translate(-32.756961,-5.0505419)">
    <path
       style="fill:#000000;stroke-width:0.32"
       d="M 39.956961,57.049912 C 38.35458,56.483381 37.05235,55.061746 36.601259,53.386514 36.394619,52.619115 36.278881,49.473525 36.315278,45.61398 36.379918,38.759529 36.093425,36.370476 34.989053,34.554479 34.64124,33.982548 33.996733,33.377757 33.556814,33.2105 c -0.707386,-0.268948 -0.799853,-0.490902 -0.799853,-1.919944 0,-1.429042 0.09247,-1.650996 0.799853,-1.919944 0.439919,-0.167257 1.084426,-0.772048 1.432239,-1.343979 1.104372,-1.815996 1.390862,-4.20505 1.326225,-11.059501 -0.03769,-3.996821 0.07696,-6.9963011 0.298941,-7.8206701 0.670912,-2.491572 3.068486,-4.089548 6.142741,-4.09412 l 1.2,-0.0018 v 1.76 1.76 h -1.390403 c -2.349209,0 -2.363423,0.04935 -2.534738,8.7999991 -0.161108,8.229223 -0.406112,9.740871 -2.035696,12.56 l -0.786141,1.36 0.786141,1.36 c 1.629584,2.819129 1.874588,4.330777 2.035696,12.56 0.171315,8.750646 0.185529,8.799999 2.534738,8.799999 h 1.390403 v 1.76 1.76 l -1.36,-0.01405 c -0.747999,-0.0077 -1.935999,-0.217696 -2.639999,-0.466598 z m 12.391202,-0.0175 c -0.978576,-0.685421 -0.919241,-1.91079 0.125671,-2.595443 0.749552,-0.491123 0.924851,-0.499187 1.68,-0.07728 1.133289,0.633174 1.289641,1.973897 0.310195,2.659929 -0.90904,0.636714 -1.222394,0.638608 -2.115866,0.0128 z m 7.288797,-0.141857 c -0.352,-0.352 -0.64,-0.856 -0.64,-1.12 0,-0.688969 1.168397,-1.76 1.92,-1.76 0.751603,0 1.920001,1.071031 1.920001,1.76 0,0.68897 -1.168398,1.76 -1.920001,1.76 -0.352,0 -0.928,-0.288 -1.28,-0.64 z m 7.751204,0.141856 c -0.978576,-0.685421 -0.919241,-1.91079 0.125671,-2.595443 0.749552,-0.491123 0.924851,-0.499187 1.68,-0.07728 1.133289,0.633174 1.289641,1.973897 0.310195,2.659929 -0.90904,0.636714 -1.222394,0.638608 -2.115866,0.0128 z m 10.488797,-1.261856 v -1.76 h 1.390403 c 2.34921,0 2.363424,-0.04935 2.534739,-8.799999 0.161108,-8.229223 0.406112,-9.740871 2.035696,-12.56 l 0.786141,-1.36 -0.786141,-1.36 c -1.629584,-2.819129 -1.874588,-4.330777 -2.035696,-12.56 C 81.630788,8.6199109 81.616574,8.5705569 79.267364,8.5705569 h -1.390403 v -1.76 -1.76 l 1.2,0.0018 c 3.074256,0.0046 5.47183,1.602549 6.142742,4.09412 0.221978,0.824369 0.336634,3.8238491 0.298941,7.8206701 -0.06464,6.854451 0.221853,9.243504 1.326224,11.059501 0.347815,0.571931 0.99232,1.176722 1.43224,1.343979 0.707386,0.268947 0.799853,0.490901 0.799853,1.919943 0,1.429042 -0.09247,1.650996 -0.799853,1.919944 -0.43992,0.167257 -1.084425,0.772048 -1.43224,1.343979 -1.104371,1.815997 -1.390861,4.20505 -1.326224,11.059501 0.03769,3.996822 -0.07696,6.9963 -0.298941,7.820671 -0.670912,2.491571 -3.068486,4.089549 -6.142742,4.094119 l -1.2,0.0018 z M 58.99696,48.009442 c 0,-0.869971 0.135008,-0.996903 1.3988,-1.31513 0.769338,-0.193721 1.633338,-0.442224 1.920001,-0.552227 0.411891,-0.158057 0.5212,0.0061 0.5212,0.782976 0,1.12608 -0.540064,1.51961 -2.519924,1.836202 -1.301072,0.208051 -1.320077,0.197228 -1.320077,-0.751821 z m -3.52,-2.958886 c 0,-0.704 0.04666,-1.28 0.103686,-1.28 0.05703,0 2.42306,-0.576 5.25785,-1.28 2.834788,-0.704 5.236132,-1.28 5.336315,-1.28 0.100182,0 0.18215,0.570451 0.18215,1.267667 0,1.441737 0.702941,1.120989 -6.301284,2.875235 -2.145703,0.537405 -4.053703,0.977097 -4.24,0.977097 -0.186295,0 -0.338717,-0.575999 -0.338717,-1.279999 z m -3.777533,-3.44 0.09753,-1.52 4.8,-1.186343 c 2.64,-0.652489 6.786775,-1.674803 9.215054,-2.271814 l 4.415049,-1.085472 -0.09505,1.605322 -0.09505,1.605318 -8.800001,2.183702 c -4.84,1.201037 -8.987891,2.184957 -9.217533,2.186493 -0.298745,0.0019 -0.389785,-0.429642 -0.32,-1.517206 z m -0.06247,-5.206979 c 0,-2.180998 -0.06279,-2.384956 -1.081344,-3.512372 -1.619984,-1.793127 -2.544,-4.469714 -2.548819,-7.383118 -0.0034,-2.066294 0.148349,-2.748512 1.032208,-4.64 2.224397,-4.760285 6.296454,-7.243557 11.877955,-7.243557 5.581502,0 9.653559,2.483272 11.877956,7.243557 0.883859,1.891488 1.035623,2.573706 1.032208,4.64 -0.0072,4.370082 -2.178665,8.221 -5.042201,8.942047 -2.031757,0.511603 -2.107962,0.484489 -2.107962,-0.749998 0,-0.854702 0.214102,-1.268712 0.929706,-1.797781 1.25742,-0.929651 2.577388,-3.448225 2.802252,-5.346859 0.815031,-6.881647 -7.218086,-12.105037 -13.722426,-8.922761 -3.538547,1.73125 -5.682589,5.367248 -5.261491,8.922761 0.222534,1.878966 1.557868,4.444608 2.814518,5.407677 0.878531,0.673287 0.91744,0.814698 0.91744,3.334346 v 2.631238 l -1.252026,0.200208 c -0.688614,0.110116 -1.480614,0.287924 -1.76,0.395136 -0.435123,0.166973 -0.507974,-0.137142 -0.507974,-2.120524 z"
       id="path837" />
  </g>
</svg>
