<?xml version="1.0" encoding="UTF-8" standalone="no"?>
<svg
   xmlns:dc="http://purl.org/dc/elements/1.1/"
   xmlns:cc="http://creativecommons.org/ns#"
   xmlns:rdf="http://www.w3.org/1999/02/22-rdf-syntax-ns#"
   xmlns:svg="http://www.w3.org/2000/svg"
   xmlns="http://www.w3.org/2000/svg"
   xmlns:sodipodi="http://sodipodi.sourceforge.net/DTD/sodipodi-0.dtd"
   xmlns:inkscape="http://www.inkscape.org/namespaces/inkscape"
   version="1.1"
   id="svg949"
   width="520.71808"
   height="352.69675"
   viewBox="0 0 520.71808 352.69675"
   sodipodi:docname="uav3.svg"
   inkscape:version="1.0.1 (3bc2e81, 2020-09-07)">
  <metadata
     id="metadata955">
    <rdf:RDF>
      <cc:Work
         rdf:about="">
        <dc:format>image/svg+xml</dc:format>
        <dc:type
           rdf:resource="http://purl.org/dc/dcmitype/StillImage" />
        <dc:title />
      </cc:Work>
    </rdf:RDF>
  </metadata>
  <defs
     id="defs953" />
  <sodipodi:namedview
     pagecolor="#ffffff"
     bordercolor="#666666"
     borderopacity="1"
     objecttolerance="10"
     gridtolerance="10"
     guidetolerance="10"
     inkscape:pageopacity="0"
     inkscape:pageshadow="2"
     inkscape:window-width="1338"
     inkscape:window-height="696"
     id="namedview951"
     showgrid="false"
     inkscape:zoom="0.72010631"
     inkscape:cx="65.54916"
     inkscape:cy="138.92323"
     inkscape:window-x="14"
     inkscape:window-y="58"
     inkscape:window-maximized="0"
     inkscape:current-layer="g957"
     inkscape:document-rotation="0" />
  <g
     inkscape:groupmode="layer"
     inkscape:label="Image"
     id="g957"
     transform="translate(-648.9242,-332.35394)">
    <path
       style="fill:#e6e6e6;stroke:none"
       d="m 835.5424,387.50733 c 9.113,-16.6526 -24.106,-22.4757 -32.397,-12.581 -6.493,7.7496 6.553,11.5639 10.973,14.4645 14.097,9.2522 36.327,9.0031 52.424,14.1165 l -27.715,29 -14.285,12.782 -16,-3.155 -37,-8.627 c 6.849,-8.099 4.232,-20.7323 -7,-23 1.019,-6.4743 9.096,-9.7803 8.123,-16.9846 -1.208,-8.9507 -20.03,-9.6072 -24.094,-2.7909 -4.983,8.3556 7.98,11.6903 7.05,17.6706 -0.449,2.8825 -4.957,4.9474 -6.645,7.1479 -2.525,3.292 -2.423,7.015 -2.434,10.957 -17.7633,-1.402 -27.5943,6.173 -39.956,19.015 -5.61,5.827 -9.6067,18.004 -2.7655,24.682 5.0839,4.962 16.9797,5.991 23.7215,7.676 18.976,4.746 37.855,10.665 57,14.627 -4.28,6.259 -12.521,19.611 -19.665,22.508 -3.613,1.466 -9.801,-1.405 -13.335,-2.357 -11.723,-3.157 -23.6544,-5.781 -35,-10.151 1.1201,-3.533 3.1003,-8.235 0.9715,-11.772 -4.9565,-8.235 -25.7026,-4.586 -31.5726,0.688 -5.8192,5.229 1.8022,9.215 6.6011,10.084 0.2791,8.393 8.2293,8.104 15,9.884 16.0792,4.228 33.469,11.673 50,13.116 -25.993,29.776 -51.5659,59.967 -77.2708,90 -8.7558,10.23 -27.5172,24.899 -31.0571,38 -2.5205,9.328 12.0264,13.258 18.3279,15.799 18.405,7.422 37.5904,10.118 57,13.625 6.808,1.23 15.401,5.492 21.829,1.348 10.227,-6.593 18.275,-22.12 25.545,-31.772 16.905,-22.444 33.949,-44.822 51.202,-67 6.435,-8.272 12.676,-16.699 19.075,-25 2.159,-2.8 5.022,-7.999 8.788,-8.731 4.972,-0.966 12.777,2.663 17.561,4.021 12.969,3.681 25.967,7.539 39,10.975 26.617,7.018 53.742,12.85 80,21.174 22.016,6.979 41.859,15.092 65,18.975 14.535,2.438 35.446,9.196 49.996,6.241 6.704,-1.361 7.562,-7.955 8.794,-13.655 3.032,-14.024 6.393,-27.973 9.42,-42 1.134,-5.253 4.195,-13.496 -1.21,-17 10.13,-24.325 28.026,-45.459 37.532,-70 3.973,-10.256 3.362,-22.286 5.678,-33 1.979,-9.155 8.844,-23.7552 6.352,-32.9846 -2.63,-9.7451 -28.076,-12.811 -36.562,-11.9074 -7.403,0.7884 -14.087,7.4833 -20,11.5509 -14.909,10.2557 -31.938,27.4401 -49,33.4831 -4.306,1.525 -9.708,-0.44 -14,-1.353 -10.746,-2.285 -21.424,-4.81 -32,-7.789 4.75,-16.2278 -19.984,-19.8618 -31,-15.3866 -4.103,1.6669 -7.379,5.8546 -12,5.9496 -7.686,0.159 -15.356,-3.8964 -23,-4.563 6.922,-14.6325 18.74,-27.8583 28.14,-41 3.749,-5.2405 9.97,-11.62351 11.436,-18.00001 1.704,-7.4091 -5.147,-9.8209 -10.576,-12.3087 -11.961,-5.4812 -26.467,-12.2316 -40,-9.0077 -7.977,1.9005 -13.449,8.7652 -19,14.3164 -10.842,10.8421 -21.151,22.15151 -32,33.00001 -4.383,4.3828 -9.282,11.3267 -15,13.9329 -9.52,4.3393 -28.96,-5.5809 -39,-6.9329 m 253,67 c -4.374,16.898 -8.089,34.014 -12.116,51 -1.632,6.886 -2.101,16.683 -6.024,22.674 -3.61,5.514 -12.377,8.778 -17.86,12.137 -13.706,8.397 -27.217,17.118 -41,25.389 -5.627,3.376 -13.218,10.365 -20,10.494 -16.875,0.321 -36.572,-9.928 -53,-13.694 3.909,-21.131 -21.194,-28.417 -38,-23.366 -5.351,1.609 -8.931,8.082 -14.09,8.874 -7.757,1.193 -21.809,-4.453 -28.91,-7.508 2.543,-6.611 12.269,-23.118 20.004,-23.762 8.806,-0.732 16.957,6.293 25.996,4.371 9.131,-1.942 17.565,-9.671 26,-13.609 0,4.122 -2.309,23.4 3.299,24.369 4.582,0.791 7.949,-8.276 9.443,-11.369 6.24,-12.922 9.802,-27.841 11.83,-42 0.578,-4.04 2.464,-16.721 -2.005,-19.079 -5.243,-2.766 -9.601,11.14 -13.66,12.878 -6.612,2.83 -19.05,-3.79 -25.907,-4.799 5.565,-11.763 14.75,-22.423 22.291,-33 2.772,-3.888 6.089,-10.633 10.799,-12.382 9.522,-3.536 28.276,5.089 37.91,7.172 35.234,7.617 70.314,15.44 105,25.21 z"
       id="path1545" />
  </g>
</svg>
